<?xml version="1.0" standalone="no"?>
<!DOCTYPE svg PUBLIC "-//W3C//DTD SVG 20010904//EN"
 "http://www.w3.org/TR/2001/REC-SVG-20010904/DTD/svg10.dtd">
<svg version="1.0" xmlns="http://www.w3.org/2000/svg"
 width="1024.000000pt" height="1024.000000pt" viewBox="0 0 1024.000000 1024.000000"
 preserveAspectRatio="xMidYMid meet">

<g transform="translate(0.000000,1024.000000) scale(0.100000,-0.100000)"
fill="#000000" stroke="none">
<path d="M4855 9944 c-103 -15 -275 -67 -322 -96 -40 -24 -43 -9 -7 38 15 19
24 37 21 40 -3 4 -36 -8 -73 -25 -177 -83 -333 -243 -393 -404 -28 -78 -29
-204 -1 -262 11 -22 27 -50 36 -62 16 -22 15 -23 -4 -23 -40 0 -131 -48 -174
-92 -94 -94 -132 -209 -131 -398 0 -163 34 -344 87 -472 5 -11 1 -18 -14 -23
-29 -9 -88 -102 -105 -166 -37 -139 4 -260 127 -374 85 -79 167 -115 261 -115
l72 0 49 -105 c102 -221 231 -357 434 -460 71 -36 72 -38 72 -76 0 -32 -5 -41
-28 -53 -39 -20 -93 -82 -127 -144 -23 -43 -36 -54 -74 -68 -97 -36 -289 -134
-348 -179 -71 -53 -128 -142 -255 -400 -214 -434 -358 -783 -358 -865 0 -13
-10 -34 -21 -46 l-22 -23 38 -153 c42 -177 57 -203 109 -200 33 2 39 -3 100
-75 35 -43 75 -87 88 -97 13 -11 55 -49 93 -84 70 -64 222 -184 302 -236 34
-23 51 -47 102 -148 l60 -120 -13 -112 c-17 -127 -25 -203 -66 -556 -38 -323
-51 -404 -60 -370 -5 15 -8 -12 -8 -65 -1 -86 -22 -296 -41 -415 -5 -30 -15
-98 -21 -150 l-12 -95 -125 -2 c-139 -2 -171 -10 -196 -52 -21 -36 -19 -37
102 -46 l91 -8 0 31 c0 49 9 62 44 62 55 0 76 -10 76 -36 0 -15 -6 -24 -15
-24 -8 0 -15 -9 -15 -21 0 -12 4 -18 11 -13 9 5 10 -8 6 -47 -4 -30 -9 -124
-12 -209 -7 -188 -10 -203 -38 -215 -20 -9 -23 -22 -34 -120 -19 -181 -17
-228 10 -252 12 -11 30 -23 40 -26 13 -5 16 -13 11 -34 -16 -70 -58 -101 -353
-259 -238 -128 -304 -181 -339 -277 -30 -79 -29 -163 1 -208 52 -78 155 -105
397 -103 191 1 265 16 500 96 190 66 343 138 366 172 15 24 16 43 11 154 -4
70 -11 165 -17 212 -23 199 -24 177 9 194 38 20 48 53 68 218 14 110 15 145 5
171 -10 28 -7 53 19 172 17 77 37 172 45 210 8 39 19 79 24 90 5 11 16 63 25
115 23 131 62 290 79 326 8 16 17 55 20 88 3 32 12 66 21 76 8 9 15 33 15 53
0 53 54 296 95 427 8 25 17 59 19 75 3 17 14 59 25 95 10 36 29 111 42 168 23
105 39 130 40 65 0 -55 32 -402 43 -481 5 -35 20 -222 36 -457 5 -77 10 -246
10 -375 0 -129 5 -317 12 -417 11 -167 10 -184 -5 -201 -19 -21 -21 -67 -7
-162 27 -182 42 -220 83 -220 22 0 22 10 -4 -352 -14 -198 -11 -222 38 -250
40 -24 327 -96 613 -154 199 -41 244 -47 395 -51 144 -4 184 -2 265 15 116 24
180 53 221 100 30 33 31 39 26 95 -3 37 -17 82 -36 121 -46 94 -112 140 -271
191 -373 118 -437 144 -572 231 -72 46 -86 74 -48 94 12 6 25 21 29 33 10 25
-10 315 -22 335 -5 6 -18 12 -29 12 -21 0 -21 2 -14 180 4 100 11 220 16 268
6 48 10 115 10 149 0 60 1 62 27 65 20 2 30 11 37 30 8 24 6 32 -18 57 l-28
29 11 723 c12 770 14 827 37 874 8 17 12 21 8 10 -3 -11 -8 -53 -10 -94 -4
-60 -2 -72 9 -63 8 7 82 11 197 12 219 2 230 4 230 36 0 21 -5 24 -35 24 -25
0 -37 -6 -46 -22 -12 -22 -12 -22 -20 -3 -16 41 -11 45 49 42 l57 -2 6 40 c7
42 12 38 9 -7 -2 -29 13 -36 68 -30 31 4 32 6 30 46 l-3 41 -101 0 c-79 1
-107 5 -128 18 -22 15 -26 15 -26 2 0 -8 -8 -15 -17 -16 -130 -6 -142 -4 -139
16 2 15 11 19 47 20 l44 0 0 45 0 45 -50 1 c-99 1 -102 2 -101 27 1 21 5 22
76 22 l75 0 3 34 c4 43 -3 49 -59 52 -47 3 -47 3 -37 31 9 25 14 28 46 26 35
-3 36 -2 43 37 4 25 3 43 -4 47 -8 5 -7 15 3 35 8 15 15 37 16 48 1 11 14 56
29 100 14 44 34 128 43 188 15 97 19 107 38 107 48 0 55 38 47 224 l-6 150
-32 35 c-18 20 -65 106 -105 191 -40 85 -96 198 -125 250 -29 52 -90 163 -135
245 -176 317 -211 367 -301 425 -32 21 -93 52 -136 69 -66 27 -82 38 -105 74
-31 49 -104 128 -142 153 -21 13 -26 24 -24 47 3 27 8 31 53 43 229 59 454
224 538 394 20 42 49 121 63 177 l27 102 52 25 c68 34 138 104 172 174 23 47
28 72 31 155 4 94 3 101 -28 163 -22 46 -43 72 -71 91 -21 14 -39 27 -39 29 0
2 20 63 44 137 53 158 93 334 101 437 8 92 13 120 23 120 17 0 57 -104 57
-147 0 -24 3 -43 7 -43 11 0 57 60 81 104 19 36 22 56 22 166 0 110 -3 130
-22 167 -36 66 -26 73 29 18 39 -40 72 -99 92 -165 l13 -45 8 53 c4 28 4 76 0
105 -22 171 -83 296 -209 425 -33 34 -57 62 -54 62 10 0 96 -49 145 -81 22
-16 60 -50 83 -76 l42 -48 -23 45 c-114 232 -385 410 -714 471 -33 6 -125 14
-205 18 -115 6 -162 13 -230 35 -47 15 -123 33 -169 41 -105 19 -382 18 -506
-1z m540 -39 c98 -22 109 -39 20 -29 -115 13 -395 7 -513 -11 -244 -38 -458
-130 -596 -256 -128 -118 -179 -228 -159 -348 8 -51 7 -59 -4 -49 -8 6 -24 30
-35 52 -17 33 -20 53 -16 118 7 113 63 223 167 328 78 78 183 154 203 148 6
-2 -19 -31 -57 -64 -112 -98 -174 -169 -175 -199 0 -5 22 13 48 41 141 154
340 240 657 288 69 10 392 -3 460 -19z m547 -85 c175 -30 373 -105 448 -169
l25 -22 -35 15 c-19 7 -62 26 -95 41 -89 40 -304 92 -440 106 -138 14 -363 7
-543 -17 -64 -8 -135 -17 -157 -20 l-40 -4 45 15 c55 18 223 53 310 64 128 17
361 12 482 -9z m-1772 -707 c0 -5 -21 -16 -46 -27 -25 -10 -62 -35 -81 -55
-43 -44 -96 -154 -113 -236 -20 -98 -16 -312 10 -452 21 -117 22 -153 1 -153
-14 0 -41 75 -68 190 -33 142 -41 327 -20 432 33 156 115 265 227 299 33 10
90 11 90 2z m665 -124 c635 -78 745 -89 890 -88 72 0 166 6 210 14 111 20 110
20 123 -22 45 -152 61 -450 52 -958 -7 -354 -10 -399 -30 -484 -41 -171 -89
-268 -183 -362 -193 -196 -511 -295 -793 -245 -306 53 -574 214 -721 431 -78
116 -128 238 -111 269 9 16 7 16 -10 7 -32 -17 -156 -13 -204 6 -151 59 -256
188 -266 323 -8 104 42 225 110 265 51 29 143 26 201 -8 57 -34 77 -60 130
-166 l42 -85 12 190 c24 374 67 705 101 785 21 49 95 123 145 145 35 15 45 14
302 -17z m1525 -226 c0 -5 -9 -62 -20 -128 -19 -117 -54 -252 -104 -405 -37
-110 -31 -66 10 82 39 142 68 286 79 391 5 47 11 67 21 67 8 0 14 -3 14 -7z
m-98 -670 c55 -38 98 -128 98 -208 0 -97 -32 -184 -90 -246 -8 -9 -42 -35 -75
-59 -58 -40 -60 -41 -63 -19 -6 34 18 137 34 150 8 6 14 20 14 31 0 13 5 18
14 15 9 -4 16 4 20 24 3 17 12 29 21 29 18 0 20 -16 3 -23 -8 -3 -6 -6 5 -6
13 -1 17 7 17 37 0 21 -5 43 -12 50 -7 7 -8 12 -4 12 5 0 -3 9 -18 21 -14 11
-24 24 -21 29 9 15 45 -2 71 -32 28 -34 40 -32 28 4 -4 13 -7 27 -6 31 1 5 -2
6 -8 2 -5 -3 -13 0 -16 8 -3 8 -24 18 -47 22 -33 5 -38 9 -22 14 17 7 16 9 -9
15 -22 5 -25 10 -16 21 9 11 6 14 -12 17 -18 2 -24 10 -26 36 -5 55 3 65 46
57 20 -3 54 -18 74 -32z m-1370 -1322 c117 -82 226 -122 333 -124 61 -1 77 2
119 27 26 15 49 26 50 24 3 -5 36 -183 36 -197 0 -7 -26 -24 -57 -39 -48 -22
-71 -26 -135 -24 -134 2 -281 52 -332 113 -16 19 -39 57 -52 85 -24 54 -43
174 -28 174 5 0 35 -18 66 -39z m-60 -166 c16 -33 53 -97 80 -143 28 -45 49
-85 46 -88 -3 -2 -29 21 -58 53 -30 32 -57 57 -62 55 -5 -1 -7 2 -4 7 3 5 -10
42 -29 83 -20 41 -39 94 -43 118 l-8 45 -22 -43 c-12 -24 -19 -48 -16 -54 4
-6 3 -8 -3 -5 -10 6 -52 -76 -54 -105 0 -7 -4 -4 -9 7 -25 57 0 127 77 214
l47 54 14 -69 c7 -38 27 -96 44 -129z m674 63 c34 -35 70 -79 82 -98 29 -49
68 -157 76 -210 l7 -45 -22 35 c-12 19 -37 70 -55 113 -41 99 -72 150 -123
209 -23 25 -41 49 -41 52 0 16 21 1 76 -56z m-896 -94 c0 -10 -34 -31 -94 -59
-122 -57 -239 -128 -269 -164 -18 -22 -28 -27 -41 -19 -15 9 -16 7 -5 -10 11
-17 9 -25 -12 -54 -44 -58 -133 -225 -272 -508 -73 -151 -141 -291 -149 -310
-27 -58 -108 -268 -108 -277 0 -4 -9 -14 -20 -21 -11 -7 -20 -9 -20 -4 0 15
98 278 143 382 119 275 316 678 383 780 55 85 135 138 354 236 110 49 110 49
110 28z m938 -56 c-1 -7 4 -23 11 -36 11 -20 10 -26 -3 -41 -8 -9 -20 -28 -26
-41 -8 -20 -9 -15 -4 25 4 28 6 57 6 65 0 20 6 40 13 40 3 0 5 -6 3 -12z m213
-55 c49 -25 104 -59 122 -74 63 -52 315 -486 464 -798 46 -97 92 -193 102
-213 15 -30 16 -38 6 -38 -8 0 -19 6 -24 13 -6 6 -75 140 -154 297 -143 284
-252 484 -301 557 l-26 38 5 -30 c3 -16 12 -68 20 -114 17 -94 58 -455 76
-666 6 -77 17 -203 24 -280 15 -162 15 -522 0 -533 -5 -4 -10 -14 -10 -22 0
-8 -8 -14 -17 -14 -11 1 -18 -5 -18 -17 0 -30 -20 -22 -21 9 -1 21 -2 22 -6 7
-3 -11 -10 -23 -17 -28 -14 -9 -58 1 -69 16 -6 8 -7 6 -3 -5 3 -12 -2 -18 -17
-21 -13 -3 -11 -3 6 -2 15 1 24 -2 20 -6 -4 -4 -27 -9 -50 -10 -44 -3 -57 -14
-25 -22 9 -2 -1 -4 -22 -4 -22 0 -42 -5 -44 -11 -2 -7 -10 -12 -17 -12 -15 0
-19 32 -40 305 -8 110 -17 216 -20 235 -2 19 -7 80 -10 135 -4 55 -9 108 -12
119 -3 11 -1 16 5 12 5 -3 12 -19 15 -36 7 -30 31 -41 40 -17 3 6 6 2 6 -9 1
-26 -24 -52 -32 -32 -3 7 -3 -7 -1 -31 6 -82 75 -112 132 -58 15 14 36 26 47
26 17 0 120 8 136 10 3 1 2 36 -2 79 -4 42 -13 127 -18 187 -6 61 -11 127 -11
149 0 34 -2 37 -16 25 -10 -8 -14 -22 -11 -38 5 -24 4 -24 -8 -7 -8 10 -21 16
-29 13 -8 -3 -17 1 -20 9 -3 8 -19 14 -40 14 -26 0 -35 5 -39 22 -4 12 -4 24
-2 27 3 2 5 -1 5 -7 0 -7 16 -12 40 -12 45 0 62 20 37 45 -22 21 -74 20 -81
-2 -3 -11 -4 -7 -3 7 2 23 6 25 49 25 55 0 51 12 -7 18 l-40 4 43 1 c30 2 42
6 42 17 0 11 -11 15 -42 15 -67 0 -38 9 35 11 67 2 68 2 63 28 -5 24 -13 94
-36 311 -5 47 -12 99 -15 115 -2 17 -6 49 -8 72 -2 24 -12 52 -22 63 -19 21
-41 28 -29 8 4 -7 3 -8 -5 -4 -6 4 -9 12 -6 17 7 10 -69 60 -130 86 -42 17
-91 73 -64 73 6 0 51 -21 100 -47z m-672 -39 c65 -19 204 -21 257 -4 21 7 51
21 66 32 29 20 32 18 42 -28 7 -30 5 -32 -56 -60 -57 -26 -73 -28 -168 -28
-177 2 -231 27 -284 132 l-17 33 54 -31 c30 -16 78 -37 106 -46z m-487 44 c-7
-7 -13 -21 -13 -32 -1 -17 -2 -17 -6 -4 -5 19 15 63 25 54 3 -4 0 -12 -6 -18z
m15 -40 c-3 -7 -5 -2 -5 12 0 14 2 19 5 13 2 -7 2 -19 0 -25z m206 -49 c-9 -9
-12 -7 -10 9 1 14 5 18 11 12 7 -7 6 -14 -1 -21z m924 -56 c-3 -10 -5 -4 -5
12 0 17 2 24 5 18 2 -7 2 -21 0 -30z m-278 -40 c6 -38 20 -135 32 -218 11 -82
23 -165 25 -184 3 -18 8 -30 11 -27 10 10 33 -65 36 -119 2 -27 9 -60 15 -71
16 -30 64 -470 57 -521 -4 -25 -2 -44 5 -48 6 -4 10 -21 10 -38 0 -18 5 -70
10 -117 20 -163 37 -395 29 -404 -11 -12 -189 -14 -253 -3 -46 9 -63 8 -89 -5
-34 -16 -193 -24 -241 -12 l-27 6 6 337 c9 549 -15 1108 -55 1330 -11 58 -18
107 -15 109 3 3 24 -1 47 -8 129 -38 292 -17 356 47 23 23 30 15 41 -54z m263
15 c2 -29 1 -62 -3 -73 -3 -12 -7 7 -8 44 -1 35 -4 67 -7 72 -3 5 -1 9 4 9 6
0 12 -24 14 -52z m-332 34 c0 -15 -52 -33 -74 -26 -17 6 -13 9 24 19 25 7 46
13 48 14 1 0 2 -3 2 -7z m-1145 -22 c3 -5 1 -10 -4 -10 -6 0 -11 5 -11 10 0 6
2 10 4 10 3 0 8 -4 11 -10z m26 -37 c13 -16 12 -17 -3 -4 -10 7 -18 15 -18 17
0 8 8 3 21 -13z m409 -25 c11 -24 20 -54 21 -68 0 -14 3 -19 6 -11 7 16 44
-53 42 -78 -1 -16 -4 -10 -23 44 -6 16 -15 20 -49 19 -25 -1 -30 1 -14 3 27 4
29 6 22 41 -4 20 -10 42 -14 47 -11 14 -21 45 -15 45 3 0 14 -19 24 -42z m216
1 c12 -14 11 -17 -11 -27 -43 -20 -32 -40 18 -35 33 4 48 1 62 -13 18 -18 19
-18 12 -1 -4 10 -7 31 -8 45 0 20 -2 23 -7 10 -8 -20 -21 -13 -41 22 -13 24
-13 25 6 8 14 -13 22 -15 31 -6 13 13 28 -19 38 -84 7 -39 6 -40 -14 -29 -11
6 -24 16 -27 21 -3 6 -21 10 -38 10 -59 0 -84 -81 -40 -130 12 -13 20 -26 17
-29 -13 -13 -52 56 -51 89 1 19 -3 37 -8 39 -6 1 -9 -12 -8 -30 2 -33 2 -33
-8 5 -14 58 -21 58 -15 1 5 -48 5 -49 -5 -13 -8 27 -15 35 -27 31 -25 -10 -9
20 50 90 29 34 55 58 57 52 2 -5 10 -17 17 -26z m-592 -14 c-4 -8 -11 -12 -16
-9 -6 4 -5 10 3 15 19 12 19 11 13 -6z m1581 5 c3 -5 1 -10 -4 -10 -6 0 -11 5
-11 10 0 6 2 10 4 10 3 0 8 -4 11 -10z m-1218 -62 c-3 -7 -5 -2 -5 12 0 14 2
19 5 13 2 -7 2 -19 0 -25z m253 28 c0 -2 -11 -6 -25 -8 -14 -3 -25 -1 -25 3 0
5 11 9 25 9 14 0 25 -2 25 -4z m730 -26 c11 -8 9 -9 -11 -5 -19 5 -34 -1 -57
-20 -36 -30 -43 -21 -12 13 22 23 55 28 80 12z m-1355 -37 c14 -15 25 -32 24
-38 0 -5 -3 -4 -6 3 -2 6 -10 12 -16 12 -7 0 -17 11 -24 25 -14 32 -10 31 22
-2z m669 -26 c11 -31 -6 -57 -38 -57 -28 0 -46 18 -46 46 0 56 65 64 84 11z
m686 28 c26 -32 5 -95 -32 -95 -14 0 -48 39 -48 55 0 19 35 55 54 55 7 0 19
-7 26 -15z m-1543 -47 c-3 -8 -6 -5 -6 6 -1 11 2 17 5 13 3 -3 4 -12 1 -19z
m264 -14 c-5 -16 -10 -21 -10 -12 -1 18 10 51 15 45 2 -1 -1 -16 -5 -33z m359
5 c0 -3 -22 -6 -50 -8 -27 -1 -50 2 -50 8 0 5 18 7 40 4 34 -5 40 -3 40 13 0
16 2 17 10 4 5 -8 10 -18 10 -21z m-397 -25 c-1 -10 5 -30 13 -46 21 -40 17
-48 -6 -10 -11 18 -20 39 -20 47 0 8 -8 19 -17 24 -15 9 -14 10 7 7 17 -2 24
-9 23 -22z m690 -114 l6 -75 -24 70 c-20 61 -22 75 -12 108 l12 38 6 -33 c4
-18 9 -67 12 -108z m894 108 c-3 -8 -6 -5 -6 6 -1 11 2 17 5 13 3 -3 4 -12 1
-19z m-223 -26 c-7 -33 -18 -40 -30 -20 -4 6 -3 8 4 4 6 -3 13 6 17 25 9 40
17 32 9 -9z m-124 2 c0 -8 5 -14 12 -14 6 0 8 -3 5 -6 -9 -10 -37 16 -37 33 0
8 5 11 10 8 6 -3 10 -13 10 -21z m-726 -10 c5 -14 4 -15 -9 -4 -17 14 -19 20
-6 20 5 0 12 -7 15 -16z m125 -21 c-1 -17 -3 -21 -6 -10 -2 9 -10 17 -16 17
-7 0 -6 4 3 10 20 13 20 13 19 -17z m-629 -29 c13 -32 12 -37 0 -29 -5 3 -10
-2 -11 -12 0 -16 -1 -16 -9 2 -12 28 -12 65 0 65 6 0 15 -12 20 -26z m1248
-24 c0 -27 -2 -50 -4 -50 -7 0 -25 81 -19 90 14 23 24 7 23 -40z m-1208 -18
c0 -15 -2 -15 -10 -2 -13 20 -13 33 0 25 6 -3 10 -14 10 -23z m490 -22 c0 -5
-4 -10 -10 -10 -5 0 -10 5 -10 10 0 6 5 10 10 10 6 0 10 -4 10 -10z m77 -42
c-3 -7 -5 -2 -5 12 0 14 2 19 5 13 2 -7 2 -19 0 -25z m662 -56 c1 -13 -3 -20
-9 -17 -5 3 -10 25 -9 48 1 36 2 38 9 17 4 -14 8 -35 9 -48z m-1299 18 c0 -5
-7 -7 -15 -4 -8 4 -15 8 -15 10 0 2 7 4 15 4 8 0 15 -4 15 -10z m90 -5 c0 -8
-4 -15 -8 -15 -5 0 -14 -10 -20 -22 -10 -21 -11 -20 -11 15 -1 31 2 37 19 37
11 0 20 -7 20 -15z m623 -91 c-12 -10 -11 -13 2 -18 17 -6 21 -36 4 -36 -5 0
-8 4 -5 9 5 8 -38 21 -70 21 -45 0 -71 -85 -37 -122 19 -22 70 -24 99 -3 21
14 21 14 28 -168 8 -209 1 -921 -9 -938 -8 -12 -170 -5 -260 11 -27 5 -81 12
-119 15 -61 6 -72 11 -102 42 -21 21 -34 45 -35 61 0 15 0 79 -1 142 0 63 -3
100 -5 83 -2 -18 -8 -33 -14 -33 -5 0 -8 42 -7 98 1 92 2 94 9 37 6 -54 7 -51
6 35 0 52 4 104 9 115 5 11 9 43 9 72 0 28 4 49 8 46 5 -3 7 -30 5 -59 -2 -30
-1 -54 4 -54 4 0 8 25 8 56 0 52 1 55 23 52 16 -2 23 -11 25 -33 5 -52 10 -59
29 -44 9 8 14 9 10 3 -6 -11 74 -24 145 -24 24 0 27 2 16 14 -7 8 -17 11 -22
8 -5 -3 -6 0 -2 7 4 6 11 9 16 6 4 -3 10 2 14 10 7 19 36 20 36 0 0 -17 29
-34 48 -28 6 3 12 0 12 -5 0 -6 16 -16 36 -22 32 -11 39 -10 63 7 14 11 30 32
35 46 8 21 5 29 -19 51 -15 14 -23 26 -16 26 6 0 11 5 11 11 0 7 -7 8 -17 4
-10 -4 -29 -9 -43 -11 -14 -1 -35 -15 -47 -29 -13 -14 -23 -21 -23 -15 0 18
51 60 74 60 22 1 88 28 71 29 -6 1 -9 22 -8 49 l1 47 -7 -45 -8 -45 -1 43 c-2
30 -6 42 -17 42 -11 0 -15 -11 -15 -39 0 -31 4 -41 21 -46 11 -4 18 -9 15 -12
-3 -3 -18 -1 -34 5 -17 6 -34 7 -38 2 -5 -4 -22 -10 -39 -13 -16 -4 -24 -4
-16 0 11 5 11 7 0 15 -10 7 -8 8 8 3 19 -5 21 -1 25 47 3 36 0 58 -10 70 -9
11 -12 27 -7 47 4 19 1 40 -9 58 -11 20 -15 23 -16 11 0 -24 -80 -26 -80 -3 0
11 -11 15 -40 15 l-40 0 0 40 0 40 -65 0 -65 0 0 -40 c0 -34 -3 -40 -21 -40
-19 0 -21 4 -16 35 7 43 28 65 61 65 14 0 26 5 26 10 0 11 -39 13 -64 4 -9 -3
-16 -12 -16 -19 0 -7 -4 -15 -9 -17 -11 -3 -16 -52 -12 -118 2 -33 4 -40 10
-26 9 24 2 -142 -9 -199 -4 -25 -6 4 -4 75 1 81 0 97 -5 55 l-7 -60 -4 58 c-3
31 -2 57 3 57 4 0 7 19 7 43 0 32 -3 38 -11 27 -8 -12 -9 -11 -5 5 14 54 15
73 7 105 l-9 35 -2 -45 -3 -45 -8 50 c-4 28 -11 64 -14 81 l-7 31 119 8 c65 5
152 9 193 9 41 1 80 4 85 7 6 4 19 3 29 -1 22 -7 12 -17 -32 -30 l-27 -8 30
-1 30 -2 -24 -13 -24 -13 26 0 c15 0 24 3 21 8 -3 5 1 9 8 9 10 0 10 2 -1 9
-18 11 1 23 26 15 15 -5 16 -4 3 6 -12 9 -9 10 16 5 16 -3 41 -2 54 3 21 8 24
15 23 58 l-1 49 8 -50 c6 -38 4 -53 -7 -61z m588 19 c-12 -20 -14 -14 -5 12 4
9 9 14 11 11 3 -2 0 -13 -6 -23z m74 0 c-11 -3 -29 -12 -40 -22 -20 -16 -20
-16 -1 7 11 12 29 21 40 21 20 -1 20 -2 1 -6z m29 -26 c35 -26 17 -97 -25 -97
-36 0 -52 66 -23 94 19 19 25 20 48 3z m68 -21 c4 -6 5 -17 3 -25 -4 -11 -2
-11 8 -2 9 7 12 22 9 38 -3 18 -1 24 7 19 14 -9 15 -63 1 -71 -6 -3 -7 -17 -4
-29 4 -16 -2 -31 -19 -50 -14 -15 -30 -44 -35 -64 -6 -20 -10 -29 -11 -20 -1
9 -9 19 -18 21 -14 4 -12 5 5 6 12 0 22 5 22 11 0 5 -7 7 -15 4 -18 -7 -20 12
-2 19 9 4 9 7 -1 15 -10 7 -9 12 4 23 16 12 17 12 9 -1 -6 -12 -5 -12 5 -3 7
6 15 33 18 58 4 42 2 50 -19 67 l-24 19 25 -12 c14 -7 28 -17 32 -23z m-158 8
c3 -8 2 -12 -4 -9 -6 3 -10 10 -10 16 0 14 7 11 14 -7z m-624 -39 c15 -19 6
-61 -16 -69 -39 -15 -76 27 -60 69 7 19 60 20 76 0z m691 -90 c10 -4 19 -11
19 -16 0 -6 -8 -8 -17 -5 -15 5 -18 0 -16 -27 1 -17 2 -46 2 -63 1 -23 7 -33
22 -37 28 -8 24 -70 -6 -76 -11 -2 -24 -8 -28 -15 -5 -7 -7 -6 -6 4 1 8 -1 42
-5 75 -5 33 -10 71 -11 85 -2 14 -6 37 -9 53 -3 15 -9 39 -12 54 l-5 27 26
-27 c15 -14 36 -29 46 -32z m577 10 c-3 -3 -9 2 -12 12 -6 14 -5 15 5 6 7 -7
10 -15 7 -18z m-2055 -130 c-3 -9 -8 -14 -10 -11 -3 3 -2 9 2 15 9 16 15 13 8
-4z m617 0 c0 -8 -6 -15 -12 -15 -7 0 -23 -3 -35 -6 -13 -4 -23 -2 -23 3 0 11
37 31 58 32 6 1 12 -6 12 -14z m917 -7 c-3 -8 -6 -5 -6 6 -1 11 2 17 5 13 3
-3 4 -12 1 -19z m-877 -58 c0 -22 -4 -40 -10 -40 -5 0 -10 18 -10 40 0 22 5
40 10 40 6 0 10 -18 10 -40z m900 36 c0 -3 -4 -8 -10 -11 -5 -3 -10 -1 -10 4
0 6 5 11 10 11 6 0 10 -2 10 -4z m-1444 -93 c-3 -21 -6 -147 -6 -281 0 -160
-3 -241 -10 -237 -6 4 -7 23 -4 45 9 54 -47 306 -71 324 -13 10 -9 22 30 86
24 41 45 81 45 88 0 6 5 12 11 12 8 0 10 -13 5 -37z m244 -23 c0 -22 -4 -40
-10 -40 -5 0 -10 18 -10 40 0 22 5 40 10 40 6 0 10 -18 10 -40z m57 -22 c-2
-13 -4 -3 -4 22 0 25 2 35 4 23 2 -13 2 -33 0 -45z m193 47 c-7 -8 -10 -26 -8
-40 5 -21 1 -25 -27 -31 -18 -3 -43 -4 -56 -1 -15 2 -7 5 19 6 l42 1 0 40 c0
34 3 40 21 40 18 0 19 -2 9 -15z m1110 11 c0 -3 -4 -8 -10 -11 -5 -3 -10 -1
-10 4 0 6 5 11 10 11 6 0 10 -2 10 -4z m544 -58 c24 -22 26 -30 32 -157 6
-113 5 -133 -7 -129 -10 3 -16 33 -21 113 -3 59 -9 117 -12 130 -9 36 -47 45
-166 42 -61 -2 -108 -2 -107 0 11 10 95 21 169 22 77 1 90 -2 112 -21z m-1504
-44 c0 -2 -7 -4 -15 -4 -8 0 -15 4 -15 10 0 5 7 7 15 4 8 -4 15 -8 15 -10z
m835 6 c8 -13 -5 -13 -25 0 -13 8 -13 10 2 10 9 0 20 -4 23 -10z m-901 -25
c-10 -8 -23 -15 -28 -15 -6 0 -1 7 10 15 10 8 23 15 28 15 6 0 1 -7 -10 -15z
m890 -1 c9 -3 16 -11 16 -16 0 -6 -6 -5 -15 2 -12 10 -18 10 -30 0 -14 -12
-22 0 -8 13 8 9 17 9 37 1z m-1004 -24 c0 -5 -19 -9 -42 -9 l-43 2 40 7 c22 4
41 8 43 9 1 0 2 -3 2 -9z m194 -16 c29 -29 18 -61 -26 -77 -21 -7 -48 17 -48
43 0 22 25 50 45 50 7 0 21 -7 29 -16z m1015 -7 c-11 -24 -65 -51 -74 -38 -6
11 5 21 25 21 9 0 25 9 35 20 24 26 27 25 14 -3z m-1840 -13 c66 -19 60 -30
-9 -15 -76 16 -248 13 -334 -5 -42 -10 -73 -20 -71 -25 3 -4 -3 -5 -12 -3 -10
3 -38 -6 -63 -18 -35 -18 -45 -28 -44 -47 l1 -23 -18 23 c-22 29 -19 34 40 63
139 71 366 93 510 50z m1655 10 c11 -29 6 -53 -13 -64 -29 -15 -39 -13 -56 14
-13 19 -14 29 -5 45 13 26 65 29 74 5z m43 -36 c-3 -8 -6 -5 -6 6 -1 11 2 17
5 13 3 -3 4 -12 1 -19z m-973 -18 c-6 -6 -10 -3 -10 10 0 13 4 16 10 10 7 -7
7 -13 0 -20z m-674 0 c0 -5 -4 -10 -10 -10 -5 0 -10 5 -10 10 0 6 5 10 10 10
6 0 10 -4 10 -10z m157 -142 c-2 -18 -4 -4 -4 32 0 36 2 50 4 33 2 -18 2 -48
0 -65z m-152 62 c3 -5 1 -10 -4 -10 -6 0 -11 5 -11 10 0 6 2 10 4 10 3 0 8 -4
11 -10z m282 -30 c1 -22 1 -22 -4 -2 -3 17 -11 22 -36 22 -29 -1 -30 -2 -12
-12 30 -16 30 -17 9 -32 -18 -14 -18 -15 -1 -33 19 -22 22 -33 7 -33 -5 0 -10
7 -10 15 0 8 -4 15 -9 15 -4 0 -12 14 -17 31 -5 17 -13 30 -18 29 -8 -2 -26
19 -26 30 0 3 26 3 58 0 52 -5 57 -7 59 -30z m-854 -39 c4 -29 2 -40 -4 -30
-8 13 -14 88 -5 78 2 -2 6 -24 9 -48z m2772 -1 c27 -10 27 -11 20 -88 -13
-154 -49 -274 -139 -457 -46 -93 -105 -219 -130 -280 -47 -112 -82 -167 -94
-149 -4 5 -33 26 -64 47 -31 21 -68 53 -81 70 -23 31 -24 37 -18 130 1 5 6 5
11 2 6 -4 10 5 10 19 0 23 -6 20 -64 -39 -36 -35 -88 -76 -116 -90 -48 -25
-53 -25 -76 -10 -48 31 -34 60 87 177 97 95 123 114 215 160 100 49 105 54
115 92 18 64 28 171 29 293 l0 112 58 6 c31 3 66 7 77 9 48 8 136 5 160 -4z
m-2328 -56 c-3 -3 -12 -4 -19 -1 -8 3 -5 6 6 6 11 1 17 -2 13 -5z m90 0 c-3
-3 -12 -4 -19 -1 -8 3 -5 6 6 6 11 1 17 -2 13 -5z m190 -66 c-2 -13 -4 -3 -4
22 0 25 2 35 4 23 2 -13 2 -33 0 -45z m110 -40 c-2 -13 -4 -3 -4 22 0 25 2 35
4 23 2 -13 2 -33 0 -45z m-210 15 c21 -21 66 -74 101 -118 35 -44 96 -116 135
-160 l72 -80 55 -1 c72 -1 171 -34 240 -80 30 -20 99 -74 153 -121 82 -71 97
-88 91 -106 -10 -36 -35 -49 -82 -44 -41 4 -80 27 -185 103 -45 33 -55 27 -28
-17 26 -43 26 -69 1 -102 -32 -41 -165 -118 -236 -138 -64 -18 -64 -18 -84 4
-29 31 -79 121 -105 191 -21 58 -26 63 -96 105 -92 54 -221 154 -318 246 -89
84 -223 243 -219 257 6 16 155 66 233 78 98 14 123 17 182 19 48 1 55 -2 90
-36z m1722 -288 c-3 -2 -23 -12 -44 -21 -34 -14 -37 -14 -26 -1 11 14 27 20
65 26 5 0 7 -1 5 -4z m-96 -32 c-7 -2 -19 -2 -25 0 -7 3 -2 5 12 5 14 0 19 -2
13 -5z m-402 -26 c43 -29 63 -69 63 -130 0 -54 -23 -91 -73 -121 -39 -23 -128
-23 -171 -1 -93 48 -93 206 -1 255 53 28 138 27 182 -3z m-37 -365 c10 -30 12
-225 3 -249 -5 -13 -27 -36 -51 -52 l-42 -29 4 156 c2 87 6 159 7 161 2 1 8 0
14 -4 7 -4 11 -53 11 -130 0 -72 4 -126 10 -130 12 -7 12 -9 10 140 -1 117 4
155 20 155 5 0 11 -8 14 -18z m86 -2 c0 -13 -5 -18 -15 -14 -8 4 -15 12 -15
20 0 8 7 14 15 14 8 0 15 -9 15 -20z m728 -65 c-11 -11 -98 -8 -98 3 0 5 15 7
33 5 23 -3 28 -2 18 5 -11 8 -8 11 15 14 18 2 30 -2 32 -10 2 -8 2 -15 0 -17z
m-1433 -5 c-10 -11 -20 -18 -23 -16 -5 6 21 35 32 36 5 0 1 -9 -9 -20z m279
-8 c-11 -13 -24 -17 -42 -14 l-27 5 30 13 c44 19 58 18 39 -4z m-101 -19 c-13
-2 -33 -2 -45 0 -13 2 -3 4 22 4 25 0 35 -2 23 -4z m1387 -3 c0 -5 -5 -10 -11
-10 -5 0 -7 5 -4 10 3 6 8 10 11 10 2 0 4 -4 4 -10z m-1540 -4 c0 -2 -8 -10
-17 -17 -16 -13 -17 -12 -4 4 13 16 21 21 21 13z m240 -6 c18 -12 2 -12 -25 0
-13 6 -15 9 -5 9 8 0 22 -4 30 -9z m983 -61 c15 -65 -14 -1142 -53 -1944 -17
-349 -21 -395 -36 -395 -17 0 -17 0 1 373 30 634 56 1465 55 1755 -1 107 1
196 4 200 12 12 5 30 -14 35 -11 3 -20 10 -20 15 0 6 11 7 27 3 21 -5 29 -16
36 -42z m194 29 c-3 -8 -6 -5 -6 6 -1 11 2 17 5 13 3 -3 4 -12 1 -19z m-1607
-33 c-14 -8 -32 -14 -40 -14 -8 0 -1 6 15 14 40 18 57 18 25 0z m1598 3 c-18
-11 -98 -10 -98 2 0 5 25 9 55 8 33 -1 50 -5 43 -10z m136 4 c2 -4 -2 -15 -9
-25 -11 -16 -12 -15 -12 8 0 24 11 33 21 17z m-369 -13 c-4 -6 -11 -23 -15
-37 -7 -24 -8 -23 -7 11 0 25 5 37 14 37 8 0 11 -5 8 -11z m-1365 -59 c11 -7
5 -9 -23 -8 -24 1 -33 4 -25 9 17 11 30 11 48 -1z m576 -303 c-127 -442 -274
-1056 -432 -1792 -43 -200 -55 -238 -71 -222 -7 8 4 61 149 717 50 228 91 430
91 448 0 18 3 28 7 23 3 -6 37 117 74 272 75 309 135 524 198 717 54 166 51
160 56 127 2 -15 -30 -145 -72 -290z m794 217 c0 -19 -4 -34 -9 -34 -5 0 -12
-8 -14 -17 -2 -10 -3 -5 -1 11 2 16 4 42 4 58 0 17 4 27 10 23 6 -3 10 -22 10
-41z m-568 -396 c-7 -7 -12 -8 -12 -2 0 14 12 26 19 19 2 -3 -1 -11 -7 -17z
m-965 -110 c-3 -8 -6 -5 -6 6 -1 11 2 17 5 13 3 -3 4 -12 1 -19z m20 -30 c-3
-8 -6 -5 -6 6 -1 11 2 17 5 13 3 -3 4 -12 1 -19z m1462 -714 c-15 -50 -44 -82
-104 -113 -66 -35 -131 -20 -118 28 7 27 55 74 100 97 21 10 40 21 43 24 3 3
23 15 45 27 40 22 40 22 43 2 2 -12 -2 -41 -9 -65z m-1130 -28 c-32 -47 -102
-88 -159 -94 -55 -5 -72 10 -43 39 26 26 217 111 221 98 2 -5 -6 -25 -19 -43z
m-789 -348 l0 -33 -85 0 c-47 0 -85 1 -85 3 0 1 10 12 21 23 25 25 60 37 112
38 35 1 37 0 37 -31z m170 -599 c40 -17 105 -37 144 -46 81 -17 255 -19 335
-3 29 5 59 10 66 10 9 0 7 -34 -6 -137 -10 -76 -23 -148 -28 -159 -8 -17 -25
-24 -93 -34 -151 -24 -227 -18 -370 30 -70 23 -134 50 -142 59 -15 16 -15 34
-4 164 6 81 15 147 19 147 4 0 40 -14 79 -31z m1835 -21 c3 -29 7 -100 8 -158
l2 -104 -45 -22 c-67 -33 -187 -48 -331 -41 -68 3 -134 9 -145 12 -20 6 -23
20 -39 146 -10 76 -22 139 -26 139 -4 0 -5 -19 -2 -42 8 -74 23 -182 29 -210
6 -27 5 -28 -27 -22 -19 4 -39 12 -45 18 -14 13 -56 288 -46 297 4 4 48 0 97
-8 129 -20 323 -12 440 20 127 35 123 36 130 -25z m-35 -354 c0 -7 -19 -18
-42 -24 -136 -35 -165 -44 -179 -57 -13 -11 -18 -10 -34 7 -14 16 -15 23 -6
34 15 18 81 41 171 59 66 14 90 9 90 -19z m-1674 -10 c85 -18 124 -31 136 -46
10 -11 16 -24 13 -28 -5 -8 -151 13 -233 34 -28 8 -61 12 -72 9 -23 -6 -26 8
-8 37 16 25 20 25 164 -6z m1772 -50 c12 -8 22 -18 22 -22 0 -4 -37 -18 -83
-31 -91 -27 -167 -65 -167 -85 0 -7 11 -23 25 -36 28 -26 33 -42 10 -34 -8 4
-15 12 -15 18 0 7 -13 25 -30 41 -16 16 -30 33 -30 38 0 19 51 77 80 92 66 34
154 43 188 19z m-368 -51 c0 -5 14 -22 30 -38 17 -16 30 -34 30 -41 0 -14 117
-123 148 -137 18 -8 26 -8 33 4 8 11 9 10 5 -6 -5 -17 5 -25 56 -48 34 -15 67
-26 74 -23 7 3 14 0 16 -6 4 -12 106 -39 213 -57 123 -21 117 -21 110 3 -11
33 -7 56 12 83 10 14 24 35 30 47 7 11 13 16 13 9 0 -9 10 -9 43 1 23 7 41 18
40 23 -1 6 6 9 17 6 16 -4 9 -13 -39 -48 -49 -36 -62 -53 -80 -100 -12 -30
-21 -70 -21 -88 0 -18 -5 -39 -10 -47 -7 -11 -10 -3 -10 30 l0 46 -37 2 c-63
3 -113 13 -113 22 0 5 -8 8 -17 8 -71 -3 -331 98 -382 148 -13 13 -28 21 -34
17 -5 -3 -7 -1 -4 4 4 6 -14 28 -39 48 -25 20 -43 39 -40 42 2 3 -8 17 -24 33
-32 31 -50 62 -50 85 0 15 2 15 15 1 8 -8 15 -19 15 -23z m-1392 4 c36 -8 72
-23 86 -36 23 -22 25 -22 36 -4 11 17 11 17 4 -2 -3 -11 -7 -33 -6 -50 0 -16
-2 -22 -5 -13 -6 22 -58 40 -86 28 -16 -6 -18 -9 -5 -9 11 -1 21 -14 27 -37
19 -67 -7 -83 -54 -34 -38 39 -54 39 -21 -1 28 -33 32 -49 16 -65 -7 -7 -29
-1 -68 18 -69 33 -218 77 -289 85 -57 6 -63 12 -35 35 27 24 49 28 97 19 29
-5 45 -5 48 2 2 7 32 3 88 -11 46 -12 95 -25 109 -28 14 -4 43 -20 64 -37 28
-22 38 -26 33 -13 -4 10 -7 23 -7 31 0 23 -151 74 -267 90 -55 7 -62 22 -20
44 26 13 164 7 255 -12z m1487 -12 c-26 -20 -31 -21 -39 -8 -9 17 9 34 30 26
6 -2 15 1 19 7 4 6 10 9 13 5 3 -3 -7 -17 -23 -30z m394 -6 c17 -6 31 -16 31
-23 0 -7 -33 -22 -72 -35 -97 -31 -198 -78 -205 -96 -8 -21 -18 -18 -30 8 -7
15 -8 29 -1 40 5 10 6 23 2 30 -4 6 -4 9 1 5 4 -4 20 1 34 11 28 20 137 57
202 70 3 0 20 -4 38 -10z m-1679 -46 c0 -12 -6 -26 -12 -30 -14 -9 -35 -43
-67 -108 -11 -22 -28 -49 -38 -60 -24 -28 -83 -68 -83 -58 0 4 -5 0 -11 -10
-6 -9 -14 -15 -20 -12 -5 4 -9 2 -9 -4 0 -5 -10 -13 -22 -17 -12 -3 -28 -13
-36 -20 -7 -8 -18 -12 -23 -9 -5 4 -9 2 -9 -2 0 -5 -20 -14 -46 -21 -25 -7
-42 -17 -39 -22 3 -6 2 -10 -3 -10 -16 0 -22 28 -9 38 7 5 33 16 59 26 26 10
64 29 85 43 21 14 43 26 50 27 23 4 130 105 143 136 7 16 16 27 21 24 5 -3 9
2 9 10 0 9 10 40 22 70 22 54 38 57 38 9z m1837 -18 c41 -17 37 -24 -22 -48
-100 -39 -175 -80 -175 -95 -1 -15 -2 -15 -11 1 -13 23 -46 22 -61 -3 -17 -26
-45 -25 -54 2 -10 33 56 89 131 111 33 10 78 24 100 32 52 18 49 18 92 0z
m-455 -47 c-7 -7 -12 -8 -12 -2 0 14 12 26 19 19 2 -3 -1 -11 -7 -17z m592 2
c14 -5 26 -14 26 -19 0 -5 -26 -24 -57 -42 -32 -18 -77 -53 -101 -77 -48 -47
-58 -49 -43 -8 9 23 8 26 -10 26 -12 0 -27 -12 -37 -30 -19 -33 -28 -36 -56
-15 -24 18 -49 65 -33 62 7 -1 11 3 10 10 -1 6 8 10 22 8 13 -1 22 2 19 7 -3
5 0 8 7 7 8 -1 25 3 39 9 49 22 175 71 182 72 4 0 18 -4 32 -10z m-2083 -23
c-10 -9 -11 -8 -5 6 3 10 9 15 12 12 3 -3 0 -11 -7 -18z m-393 -18 c70 -17
129 -34 132 -38 3 -3 11 -7 18 -9 21 -4 92 -52 92 -62 0 -20 -18 -18 -40 5
-31 33 -40 31 -30 -4 7 -24 5 -31 -8 -34 -10 -2 -24 2 -32 9 -16 13 -88 54
-94 54 -2 0 -2 -9 1 -20 4 -16 2 -19 -12 -13 -16 5 -17 2 -12 -27 6 -27 5 -30
-7 -21 -10 9 -15 8 -20 -4 -3 -8 -1 -15 5 -15 5 0 12 -8 16 -17 3 -10 14 -29
23 -43 23 -33 42 -102 31 -113 -4 -4 -11 6 -15 24 -7 39 -54 139 -64 139 -4 0
-24 16 -44 35 -20 19 -43 35 -51 35 -9 0 -17 5 -19 11 -2 6 -39 15 -83 20 -84
10 -126 21 -63 16 20 -2 34 1 32 5 -8 13 -62 9 -101 -7 -49 -21 -52 -13 -6 16
28 17 51 22 89 21 62 -2 189 -43 218 -71 26 -24 46 -27 46 -7 0 17 -87 59
-167 81 -93 26 -88 23 -68 45 26 28 82 26 233 -11z m2016 -11 c-16 -18 -30
-35 -31 -37 -2 -2 -3 3 -3 12 0 17 37 57 54 57 5 0 -3 -15 -20 -32z m482 -25
c-10 -10 -19 5 -10 18 6 11 8 11 12 0 2 -7 1 -15 -2 -18z m240 -13 c62 -30
126 -104 121 -138 -2 -15 -2 -21 0 -14 8 24 21 12 37 -35 26 -75 21 -115 -16
-152 -67 -65 -225 -96 -453 -88 -170 6 -312 28 -590 93 -441 103 -435 100
-435 191 l0 53 40 -20 c124 -63 754 -190 945 -190 l64 0 -6 48 c-8 69 25 157
76 203 79 71 141 85 217 49z m-2456 -34 c0 -2 -7 -7 -16 -10 -8 -3 -12 -2 -9
4 6 10 25 14 25 6z m-438 -56 c75 -29 130 -78 162 -142 43 -86 39 -94 -49
-107 -152 -22 -335 -8 -414 34 -17 8 -31 12 -31 7 0 -4 28 -19 63 -31 51 -20
87 -25 201 -29 151 -5 238 5 381 43 154 42 428 157 477 202 17 15 18 12 18
-50 0 -61 -2 -67 -30 -87 -74 -52 -360 -161 -550 -209 -106 -27 -140 -31 -255
-31 -296 0 -405 41 -405 150 0 76 9 110 29 102 14 -5 14 -3 3 10 -24 30 29
110 104 154 27 17 45 18 135 13 72 -5 121 -13 161 -29z m281 -19 c10 -12 8
-13 -13 -6 -22 7 -60 40 -60 52 0 7 61 -31 73 -46z"/>
<path d="M4701 8685 c-107 -24 -189 -89 -208 -163 -9 -39 7 -42 87 -20 113 32
285 31 407 -2 88 -23 94 -24 110 -7 30 29 22 92 -17 132 -59 60 -246 90 -379
60z"/>
<path d="M5750 8623 c-111 -10 -174 -47 -186 -109 -12 -66 -5 -69 183 -69 167
0 168 0 238 -32 68 -31 70 -31 73 -11 15 90 -80 194 -193 213 -67 11 -79 11
-115 8z"/>
<path d="M4692 8408 c-19 -7 -39 -23 -48 -40 -8 -15 -19 -28 -25 -28 -6 0 -7
5 -3 12 4 7 3 8 -4 4 -7 -4 -12 -13 -12 -20 0 -8 -10 -20 -23 -29 -36 -23 -78
-111 -84 -175 -4 -50 -1 -66 29 -132 60 -129 125 -172 259 -173 133 -1 220 60
260 181 15 45 7 160 -15 203 -10 21 -13 35 -6 37 5 2 10 8 10 14 0 6 -6 8 -14
5 -8 -3 -20 2 -28 10 -11 15 -11 16 5 10 50 -19 -26 74 -86 104 -47 25 -166
34 -215 17z m287 -102 c-3 -3 -11 5 -18 17 -13 21 -12 21 5 5 10 -10 16 -20
13 -22z m-102 -22 c98 -35 171 -191 138 -295 -15 -46 -59 -101 -99 -122 -33
-18 -58 -22 -131 -22 -81 0 -95 3 -138 28 -26 16 -59 46 -73 69 -77 122 -40
274 83 334 71 34 139 36 220 8z"/>
<path d="M4706 8275 c-54 -19 -92 -59 -105 -110 -24 -94 -7 -160 53 -213 89
-78 207 -61 274 38 20 30 23 44 20 100 -2 42 -10 75 -22 93 l-19 28 -13 -29
c-22 -53 -73 -53 -94 -1 -11 25 -10 32 5 49 10 11 30 20 44 20 25 1 25 2 -9
20 -41 23 -81 24 -134 5z m2 -148 c15 -24 15 -29 2 -37 -38 -24 -78 8 -65 51
9 28 42 21 63 -14z"/>
<path d="M5723 8329 c-24 -12 -43 -25 -43 -31 0 -5 -5 -6 -10 -3 -6 4 -9 3 -8
-2 2 -5 -13 -23 -33 -41 -72 -63 -103 -182 -75 -285 35 -126 103 -187 212
-187 80 0 136 29 181 94 55 80 60 125 38 310 -6 57 -12 66 -26 46 -9 -12 -10
-11 -5 4 8 24 -13 53 -25 34 -7 -10 -9 -8 -9 5 0 27 -25 47 -77 63 -61 18 -70
18 -120 -7z m77 -5 c0 -2 -17 -4 -37 -3 -29 0 -33 2 -18 8 18 7 55 4 55 -5z
m56 -104 c74 -36 119 -125 112 -224 -5 -77 -44 -149 -98 -181 -51 -29 -152
-28 -202 3 -40 25 -71 62 -83 100 -6 20 0 17 35 -17 49 -48 72 -55 141 -49
126 12 187 143 127 268 l-22 45 -4 -30 c-7 -61 -74 -77 -97 -22 -13 29 -13 33
7 50 11 9 32 17 47 17 l26 0 -25 20 c-14 11 -30 20 -37 20 -6 0 -15 5 -18 10
-11 17 47 11 91 -10z m-176 -160 c0 -21 -34 -45 -50 -35 -14 8 -13 48 2 63 15
15 48 -3 48 -28z m57 -176 c-3 -3 -12 -4 -19 -1 -8 3 -5 6 6 6 11 1 17 -2 13
-5z"/>
<path d="M3948 8039 c-41 -21 -62 -48 -72 -94 -7 -28 -5 -27 20 11 19 29 39
46 66 55 43 14 89 4 95 -21 4 -12 3 -13 -5 -1 -5 7 -20 15 -33 16 -19 2 -24
-2 -24 -20 0 -13 3 -21 7 -19 4 3 5 -2 2 -10 -3 -9 -9 -16 -13 -16 -5 0 -16
-15 -26 -33 -35 -66 0 -185 64 -215 56 -27 119 -9 146 42 15 27 16 39 6 87
-14 65 -60 167 -87 191 -19 16 -91 49 -103 47 -3 -1 -23 -10 -43 -20z"/>
<path d="M5395 7995 c5 -46 10 -55 70 -111 36 -33 65 -67 65 -75 0 -8 -8 -25
-17 -38 -9 -14 -11 -21 -5 -17 8 5 10 2 6 -9 -5 -12 -9 -13 -21 -4 -12 11 -13
8 -8 -17 5 -19 4 -25 -3 -16 -7 11 -11 7 -16 -14 -6 -22 -9 -25 -17 -13 -8 10
-9 9 -4 -8 7 -26 -23 -47 -51 -36 -10 4 -15 2 -11 -4 10 -16 -79 -15 -118 2
-26 10 -41 26 -55 57 l-20 43 0 -36 c-1 -141 242 -164 335 -31 24 36 29 53 30
103 l0 61 -68 62 c-51 45 -72 72 -83 106 l-14 45 5 -50z"/>
<path d="M5388 7723 c7 -3 16 -2 19 1 4 3 -2 6 -13 5 -11 0 -14 -3 -6 -6z"/>
<path d="M4759 7621 c-67 -21 -89 -47 -43 -53 22 -3 30 -14 54 -75 38 -99 80
-161 154 -230 108 -101 236 -149 381 -141 181 9 323 126 400 328 25 65 29 71
54 68 14 -2 28 2 31 7 6 12 -76 55 -105 55 -20 -1 -20 -1 -1 -15 11 -8 17 -17
14 -20 -14 -15 -182 -64 -253 -75 -162 -25 -474 29 -628 107 -28 14 -29 33 -1
33 8 0 14 5 14 10 0 12 -33 12 -71 1z m93 -96 c24 -13 93 -37 153 -52 103 -26
123 -28 315 -27 182 0 212 3 270 22 35 12 65 20 66 19 7 -7 -45 -118 -79 -170
-70 -104 -158 -150 -292 -150 -221 -1 -393 125 -470 342 -8 23 -13 41 -11 41
2 0 23 -11 48 -25z"/>
<path d="M5338 7043 c7 -3 16 -2 19 1 4 3 -2 6 -13 5 -11 0 -14 -3 -6 -6z"/>
<path d="M5957 5648 c9 -68 21 -66 30 4 6 41 5 42 -12 28 -11 -9 -16 -10 -11
-2 4 6 3 12 -2 12 -6 0 -8 -18 -5 -42z"/>
<path d="M5942 5625 c0 -16 2 -22 5 -12 2 9 2 23 0 30 -3 6 -5 -1 -5 -18z"/>
<path d="M5815 4730 c-3 -6 1 -7 9 -4 18 7 21 14 7 14 -6 0 -13 -4 -16 -10z"/>
<path d="M5620 5211 c0 -6 4 -13 10 -16 6 -3 7 1 4 9 -7 18 -14 21 -14 7z"/>
<path d="M4870 6240 c-12 -8 -10 -10 8 -10 13 0 20 4 17 10 -7 12 -6 12 -25 0z"/>
<path d="M4832 6178 c3 -7 13 -15 23 -17 17 -3 17 -2 3 13 -20 19 -31 21 -26
4z"/>
<path d="M4332 5970 c0 -14 2 -19 5 -12 2 6 2 18 0 25 -3 6 -5 1 -5 -13z"/>
<path d="M5581 5974 c0 -11 3 -14 6 -6 3 7 2 16 -1 19 -3 4 -6 -2 -5 -13z"/>
<path d="M4541 5664 c0 -11 3 -14 6 -6 3 7 2 16 -1 19 -3 4 -6 -2 -5 -13z"/>
<path d="M4568 5673 c6 -2 18 -2 25 0 6 3 1 5 -13 5 -14 0 -19 -2 -12 -5z"/>
<path d="M4889 5653 c-7 -53 -7 -113 1 -113 5 0 7 7 4 15 -4 8 -1 22 6 30 8 9
8 15 2 15 -6 0 -8 13 -6 30 3 17 3 30 0 30 -3 0 -6 -3 -7 -7z"/>
<path d="M4752 5578 c2 -15 11 -24 26 -26 18 -3 22 1 22 22 0 21 -5 26 -26 26
-21 0 -25 -4 -22 -22z"/>
<path d="M5015 5530 c-3 -6 1 -7 9 -4 18 7 21 14 7 14 -6 0 -13 -4 -16 -10z"/>
<path d="M5020 5449 c0 -5 5 -7 10 -4 6 3 10 8 10 11 0 2 -4 4 -10 4 -5 0 -10
-5 -10 -11z"/>
<path d="M4653 5093 c9 -2 23 -2 30 0 6 3 -1 5 -18 5 -16 0 -22 -2 -12 -5z"/>
<path d="M5786 5621 c-4 -7 -5 -15 -2 -18 9 -9 19 4 14 18 -4 11 -6 11 -12 0z"/>
<path d="M5666 5523 c-6 -14 -5 -15 5 -6 7 7 10 15 7 18 -3 3 -9 -2 -12 -12z"/>
<path d="M5672 5470 c0 -14 2 -19 5 -12 2 6 2 18 0 25 -3 6 -5 1 -5 -13z"/>
<path d="M4198 993 c7 -3 16 -2 19 1 4 3 -2 6 -13 5 -11 0 -14 -3 -6 -6z"/>
<path d="M3554 601 c11 -11 23 -21 28 -21 14 0 -1 19 -25 31 -22 12 -22 12 -3
-10z"/>
<path d="M7168 6273 c6 -2 18 -2 25 0 6 3 1 5 -13 5 -14 0 -19 -2 -12 -5z"/>
<path d="M7313 6263 c20 -2 54 -2 75 0 20 2 3 4 -38 4 -41 0 -58 -2 -37 -4z"/>
<path d="M7676 6213 c1 -16 3 -53 4 -83 l3 -55 8 45 c5 27 6 -4 3 -80 -3 -69
-9 -145 -13 -168 -5 -24 -6 -185 -4 -358 4 -227 2 -314 -6 -314 -6 0 -11 -17
-11 -40 0 -37 -2 -40 -26 -40 -27 0 -27 0 -21 63 4 48 3 56 -4 32 -6 -18 -7
-83 -3 -165 11 -220 5 -761 -9 -778 -6 -8 -13 -29 -14 -46 -4 -45 -10 -173
-12 -230 0 -27 -3 -47 -6 -45 -7 7 -16 350 -18 685 -2 294 -3 301 -21 294 -11
-4 -25 -24 -32 -46 l-12 -39 -2 60 c-1 33 -1 65 0 70 1 6 4 21 5 33 5 37 15
39 15 3 0 -32 26 -54 39 -33 9 15 1 113 -10 106 -5 -3 -9 1 -10 8 -1 7 -4 3
-7 -10 -10 -34 -25 -32 -34 6 -23 88 -52 -9 -41 -137 4 -42 2 -61 -6 -61 -6 0
-11 8 -11 19 0 10 -6 24 -14 30 -17 14 -30 0 -44 -49 -9 -30 -10 -23 -10 50 0
66 2 79 9 59 12 -32 46 -45 54 -20 10 32 1 123 -12 128 -18 7 -41 -14 -46 -40
-4 -19 -4 -18 -6 4 0 15 -7 32 -15 38 -23 19 -38 -12 -36 -71 4 -82 1 -148 -8
-164 -4 -7 -6 14 -5 49 4 84 -7 189 -17 162 -7 -17 -8 -16 -12 10 -5 30 -5 30
-8 -5 l-2 -35 -8 30 c-4 17 -7 -69 -8 -190 -1 -121 -5 -283 -9 -360 -6 -121
-8 -133 -14 -85 -4 30 -7 112 -7 181 0 70 -2 132 -6 138 -4 6 -15 11 -25 11
-13 0 -20 -10 -25 -37 -8 -54 -7 -101 2 -105 5 -1 6 -25 3 -53 -6 -49 -7 -50
-14 -16 -4 18 -7 76 -7 127 0 93 0 94 -25 94 -31 0 -39 -29 -33 -113 3 -34 2
-71 -3 -82 -9 -23 -8 -27 -14 105 -4 108 -4 104 -3 230 0 63 -1 132 -1 153
l-1 37 -45 0 c-30 0 -47 -5 -53 -16 -7 -13 -13 -14 -31 -5 -21 11 -21 10 -21
-60 0 -62 2 -70 15 -59 17 14 21 35 5 25 -5 -3 -10 -1 -10 4 0 6 5 11 10 11 6
0 10 11 10 25 0 14 5 25 10 25 6 0 10 -20 10 -44 0 -49 13 -65 36 -45 10 8 18
9 22 2 4 -5 14 -13 22 -16 12 -4 12 -6 -2 -6 -11 -1 -21 -14 -27 -33 -6 -21
-10 -26 -10 -13 -1 11 -6 27 -11 35 -9 13 -11 13 -20 0 -5 -8 -10 -27 -10 -42
0 -16 -4 -28 -10 -28 -5 0 -10 13 -10 29 0 16 -6 31 -15 35 -13 4 -15 -8 -15
-74 0 -66 2 -78 15 -74 8 4 15 15 15 26 0 10 5 16 10 13 6 -3 10 -20 10 -36 0
-26 -3 -29 -25 -23 -20 5 -25 2 -25 -12 -1 -30 -9 -301 -17 -549 -5 -126 -8
-252 -8 -280 l0 -50 164 0 c159 0 164 -1 179 -23 12 -19 13 -30 3 -61 -8 -27
-11 -228 -11 -686 0 -567 2 -651 15 -665 15 -17 11 -50 -6 -50 -5 0 -9 -34 -9
-75 0 -41 2 -75 5 -75 3 0 28 15 57 33 47 28 61 32 124 32 65 0 76 -3 118 -33
33 -24 53 -32 73 -28 15 2 35 5 44 5 9 1 16 7 16 14 0 6 4 67 7 134 5 94 4
123 -6 130 -7 4 -63 6 -123 5 -102 -3 -112 -2 -139 19 -39 30 -56 77 -56 148
0 116 47 198 138 242 36 18 56 21 112 17 l69 -5 -3 326 c-2 179 -4 634 -5
1011 l-2 685 28 7 c15 4 34 6 41 3 9 -3 11 35 7 178 -2 100 -5 273 -5 385 -1
169 -3 202 -16 202 -10 0 -14 12 -14 40 0 26 5 40 13 40 10 0 13 46 13 200 1
181 0 200 -15 200 -12 0 -16 -8 -15 -27z m11 -555 c-3 -8 -6 -5 -6 6 -1 11 2
17 5 13 3 -3 4 -12 1 -19z m0 -50 c-3 -7 -5 -2 -5 12 0 14 2 19 5 13 2 -7 2
-19 0 -25z m-37 -578 c8 12 10 11 10 -6 0 -13 -8 -24 -20 -27 -16 -4 -20 0
-20 21 0 21 2 24 10 12 9 -13 11 -13 20 0z m60 -7 c0 -18 -27 -16 -33 1 -4 10
0 14 14 13 10 -1 19 -7 19 -14z m-370 -63 c0 -5 -4 -10 -10 -10 -5 0 -10 5
-10 10 0 6 5 10 10 10 6 0 10 -4 10 -10z m100 -84 c0 -11 -19 -15 -25 -6 -3 5
1 10 9 10 9 0 16 -2 16 -4z m-140 -62 c0 -22 38 -17 45 7 7 20 8 19 23 -11 12
-25 13 -35 4 -38 -7 -2 -12 -11 -13 -20 0 -13 -3 -11 -11 6 -27 55 -61 3 -57
-88 1 -30 1 -64 -1 -75 -2 -11 -6 30 -9 90 -3 61 -4 120 -2 132 4 24 21 22 21
-3z m140 -13 c0 -33 -7 -42 -26 -34 -17 6 -17 13 -4 48 12 32 30 24 30 -14z
m66 -1 c16 0 19 -26 4 -35 -5 -3 -11 -16 -11 -28 -1 -20 -2 -21 -6 -2 -3 11
-9 25 -13 30 -4 6 -5 26 -2 45 5 27 7 30 10 13 2 -13 10 -23 18 -23z m-486 -7
c0 -5 -5 -15 -10 -23 -9 -13 -11 -13 -20 0 -15 22 -12 30 10 30 11 0 20 -3 20
-7z m337 -200 c-3 -10 -5 -2 -5 17 0 19 2 27 5 18 2 -10 2 -26 0 -35z m143 25
c0 -19 -2 -20 -10 -8 -13 19 -13 30 0 30 6 0 10 -10 10 -22z m-345 -178 c-3
-6 -10 -10 -16 -10 -10 0 -12 33 -2 44 9 9 26 -22 18 -34z m-88 -2 c-3 -7 -5
-2 -5 12 0 14 2 19 5 13 2 -7 2 -19 0 -25z m228 23 c3 -5 1 -12 -5 -16 -5 -3
-10 1 -10 9 0 18 6 21 15 7z m-228 -213 c-3 -8 -6 -5 -6 6 -1 11 2 17 5 13 3
-3 4 -12 1 -19z m70 0 c-3 -8 -6 -5 -6 6 -1 11 2 17 5 13 3 -3 4 -12 1 -19z
m480 -40 c-3 -7 -5 -2 -5 12 0 14 2 19 5 13 2 -7 2 -19 0 -25z"/>
<path d="M7028 6183 c7 -3 16 -2 19 1 4 3 -2 6 -13 5 -11 0 -14 -3 -6 -6z"/>
<path d="M7138 6183 c12 -2 32 -2 45 0 12 2 2 4 -23 4 -25 0 -35 -2 -22 -4z"/>
<path d="M7233 6183 c9 -2 25 -2 35 0 9 3 1 5 -18 5 -19 0 -27 -2 -17 -5z"/>
<path d="M3013 6103 c9 -2 23 -2 30 0 6 3 -1 5 -18 5 -16 0 -22 -2 -12 -5z"/>
<path d="M7508 6093 c6 -2 18 -2 25 0 6 3 1 5 -13 5 -14 0 -19 -2 -12 -5z"/>
<path d="M7476 6006 c-10 -40 -16 -79 -12 -85 4 -6 0 -11 -11 -11 -15 0 -16
-2 -3 -10 25 -16 68 -12 78 8 5 9 8 37 6 62 -2 25 -3 60 -3 78 -1 24 -5 32
-19 32 -14 0 -22 -16 -36 -74z"/>
<path d="M6912 6030 c0 -19 2 -27 5 -17 2 9 2 25 0 35 -3 9 -5 1 -5 -18z"/>
<path d="M7672 6025 c0 -16 2 -22 5 -12 2 9 2 23 0 30 -3 6 -5 -1 -5 -18z"/>
<path d="M7672 5935 c0 -16 2 -22 5 -12 2 9 2 23 0 30 -3 6 -5 -1 -5 -18z"/>
<path d="M6983 5832 c-13 -8 -22 -416 -10 -428 20 -20 26 28 28 219 1 114 0
210 -3 212 -2 2 -9 1 -15 -3z"/>
<path d="M7096 5798 c-3 -24 -8 -117 -11 -208 -6 -170 0 -205 28 -181 13 10
14 43 11 202 -2 104 -6 195 -10 201 -5 7 -2 8 6 3 8 -5 11 -3 8 5 -10 31 -27
19 -32 -22z"/>
<path d="M7167 5833 c-2 -4 -5 -93 -6 -197 -1 -105 -5 -194 -8 -199 -5 -9 14
-27 30 -27 8 0 4 417 -5 426 -3 3 -8 2 -11 -3z m10 -135 c-2 -13 -4 -3 -4 22
0 25 2 35 4 23 2 -13 2 -33 0 -45z"/>
<path d="M7249 5828 c0 -7 -2 -80 -5 -163 -2 -82 -6 -170 -8 -195 -5 -52 3
-73 23 -61 17 11 28 111 12 111 -14 0 -15 27 0 32 13 4 1 288 -12 288 -5 0 -9
-6 -10 -12z"/>
<path d="M7376 5803 c-3 -21 -6 -122 -6 -225 0 -181 1 -187 20 -185 20 1 21 7
19 224 -1 174 -4 223 -14 223 -7 0 -15 -17 -19 -37z"/>
<path d="M7434 5779 c3 -34 6 -137 6 -229 0 -147 2 -169 16 -174 9 -4 19 -4
22 -2 6 7 3 316 -4 399 -6 58 -9 67 -27 67 -18 0 -19 -4 -13 -61z"/>
<path d="M6910 5640 c0 -117 4 -191 10 -195 6 -4 8 -11 5 -16 -4 -5 -3 -9 2
-9 4 0 10 89 11 199 4 174 2 199 -12 204 -14 6 -16 -14 -16 -183z"/>
<path d="M7020 5820 c0 -5 6 -10 13 -10 7 0 8 -3 2 -8 -15 -10 -13 -394 1
-399 18 -6 24 49 24 206 0 167 -7 221 -26 221 -8 0 -14 -4 -14 -10z"/>
<path d="M7306 5821 c-11 -18 0 -411 12 -423 20 -20 23 11 20 221 -2 144 -6
205 -15 208 -6 2 -14 0 -17 -6z"/>
<path d="M7513 5570 c-1 -113 2 -194 7 -180 l7 25 5 -30 c3 -16 6 25 7 93 0
72 -3 122 -9 122 -5 0 -11 39 -13 88 -1 48 -3 -5 -4 -118z"/>
<path d="M7603 5640 c0 -25 2 -35 4 -22 2 12 2 32 0 45 -2 12 -4 2 -4 -23z"/>
<path d="M3540 5585 c0 -8 5 -15 10 -15 6 0 10 7 10 15 0 8 -4 15 -10 15 -5 0
-10 -7 -10 -15z"/>
<path d="M3523 5555 c0 -22 2 -30 4 -17 2 12 2 30 0 40 -3 9 -5 -1 -4 -23z"/>
<path d="M6976 5371 c-4 -6 -10 -56 -13 -111 -5 -89 -4 -100 11 -100 9 0 19 7
23 16 5 15 7 15 15 0 5 -9 16 -16 24 -16 12 0 14 18 12 108 -3 123 -20 144
-29 35 -7 -95 -19 -105 -19 -17 0 69 -11 107 -24 85z"/>
<path d="M7092 5368 c-8 -8 -12 -48 -12 -110 0 -97 0 -98 24 -98 23 0 24 2 25
98 1 73 -2 102 -12 110 -10 9 -16 9 -25 0z"/>
<path d="M7163 5365 c-9 -9 -11 -40 -8 -97 2 -46 4 -89 5 -95 0 -15 40 -18 40
-3 0 6 -6 10 -12 10 -10 0 -10 2 0 8 9 6 10 31 6 100 -4 51 -10 92 -13 92 -3
-1 -11 -7 -18 -15z"/>
<path d="M7237 5373 c-4 -3 -7 -53 -7 -110 0 -96 1 -103 20 -103 19 0 20 7 20
110 0 85 -3 110 -13 110 -8 0 -17 -3 -20 -7z"/>
<path d="M2878 5340 c2 -16 6 -30 8 -30 2 0 4 14 4 30 0 17 -4 30 -8 30 -5 0
-7 -13 -4 -30z"/>
<path d="M3203 5335 c0 -22 2 -30 4 -17 2 12 2 30 0 40 -3 9 -5 -1 -4 -23z"/>
<path d="M2964 5160 c0 -113 2 -159 3 -102 2 56 2 148 0 205 -1 56 -3 10 -3
-103z"/>
<path d="M3083 5295 c0 -38 2 -53 4 -32 2 20 2 52 0 70 -2 17 -4 1 -4 -38z"/>
<path d="M7306 5323 c-12 -74 -3 -173 15 -173 19 0 28 53 22 130 -6 87 -26
109 -37 43z"/>
<path d="M7376 5338 c-10 -40 -7 -166 5 -174 19 -11 29 18 29 86 0 69 -8 110
-20 110 -4 0 -10 -10 -14 -22z"/>
<path d="M7435 5275 c-8 -69 3 -120 26 -120 10 0 15 18 19 67 6 80 0 110 -22
114 -13 2 -18 -10 -23 -61z"/>
<path d="M7515 5273 c-3 -27 -7 -58 -9 -70 -4 -27 8 -48 23 -39 13 9 15 156 2
156 -6 0 -12 -21 -16 -47z"/>
<path d="M3552 5255 c0 -16 2 -22 5 -12 2 9 2 23 0 30 -3 6 -5 -1 -5 -18z"/>
<path d="M6810 4582 c0 -386 3 -702 8 -702 32 1 34 16 27 211 -11 298 -14 454
-19 833 -3 192 -8 351 -11 354 -3 3 -5 -310 -5 -696z"/>
<path d="M6901 5213 c0 -38 3 -61 6 -53 3 8 11 19 17 23 8 6 7 10 -1 14 -18 7
-16 24 2 17 10 -4 15 0 15 14 0 31 -11 52 -26 52 -11 0 -14 -16 -13 -67z"/>
<path d="M3080 4425 c-3 -429 -3 -798 0 -820 4 -32 9 -40 25 -40 20 0 20 6 19
310 -2 474 -14 919 -24 925 -5 3 -11 96 -12 205 -2 110 -5 -151 -8 -580z"/>
<path d="M7087 5114 c-4 -4 -7 -38 -7 -76 0 -61 2 -69 18 -66 14 3 17 15 17
72 0 64 -10 88 -28 70z"/>
<path d="M7168 5113 c-15 -4 -18 -16 -18 -69 0 -62 1 -65 23 -62 20 3 22 9 23
66 1 66 -1 71 -28 65z"/>
<path d="M2983 5000 c0 -25 2 -35 4 -22 2 12 2 32 0 45 -2 12 -4 2 -4 -23z"/>
<path d="M2852 4721 c-1 -134 0 -242 3 -239 9 9 12 283 5 388 -5 69 -7 29 -8
-149z"/>
<path d="M7083 4943 c-4 -10 -8 -45 -8 -78 0 -57 1 -60 25 -60 21 0 25 5 28
35 6 76 -26 151 -45 103z"/>
<path d="M7150 4879 c0 -70 2 -80 16 -75 9 3 20 6 25 6 5 0 9 29 9 65 0 53 -3
66 -19 75 -11 5 -22 10 -25 10 -3 0 -6 -36 -6 -81z"/>
<path d="M1756 4914 c3 -33 14 -44 14 -16 0 12 5 22 11 22 5 0 7 5 4 10 -13
21 -32 10 -29 -16z"/>
<path d="M1844 4933 c4 -4 124 -8 266 -8 143 -1 262 -3 265 -7 3 -3 3 -246 -1
-540 l-7 -534 -41 6 c-38 5 -41 8 -44 38 -4 37 -22 44 -22 8 0 -46 -58 -73
-99 -47 -14 9 -19 103 -7 132 5 11 1 18 -11 21 -16 4 -18 -3 -20 -63 -1 -37
-6 -76 -12 -86 -6 -11 -11 -13 -11 -5 0 11 -3 10 -15 -1 -12 -13 -36 -15 -89
-8 -5 1 -4 7 2 14 6 7 9 22 6 34 -3 12 0 31 6 43 10 18 9 21 -1 18 -7 -2 -15
-22 -17 -44 -4 -44 -5 -45 -25 -48 -8 -1 -23 -8 -33 -16 -13 -11 -16 -12 -10
-1 7 10 3 12 -13 6 -15 -4 -21 -2 -22 9 -4 45 -11 51 -27 26 -10 -17 -10 -20
3 -20 8 0 15 -5 15 -11 0 -6 -7 -8 -16 -5 -13 5 -15 2 -10 -16 4 -13 9 -44 12
-69 l5 -47 -38 -4 c-21 -3 -39 -4 -41 -3 -14 12 -24 208 -12 241 7 17 5 26 -5
31 -8 5 -16 30 -18 58 -3 28 -4 -38 -3 -145 1 -127 5 -202 13 -215 8 -14 22
-20 50 -20 38 0 38 0 38 -40 0 -36 -3 -40 -27 -43 -16 -2 -28 -8 -28 -13 0
-13 46 -59 59 -59 5 0 13 -9 16 -20 9 -27 25 -25 22 3 -1 12 3 22 11 21 6 -1
26 -2 42 -2 27 -2 30 -5 30 -37 0 -33 -2 -35 -35 -35 -19 0 -35 -3 -35 -7 1
-13 35 -50 58 -62 25 -14 30 -58 7 -67 -19 -8 -19 -24 0 -24 8 0 24 -14 37
-30 20 -28 25 -30 66 -24 l43 6 -3 -34 c-2 -28 -7 -34 -30 -36 -32 -4 -32 -5
-17 -34 10 -18 17 -20 64 -14 73 8 108 -1 154 -40 54 -46 78 -101 95 -219 24
-156 1 -266 -65 -318 -24 -19 -37 -23 -46 -16 -8 8 -24 7 -49 -1 -43 -15 -176
-8 -217 11 l-25 11 29 48 c16 26 29 57 29 68 0 11 5 24 10 27 6 3 10 16 9 28
l0 22 -11 -22 c-14 -28 -28 -30 -21 -3 3 11 1 20 -5 20 -5 0 -13 -16 -16 -35
-7 -33 -9 -35 -46 -35 -22 0 -40 5 -40 10 0 19 -21 10 -56 -25 -21 -21 -44
-35 -59 -35 -26 0 -33 14 -14 26 8 4 4 11 -11 19 -19 10 -28 9 -54 -6 -42 -24
-166 -71 -179 -66 -6 2 2 14 17 28 26 25 26 26 5 25 -28 -1 -36 37 -14 71 13
20 13 23 1 23 -8 0 -25 -18 -37 -40 -13 -22 -27 -40 -32 -40 -9 0 -3 48 10 88
4 15 3 15 -6 2 -18 -25 -14 282 4 350 8 30 14 69 14 85 -1 23 -3 20 -9 -15 -5
-25 -13 -56 -18 -70 -12 -29 -12 -30 -22 85 -1 19 -4 23 -7 12 -2 -9 -9 -15
-14 -12 -13 9 -11 -19 7 -89 19 -73 16 -308 -4 -328 -7 -7 -12 -20 -12 -29 0
-10 -9 -21 -21 -24 -11 -4 -18 -13 -15 -20 3 -8 -2 -11 -14 -8 -10 3 -43 0
-74 -7 l-56 -11 22 -20 c22 -19 22 -19 2 -10 -12 6 -36 27 -53 47 -30 33 -33
34 -38 16 -3 -14 -12 -20 -26 -18 -26 3 -99 37 -109 51 -4 6 -8 6 -8 1 0 -5
-9 -1 -21 10 -15 13 -20 14 -17 4 2 -9 -6 -16 -19 -18 -17 -2 -23 -10 -23 -28
0 -13 -5 -24 -11 -24 -5 0 -7 5 -4 10 3 6 1 10 -4 10 -6 0 -11 -8 -11 -19 0
-10 -9 -21 -20 -24 -15 -4 -20 0 -20 15 0 10 -4 17 -9 13 -14 -8 -32 30 -28
57 2 13 2 17 0 11 -3 -7 -8 -13 -13 -13 -5 0 2 -26 15 -57 18 -44 28 -57 42
-55 13 2 14 0 5 -6 -30 -20 97 -148 199 -201 69 -35 138 -56 248 -73 l83 -13
-6 -105 c-3 -58 -9 -144 -12 -193 l-6 -87 61 0 61 0 0 33 c0 17 -7 91 -15 162
-22 195 -22 193 23 200 54 9 184 36 200 43 12 4 14 -16 11 -117 -2 -66 -1
-121 3 -121 4 0 18 4 32 9 16 7 36 6 58 -1 18 -6 89 -13 158 -17 122 -6 124
-6 130 -31 8 -35 35 -33 35 3 -1 27 0 27 66 27 61 0 67 2 73 23 3 12 19 38 35
56 25 27 40 35 78 38 45 5 53 2 100 -36 28 -22 54 -50 58 -61 6 -19 13 -21 63
-18 45 2 57 6 57 20 0 9 4 20 8 24 4 4 7 -50 7 -120 l0 -127 33 3 32 3 -5 80
c-8 135 -4 197 13 207 31 17 100 73 104 84 7 20 -40 32 -67 17 -24 -13 -216
-17 -248 -5 -7 2 -25 27 -39 55 -23 46 -25 60 -20 128 3 48 13 95 27 125 22
49 22 51 22 599 -1 303 -1 814 -2 1136 l0 587 -362 1 c-199 1 -359 -2 -354 -6z
m256 -1113 c0 -5 -10 -10 -22 -9 -22 0 -22 1 -3 9 11 5 21 9 23 9 1 1 2 -3 2
-9z m-126 -33 c12 -9 17 -23 14 -42 -3 -28 -6 -30 -50 -33 l-48 -3 0 40 c0 22
5 42 13 44 23 10 53 7 71 -6z m281 -33 l0 -39 -52 -3 c-56 -3 -63 4 -55 58 3
23 7 25 55 24 l52 -2 0 -38z m-137 -1 l-3 -38 -50 0 c-45 0 -50 2 -53 23 -6
43 4 52 58 52 l51 0 -3 -37z m252 2 c0 -21 -5 -35 -12 -36 -7 0 -28 -2 -45 -3
-32 -4 -33 -3 -33 35 l0 39 45 0 c45 0 45 0 45 -35z m-391 -111 c3 -3 6 -19 7
-35 1 -23 -3 -30 -21 -35 -43 -11 -70 -1 -72 26 -3 48 5 58 44 53 21 -2 40 -6
42 -9z m139 -33 c-3 -35 -4 -36 -50 -39 -53 -3 -60 4 -52 46 5 26 12 31 38 34
57 6 67 -1 64 -41z m138 24 c4 -8 3 -26 0 -39 -5 -21 -11 -24 -53 -22 -44 1
-48 3 -48 26 0 14 4 31 9 38 12 18 85 16 92 -3z m104 -15 c0 -22 -17 -36 -52
-42 -26 -5 -28 -3 -28 28 0 28 4 33 28 36 38 5 52 -1 52 -22z m-240 -144 c0
-24 -19 -38 -59 -43 l-42 -6 3 39 c3 37 5 39 36 37 19 -1 32 3 32 10 0 7 7 3
15 -7 8 -11 15 -25 15 -30z m134 19 c3 -8 1 -26 -4 -40 -8 -21 -16 -25 -50
-25 -39 0 -40 1 -40 34 0 37 3 40 54 43 23 2 36 -2 40 -12z m-136 -154 c2 -7
1 -22 -2 -34 -5 -20 -11 -22 -51 -19 -42 4 -45 6 -45 31 0 15 2 30 4 32 10 9
90 1 94 -10z m132 -18 c0 -32 -1 -33 -44 -33 -46 0 -59 12 -49 48 4 16 13 19
49 18 43 -1 44 -2 44 -33z m-5 -138 c0 -28 -3 -30 -39 -33 -47 -4 -61 8 -52
43 6 24 11 26 49 23 39 -3 42 -5 42 -33z m-1288 -550 c0 -8 -4 -12 -9 -9 -5 3
-6 10 -3 15 9 13 12 11 12 -6z m433 -15 c0 -11 -7 -20 -15 -20 -8 0 -15 9 -15
20 0 11 7 20 15 20 8 0 15 -9 15 -20z m623 5 c-3 -9 -8 -14 -10 -11 -3 3 -2 9
2 15 9 16 15 13 8 -4z m-597 -57 c-8 -40 -13 -45 -33 -32 -25 16 -27 34 -4 34
12 0 21 6 21 15 0 8 5 15 11 15 8 0 9 -11 5 -32z m-482 6 c3 -8 2 -12 -4 -9
-6 3 -10 10 -10 16 0 14 7 11 14 -7z m1322 -155 c1 -41 -7 -49 -47 -49 -34 0
-39 3 -39 23 0 15 11 27 33 38 41 21 52 18 53 -12z m-276 -13 c0 -42 -7 -48
-46 -37 -39 10 -41 52 -4 62 45 13 50 10 50 -25z m89 23 c23 -8 31 -17 31 -35
0 -21 -4 -24 -40 -24 -39 0 -40 1 -40 35 0 39 3 40 49 24z m46 -159 c4 -6 -37
-10 -115 -10 -78 0 -119 4 -115 10 4 6 53 10 115 10 62 0 111 -4 115 -10z
m145 -26 c6 -14 10 -27 10 -30 0 -2 -22 -4 -50 -4 -46 0 -50 2 -50 24 0 20 6
25 33 29 17 2 35 5 40 5 4 1 12 -10 17 -24z m330 17 c0 -5 23 -15 51 -22 29
-8 55 -21 61 -32 11 -21 9 -24 -12 -27 -29 -4 -40 0 -40 15 0 15 -21 20 -34 8
-18 -18 -35 -10 -32 15 1 15 -2 33 -7 40 -6 8 -6 12 2 12 6 0 11 -4 11 -9z
m-470 -35 c0 -20 -25 -26 -106 -25 -100 1 -144 8 -144 25 0 11 24 14 125 14
102 0 125 -3 125 -14z m-288 -41 c0 -5 -5 -11 -11 -13 -6 -2 -11 4 -11 13 0 9
5 15 11 13 6 -2 11 -8 11 -13z m439 -14 c-6 -10 -7 -22 -3 -26 4 -4 -4 -5 -18
-2 -14 4 -37 7 -52 7 -21 0 -28 5 -28 20 0 18 7 20 55 20 51 0 55 -1 46 -19z
m-153 -8 c3 -10 -19 -13 -90 -13 -106 0 -168 8 -168 22 0 15 253 6 258 -9z"/>
<path d="M7931 4884 c0 -11 3 -14 6 -6 3 7 2 16 -1 19 -3 4 -6 -2 -5 -13z"/>
<path d="M1753 4755 c0 -27 2 -38 4 -22 2 15 2 37 0 50 -2 12 -4 0 -4 -28z"/>
<path d="M2963 4720 c0 -47 2 -66 4 -42 2 23 2 61 0 85 -2 23 -4 4 -4 -43z"/>
<path d="M2981 4718 c2 -78 2 -80 9 -33 12 72 11 115 0 115 -6 0 -9 -33 -9
-82z"/>
<path d="M3212 4750 c0 -19 2 -27 5 -17 2 9 2 25 0 35 -3 9 -5 1 -5 -18z"/>
<path d="M6480 4680 c0 -6 28 -10 65 -10 37 0 65 4 65 10 0 6 -28 10 -65 10
-37 0 -65 -4 -65 -10z"/>
<path d="M3213 4615 c0 -33 2 -45 4 -27 2 18 2 45 0 60 -2 15 -4 0 -4 -33z"/>
<path d="M1750 4602 c0 -23 5 -42 10 -42 7 0 8 14 4 38 -9 51 -14 53 -14 4z"/>
<path d="M2983 4560 c0 -25 2 -35 4 -22 2 12 2 32 0 45 -2 12 -4 2 -4 -23z"/>
<path d="M6625 4581 c-8 -7 -5 -81 3 -82 50 -9 60 -5 64 28 2 18 1 38 -3 45
-7 11 -56 18 -64 9z"/>
<path d="M6414 4544 c-8 -41 7 -57 40 -45 19 8 21 15 17 66 -1 9 -11 15 -26
15 -20 0 -25 -6 -31 -36z"/>
<path d="M6514 4545 c-8 -44 3 -58 42 -53 27 3 29 6 29 43 0 38 -2 40 -32 43
-30 3 -32 1 -39 -33z"/>
<path d="M2957 4090 c-4 -261 -3 -486 1 -500 4 -14 15 -26 25 -28 16 -3 17 13
17 206 0 272 -11 632 -20 627 -3 -2 -5 8 -3 23 2 15 0 54 -5 87 -5 41 -10 -94
-15 -415z m20 118 c-2 -24 -4 -7 -4 37 0 44 2 63 4 43 2 -21 2 -57 0 -80z m0
-590 c-2 -13 -4 -3 -4 22 0 25 2 35 4 23 2 -13 2 -33 0 -45z"/>
<path d="M1751 4494 c0 -11 3 -14 6 -6 3 7 2 16 -1 19 -3 4 -6 -2 -5 -13z"/>
<path d="M2850 4313 c0 -109 3 -153 12 -153 8 0 10 34 6 123 -4 74 -2 110 3
92 7 -24 7 -22 3 14 -2 24 -9 51 -14 60 -6 10 -9 -37 -10 -136z"/>
<path d="M6415 4442 c-5 -4 -10 -23 -10 -42 0 -34 1 -35 40 -35 l40 0 2 43 c3
41 2 42 -30 42 -17 0 -36 -4 -42 -8z"/>
<path d="M6520 4405 c0 -45 0 -45 35 -45 35 0 35 0 35 45 0 45 0 45 -35 45
-35 0 -35 0 -35 -45z"/>
<path d="M6624 4436 c-3 -8 -4 -27 -2 -43 3 -24 8 -28 41 -31 l37 -3 0 45 c0
46 0 46 -35 46 -22 0 -38 -6 -41 -14z"/>
<path d="M2262 4300 c0 -19 2 -27 5 -17 2 9 2 25 0 35 -3 9 -5 1 -5 -18z"/>
<path d="M3353 4275 c0 -22 2 -30 4 -17 2 12 2 30 0 40 -3 9 -5 -1 -4 -23z"/>
<path d="M6407 4273 c-7 -43 4 -54 48 -51 28 3 30 6 33 46 l3 42 -39 0 c-38 0
-40 -2 -45 -37z"/>
<path d="M6514 4296 c-3 -8 -4 -27 -2 -43 2 -24 8 -28 36 -31 26 -3 34 1 40
19 5 12 7 33 4 46 -4 19 -11 23 -38 23 -21 0 -37 -6 -40 -14z"/>
<path d="M6620 4271 c0 -36 2 -39 33 -44 43 -6 47 -2 47 44 0 39 0 39 -40 39
-40 0 -40 0 -40 -39z"/>
<path d="M1752 4210 c0 -19 2 -27 5 -17 2 9 2 25 0 35 -3 9 -5 1 -5 -18z"/>
<path d="M2142 4215 c0 -16 2 -22 5 -12 2 9 2 23 0 30 -3 6 -5 -1 -5 -18z"/>
<path d="M3360 4185 c0 -8 4 -15 10 -15 5 0 7 7 4 15 -4 8 -8 15 -10 15 -2 0
-4 -7 -4 -15z"/>
<path d="M2261 4168 c-1 -16 4 -28 9 -28 12 0 12 8 0 35 -8 18 -9 17 -9 -7z"/>
<path d="M6408 4173 c-2 -5 -4 -26 -3 -48 l0 -40 45 1 45 1 3 47 3 46 -45 0
c-25 0 -46 -3 -48 -7z"/>
<path d="M6514 4166 c-3 -8 -4 -27 -2 -42 2 -23 9 -30 35 -35 42 -8 57 9 49
56 -6 32 -10 35 -42 35 -21 0 -37 -6 -40 -14z"/>
<path d="M6617 4163 c-3 -10 -4 -29 -3 -43 2 -22 7 -25 42 -25 39 0 39 0 42
43 l3 42 -40 0 c-29 0 -41 -5 -44 -17z"/>
<path d="M3351 4083 c0 -46 2 -83 7 -83 4 0 6 26 4 57 -5 101 -9 111 -11 26z"/>
<path d="M3486 4147 c3 -10 9 -15 12 -12 3 3 0 11 -7 18 -10 9 -11 8 -5 -6z"/>
<path d="M2178 4093 c12 -2 30 -2 40 0 9 3 -1 5 -23 4 -22 0 -30 -2 -17 -4z"/>
<path d="M1855 4080 c-3 -5 -1 -10 4 -10 6 0 11 5 11 10 0 6 -2 10 -4 10 -3 0
-8 -4 -11 -10z"/>
<path d="M2247 4069 c4 -13 8 -18 11 -10 2 7 -1 18 -6 23 -8 8 -9 4 -5 -13z"/>
<path d="M2845 3918 c-4 -90 -5 -206 -4 -258 4 -90 5 -95 27 -98 l23 -3 -5
213 c-4 217 -12 308 -26 308 -4 0 -11 -73 -15 -162z"/>
<path d="M2883 4040 c0 -25 2 -35 4 -22 2 12 2 32 0 45 -2 12 -4 2 -4 -23z"/>
<path d="M2257 4020 c-3 -12 0 -20 7 -20 6 0 12 9 12 20 0 11 -3 20 -7 20 -4
0 -9 -9 -12 -20z"/>
<path d="M3484 4034 c-6 -3 -9 -24 -7 -52 5 -60 9 -72 25 -71 10 0 10 2 1 6
-7 2 -13 17 -13 31 0 21 2 24 10 12 7 -11 10 -7 10 18 0 17 -4 32 -10 32 -5 0
-7 7 -4 15 6 16 6 16 -12 9z"/>
<path d="M1875 4020 c3 -5 8 -10 11 -10 2 0 4 5 4 10 0 6 -5 10 -11 10 -5 0
-7 -4 -4 -10z"/>
<path d="M2085 3990 c3 -5 -3 -10 -13 -10 -11 0 -23 -7 -26 -16 -5 -13 -4 -14
7 -6 7 6 23 8 36 5 21 -5 22 -4 12 16 -7 11 -14 21 -17 21 -3 0 -2 -4 1 -10z"/>
<path d="M2352 3970 c0 -19 2 -27 5 -17 2 9 2 25 0 35 -3 9 -5 1 -5 -18z"/>
<path d="M3536 3928 c-11 -114 -6 -188 13 -188 14 0 15 14 9 127 -5 69 -10
128 -12 130 -2 2 -7 -29 -10 -69z"/>
<path d="M1866 3981 c-4 -5 0 -12 6 -14 10 -4 10 -7 0 -15 -7 -5 -10 -16 -6
-25 8 -21 20 -22 28 -2 3 8 12 15 21 15 14 0 14 3 -1 25 -17 25 -38 32 -48 16z"/>
<path d="M2260 3959 c0 -32 14 -32 23 0 3 12 -1 22 -9 25 -10 4 -14 -3 -14
-25z"/>
<path d="M2332 3970 c0 -14 2 -19 5 -12 2 6 2 18 0 25 -3 6 -5 1 -5 -13z"/>
<path d="M6732 3955 c0 -16 2 -22 5 -12 2 9 2 23 0 30 -3 6 -5 -1 -5 -18z"/>
<path d="M2160 3949 c0 -18 2 -19 15 -9 8 7 15 16 15 21 0 5 -7 9 -15 9 -9 0
-15 -9 -15 -21z"/>
<path d="M6611 3918 c-11 -29 7 -40 57 -36 61 5 48 58 -15 58 -26 0 -36 -5
-42 -22z"/>
<path d="M3220 3876 c0 -24 -3 -64 -6 -90 -4 -28 -3 -46 3 -46 6 0 11 38 12
90 1 50 0 90 -3 90 -4 0 -6 -20 -6 -44z"/>
<path d="M6730 3905 c0 -8 4 -15 10 -15 5 0 7 7 4 15 -4 8 -8 15 -10 15 -2 0
-4 -7 -4 -15z"/>
<path d="M3356 3894 c-3 -9 -6 -47 -6 -86 0 -50 3 -69 12 -66 7 3 13 22 15 43
1 21 7 41 14 45 8 6 8 9 0 14 -6 4 -15 5 -20 1 -11 -6 -9 35 3 53 4 7 3 12 -2
12 -6 0 -13 -7 -16 -16z"/>
<path d="M3395 3870 c-3 -5 1 -10 10 -10 9 0 13 5 10 10 -3 6 -8 10 -10 10 -2
0 -7 -4 -10 -10z"/>
<path d="M3478 3865 c-7 -8 3 -65 12 -60 9 6 11 65 1 65 -4 0 -10 -2 -13 -5z"/>
<path d="M1802 3845 c-11 -12 -10 -15 3 -15 8 0 15 7 15 15 0 18 -2 18 -18 0z"/>
<path d="M3580 3803 c0 -6 -3 -18 -6 -27 -4 -11 -1 -16 10 -16 9 0 16 6 16 13
0 16 -20 46 -20 30z"/>
<path d="M7987 3803 c-3 -5 -1 -17 4 -28 7 -17 8 -17 8 8 1 27 -4 34 -12 20z"/>
<path d="M8121 3763 c1 -39 2 -43 9 -23 12 36 12 70 0 70 -5 0 -10 -21 -9 -47z"/>
<path d="M8243 3770 c0 -25 2 -35 4 -22 2 12 2 32 0 45 -2 12 -4 2 -4 -23z"/>
<path d="M8298 3804 c-5 -4 -8 -28 -7 -53 l1 -46 9 40 c10 43 9 71 -3 59z"/>
<path d="M8182 3780 c0 -14 2 -19 5 -12 2 6 2 18 0 25 -3 6 -5 1 -5 -13z"/>
<path d="M3590 3750 c-10 -7 6 -10 55 -9 48 0 64 3 50 9 -27 12 -87 12 -105 0z"/>
<path d="M8242 3700 c0 -14 2 -19 5 -12 2 6 2 18 0 25 -3 6 -5 1 -5 -13z"/>
<path d="M6288 3703 c7 -3 16 -2 19 1 4 3 -2 6 -13 5 -11 0 -14 -3 -6 -6z"/>
<path d="M6450 3696 c0 -20 17 -29 26 -15 4 8 3 9 -4 5 -7 -4 -12 -2 -12 3 0
6 14 11 30 11 17 0 30 -4 30 -10 0 -5 4 -10 8 -10 5 0 9 7 9 15 0 11 -12 15
-44 15 -31 0 -43 -4 -43 -14z"/>
<path d="M6640 3668 c0 -29 3 -38 9 -29 5 8 21 15 36 17 31 3 46 15 28 21 -7
3 -13 9 -13 15 0 6 7 8 15 4 8 -3 15 -1 15 4 0 6 -20 10 -45 10 l-45 0 0 -42z"/>
<path d="M6820 3669 c0 -32 3 -39 13 -32 14 11 47 11 65 0 9 -6 12 2 12 32 l0
41 -45 0 -45 0 0 -41z m71 8 c-10 -9 -11 -8 -5 6 3 10 9 15 12 12 3 -3 0 -11
-7 -18z"/>
<path d="M7010 3667 l0 -44 45 -1 45 -2 0 45 0 45 -45 0 -45 0 0 -43z"/>
<path d="M6490 3680 c0 -5 5 -10 10 -10 6 0 10 5 10 10 0 6 -4 10 -10 10 -5 0
-10 -4 -10 -10z"/>
<path d="M6450 3649 c0 -5 5 -7 10 -4 6 3 10 8 10 11 0 2 -4 4 -10 4 -5 0 -10
-5 -10 -11z"/>
<path d="M6520 3650 c0 -5 5 -10 11 -10 5 0 7 5 4 10 -3 6 -8 10 -11 10 -2 0
-4 -4 -4 -10z"/>
<path d="M8943 3574 c3 -27 1 -57 -5 -68 -7 -12 -6 -32 1 -60 8 -34 14 -376 8
-468 -2 -32 -11 -35 -29 -10 -7 10 -19 22 -27 27 -11 6 -13 3 -8 -14 11 -43
-29 -92 -48 -61 -5 7 -11 8 -19 1 -7 -6 -41 -7 -91 -2 -44 5 -83 6 -87 4 -4
-2 -5 3 -2 11 4 11 0 16 -11 16 -9 0 -13 -4 -10 -10 4 -6 -5 -10 -21 -10 -22
0 -25 2 -14 15 11 13 8 15 -21 15 -48 0 -79 10 -79 25 0 19 -91 25 -111 8 -8
-7 -20 -13 -26 -13 -17 0 -24 -57 -10 -82 54 -99 107 -163 172 -208 28 -19 52
-37 55 -40 28 -28 186 -86 255 -94 133 -15 125 -11 125 -76 0 -72 -29 -462
-35 -468 -2 -3 0 -12 4 -21 7 -12 24 -16 73 -16 l63 0 -2 35 c0 19 -6 144 -13
277 -6 133 -9 246 -6 251 3 5 45 12 93 15 231 18 413 117 540 294 41 58 45 67
34 91 -10 24 -10 25 3 9 13 -17 15 -14 30 30 9 26 18 68 20 93 2 25 1 36 -1
25 -3 -11 -11 -28 -18 -38 -7 -10 -11 -26 -8 -35 2 -10 -5 -22 -17 -30 -20
-12 -20 -12 -5 24 8 20 15 44 14 53 -1 9 -4 5 -9 -9 -4 -14 -8 -19 -9 -12 -1
7 -17 12 -45 12 -26 0 -47 5 -50 13 -4 6 -4 2 -2 -9 2 -12 -1 -28 -6 -35 -8
-11 -9 -10 -4 4 8 26 -18 21 -33 -6 -18 -34 -71 -58 -132 -61 -29 -2 -55 -8
-57 -14 -2 -7 -23 -12 -49 -12 l-45 0 7 33 7 32 -33 -40 c-91 -107 -129 -133
-129 -88 0 12 3 13 13 4 18 -14 30 -2 16 16 -7 8 -34 13 -75 13 l-63 0 -6 33
c-12 70 -25 257 -25 355 0 77 5 118 20 163 22 64 21 86 -2 50 -20 -32 -25 -26
-33 39 -4 33 -12 63 -17 67 -7 4 -9 -10 -5 -43z m4 -96 c-3 -8 -6 -5 -6 6 -1
11 2 17 5 13 3 -3 4 -12 1 -19z m743 -449 c0 -6 -4 -7 -10 -4 -5 3 -10 11 -10
16 0 6 5 7 10 4 6 -3 10 -11 10 -16z"/>
<path d="M7703 3550 c0 -36 2 -50 4 -32 2 17 2 47 0 65 -2 17 -4 3 -4 -33z"/>
<path d="M7800 3545 c0 -38 3 -65 7 -62 7 8 5 119 -3 126 -2 2 -4 -26 -4 -64z"/>
<path d="M7866 3553 c9 -78 14 -79 14 -5 0 38 -4 62 -11 62 -7 0 -8 -19 -3
-57z"/>
<path d="M7928 3560 c-1 -28 0 -50 5 -50 4 0 7 23 7 50 0 65 -7 65 -12 0z"/>
<path d="M7986 3602 c-3 -5 -1 -22 4 -38 8 -29 8 -29 9 9 1 36 -3 45 -13 29z"/>
<path d="M8113 3560 c0 -30 2 -43 4 -27 2 15 2 39 0 55 -2 15 -4 2 -4 -28z"/>
<path d="M8051 3564 c0 -11 3 -14 6 -6 3 7 2 16 -1 19 -3 4 -6 -2 -5 -13z"/>
<path d="M7991 3504 c0 -11 3 -14 6 -6 3 7 2 16 -1 19 -3 4 -6 -2 -5 -13z"/>
<path d="M7920 3489 c0 -5 5 -7 10 -4 6 3 10 8 10 11 0 2 -4 4 -10 4 -5 0 -10
-5 -10 -11z"/>
<path d="M3383 3483 c15 -2 37 -2 50 0 12 2 0 4 -28 4 -27 0 -38 -2 -22 -4z"/>
<path d="M3540 3480 c0 -5 14 -7 31 -5 45 6 49 15 6 15 -20 0 -37 -4 -37 -10z"/>
<path d="M3948 3483 c12 -2 32 -2 45 0 12 2 2 4 -23 4 -25 0 -35 -2 -22 -4z"/>
<path d="M4080 3480 c0 -5 20 -10 44 -10 25 0 48 5 51 10 4 6 -13 10 -44 10
-28 0 -51 -4 -51 -10z"/>
<path d="M7703 3350 c0 -41 2 -58 4 -37 2 20 2 54 0 75 -2 20 -4 3 -4 -38z"/>
<path d="M7752 3390 c0 -19 2 -27 5 -17 2 9 2 25 0 35 -3 9 -5 1 -5 -18z"/>
<path d="M7809 3418 c-6 -25 -5 -129 2 -133 5 -4 9 23 9 64 0 39 -2 71 -5 71
-3 0 -5 -1 -6 -2z"/>
<path d="M7866 3378 c-3 -24 -2 -56 3 -73 8 -25 9 -17 10 43 1 39 -1 72 -3 72
-2 0 -7 -19 -10 -42z"/>
<path d="M7920 3349 c0 -44 4 -68 10 -64 6 3 10 35 10 71 0 36 -4 64 -10 64
-6 0 -10 -30 -10 -71z"/>
<path d="M7980 3350 c0 -40 4 -70 10 -70 6 0 10 30 10 70 0 40 -4 70 -10 70
-6 0 -10 -30 -10 -70z"/>
<path d="M8053 3365 c0 -33 2 -45 4 -27 2 18 2 45 0 60 -2 15 -4 0 -4 -33z"/>
<path d="M8117 3413 c-11 -10 -8 -101 3 -108 6 -4 10 17 10 54 0 62 -1 66 -13
54z"/>
<path d="M8233 3360 c0 -36 2 -50 4 -32 2 17 2 47 0 65 -2 17 -4 3 -4 -33z"/>
<path d="M2847 3393 c-4 -3 -7 -153 -7 -332 l1 -326 23 -17 c23 -17 24 -17 27
10 2 15 3 172 1 350 -3 300 -4 322 -21 322 -10 0 -21 -3 -24 -7z"/>
<path d="M2956 3392 c-4 -7 -8 -503 -6 -740 0 -41 1 -43 28 -40 22 2 28 9 31
33 1 17 0 193 -4 393 -7 341 -8 362 -26 362 -10 0 -20 -4 -23 -8z"/>
<path d="M3076 3369 c-7 -38 -8 -753 -1 -761 3 -3 17 -3 30 0 l25 4 -2 392
c-3 390 -3 391 -24 394 -17 2 -23 -4 -28 -29z"/>
<path d="M3190 3004 c0 -371 1 -395 18 -392 16 3 17 21 16 218 -1 511 -3 570
-19 570 -13 0 -15 -51 -15 -396z"/>
<path d="M8177 3325 c-4 -8 -2 -17 3 -20 6 -4 10 3 10 14 0 25 -6 27 -13 6z"/>
<path d="M9731 3264 c0 -11 3 -14 6 -6 3 7 2 16 -1 19 -3 4 -6 -2 -5 -13z"/>
<path d="M7696 3197 c-5 -15 -4 -49 0 -75 l8 -47 4 38 c2 20 2 54 0 75 -4 36
-4 36 -12 9z"/>
<path d="M7800 3150 c0 -40 4 -70 10 -70 6 0 10 30 10 70 0 40 -4 70 -10 70
-6 0 -10 -30 -10 -70z"/>
<path d="M7861 3150 c2 -86 19 -105 19 -21 0 32 3 66 6 75 4 11 1 16 -10 16
-14 0 -16 -11 -15 -70z"/>
<path d="M7980 3150 c0 -40 4 -70 10 -70 6 0 10 30 10 70 0 40 -4 70 -10 70
-6 0 -10 -30 -10 -70z"/>
<path d="M8048 3203 c-2 -10 -1 -34 3 -53 6 -31 6 -30 8 18 1 52 -3 67 -11 35z"/>
<path d="M8113 3170 c0 -30 2 -43 4 -27 2 15 2 39 0 55 -2 15 -4 2 -4 -28z"/>
<path d="M7753 3175 c0 -22 2 -30 4 -17 2 12 2 30 0 40 -3 9 -5 -1 -4 -23z"/>
<path d="M7921 3145 c2 -85 19 -96 19 -11 0 36 -5 68 -10 71 -7 4 -10 -17 -9
-60z"/>
<path d="M8180 3183 c0 -22 2 -25 10 -13 13 20 13 40 0 40 -5 0 -10 -12 -10
-27z"/>
<path d="M9751 3154 c0 -11 3 -14 6 -6 3 7 2 16 -1 19 -3 4 -6 -2 -5 -13z"/>
<path d="M2635 3116 c-4 -24 -5 -52 -2 -62 3 -11 5 0 6 24 1 35 4 42 21 42 22
0 18 25 -5 34 -10 3 -16 -7 -20 -38z"/>
<path d="M2692 3058 c-7 -7 -12 -31 -12 -55 0 -36 -3 -43 -20 -43 -17 0 -20
-7 -20 -41 0 -36 3 -41 19 -36 16 4 20 -2 23 -39 2 -25 -1 -44 -7 -44 -5 0 -3
-5 5 -10 12 -7 8 -10 -15 -10 -23 0 -27 -3 -15 -10 24 -15 70 -12 70 5 0 8 -5
15 -10 15 -7 0 -7 6 0 19 12 23 14 261 2 261 -4 0 -13 -5 -20 -12z"/>
<path d="M8450 3055 c0 -8 -4 -15 -10 -15 -5 0 -10 5 -10 10 0 6 -5 10 -11 10
-26 0 1 -25 33 -31 38 -6 48 10 16 30 -14 9 -18 8 -18 -4z"/>
<path d="M8293 3044 c-7 -7 -9 -15 -4 -19 5 -3 12 1 15 7 3 7 2 -6 -1 -29 -4
-29 -2 -43 6 -43 12 0 15 68 3 86 -5 9 -10 8 -19 -2z"/>
<path d="M5323 3005 c0 -22 2 -30 4 -17 2 12 2 30 0 40 -3 9 -5 -1 -4 -23z"/>
<path d="M7690 2978 c0 -24 5 -50 10 -58 7 -11 10 2 10 43 0 31 -4 57 -10 57
-5 0 -10 -19 -10 -42z"/>
<path d="M7746 2971 c-3 -26 -2 -59 3 -72 8 -19 10 -8 10 49 1 39 -1 72 -3 72
-2 0 -6 -22 -10 -49z"/>
<path d="M7800 2950 c0 -40 4 -70 10 -70 6 0 10 30 10 70 0 40 -4 70 -10 70
-6 0 -10 -30 -10 -70z"/>
<path d="M7860 2963 c0 -73 16 -104 21 -42 5 57 0 99 -12 99 -5 0 -9 -26 -9
-57z"/>
<path d="M7920 2955 c0 -37 4 -65 10 -65 6 0 10 28 10 65 0 37 -4 65 -10 65
-6 0 -10 -28 -10 -65z"/>
<path d="M7980 2954 c0 -48 3 -65 13 -62 7 3 13 28 15 66 2 51 0 62 -13 62
-12 0 -15 -13 -15 -66z"/>
<path d="M8500 3002 c0 -9 44 -32 58 -32 9 1 -41 39 -50 40 -5 0 -8 -4 -8 -8z"/>
<path d="M9415 2980 c-3 -5 1 -10 9 -10 9 0 16 5 16 10 0 6 -4 10 -9 10 -6 0
-13 -4 -16 -10z"/>
<path d="M5207 2883 c-4 -3 -7 -24 -7 -45 0 -27 4 -38 15 -38 11 0 15 12 15
45 0 42 -7 54 -23 38z"/>
<path d="M821 2834 c0 -11 3 -14 6 -6 3 7 2 16 -1 19 -3 4 -6 -2 -5 -13z"/>
<path d="M7800 2756 c0 -62 3 -76 15 -76 13 0 15 12 13 72 -2 46 -7 73 -15 76
-10 3 -13 -16 -13 -72z"/>
<path d="M7865 2818 c-3 -8 -4 -41 -1 -74 3 -32 5 -63 5 -67 1 -5 5 -6 9 -3
10 6 8 143 -2 153 -3 3 -8 -1 -11 -9z"/>
<path d="M7978 2823 c-7 -15 4 -143 12 -143 13 0 16 22 12 88 -3 54 -14 77
-24 55z"/>
<path d="M7920 2745 c0 -43 4 -75 10 -75 6 0 10 32 10 75 0 43 -4 75 -10 75
-6 0 -10 -32 -10 -75z"/>
<path d="M820 2775 c0 -5 5 -17 10 -25 5 -8 10 -10 10 -5 0 6 -5 17 -10 25 -5
8 -10 11 -10 5z"/>
<path d="M7762 2750 c0 -19 2 -27 5 -17 2 9 2 25 0 35 -3 9 -5 1 -5 -18z"/>
<path d="M871 2694 c0 -11 3 -14 6 -6 3 7 2 16 -1 19 -3 4 -6 -2 -5 -13z"/>
<path d="M5222 2665 c0 -16 2 -22 5 -12 2 9 2 23 0 30 -3 6 -5 -1 -5 -18z"/>
<path d="M8053 2575 c0 -38 2 -53 4 -32 2 20 2 52 0 70 -2 17 -4 1 -4 -38z"/>
<path d="M7746 2598 c-30 -72 -30 -80 -4 -76 20 3 23 9 25 56 1 28 -1 52 -3
52 -3 0 -11 -15 -18 -32z"/>
<path d="M7800 2575 c0 -41 3 -56 13 -53 7 3 12 23 12 53 0 30 -5 50 -12 52
-10 3 -13 -11 -13 -52z"/>
<path d="M7867 2623 c-4 -3 -7 -28 -7 -55 0 -36 4 -48 15 -48 12 0 15 13 15
55 0 51 -7 65 -23 48z"/>
<path d="M7920 2569 c0 -81 24 -77 28 4 2 46 0 57 -13 57 -12 0 -15 -13 -15
-61z"/>
<path d="M7982 2579 c2 -32 8 -54 16 -57 10 -3 12 9 10 49 -2 32 -8 54 -16 57
-10 3 -12 -9 -10 -49z"/>
<path d="M8366 2613 c-3 -4 -66 -9 -139 -12 l-132 -6 -3 -30 c-2 -22 0 -26 7
-16 7 12 10 9 14 -10 2 -13 3 -7 2 14 -2 20 -1 37 2 37 3 0 19 -13 35 -30 15
-16 37 -30 47 -30 36 0 44 -25 39 -113 -3 -45 -3 -92 1 -105 6 -21 7 -22 29
-7 20 15 22 24 22 103 0 108 5 126 38 143 44 22 82 50 82 60 0 10 -33 12 -44
2z"/>
<path d="M6839 2601 c7 -5 9 -10 3 -12 -6 -2 -4 -9 4 -17 12 -11 14 -9 14 13
0 17 -5 25 -17 25 -14 0 -15 -2 -4 -9z"/>
<path d="M5219 2535 c-5 -50 -4 -63 7 -53 3 3 4 28 2 54 l-3 49 -6 -50z"/>
<path d="M5323 2525 c0 -27 2 -38 4 -22 2 15 2 37 0 50 -2 12 -4 0 -4 -28z"/>
<path d="M6832 2545 c0 -16 2 -22 5 -12 2 9 2 23 0 30 -3 6 -5 -1 -5 -18z"/>
<path d="M6888 2543 c7 -3 16 -2 19 1 4 3 -2 6 -13 5 -11 0 -14 -3 -6 -6z"/>
<path d="M6885 2520 c-3 -5 -2 -10 4 -10 5 0 13 5 16 10 3 6 2 10 -4 10 -5 0
-13 -4 -16 -10z"/>
<path d="M7689 2448 c0 -13 -4 -60 -7 -105 -4 -44 -4 -79 0 -77 5 3 8 -2 8
-10 0 -16 37 -46 57 -46 8 0 13 14 13 38 l-1 37 -18 -22 c-11 -13 -22 -23 -25
-23 -7 0 2 189 10 201 2 4 -5 13 -16 19 -17 9 -20 8 -21 -12z"/>
<path d="M7868 2464 c-10 -15 -14 -82 -6 -90 4 -3 10 5 13 19 8 31 2 86 -7 71z"/>
<path d="M7736 2438 c-9 -34 -7 -68 4 -68 13 0 24 70 13 81 -7 7 -12 2 -17
-13z"/>
<path d="M7780 2393 c0 -121 29 -122 38 -2 4 65 4 69 -17 69 -19 0 -21 -5 -21
-67z"/>
<path d="M8201 2440 c0 -14 4 -34 9 -45 8 -18 9 -18 9 5 0 14 -4 34 -9 45 -8
18 -9 18 -9 -5z"/>
<path d="M3908 2393 c12 -2 30 -2 40 0 9 3 -1 5 -23 4 -22 0 -30 -2 -17 -4z"/>
<path d="M4033 2393 c9 -2 25 -2 35 0 9 3 1 5 -18 5 -19 0 -27 -2 -17 -5z"/>
<path d="M5320 2376 c0 -9 5 -16 10 -16 6 0 10 4 10 9 0 6 -4 13 -10 16 -5 3
-10 -1 -10 -9z"/>
<path d="M5000 2345 c0 -14 2 -25 4 -25 2 0 6 11 8 25 3 14 1 25 -3 25 -5 0
-9 -11 -9 -25z"/>
<path d="M5205 2360 c3 -5 13 -10 21 -10 8 0 14 5 14 10 0 6 -9 10 -21 10 -11
0 -17 -4 -14 -10z"/>
<path d="M7735 2350 c-3 -5 -1 -10 4 -10 6 0 11 5 11 10 0 6 -2 10 -4 10 -3 0
-8 -4 -11 -10z"/>
<path d="M6406 2304 c-3 -9 -6 -27 -6 -40 0 -15 -6 -24 -15 -24 -11 0 -15 -11
-15 -40 0 -37 -2 -40 -27 -40 -39 0 -25 -6 30 -13 31 -4 46 -3 42 3 -3 6 -1
10 4 10 6 0 11 -4 11 -10 0 -5 23 -10 50 -10 l51 0 -6 53 c-9 76 -10 77 -55
77 -36 0 -40 2 -40 25 0 28 -15 34 -24 9z"/>
<path d="M6500 2310 c0 -5 5 -10 10 -10 6 0 10 5 10 10 0 6 -4 10 -10 10 -5 0
-10 -4 -10 -10z"/>
<path d="M3458 2234 c-16 -15 6 -24 62 -24 32 0 60 -4 62 -10 2 -5 19 -11 38
-13 41 -5 106 -32 115 -47 5 -8 -24 -9 -97 -5 -127 8 -131 9 -126 38 3 17 0
23 -13 24 -17 2 -16 -1 2 -45 11 -26 24 -51 29 -56 13 -13 82 2 74 16 -5 8 -1
9 10 5 10 -4 32 -8 49 -8 33 -1 28 -3 -37 -14 -29 -5 -36 -9 -25 -16 10 -6 5
-9 -18 -9 -35 0 -46 -13 -58 -67 -6 -29 -3 -34 27 -53 18 -11 43 -20 54 -20
22 0 49 31 55 65 3 16 15 21 57 25 44 5 52 3 52 -11 0 -10 12 -32 26 -49 22
-26 32 -30 53 -25 40 10 61 35 61 71 0 43 -36 69 -81 60 -25 -5 -36 -1 -50 16
-23 26 -24 30 -1 27 39 -4 60 2 66 17 5 14 4 15 -7 5 -11 -9 -36 0 -116 40
-61 31 -108 49 -118 45 -9 -4 -19 -2 -22 3 -8 11 -114 25 -123 15z m287 -134
c-3 -5 -12 -7 -20 -3 -21 7 -19 13 6 13 11 0 18 -4 14 -10z m133 -103 c3 -21
-2 -29 -20 -36 -26 -10 -48 3 -48 28 0 47 63 54 68 8z m-253 3 c18 -20 18 -21
-1 -35 -32 -24 -54 -19 -54 14 0 26 9 37 31 40 3 1 14 -8 24 -19z"/>
<path d="M3861 2204 c0 -11 3 -14 6 -6 3 7 2 16 -1 19 -3 4 -6 -2 -5 -13z"/>
<path d="M8433 2182 c-46 -5 -41 -19 7 -24 27 -2 40 0 40 9 0 16 -9 19 -47 15z"/>
<path d="M4120 2125 c0 -11 7 -15 23 -13 12 2 22 8 22 13 0 6 -10 11 -22 13
-16 2 -23 -2 -23 -13z"/>
<path d="M8480 2128 c0 -5 18 -8 40 -8 22 0 40 2 40 4 0 2 -18 6 -40 8 -22 2
-40 0 -40 -4z"/>
<path d="M4080 2070 c0 -5 5 -10 11 -10 5 0 7 5 4 10 -3 6 -8 10 -11 10 -2 0
-4 -4 -4 -10z"/>
<path d="M6168 2053 c28 -2 76 -2 105 0 28 2 5 3 -53 3 -58 0 -81 -1 -52 -3z"/>
<path d="M6498 2053 c12 -2 32 -2 45 0 12 2 2 4 -23 4 -25 0 -35 -2 -22 -4z"/>
<path d="M3938 2033 c12 -2 32 -2 45 0 12 2 2 4 -23 4 -25 0 -35 -2 -22 -4z"/>
</g>
</svg>
