<?xml version="1.0" standalone="no"?>
<!DOCTYPE svg PUBLIC "-//W3C//DTD SVG 20010904//EN"
 "http://www.w3.org/TR/2001/REC-SVG-20010904/DTD/svg10.dtd">
<svg version="1.0" xmlns="http://www.w3.org/2000/svg"
 width="1024.000000pt" height="1024.000000pt" viewBox="0 0 1024.000000 1024.000000"
 preserveAspectRatio="xMidYMid meet">

<g transform="translate(0.000000,1024.000000) scale(0.100000,-0.100000)"
fill="#000000" stroke="none">
<path d="M485 10200 c-3 -6 1 -7 9 -4 18 7 21 14 7 14 -6 0 -13 -4 -16 -10z"/>
<path d="M8695 10070 c-3 -5 -1 -10 4 -10 6 0 11 5 11 10 0 6 -2 10 -4 10 -3
0 -8 -4 -11 -10z"/>
<path d="M9305 9889 c-69 -9 -202 -41 -230 -57 -39 -20 -80 -36 -100 -38 -23
-3 -160 -56 -209 -81 -17 -9 -35 -22 -39 -29 -4 -8 -13 -14 -19 -14 -5 0 -27
-13 -47 -29 -20 -15 -43 -30 -51 -33 -8 -3 113 -8 270 -12 157 -3 326 -8 375
-11 79 -3 82 -3 30 5 -33 4 -106 8 -162 9 -57 1 -103 4 -103 9 0 10 53 38 105
55 l39 14 -59 6 c-128 13 -150 31 -98 78 l27 24 -22 -29 c-30 -39 -18 -46 76
-46 56 0 86 6 135 26 50 22 83 28 170 32 99 4 123 11 97 27 -6 4 -8 11 -5 16
4 5 1 9 -4 9 -19 0 -12 20 7 20 15 1 15 2 -2 15 -11 8 -15 15 -10 15 6 0 19 7
30 15 17 13 11 14 -61 13 -44 0 -107 -4 -140 -9z"/>
<path d="M9135 9653 c-47 -19 -50 -21 -43 -29 6 -5 98 34 98 42 0 7 -14 4 -55
-13z"/>
<path d="M8102 9618 c3 -7 18 -14 34 -16 l29 -3 -29 16 c-34 18 -39 19 -34 3z"/>
<path d="M597 9566 c-26 -7 -68 -13 -92 -14 -87 -1 -95 -2 -95 -10 0 -4 31
-15 69 -24 59 -14 75 -14 107 -3 35 12 36 13 14 17 -25 4 -25 4 5 16 83 34 80
41 -8 18z"/>
<path d="M9368 9573 c6 -2 18 -2 25 0 6 3 1 5 -13 5 -14 0 -19 -2 -12 -5z"/>
<path d="M7738 9525 c-14 -31 2 -53 46 -59 17 -3 96 -15 176 -26 219 -33 273
-47 325 -86 44 -34 45 -34 35 -9 -6 15 -10 37 -10 49 0 20 -9 25 -62 39 -93
24 -238 47 -368 58 -120 10 -142 18 -120 44 9 10 9 15 1 15 -6 0 -16 -11 -23
-25z"/>
<path d="M8521 9539 c-71 -12 -76 -19 -15 -20 88 -1 95 -13 20 -37 -36 -12
-73 -22 -80 -22 -7 0 -19 -7 -26 -15 -10 -12 -9 -15 4 -15 10 0 14 -4 11 -10
-4 -6 13 -10 44 -10 l49 0 -10 -28 c-10 -24 -7 -34 15 -66 14 -21 23 -46 20
-55 -4 -12 -3 -13 5 -3 7 10 16 5 39 -21 16 -19 36 -43 44 -54 8 -11 24 -25
37 -32 12 -6 22 -18 22 -26 0 -19 -1 -19 62 10 29 14 62 25 73 24 13 0 7 -5
-17 -16 -38 -15 -43 -25 -39 -78 1 -11 -9 -30 -23 -42 -20 -18 -23 -27 -17
-55 13 -54 32 -77 109 -125 75 -47 132 -72 166 -73 13 0 6 9 -23 31 -28 19
-41 36 -37 45 3 8 0 23 -6 34 -9 14 -9 25 -1 43 9 18 33 31 104 56 88 31 98
32 184 26 116 -9 225 -33 225 -50 0 -7 14 -18 32 -26 33 -13 98 -78 110 -109
4 -12 1 -20 -9 -24 -9 -4 -13 -14 -10 -26 4 -15 -2 -24 -21 -34 -38 -19 -124
-36 -190 -37 -49 0 -54 -2 -32 -11 32 -13 256 -12 342 2 36 5 74 7 85 4 13 -4
15 -3 5 4 -10 7 -4 11 25 17 21 5 47 9 58 10 11 1 38 10 60 19 22 10 67 19
100 20 69 3 155 24 155 38 0 5 4 7 9 3 5 -3 21 0 35 6 l26 12 0 139 0 140 -40
15 -40 16 22 24 c12 12 30 23 40 23 14 0 18 8 18 35 0 21 -5 35 -12 35 -7 0
-49 11 -93 25 -153 47 -301 84 -425 105 -69 11 -163 28 -210 36 -213 40 -422
64 -552 64 -60 0 -68 2 -68 19 0 18 8 19 173 16 l172 -3 -95 14 c-119 17 -536
26 -609 13z m919 -137 c0 -10 6 -24 13 -31 10 -11 10 -14 0 -18 -7 -3 -13 -20
-13 -38 0 -18 6 -36 13 -38 6 -3 2 -6 -10 -6 -21 -1 -29 13 -24 43 4 20 -12
46 -28 46 -9 0 -25 6 -36 13 -17 13 -17 15 6 30 33 23 79 23 79 -1z m121 -12
c11 0 19 -7 19 -15 0 -11 -11 -15 -42 -15 -49 0 -74 12 -63 30 5 7 19 10 37 6
17 -3 39 -6 49 -6z m-701 -40 c0 -5 -4 -10 -10 -10 -5 0 -10 5 -10 10 0 6 5
10 10 10 6 0 10 -4 10 -10z m840 -11 c0 -5 -4 -9 -10 -9 -5 0 -10 7 -10 16 0
8 5 12 10 9 6 -3 10 -10 10 -16z m-155 0 c4 -5 17 -9 30 -9 13 0 28 -6 32 -14
5 -9 38 -18 88 -24 44 -5 64 -10 44 -11 -29 -1 -38 -6 -43 -23 l-7 -23 -11 23
c-6 12 -15 22 -19 22 -12 0 -22 -46 -14 -60 4 -6 1 -17 -5 -25 -9 -11 -9 -15
-1 -15 6 0 11 -4 11 -9 0 -12 -42 -1 -59 17 -12 12 -12 13 0 12 30 -5 48 1 44
13 -4 8 -23 11 -60 9 -51 -4 -55 -2 -55 18 0 21 4 22 55 18 39 -3 56 -1 59 9
3 8 -2 13 -12 13 -10 0 -27 8 -38 18 -21 20 -56 18 -48 -2 5 -14 -22 -30 -36
-21 -6 4 -7 68 -1 70 14 5 42 1 46 -6z m-185 -9 c0 -5 -5 -10 -11 -10 -5 0 -7
5 -4 10 3 6 8 10 11 10 2 0 4 -4 4 -10z m457 -22 c-3 -8 -6 -5 -6 6 -1 11 2
17 5 13 3 -3 4 -12 1 -19z m-27 2 c0 -5 -4 -10 -9 -10 -6 0 -13 5 -16 10 -3 6
1 10 9 10 9 0 16 -4 16 -10z m-354 -50 c9 0 12 -4 9 -10 -9 -14 -18 -13 -41 6
-17 14 -17 15 -1 10 10 -3 25 -6 33 -6z m527 -1 c44 -12 49 -35 10 -50 -34
-13 -73 3 -73 29 0 34 8 37 63 21z m-586 -25 c-3 -3 -12 -4 -19 -1 -8 3 -5 6
6 6 11 1 17 -2 13 -5z m50 -10 c-3 -3 -12 -4 -19 -1 -8 3 -5 6 6 6 11 1 17 -2
13 -5z m68 -4 c3 -5 -3 -10 -14 -10 -11 0 -23 5 -26 10 -3 6 3 10 14 10 11 0
23 -4 26 -10z m185 -10 c0 -5 -5 -10 -11 -10 -5 0 -7 5 -4 10 3 6 8 10 11 10
2 0 4 -4 4 -10z m439 -1 c25 -9 29 -14 20 -25 -14 -17 -85 -19 -95 -2 -4 6 1
17 11 25 23 16 24 16 64 2z m-807 -34 c168 -24 325 -67 425 -117 46 -23 44
-31 -15 -61 -29 -14 -37 -14 -72 -2 -78 28 -237 65 -380 90 -99 17 -153 31
-172 45 -15 11 -31 20 -37 20 -5 0 -12 7 -15 16 -5 14 -17 16 -79 10 -39 -4
-81 -9 -92 -12 -18 -4 -18 -4 -3 6 24 15 188 29 273 23 39 -3 113 -11 167 -18z
m373 -25 c3 -6 -1 -7 -9 -4 -18 7 -21 14 -7 14 6 0 13 -4 16 -10z m392 -376
c-3 -3 -12 -4 -19 -1 -8 3 -5 6 6 6 11 1 17 -2 13 -5z"/>
<path d="M8538 9503 c7 -3 16 -2 19 1 4 3 -2 6 -13 5 -11 0 -14 -3 -6 -6z"/>
<path d="M10220 9471 c0 -5 5 -13 10 -16 6 -3 10 -2 10 4 0 5 -4 13 -10 16 -5
3 -10 2 -10 -4z"/>
<path d="M490 9450 c25 -10 56 -19 70 -19 18 0 11 6 -25 19 -66 24 -103 24
-45 0z"/>
<path d="M1120 9455 c0 -24 4 -30 19 -27 8 2 18 -2 22 -10 7 -10 11 -10 21 0
9 9 9 12 -4 12 -9 0 -18 9 -21 20 -6 23 -37 27 -37 5z"/>
<path d="M390 9450 c8 -5 22 -9 30 -9 10 0 8 3 -5 9 -27 12 -43 12 -25 0z"/>
<path d="M10171 9420 c-9 -5 -7 -9 8 -13 12 -3 23 -2 26 3 7 11 -19 20 -34 10z"/>
<path d="M1160 9400 c-24 -8 -24 -8 -2 -9 12 -1 34 -8 48 -17 33 -22 43 -10
13 15 -27 23 -24 22 -59 11z"/>
<path d="M670 9396 c0 -2 7 -7 16 -10 8 -3 12 -2 9 4 -6 10 -25 14 -25 6z"/>
<path d="M730 9366 c28 -17 50 -21 35 -7 -6 5 -21 12 -35 15 l-25 7 25 -15z"/>
<path d="M805 9326 c11 -7 38 -19 60 -26 22 -7 74 -31 115 -53 41 -22 98 -51
125 -65 28 -14 83 -47 124 -74 79 -53 102 -56 55 -7 -26 27 -111 72 -334 177
-122 57 -191 80 -145 48z"/>
<path d="M470 9308 c0 -6 3 -9 6 -5 14 13 205 -82 259 -129 l40 -35 -53 4 -53
4 23 -26 c13 -14 26 -28 30 -31 6 -5 22 -56 23 -74 0 -12 56 -28 73 -21 8 3
19 -1 27 -8 17 -17 86 -20 138 -6 33 9 43 8 52 -4 9 -12 12 -12 23 -1 12 13 8
18 -10 15 -5 0 -8 3 -8 8 0 5 -15 24 -33 43 -19 18 -39 42 -46 53 -11 17 -12
17 -7 2 5 -17 2 -16 -32 4 -20 13 -39 26 -42 30 -5 6 -214 109 -332 163 -63
29 -78 32 -78 14z"/>
<path d="M518 9243 c7 -3 16 -2 19 1 4 3 -2 6 -13 5 -11 0 -14 -3 -6 -6z"/>
<path d="M1027 9172 c-14 -3 -16 -7 -6 -18 15 -18 49 -18 49 0 0 16 -18 24
-43 18z"/>
<path d="M1080 9151 c0 -17 18 -21 24 -6 3 9 0 15 -9 15 -8 0 -15 -4 -15 -9z"/>
<path d="M1146 9126 c3 -9 13 -16 22 -16 8 0 13 1 11 3 -2 1 -12 9 -22 16 -15
12 -17 12 -11 -3z"/>
<path d="M990 9106 c0 -15 16 -30 42 -39 12 -4 15 -2 11 9 -3 7 -12 14 -20 14
-13 0 -13 3 -3 15 10 13 9 15 -9 15 -11 0 -21 -6 -21 -14z"/>
<path d="M1360 9075 c0 -8 6 -15 14 -15 8 0 23 -3 33 -6 13 -4 11 0 -7 15 -30
25 -40 26 -40 6z"/>
<path d="M1070 9032 c0 -6 11 -24 25 -39 17 -20 24 -23 25 -12 0 8 -11 26 -25
39 -14 13 -25 18 -25 12z"/>
<path d="M4005 8836 c-282 -100 -505 -243 -709 -455 -103 -107 -107 -112 -144
-170 -19 -31 -52 -77 -74 -102 -21 -26 -38 -54 -38 -62 0 -9 -4 -18 -9 -22 -6
-3 -16 -18 -24 -33 -7 -15 -31 -57 -51 -94 -41 -73 -103 -236 -117 -308 -5
-25 -16 -65 -24 -90 -8 -25 -15 -61 -17 -80 -1 -19 -6 -40 -11 -47 -5 -7 -9
-76 -10 -155 0 -79 -3 -133 -5 -120 -2 12 -8 22 -13 22 -12 0 -11 -10 5 -39
15 -27 21 -21 30 34 23 129 95 300 177 423 56 83 219 234 315 293 91 56 255
139 275 139 6 0 17 6 24 13 8 6 28 23 45 37 16 13 30 30 30 38 0 8 10 27 21
44 28 38 28 123 2 145 -10 8 -12 12 -5 8 8 -4 12 1 12 14 0 12 7 21 15 21 8 0
12 6 9 13 -2 7 7 19 21 27 14 7 25 19 25 27 0 7 5 13 11 13 6 0 9 6 6 13 -3 8
10 26 29 42 19 16 34 34 34 42 0 7 11 13 24 13 16 0 31 12 51 42 35 53 73 88
95 88 10 0 31 7 46 15 l29 15 -25 1 -25 1 25 7 c14 5 40 15 57 24 18 10 41 17
53 17 12 0 18 5 15 10 -8 12 -3 13 29 0 37 -14 32 2 -8 24 -41 22 -56 52 -56
111 0 30 -4 45 -12 44 -7 0 -67 -20 -133 -43z m-445 -604 c0 -5 -11 -19 -25
-32 -25 -23 -25 -23 -25 -2 0 11 8 26 18 31 21 13 32 14 32 3z"/>
<path d="M5520 8827 c0 -17 68 -39 88 -28 10 6 6 11 -16 20 -17 7 -36 10 -41
6 -6 -3 -11 -1 -11 4 0 6 -4 11 -10 11 -5 0 -10 -6 -10 -13z"/>
<path d="M5770 8735 c7 -8 19 -15 27 -15 13 0 13 3 3 15 -7 8 -19 15 -27 15
-13 0 -13 -3 -3 -15z"/>
<path d="M9850 8710 c20 -13 33 -13 25 0 -3 6 -14 10 -23 10 -15 0 -15 -2 -2
-10z"/>
<path d="M5105 8664 c-24 -37 -13 -40 14 -4 12 17 17 30 12 30 -5 0 -16 -12
-26 -26z"/>
<path d="M4362 8673 c9 -2 22 -17 28 -34 16 -39 23 -31 9 9 -8 23 -17 32 -32
31 -16 -1 -17 -3 -5 -6z"/>
<path d="M4421 8554 c0 -11 3 -14 6 -6 3 7 2 16 -1 19 -3 4 -6 -2 -5 -13z"/>
<path d="M4364 8546 c-4 -10 -2 -22 4 -28 8 -8 13 -7 18 6 4 10 2 22 -4 28 -8
8 -13 7 -18 -6z"/>
<path d="M5110 8531 c0 -12 6 -21 16 -21 9 0 14 7 12 17 -5 25 -28 28 -28 4z"/>
<path d="M4432 8505 c0 -16 2 -22 5 -12 2 9 2 23 0 30 -3 6 -5 -1 -5 -18z"/>
<path d="M4442 8425 c0 -16 2 -22 5 -12 2 9 2 23 0 30 -3 6 -5 -1 -5 -18z"/>
<path d="M4360 8385 c0 -18 5 -25 20 -25 15 0 20 7 20 25 0 18 -5 25 -20 25
-15 0 -20 -7 -20 -25z"/>
<path d="M5097 8403 c-4 -3 -7 -15 -7 -25 0 -23 38 -25 47 -2 8 21 -24 43 -40
27z"/>
<path d="M8105 8400 c3 -5 8 -10 11 -10 2 0 4 5 4 10 0 6 -5 10 -11 10 -5 0
-7 -4 -4 -10z"/>
<path d="M8124 8370 c-32 -13 -43 -34 -13 -24 21 6 39 10 72 13 5 1 5 6 2 11
-7 12 -32 12 -61 0z"/>
<path d="M4453 8275 c0 -33 2 -45 4 -27 2 18 2 45 0 60 -2 15 -4 0 -4 -33z"/>
<path d="M5818 8294 c-101 -54 -53 -195 67 -198 108 -2 139 136 43 194 -39 23
-73 25 -110 4z m52 -22 c0 -12 -49 -37 -56 -29 -11 10 17 37 37 37 11 0 19 -4
19 -8z"/>
<path d="M8075 8250 c-27 -10 -43 -18 -35 -18 8 0 38 8 65 18 28 10 43 18 35
18 -8 0 -37 -8 -65 -18z"/>
<path d="M4364 8236 c-9 -24 3 -46 26 -46 17 0 21 5 18 27 -3 31 -34 44 -44
19z"/>
<path d="M5087 8243 c-20 -19 1 -53 33 -53 16 0 19 30 4 45 -17 16 -27 19 -37
8z"/>
<path d="M8180 8166 c-19 -7 -55 -21 -78 -31 l-44 -18 34 -14 c18 -8 45 -16
60 -18 15 -2 37 -6 48 -10 15 -5 20 -2 20 13 0 10 11 25 25 32 14 7 25 17 25
22 0 4 9 8 19 8 11 0 23 5 26 11 8 12 -49 3 -107 -17 -21 -7 -38 -9 -38 -5 0
5 17 16 38 24 45 19 21 21 -28 3z"/>
<path d="M8500 8155 c0 -10 29 -24 34 -17 3 6 -3 12 -14 15 -11 3 -20 4 -20 2z"/>
<path d="M1045 8130 c-38 -11 -82 -22 -97 -26 -15 -4 -25 -10 -22 -15 3 -5 -1
-9 -8 -9 -9 0 -9 -3 2 -10 19 -12 67 -13 74 -1 4 5 0 11 -6 14 -15 5 70 24
147 33 30 4 55 10 55 15 0 4 8 10 18 12 9 3 -8 5 -38 5 -30 1 -86 -8 -125 -18z"/>
<path d="M8428 8134 c28 -12 31 -17 22 -34 -12 -23 -3 -25 23 -6 27 20 20 34
-20 45 -52 15 -64 12 -25 -5z"/>
<path d="M4450 8104 c0 -13 -3 -24 -7 -24 -33 -1 -342 -43 -398 -55 -232 -49
-402 -101 -528 -162 -37 -18 -70 -33 -74 -33 -10 0 -172 -99 -201 -123 -113
-93 -206 -197 -249 -280 -9 -18 -18 -27 -20 -20 -4 12 73 135 89 141 4 2 8 9
8 15 0 7 9 18 20 25 12 7 18 18 14 25 -4 7 -4 9 0 5 5 -4 26 13 47 38 21 25
39 42 39 39 0 -4 18 12 40 34 22 22 40 38 40 36 0 -3 8 2 18 10 9 8 26 22 37
30 13 10 6 9 -21 -4 -81 -39 -271 -211 -258 -233 4 -7 3 -8 -4 -4 -12 7 -69
-70 -59 -80 3 -4 0 -19 -9 -35 -15 -30 -30 -40 -20 -14 11 30 -2 14 -24 -27
-36 -68 -61 -130 -50 -123 6 3 10 -2 10 -12 1 -10 11 1 25 27 32 59 32 47 0
-23 -14 -31 -28 -66 -30 -78 -2 -12 -7 -24 -10 -27 -9 -10 -5 29 5 49 7 12 7
25 1 36 -34 62 -103 -458 -81 -617 4 -30 8 -44 9 -30 5 51 29 -42 29 -110 l0
-65 -12 40 -13 40 2 -40 c1 -22 7 -51 12 -65 16 -40 26 -98 14 -80 -6 8 -11
11 -11 5 0 -14 20 -43 20 -30 1 23 18 -24 24 -65 4 -34 3 -40 -4 -25 -9 18
-10 17 -4 -5 7 -30 12 -60 13 -78 1 -7 6 -10 11 -7 6 3 10 -4 10 -18 0 -13 9
-32 20 -42 12 -10 18 -25 16 -32 -3 -7 1 -19 9 -27 8 -8 15 -23 15 -33 0 -10
10 -29 21 -43 11 -14 17 -19 13 -11 -4 9 -3 12 4 7 6 -4 9 -13 6 -21 -8 -19
146 -169 232 -225 226 -148 623 -251 1071 -280 181 -11 402 -11 338 0 -32 6
-24 7 40 8 58 0 73 -2 55 -9 -15 -5 56 -7 180 -3 113 2 209 9 214 14 7 7 -4
11 -29 12 -38 1 -39 1 -7 5 18 3 39 0 46 -6 22 -18 486 49 486 71 0 4 -8 8
-17 9 -15 0 -15 2 2 9 11 5 27 9 35 9 10 0 8 -3 -4 -8 -38 -15 4 -23 57 -11
160 37 447 141 447 162 0 5 4 7 8 4 4 -2 14 -1 22 5 12 7 10 9 -7 9 -12 0 -28
-7 -37 -15 -8 -8 -22 -15 -30 -15 -9 0 -16 -5 -16 -12 0 -6 -3 -8 -6 -5 -4 3
-16 0 -28 -8 -11 -8 -34 -15 -51 -15 -24 0 -8 11 74 50 57 28 133 71 168 95
35 25 66 45 68 45 12 0 3 -22 -15 -40 -25 -25 -12 -26 19 -2 65 49 80 65 74
74 -3 6 -1 8 4 5 12 -8 92 74 144 148 35 49 75 125 81 155 2 8 6 17 9 20 11 9
40 120 34 130 -3 6 -2 10 3 10 5 0 15 37 22 83 16 100 25 591 11 582 -7 -3 -8
13 -4 45 4 31 2 50 -4 50 -6 0 -11 23 -12 51 0 27 -7 65 -14 82 -32 74 -37 89
-31 99 5 7 2 8 -6 3 -10 -6 -12 -4 -7 9 8 20 -21 98 -34 90 -5 -3 -6 2 -3 10
3 9 1 16 -5 16 -6 0 -11 8 -11 17 0 29 -92 155 -165 227 -84 82 -186 160 -275
209 -202 111 -650 219 -970 234 -58 2 -112 7 -120 11 -8 3 -144 7 -302 8
l-288 1 0 -23z m545 -4 c-11 -4 -112 -8 -226 -8 -113 0 -226 -3 -252 -7 -43
-7 -58 0 -40 18 3 4 126 7 272 6 153 0 258 -4 246 -9z m160 -14 c206 -12 502
-59 527 -84 7 -7 -1 -8 -28 -1 -22 5 -48 12 -59 14 -11 3 -49 7 -85 10 -36 3
-96 9 -135 15 -61 8 -329 40 -342 40 -2 0 -2 4 2 10 3 5 11 7 18 5 7 -2 53 -6
102 -9z m589 -93 c4 -4 38 -15 74 -24 61 -15 63 -17 27 -17 -45 -1 -149 30
-139 41 9 9 29 9 38 0z m-504 -32 c36 -5 90 -12 120 -15 149 -16 329 -54 309
-66 -13 -9 49 -30 88 -30 12 0 25 -5 28 -10 4 -6 16 -8 28 -5 16 5 18 4 8 -3
-16 -11 3 -27 20 -16 7 4 9 0 5 -14 -5 -15 -2 -22 11 -25 14 -4 14 -5 -4 -6
-36 -2 -35 -17 5 -47 73 -54 192 -188 222 -249 22 -47 60 -181 60 -215 0 -4
17 -24 38 -47 53 -59 55 -61 95 -138 36 -71 67 -154 67 -180 0 -8 4 -15 9 -15
17 0 36 -296 20 -306 -5 -3 -7 -9 -4 -14 6 -10 -41 -154 -63 -192 -9 -16 -21
-28 -26 -28 -5 0 -7 -3 -3 -6 3 -3 -5 -18 -18 -32 -13 -14 -22 -29 -19 -34 3
-4 0 -8 -6 -8 -6 0 -8 -4 -5 -10 3 -5 2 -10 -4 -10 -5 0 -18 -13 -27 -30 -19
-31 -130 -117 -146 -112 -5 1 -7 -2 -4 -7 8 -12 -122 -75 -196 -95 -31 -9 -87
-16 -125 -16 -66 0 -207 20 -248 35 -80 28 -137 56 -179 88 -33 24 -118 107
-110 107 5 0 4 4 -1 8 -13 9 -85 110 -85 118 0 4 -7 12 -16 19 -9 6 -18 22
-19 36 -1 13 -3 30 -4 37 0 7 -5 10 -11 7 -5 -3 -10 -3 -10 2 0 4 -7 38 -14
75 -8 36 -18 97 -21 135 -4 37 -9 70 -10 73 -6 9 43 187 63 232 11 24 25 58
33 76 8 17 17 32 21 32 5 0 8 5 8 11 0 12 69 101 82 107 5 2 6 8 3 13 -4 5 2
6 11 2 11 -4 15 -2 11 4 -7 10 85 97 124 119 11 5 17 13 13 16 -3 4 12 12 35
18 23 6 41 15 41 20 0 5 19 15 43 21 23 7 46 16 51 20 4 4 -8 60 -29 125 -27
86 -39 114 -46 103 -7 -10 -9 -5 -5 16 6 33 -7 68 -16 43 -4 -9 -30 -14 -82
-16 -62 -2 -76 0 -76 12 0 9 -16 20 -40 27 -22 7 -40 18 -40 24 0 8 -35 14
-112 18 -69 4 -114 10 -116 17 -7 20 -56 60 -74 60 -9 0 -19 -6 -21 -12 -3 -7
-3 2 0 20 5 32 5 32 -36 32 -34 0 -41 3 -41 19 0 14 -10 22 -32 27 -29 6 -30
8 -13 15 17 6 16 8 -10 9 -18 2 -23 4 -12 7 9 2 14 9 11 15 -8 13 392 4 496
-11z m710 -37 c0 -2 -12 -4 -27 -4 -21 0 -24 3 -14 9 13 8 41 5 41 -5z m224
-106 c-3 -4 -11 -5 -19 -1 -21 7 -19 12 4 10 11 0 18 -5 15 -9z m66 -49 c25
-22 36 -36 25 -30 -28 14 -92 70 -80 70 6 0 30 -18 55 -40z m-385 -27 c-3 -3
-11 0 -18 7 -9 10 -8 11 6 5 10 -3 15 -9 12 -12z m-918 -48 c3 -8 9 -12 13 -9
13 8 -2 -38 -19 -61 -12 -15 -28 -20 -58 -21 -26 0 -40 3 -36 9 6 10 -31 7
-90 -8 -20 -5 -33 -1 -47 11 -23 21 -27 77 -6 94 16 14 86 21 86 9 0 -15 33
-8 46 10 7 9 14 12 14 5 0 -6 9 -9 20 -6 11 3 17 10 13 16 -4 6 8 0 26 -12 18
-13 35 -30 38 -37z m1494 -106 c17 -30 5 -20 -46 40 l-48 57 42 -40 c23 -22
47 -48 52 -57z m-964 26 c-3 -3 -12 -4 -19 -1 -8 3 -5 6 6 6 11 1 17 -2 13 -5z
m1009 -81 c16 -21 18 -37 4 -28 -13 8 -33 45 -24 45 4 0 13 -8 20 -17z m-3456
-13 c0 -5 -5 -10 -11 -10 -5 0 -7 5 -4 10 3 6 8 10 11 10 2 0 4 -4 4 -10z
m-110 -200 c-6 -11 -13 -20 -16 -20 -2 0 0 9 6 20 6 11 13 20 16 20 2 0 0 -9
-6 -20z m1100 -4 c68 -17 103 -31 156 -57 48 -24 132 -91 153 -122 8 -12 25
-31 38 -42 13 -11 23 -26 23 -33 0 -7 3 -12 8 -12 4 0 12 -10 18 -23 6 -12 18
-35 27 -52 25 -48 36 -77 46 -120 6 -22 15 -58 20 -80 17 -67 13 -194 -10
-280 -11 -44 -24 -82 -27 -85 -4 -3 -9 -14 -10 -25 -2 -11 -9 -27 -15 -35 -13
-16 -33 -50 -54 -90 -29 -57 -168 -185 -213 -197 -14 -3 -29 -12 -35 -18 -11
-13 -36 -23 -145 -57 -95 -29 -271 -31 -334 -4 -21 9 -52 19 -67 21 -43 8
-179 88 -179 106 0 5 -4 9 -10 9 -30 0 -180 187 -180 225 0 8 -3 15 -8 15 -6
0 -18 35 -54 161 -14 49 -6 275 10 291 7 7 12 20 12 29 0 9 7 29 14 45 8 15
13 31 10 36 -3 4 0 8 5 8 6 0 11 7 11 15 0 18 59 117 77 128 7 4 13 15 13 22
0 8 5 15 10 15 6 0 26 16 45 35 39 39 156 121 168 117 4 -1 7 2 7 6 0 5 23 15
50 22 28 8 45 17 39 21 -19 12 130 27 231 23 53 -2 120 -10 150 -18z m-1143
-178 c-3 -8 -6 -5 -6 6 -1 11 2 17 5 13 3 -3 4 -12 1 -19z m-7 -38 c-6 -12 -8
-30 -5 -40 4 -12 2 -20 -4 -20 -6 0 -11 8 -11 18 0 29 12 62 22 62 5 0 4 -9
-2 -20z m3810 -54 c0 -8 -4 -18 -10 -21 -5 -3 -10 3 -10 14 0 12 5 21 10 21 6
0 10 -6 10 -14z m-3833 -168 c-2 -29 -3 -8 -3 47 0 55 1 79 3 53 2 -26 2 -71
0 -100z m3842 -122 c1 -93 -1 -167 -3 -165 -2 2 -5 96 -8 209 -3 113 -1 187 3
165 4 -22 8 -116 8 -209z m8 -298 c-3 -8 -6 -5 -6 6 -1 11 2 17 5 13 3 -3 4
-12 1 -19z m-30 -60 c-2 -13 -4 -5 -4 17 -1 22 1 32 4 23 2 -10 2 -28 0 -40z
m20 -25 c-3 -10 -5 -4 -5 12 0 17 2 24 5 18 2 -7 2 -21 0 -30z m-30 -35 c-3
-7 -5 -2 -5 12 0 14 2 19 5 13 2 -7 2 -19 0 -25z m-4 -103 c-3 -9 -8 -14 -10
-11 -3 3 -2 9 2 15 9 16 15 13 8 -4z m-1950 -81 c39 -81 139 -77 184 9 10 20
20 27 36 25 46 -6 27 -90 -31 -133 -39 -28 -136 -32 -182 -7 -44 24 -84 96
-69 123 16 30 43 23 62 -17z m1900 -14 c-3 -12 -8 -19 -11 -16 -5 6 5 36 12
36 2 0 2 -9 -1 -20z m-55 -101 c-12 -23 -32 -53 -45 -67 -22 -24 -27 -36 -24
-55 1 -5 -3 -6 -8 -2 -13 7 -92 -76 -84 -88 3 -6 1 -7 -5 -3 -7 4 -12 1 -12
-7 0 -22 -26 -41 -33 -24 -3 8 24 43 64 82 38 38 90 100 115 137 25 37 47 68
49 68 3 0 -5 -19 -17 -41z m-723 -489 c-28 -12 -37 -12 -30 0 3 6 16 10 28 9
21 0 21 -1 2 -9z m-1822 -87 c-7 -2 -19 -2 -25 0 -7 3 -2 5 12 5 14 0 19 -2
13 -5z"/>
<path d="M5783 7812 c15 -9 27 -20 27 -24 0 -5 5 -8 10 -8 19 0 10 16 -19 33
-38 22 -55 22 -18 -1z"/>
<path d="M5580 7044 c-25 -9 -49 -20 -54 -25 -6 -5 -17 -9 -26 -9 -19 0 -140
-108 -140 -125 0 -7 -6 -15 -13 -18 -21 -8 -56 -115 -58 -177 -3 -72 17 -182
42 -231 20 -41 83 -108 133 -144 82 -58 209 -78 316 -51 74 19 120 37 120 48
0 5 5 8 11 8 6 0 16 6 23 13 7 6 25 21 39 32 15 11 27 25 27 32 0 7 4 13 9 13
19 0 70 127 82 204 17 111 -9 209 -70 265 -14 13 -19 20 -11 15 13 -7 13 -5 1
9 -7 9 -22 17 -32 17 -10 0 -21 4 -24 10 -4 6 1 7 12 3 16 -6 16 -5 4 11 -8 9
-24 22 -35 28 -20 11 -20 10 -6 -8 12 -15 10 -15 -10 2 -35 30 -109 53 -188
58 -45 3 -70 10 -78 20 -14 19 -17 19 -74 0z"/>
<path d="M3755 7020 c-65 -12 -124 -38 -177 -76 -52 -39 -101 -101 -91 -117 3
-6 2 -7 -4 -4 -5 3 -22 -19 -37 -49 -21 -40 -28 -70 -29 -112 0 -70 22 -194
34 -186 5 3 6 -1 4 -8 -7 -17 39 -80 50 -70 5 4 5 2 1 -5 -7 -13 66 -93 84
-93 6 0 23 -9 38 -20 78 -58 259 -62 366 -10 54 27 120 80 151 121 75 100 101
259 62 379 -14 45 -77 131 -90 123 -6 -3 -7 -1 -3 5 3 5 -12 24 -34 42 -29 23
-46 30 -62 25 -16 -4 -19 -3 -10 3 11 7 10 10 -3 16 -9 3 -29 6 -43 6 -21 0
-24 2 -12 10 13 9 13 10 0 11 -8 0 -22 2 -30 3 -50 10 -131 13 -165 6z"/>
<path d="M4315 8110 c-48 -7 -48 -7 -10 -8 22 0 63 3 90 8 47 7 48 7 10 7 -22
0 -62 -3 -90 -7z"/>
<path d="M4218 8093 c7 -3 16 -2 19 1 4 3 -2 6 -13 5 -11 0 -14 -3 -6 -6z"/>
<path d="M4168 8083 c6 -2 18 -2 25 0 6 3 1 5 -13 5 -14 0 -19 -2 -12 -5z"/>
<path d="M4045 8069 c-22 -5 -73 -16 -113 -25 -41 -9 -72 -17 -70 -19 2 -2 66
9 143 25 77 16 127 29 110 28 -16 0 -48 -4 -70 -9z"/>
<path d="M886 8011 c11 -10 104 -42 104 -36 0 2 -10 10 -22 16 -27 15 -94 31
-82 20z"/>
<path d="M3791 8009 c-18 -6 -31 -12 -29 -14 5 -5 78 14 78 20 0 6 -8 5 -49
-6z"/>
<path d="M1595 7989 c-20 -7 -20 -8 1 -8 30 -1 51 -29 59 -78 4 -24 11 -43 17
-43 18 0 -9 83 -38 116 -14 15 -25 19 -39 13z"/>
<path d="M3725 7990 c-16 -7 -17 -9 -3 -9 9 -1 20 4 23 9 7 11 7 11 -20 0z"/>
<path d="M1128 7900 c34 -22 67 -40 73 -40 6 0 8 -4 5 -9 -5 -8 62 -34 90 -34
8 0 13 -6 10 -14 -4 -10 -1 -11 13 -4 15 8 30 3 72 -27 30 -21 69 -44 87 -51
25 -10 30 -16 20 -23 -9 -6 -7 -8 8 -4 14 4 34 -4 62 -24 23 -16 39 -23 36
-16 -7 19 -56 55 -116 88 -27 14 -44 29 -39 33 11 6 150 -75 171 -101 19 -22
32 -16 19 9 -15 27 -29 38 -99 76 -31 16 -69 41 -85 55 -36 31 -50 33 -35 6 6
-11 15 -20 20 -20 6 0 10 -5 10 -11 0 -6 -8 -9 -17 -6 -16 5 -187 80 -310 137
-66 31 -64 24 5 -20z"/>
<path d="M850 7910 c8 -5 20 -10 25 -10 6 0 3 5 -5 10 -8 5 -19 10 -25 10 -5
0 -3 -5 5 -10z"/>
<path d="M612 7870 c-6 -15 -6 -33 -1 -41 6 -11 12 -9 29 8 21 23 27 38 10 28
-5 -3 -10 -3 -10 2 0 14 110 14 137 -1 25 -13 25 -13 -22 -18 -26 -3 -54 -13
-63 -22 -10 -9 -12 -16 -5 -16 7 0 14 4 17 8 2 4 43 7 91 5 74 -3 96 -8 169
-42 82 -38 111 -61 88 -69 -8 -2 -8 -10 2 -25 22 -34 29 -86 16 -102 -7 -8
-23 -15 -37 -15 -13 0 -31 -7 -39 -15 -14 -13 -8 -15 48 -16 35 0 83 -4 108
-7 53 -8 143 7 136 23 -2 7 7 10 26 7 22 -3 29 -1 23 7 -5 9 3 11 32 7 26 -4
30 -3 13 2 -22 7 -23 9 -7 15 16 6 57 -10 57 -23 0 -3 14 -6 30 -7 28 -2 29
-1 15 14 -27 26 -85 63 -100 63 -8 0 -15 4 -15 9 0 5 -7 16 -15 24 -12 13 -12
15 5 20 11 3 17 1 14 -4 -3 -5 8 -12 25 -15 17 -4 28 -10 25 -15 -3 -5 2 -6
10 -3 18 7 28 31 15 39 -5 4 -18 3 -29 0 -14 -5 -20 -2 -20 9 0 9 -8 16 -19
16 -11 0 -29 12 -41 28 -12 15 -25 26 -28 24 -3 -2 -9 5 -13 15 -4 10 -8 13
-8 6 -1 -6 -11 -14 -23 -16 -19 -4 -18 -4 5 -6 16 0 26 -5 23 -10 -3 -4 3 -16
14 -26 27 -24 26 -40 -1 -21 -12 8 -27 12 -34 10 -7 -3 -41 15 -76 39 -86 60
-171 104 -237 123 -71 21 -77 12 -7 -10 90 -28 285 -149 285 -176 0 -12 -5
-12 -28 -1 -9 5 -37 17 -62 27 -25 11 -94 45 -153 77 -120 64 -191 86 -296 91
-68 4 -70 3 -79 -24z m759 -256 c12 -14 11 -16 -5 -13 -11 2 -21 10 -24 17 -5
17 13 15 29 -4z"/>
<path d="M3420 7870 c-9 -6 -10 -10 -3 -10 6 0 15 5 18 10 8 12 4 12 -15 0z"/>
<path d="M1730 7731 c-15 -30 -14 -31 35 -31 52 0 58 13 15 35 -37 19 -37 19
-50 -4z"/>
<path d="M10125 7740 c-4 -6 -38 -27 -77 -48 -159 -83 -222 -130 -226 -166 -2
-18 0 -26 7 -21 6 3 9 10 7 14 -5 8 136 81 169 87 59 11 145 38 145 46 0 5 -8
7 -17 4 -10 -3 -52 -15 -93 -25 -41 -11 -86 -23 -100 -27 -51 -14 -4 16 95 61
94 42 127 67 106 79 -5 4 -13 2 -16 -4z m-206 -144 c-18 -18 -77 -52 -73 -42
5 13 53 45 68 46 5 0 7 -2 5 -4z"/>
<path d="M9997 7510 c-70 -15 -131 -31 -135 -35 -8 -8 4 -6 147 25 52 11 105
20 118 20 13 0 23 5 23 10 0 13 -5 13 -153 -20z"/>
<path d="M9820 7460 c0 -11 5 -20 10 -20 6 0 10 9 10 20 0 11 -4 20 -10 20 -5
0 -10 -9 -10 -20z"/>
<path d="M10030 7410 c-86 -24 -45 -24 50 0 42 10 62 18 45 18 -16 0 -59 -8
-95 -18z"/>
<path d="M9875 7381 c-16 -3 -25 -9 -20 -12 6 -3 33 0 60 6 37 10 42 13 20 13
-16 0 -43 -3 -60 -7z"/>
<path d="M9824 7165 c0 -115 2 -161 3 -102 2 59 2 154 0 210 -1 56 -3 8 -3
-108z"/>
<path d="M10122 7321 c-11 -7 -11 -9 1 -14 16 -6 27 0 27 15 0 10 -11 10 -28
-1z"/>
<path d="M10025 7300 c-79 -20 -67 -26 18 -9 31 7 57 16 57 20 0 5 -1 9 -2 8
-2 0 -34 -9 -73 -19z"/>
<path d="M9888 7273 c12 -2 30 -2 40 0 9 3 -1 5 -23 4 -22 0 -30 -2 -17 -4z"/>
<path d="M10085 7203 l-60 -12 59 5 c56 4 75 10 65 17 -2 2 -31 -3 -64 -10z"/>
<path d="M9900 7170 c-20 -6 -21 -8 -5 -8 11 0 31 4 45 8 20 6 21 8 5 8 -11 0
-31 -4 -45 -8z"/>
<path d="M7100 7142 c-7 -13 -9 -14 -10 -2 0 9 -3 11 -10 4 -5 -5 -14 -109
-20 -229 -15 -341 -20 -403 -36 -416 -11 -9 -15 -8 -20 5 -3 9 -12 16 -19 16
-8 0 -17 9 -20 20 -3 11 -11 20 -17 20 -15 0 -47 42 -48 63 0 9 -4 17 -10 17
-5 0 -10 18 -10 40 0 25 -5 40 -12 41 -31 3 -64 -4 -71 -15 -5 -6 -5 0 -2 13
5 16 4 21 -4 17 -6 -4 -11 -18 -11 -32 0 -14 -4 -23 -9 -19 -13 8 -18 -17 -26
-120 -28 -399 -144 -645 -394 -833 -78 -59 -214 -133 -303 -167 -27 -10 -45
-22 -41 -28 3 -6 1 -7 -6 -3 -6 4 -39 -2 -74 -13 -161 -53 -423 -109 -612
-132 -44 -5 -93 -11 -110 -14 -16 -3 -147 -9 -291 -15 -557 -22 -1040 29
-1384 147 -58 20 -113 36 -122 37 -9 0 -15 2 -13 4 5 5 -158 87 -168 84 -5 -1
-6 2 -2 8 3 5 1 10 -4 10 -6 0 -29 16 -51 36 -22 20 -40 34 -40 31 0 -8 -122
119 -132 138 -5 8 -15 12 -21 9 -7 -4 -9 -3 -4 1 4 5 0 16 -9 26 -42 47 -117
206 -143 304 -26 97 -60 367 -53 414 3 22 1 32 -6 27 -7 -4 -9 22 -6 81 4 87
-1 107 -11 42 -10 -66 -13 -281 -3 -267 7 9 8 7 2 -7 -14 -40 -17 -85 -4 -85
9 0 10 -3 1 -13 -7 -10 -8 -31 -1 -73 10 -63 3 -194 -11 -194 -5 0 -8 8 -7 18
1 9 0 30 0 46 -2 23 -5 26 -16 17 -11 -9 -13 -26 -9 -67 4 -37 2 -54 -6 -54
-6 0 -11 -17 -11 -40 0 -33 3 -40 20 -40 17 0 20 7 20 40 0 29 4 40 15 40 11
0 15 -11 15 -40 0 -29 -4 -40 -15 -40 -9 0 -15 -9 -15 -25 0 -14 5 -25 10 -25
6 0 10 -7 10 -15 0 -8 9 -15 20 -15 17 0 20 -7 20 -39 0 -22 5 -42 13 -44 6
-3 1 -6 -13 -7 l-25 -1 25 -11 c24 -10 24 -10 5 -18 -20 -9 -7 -15 23 -11 6 1
12 -5 12 -14 0 -10 10 -15 30 -15 26 0 30 -4 30 -26 0 -27 28 -59 61 -69 11
-4 19 -12 19 -18 0 -7 18 -20 40 -30 22 -10 38 -23 34 -28 -3 -5 15 -9 40 -9
38 0 46 -3 46 -18 0 -26 20 -42 52 -42 21 0 28 -5 28 -19 0 -16 10 -21 48 -27
59 -8 90 -23 72 -34 -17 -11 19 -30 57 -30 16 0 38 -7 49 -15 11 -8 42 -14 76
-15 31 0 60 -4 63 -10 3 -5 -1 -10 -10 -10 -9 0 -13 -4 -10 -10 3 -5 17 -10
31 -10 13 0 24 5 24 10 0 16 57 12 74 -5 8 -8 41 -19 73 -24 32 -4 67 -12 77
-16 15 -7 18 -5 13 7 -5 14 -1 14 36 0 23 -9 44 -19 47 -23 3 -3 76 -6 163 -6
121 0 157 3 157 13 0 10 21 13 80 12 52 0 80 -5 80 -12 0 -14 56 -39 70 -31 5
3 10 13 10 21 0 17 76 20 82 2 3 -8 31 -8 114 0 222 23 284 25 284 10 1 -8 4
-7 11 5 11 18 69 24 69 7 0 -12 22 -9 32 4 10 14 166 21 181 7 10 -8 28 -7 68
6 30 9 79 16 111 17 31 1 59 4 63 7 3 4 23 5 44 2 20 -3 65 2 100 11 34 9 78
16 97 16 22 0 37 6 41 15 5 14 7 14 23 0 17 -15 19 -15 32 4 7 10 30 22 51 26
31 6 37 4 37 -10 0 -13 6 -15 31 -10 18 4 48 8 67 9 20 1 37 7 39 13 3 7 20 9
46 6 28 -3 38 -1 28 5 -9 7 1 13 40 23 30 8 60 13 66 13 7 -1 11 2 8 6 -6 9
19 20 44 20 10 0 29 8 42 18 13 11 52 30 87 43 34 13 62 27 62 31 0 5 8 8 18
8 11 0 27 9 37 20 10 11 21 17 26 14 5 -2 23 3 41 13 18 9 35 18 38 18 30 8
120 68 171 115 9 8 43 40 76 70 105 97 100 95 108 47 10 -57 14 -62 39 -38 11
11 71 45 131 77 61 31 122 65 137 76 14 10 34 18 43 18 11 0 15 5 11 16 -11
28 -7 918 4 969 12 53 9 63 -12 41 -11 -11 -17 -54 -22 -173 -11 -281 -15
-311 -42 -317 -13 -4 -46 5 -83 21 -75 33 -75 35 -69 251 5 173 4 170 84 193
24 7 44 19 44 25 0 7 -21 20 -46 30 -25 9 -59 30 -75 45 -26 24 -30 25 -39 11z
m2 -417 l-9 -120 -2 171 c0 94 2 174 7 178 11 12 13 -98 4 -229z m-1185 -1281
c-3 -3 -12 -4 -19 -1 -8 3 -5 6 6 6 11 1 17 -2 13 -5z m-2397 -39 c0 -11 -11
-15 -40 -15 -29 0 -40 4 -40 15 0 11 11 15 40 15 29 0 40 -4 40 -15z m2000
-12 c0 -3 -9 -3 -20 0 -10 3 -20 1 -22 -5 -2 -5 -12 -6 -23 -2 -19 8 -18 9 5
14 25 6 60 2 60 -7z m-187 -20 c-7 -2 -19 -2 -25 0 -7 3 -2 5 12 5 14 0 19 -2
13 -5z m177 -3 c-8 -5 -24 -10 -35 -10 -17 0 -17 2 -5 10 8 5 24 10 35 10 17
0 17 -2 5 -10z m77 -6 c-3 -3 -12 -4 -19 -1 -8 3 -5 6 6 6 11 1 17 -2 13 -5z"/>
<path d="M2375 7026 c-17 -17 -46 -42 -64 -56 -31 -24 -33 -27 -20 -48 8 -13
20 -20 30 -17 8 3 24 -4 34 -16 17 -18 20 -41 23 -180 4 -157 4 -159 -17 -159
-12 0 -21 -6 -21 -15 0 -8 -3 -14 -7 -14 -23 4 -43 -3 -69 -23 -56 -44 -59
-37 -69 147 -9 181 -16 241 -25 224 -5 -8 -5 -143 -1 -298 5 -156 6 -291 4
-301 -11 -42 40 -306 60 -308 31 -3 52 -7 57 -12 9 -9 65 -34 73 -32 4 1 22
-11 40 -28 18 -16 37 -30 43 -30 6 0 16 -10 23 -22 15 -27 91 -91 99 -83 3 3
-1 44 -8 92 -8 49 -14 106 -15 128 0 22 -4 43 -9 46 -5 4 -4 21 3 39 6 18 10
45 10 59 -1 22 -3 20 -9 -9 l-7 -35 -2 43 c0 23 4 42 9 42 6 0 10 4 10 10 0 5
-7 7 -15 4 -11 -5 -15 1 -15 25 0 17 -4 31 -10 31 -6 0 -10 26 -10 58 0 32 -7
103 -15 156 -8 54 -17 142 -20 195 -4 53 -10 143 -16 201 -5 58 -9 132 -9 165
-1 50 -3 57 -12 40 -10 -16 -12 -17 -17 -4 -5 13 -12 10 -36 -15z"/>
<path d="M2760 7030 c0 -8 5 -22 10 -30 9 -13 10 -13 10 0 0 8 -5 22 -10 30
-9 13 -10 13 -10 0z"/>
<path d="M2742 7000 c0 -14 2 -19 5 -12 2 6 2 18 0 25 -3 6 -5 1 -5 -13z"/>
<path d="M313 6533 c-16 -6 -17 -53 -1 -53 6 0 8 -3 5 -6 -4 -4 -13 -1 -22 6
-13 11 -15 8 -15 -18 0 -17 -3 -37 -6 -46 -7 -19 -34 -21 -35 -3 -4 41 -18
-84 -18 -165 -1 -88 -3 -97 -21 -103 -11 -3 -20 -14 -20 -23 0 -10 3 -13 8 -7
4 6 16 15 26 21 16 9 19 20 18 65 -1 30 2 70 7 89 l9 35 1 -45 c1 -25 4 -63 8
-85 l8 -40 7 45 c3 25 4 -288 1 -695 -3 -407 -5 -747 -5 -755 0 -8 16 -41 35
-72 l34 -57 7 76 c17 208 0 538 -26 501 -7 -9 -8 -8 -4 5 3 10 6 21 6 23 0 3
4 3 9 0 17 -11 21 112 19 687 -1 513 -3 579 -17 588 -12 8 -13 12 -3 15 6 3
12 10 12 15 0 10 -8 10 -27 2z m-16 -125 c-3 -8 -6 -5 -6 6 -1 11 2 17 5 13 3
-3 4 -12 1 -19z m-20 -110 c-3 -8 -6 -5 -6 6 -1 11 2 17 5 13 3 -3 4 -12 1
-19z"/>
<path d="M261 6463 c0 -12 -4 -30 -7 -40 -5 -14 -4 -15 5 -7 7 6 11 24 8 40
-3 21 -4 23 -6 7z"/>
<path d="M2821 6364 c0 -11 3 -14 6 -6 3 7 2 16 -1 19 -3 4 -6 -2 -5 -13z"/>
<path d="M2851 6254 c0 -11 3 -14 6 -6 3 7 2 16 -1 19 -3 4 -6 -2 -5 -13z"/>
<path d="M425 6184 c-21 -47 -28 -187 -30 -594 -2 -239 -4 -570 -5 -735 -1
-227 1 -307 11 -330 l13 -30 6 50 c4 28 8 41 8 31 7 -86 27 219 27 404 -1 425
-8 929 -13 950 -5 22 -6 23 -13 5 -4 -11 -8 33 -8 101 -1 76 3 124 10 131 6 6
9 17 7 24 -3 9 -7 6 -13 -7z m12 -456 c-3 -7 -5 -2 -5 12 0 14 2 19 5 13 2 -7
2 -19 0 -25z"/>
<path d="M430 6120 c0 -22 5 -40 10 -40 6 0 10 18 10 40 0 22 -4 40 -10 40 -5
0 -10 -18 -10 -40z"/>
<path d="M211 6121 c-17 -11 -6 -31 17 -31 15 0 15 2 2 10 -13 9 -13 11 0 20
8 5 11 10 5 10 -5 0 -16 -4 -24 -9z"/>
<path d="M1300 6110 c0 -5 5 -10 11 -10 5 0 7 5 4 10 -3 6 -8 10 -11 10 -2 0
-4 -4 -4 -10z"/>
<path d="M244 6058 c3 -13 6 -31 6 -40 0 -10 5 -18 10 -18 6 0 10 18 10 40 0
30 -4 40 -16 40 -12 0 -15 -6 -10 -22z"/>
<path d="M1275 6070 c-3 -5 -1 -10 4 -10 6 0 11 5 11 10 0 6 -2 10 -4 10 -3 0
-8 -4 -11 -10z"/>
<path d="M1110 5989 c-7 -11 -10 -23 -7 -25 2 -2 9 7 15 21 14 30 7 33 -8 4z"/>
<path d="M8762 5995 c5 -5 171 -21 308 -29 73 -5 74 -5 15 3 -197 28 -336 39
-323 26z"/>
<path d="M8648 5983 c6 -2 18 -2 25 0 6 3 1 5 -13 5 -14 0 -19 -2 -12 -5z"/>
<path d="M256 5905 c4 -8 8 -15 10 -15 2 0 4 7 4 15 0 8 -4 15 -10 15 -5 0 -7
-7 -4 -15z"/>
<path d="M161 5864 c0 -11 3 -14 6 -6 3 7 2 16 -1 19 -3 4 -6 -2 -5 -13z"/>
<path d="M161 5763 c0 -50 3 -83 9 -83 11 0 12 43 0 115 -7 47 -7 45 -9 -32z"/>
<path d="M246 5775 c-3 -9 0 -15 9 -15 8 0 15 7 15 15 0 8 -4 15 -9 15 -5 0
-11 -7 -15 -15z"/>
<path d="M10226 5728 c-3 -24 -2 -59 3 -78 8 -30 9 -23 10 43 1 42 -1 77 -3
77 -2 0 -6 -19 -10 -42z"/>
<path d="M200 5720 c0 -22 5 -40 10 -40 6 0 10 18 10 40 0 22 -4 40 -10 40 -5
0 -10 -18 -10 -40z"/>
<path d="M593 5640 c0 -69 2 -116 5 -105 l5 20 8 -20 c4 -12 7 24 6 85 -1 88
-2 95 -6 40 l-5 -65 -6 85 c-6 81 -6 79 -7 -40z"/>
<path d="M696 5696 c-3 -35 -5 -450 -4 -922 1 -473 3 -845 5 -829 4 33 19 324
26 503 2 61 0 112 -4 112 -13 0 -11 148 2 172 8 15 8 22 -1 28 -7 5 -10 19 -6
36 3 16 6 49 7 74 2 62 -13 884 -16 888 -1 1 -5 -26 -9 -62z"/>
<path d="M6255 5730 c-4 -6 -11 -7 -17 -4 -6 4 -8 2 -5 -3 4 -6 -2 -13 -13
-16 -11 -3 -20 -10 -20 -16 0 -6 16 -1 35 10 19 12 35 25 35 30 0 12 -7 11
-15 -1z"/>
<path d="M537 5610 c3 -69 7 -127 9 -129 8 -9 2 215 -6 234 -6 12 -7 -28 -3
-105z"/>
<path d="M178 5623 c12 -2 32 -2 45 0 12 2 2 4 -23 4 -25 0 -35 -2 -22 -4z"/>
<path d="M511 5500 c-6 -220 -6 -857 0 -900 l6 -45 1 43 c2 46 26 60 36 20 3
-13 3 49 1 137 -3 88 -6 207 -7 265 l-2 105 -6 -125 -6 -125 -3 135 c-11 418
-17 588 -20 490z"/>
<path d="M178 5533 c12 -2 32 -2 45 0 12 2 2 4 -23 4 -25 0 -35 -2 -22 -4z"/>
<path d="M9014 5531 c18 -7 66 -3 66 5 0 2 -19 4 -42 3 -31 0 -37 -3 -24 -8z"/>
<path d="M178 5473 c12 -2 32 -2 45 0 12 2 2 4 -23 4 -25 0 -35 -2 -22 -4z"/>
<path d="M9015 5460 c31 -8 112 -13 104 -6 -2 2 -33 6 -69 9 -41 3 -54 2 -35
-3z"/>
<path d="M180 5430 c-21 -7 -17 -8 20 -9 32 0 41 2 30 9 -17 11 -16 11 -50 0z"/>
<path d="M251 5424 c0 -11 3 -14 6 -6 3 7 2 16 -1 19 -3 4 -6 -2 -5 -13z"/>
<path d="M536 5379 c-8 -77 -7 -169 2 -191 4 -9 7 44 8 118 0 73 0 134 -1 134
-1 0 -5 -28 -9 -61z"/>
<path d="M1080 5431 c0 -5 -9 -7 -20 -4 -11 3 -28 2 -37 -2 -10 -5 -21 -7 -25
-7 -5 1 -8 -4 -8 -11 0 -10 13 -11 65 -3 43 6 65 14 65 23 0 7 -9 13 -20 13
-11 0 -20 -4 -20 -9z"/>
<path d="M9039 5397 c5 -5 21 -7 37 -5 27 3 26 4 -8 9 -22 3 -34 1 -29 -4z"/>
<path d="M251 5374 c0 -11 3 -14 6 -6 3 7 2 16 -1 19 -3 4 -6 -2 -5 -13z"/>
<path d="M8992 5364 c3 -16 13 -19 66 -20 53 0 62 2 62 18 0 10 -5 18 -11 18
-5 0 -7 -5 -3 -11 7 -11 -26 -9 -94 8 -20 5 -23 2 -20 -13z"/>
<path d="M5733 5362 c-40 -2 -53 -7 -53 -19 0 -12 6 -14 28 -8 15 4 38 9 50
10 23 3 40 12 31 18 -2 1 -28 1 -56 -1z"/>
<path d="M3498 5353 c7 -3 16 -2 19 1 4 3 -2 6 -13 5 -11 0 -14 -3 -6 -6z"/>
<path d="M9824 5200 c0 -91 2 -128 3 -82 2 45 2 119 0 165 -1 45 -3 8 -3 -83z"/>
<path d="M9845 5350 c-8 -13 5 -13 25 0 13 8 13 10 -2 10 -9 0 -20 -4 -23 -10z"/>
<path d="M157 5320 c-11 -39 -10 -40 48 -40 30 0 55 5 55 10 0 6 -3 9 -7 9 -5
-1 -25 -1 -45 0 -30 1 -37 5 -40 24 -3 22 -4 21 -11 -3z"/>
<path d="M208 5333 c6 -2 18 -2 25 0 6 3 1 5 -13 5 -14 0 -19 -2 -12 -5z"/>
<path d="M596 5235 c-10 -152 -15 -830 -6 -868 9 -36 11 15 12 258 0 98 3 125
8 90 7 -50 7 -49 8 20 0 47 -2 63 -8 50 -6 -14 -9 -4 -9 38 -1 32 3 57 9 57
14 0 12 78 -2 82 -9 3 -9 26 0 101 13 103 14 204 3 252 -5 21 -10 -3 -15 -80z"/>
<path d="M1036 5323 c-4 -5 -13 -8 -19 -8 -12 0 -28 -50 -19 -59 3 -3 18 -6
34 -6 35 0 59 40 38 65 -14 17 -23 19 -34 8z"/>
<path d="M8995 5310 c3 -5 33 -10 66 -10 33 0 59 4 59 10 0 6 -29 10 -66 10
-41 0 -63 -4 -59 -10z"/>
<path d="M4768 5283 c6 -2 18 -2 25 0 6 3 1 5 -13 5 -14 0 -19 -2 -12 -5z"/>
<path d="M10193 5253 c9 -2 23 -2 30 0 6 3 -1 5 -18 5 -16 0 -22 -2 -12 -5z"/>
<path d="M10165 5230 c3 -5 8 -10 11 -10 2 0 4 5 4 10 0 6 -5 10 -11 10 -5 0
-7 -4 -4 -10z"/>
<path d="M190 5226 c0 -10 28 -13 41 -5 10 6 7 9 -13 9 -16 0 -28 -2 -28 -4z"/>
<path d="M10197 5199 c7 -7 15 -10 18 -7 3 3 -2 9 -12 12 -14 6 -15 5 -6 -5z"/>
<path d="M9015 5190 c17 -4 48 -8 70 -8 34 0 36 1 15 8 -14 4 -45 8 -70 8 -40
0 -42 -1 -15 -8z"/>
<path d="M9260 5133 c0 -38 -3 -85 -6 -105 -6 -37 -8 -38 -50 -38 -23 0 -45 4
-49 10 -3 5 -13 7 -23 4 -12 -4 -10 0 5 13 l23 18 -24 29 c-23 29 -23 29 -22
5 1 -22 -2 -24 -44 -21 -25 1 -56 4 -70 7 -18 4 -21 3 -11 -4 11 -7 7 -12 -20
-19 -34 -10 -34 -10 16 -11 33 -1 45 -4 36 -10 -19 -12 5 -18 113 -26 49 -4
98 -9 110 -11 20 -3 21 1 24 111 2 63 1 115 -2 115 -3 0 -6 -30 -6 -67z m-193
-129 c-3 -3 -12 -4 -19 -1 -8 3 -5 6 6 6 11 1 17 -2 13 -5z"/>
<path d="M9900 5180 c-23 -7 -23 -8 -3 -9 12 -1 25 4 28 9 3 6 5 10 3 9 -2 -1
-14 -5 -28 -9z"/>
<path d="M10048 5183 c6 -2 18 -2 25 0 6 3 1 5 -13 5 -14 0 -19 -2 -12 -5z"/>
<path d="M246 5161 c-3 -5 -23 -7 -45 -4 -23 3 -41 1 -45 -6 -5 -7 2 -12 18
-13 85 -6 86 -5 86 14 0 20 -6 23 -14 9z"/>
<path d="M8992 5126 c11 -10 30 -16 51 -14 18 1 38 -2 45 -6 8 -5 10 -2 6 8
-3 9 -14 16 -23 16 -9 0 -34 3 -56 7 -38 6 -39 5 -23 -11z"/>
<path d="M9111 5114 c0 -11 3 -14 6 -6 3 7 2 16 -1 19 -3 4 -6 -2 -5 -13z"/>
<path d="M1820 5098 c0 -4 4 -8 9 -8 6 0 12 4 15 8 3 5 -1 9 -9 9 -8 0 -15 -4
-15 -9z"/>
<path d="M4877 5104 c-1 -2 -110 -5 -242 -8 -273 -6 -312 -11 -328 -37 -7 -11
-17 -19 -24 -19 -7 0 -13 -7 -13 -15 0 -10 -10 -15 -27 -15 -22 0 -25 -2 -13
-10 12 -8 12 -10 -5 -11 -11 0 -14 -3 -7 -6 7 -3 19 0 27 7 17 14 58 3 52 -13
-2 -7 -21 -15 -43 -19 -22 -5 -51 -19 -66 -33 -16 -15 -28 -20 -30 -13 -6 17
-186 -73 -226 -112 -34 -34 -72 -109 -72 -141 0 -23 48 -49 58 -32 4 6 35 15
70 19 42 4 62 11 62 20 0 20 28 17 33 -3 2 -10 2 -3 0 15 l-4 34 22 -20 c19
-19 21 -30 20 -114 0 -51 -4 -132 -7 -179 -6 -84 -6 -86 17 -92 39 -11 109 -8
109 4 0 6 6 9 13 6 6 -2 21 -1 32 4 17 6 16 8 -10 9 -16 2 -35 2 -42 1 -15 -2
-23 11 -30 51 -11 63 1 178 18 178 5 0 23 16 41 36 27 29 42 36 81 40 27 2 55
11 64 19 8 8 23 16 34 16 111 7 229 22 288 35 43 10 66 12 70 5 8 -12 51 -3
51 10 0 5 25 9 56 9 30 0 53 4 50 8 -2 4 10 6 29 4 18 -2 36 1 39 7 4 6 21 11
38 11 16 0 57 7 91 16 88 22 311 53 320 44 16 -15 20 -171 7 -326 -9 -113 -9
-159 -1 -167 7 -7 9 -56 4 -158 -6 -139 -5 -149 17 -193 65 -136 262 -142 315
-10 l16 39 -34 -39 c-23 -27 -38 -37 -47 -31 -8 5 -11 4 -6 -3 10 -17 -60 -26
-103 -13 -52 15 -108 72 -122 124 -11 40 -8 294 6 572 6 115 24 225 35 225 5
0 11 10 13 23 l4 22 2 -23 c1 -22 2 -22 18 -7 14 14 14 18 2 26 -12 7 -12 9 0
9 8 0 23 -7 33 -17 12 -11 18 -12 18 -3 0 7 8 10 20 7 11 -3 20 0 20 6 0 7
-15 12 -32 12 -43 1 -70 8 -84 20 -6 6 -51 23 -100 38 -130 41 -141 46 -123
58 10 8 8 9 -8 4 -17 -5 -23 -2 -23 11 0 13 -3 14 -14 5 -16 -13 -26 4 -26 45
0 16 -6 24 -17 25 -69 2 -384 4 -386 3z"/>
<path d="M622 5070 c0 -19 2 -27 5 -17 2 9 2 25 0 35 -3 9 -5 1 -5 -18z"/>
<path d="M9237 5076 c-4 -15 -6 -31 -2 -34 10 -10 16 6 13 35 l-3 28 -8 -29z"/>
<path d="M160 5080 c0 -5 20 -10 44 -10 26 0 46 -5 49 -12 3 -7 6 -3 6 10 1
20 -4 22 -49 22 -27 0 -50 -4 -50 -10z"/>
<path d="M9928 5083 c7 -3 16 -2 19 1 4 3 -2 6 -13 5 -11 0 -14 -3 -6 -6z"/>
<path d="M1000 5048 c0 -27 2 -28 56 -28 34 0 53 4 49 10 -3 6 -19 10 -34 10
-15 0 -32 5 -39 12 -7 7 -12 8 -12 3 0 -6 -5 -3 -10 5 -8 12 -10 9 -10 -12z"/>
<path d="M150 5028 c0 -4 25 -8 55 -8 32 0 55 4 55 11 0 6 -22 9 -55 8 -30 -1
-55 -6 -55 -11z"/>
<path d="M1120 5030 c0 -5 5 -10 11 -10 5 0 7 5 4 10 -3 6 -8 10 -11 10 -2 0
-4 -4 -4 -10z"/>
<path d="M4240 5029 c0 -5 5 -7 10 -4 6 3 10 8 10 11 0 2 -4 4 -10 4 -5 0 -10
-5 -10 -11z"/>
<path d="M185 4970 c-3 -5 1 -10 9 -10 8 0 18 5 21 10 3 6 -1 10 -9 10 -8 0
-18 -4 -21 -10z"/>
<path d="M237 4969 c7 -7 15 -10 18 -7 3 3 -2 9 -12 12 -14 6 -15 5 -6 -5z"/>
<path d="M8837 4962 c-17 -7 -16 -9 10 -21 16 -8 23 -16 16 -18 -18 -6 -16
-23 2 -23 8 0 15 9 15 21 0 16 4 19 23 14 36 -11 41 -22 16 -36 -24 -13 -24
-13 11 -19 19 -3 35 -11 35 -17 0 -7 3 -13 8 -13 4 0 16 0 27 0 12 0 20 7 20
18 0 14 -2 15 -10 2 -9 -13 -10 -13 -10 0 0 13 -2 13 -11 0 -9 -12 -10 -12 -5
3 3 10 6 24 6 31 0 19 81 13 94 -7 8 -13 6 -20 -9 -32 -19 -16 -19 -16 5 -9
20 5 23 4 13 -7 -20 -20 -15 -31 7 -17 28 18 46 -1 31 -31 -7 -12 -16 -21 -22
-21 -13 0 -34 20 -42 40 -3 10 -6 7 -6 -7 -1 -13 -7 -22 -13 -20 -7 1 -11 -5
-10 -13 2 -8 1 -12 -3 -8 -4 4 -18 2 -32 -3 -21 -8 -24 -7 -19 7 4 11 2 15 -6
11 -8 -3 -14 5 -14 19 -3 44 -12 54 -49 54 -24 0 -35 -4 -35 -15 0 -11 -11
-15 -41 -15 l-41 0 7 -77 c4 -43 9 -80 11 -83 3 -2 39 -7 82 -10 54 -4 70 -8
55 -13 -20 -7 -21 -14 -20 -86 l2 -79 50 -6 c27 -3 71 -6 98 -6 26 0 47 -4 47
-10 0 -6 -55 -11 -142 -12 -79 -1 -126 -3 -105 -5 20 -2 35 -8 32 -14 -4 -5 2
-9 12 -9 12 0 14 -3 6 -8 -14 -9 -13 -262 1 -262 5 0 3 -7 -4 -15 -12 -14 16
-16 266 -15 153 1 289 1 302 1 38 -2 24 -21 -16 -21 -33 0 -38 -3 -40 -26 -1
-14 -6 -33 -11 -42 -7 -12 -9 -5 -6 26 2 23 -1 42 -6 42 -6 0 -7 -4 -4 -10 3
-5 2 -10 -4 -10 -7 0 -8 -17 -4 -46 4 -34 2 -49 -8 -56 -11 -8 -10 -9 4 -4 10
3 23 6 28 6 6 0 8 4 5 9 -3 5 2 11 12 13 9 3 26 24 37 46 11 23 23 42 28 42 4
0 7 -39 7 -86 l0 -87 -67 7 c-38 4 -85 9 -105 12 -24 4 -38 2 -38 -5 0 -6 7
-11 16 -11 8 0 12 -4 9 -10 -3 -5 -2 -10 3 -10 6 0 13 7 16 16 5 13 8 13 21 2
33 -30 45 -38 55 -38 6 0 8 5 4 11 -3 6 7 4 24 -5 37 -19 37 -20 41 -137 2
-53 6 -121 11 -150 l8 -54 1 56 c1 55 2 57 36 73 19 10 39 15 44 12 5 -4 7 3
4 14 -3 12 0 20 7 20 7 0 9 8 5 20 -4 11 -2 20 4 20 6 0 11 11 11 25 0 21 4
24 31 20 17 -2 29 -1 26 2 -3 3 3 14 14 26 11 12 19 35 19 56 0 67 10 23 13
-58 4 -84 -6 -110 -37 -98 -9 4 -15 -3 -18 -23 -2 -16 -1 -27 4 -24 4 3 8 11
8 18 0 8 10 12 25 11 30 -4 28 -19 29 198 1 193 11 177 -113 179 -68 1 -81 4
-86 19 -4 12 -21 19 -55 24 l-50 7 0 84 c0 74 -3 87 -22 107 -13 12 -24 36
-25 52 -1 17 -5 109 -10 206 -9 185 -13 202 -59 219 -21 9 -34 45 -34 100 0
39 8 37 -345 55 -49 3 -98 1 -108 -3z m273 -16 c0 -2 -8 -10 -17 -17 -16 -13
-17 -12 -4 4 13 16 21 21 21 13z m7 -88 c-3 -8 -6 -5 -6 6 -1 11 2 17 5 13 3
-3 4 -12 1 -19z m178 -48 c4 -6 -15 -10 -49 -10 -31 0 -56 5 -56 10 0 6 22 10
49 10 28 0 53 -4 56 -10z m-7 -487 c-15 -2 -42 -2 -60 0 -18 2 -6 4 27 4 33 0
48 -2 33 -4z m-11 -79 c-3 -3 -12 -4 -19 -1 -8 3 -5 6 6 6 11 1 17 -2 13 -5z
m33 -24 c0 -5 -11 -10 -25 -10 -14 0 -25 5 -25 10 0 6 11 10 25 10 14 0 25 -4
25 -10z m397 -207 c-3 -10 -5 -2 -5 17 0 19 2 27 5 18 2 -10 2 -26 0 -35z m24
0 c-8 -15 -10 -15 -11 -2 0 17 10 32 18 25 2 -3 -1 -13 -7 -23z m-134 -165
c-3 -7 -5 -2 -5 12 0 14 2 19 5 13 2 -7 2 -19 0 -25z m-17 -143 c0 -8 -4 -15
-10 -15 -5 0 -10 7 -10 15 0 8 5 15 10 15 6 0 10 -7 10 -15z"/>
<path d="M178 4913 c12 -2 32 -2 45 0 12 2 2 4 -23 4 -25 0 -35 -2 -22 -4z"/>
<path d="M1013 4913 c-7 -3 -13 -18 -13 -34 0 -29 1 -29 58 -29 52 1 55 2 38
15 -18 14 -17 15 25 14 37 -1 40 -2 19 -9 l-25 -8 28 -1 c15 -1 30 -1 34 -1 4
0 9 13 11 30 l3 31 -83 -2 c-46 -1 -89 -4 -95 -6z"/>
<path d="M9034 4869 c-3 -6 -2 -15 3 -20 5 -5 9 -1 10 11 2 22 -2 25 -13 9z"/>
<path d="M218 4863 c7 -3 16 -2 19 1 4 3 -2 6 -13 5 -11 0 -14 -3 -6 -6z"/>
<path d="M9020 4826 c0 -2 7 -6 15 -10 8 -3 15 -1 15 4 0 6 -7 10 -15 10 -8 0
-15 -2 -15 -4z"/>
<path d="M1000 4799 c0 -11 4 -18 10 -14 5 3 7 12 3 20 -7 21 -13 19 -13 -6z"/>
<path d="M1027 4814 c-11 -11 3 -24 18 -17 12 4 15 -3 14 -28 0 -19 -4 -43 -9
-54 -7 -17 -9 -16 -9 10 -1 20 -4 26 -10 17 -6 -10 -10 -8 -15 10 -5 19 -8 20
-16 8 -12 -18 -13 -93 -2 -86 5 3 46 6 91 7 77 2 82 3 79 23 -2 16 -11 22 -35
24 -30 3 -32 6 -28 35 2 17 9 33 15 35 5 2 8 8 4 13 -6 10 -87 12 -97 3z m123
-104 c0 -5 -5 -10 -11 -10 -5 0 -7 5 -4 10 3 6 8 10 11 10 2 0 4 -4 4 -10z"/>
<path d="M1148 4753 c7 -3 16 -2 19 1 4 3 -2 6 -13 5 -11 0 -14 -3 -6 -6z"/>
<path d="M3783 4722 c-22 -20 -74 -63 -113 -95 -122 -97 -180 -153 -169 -164
7 -7 19 -3 36 13 14 13 32 24 39 24 7 0 14 3 16 8 10 23 68 50 104 48 35 -2
39 -5 36 -27 -3 -24 -46 -116 -82 -176 -14 -24 -17 -39 -11 -55 10 -28 -10
-73 -45 -101 -13 -10 -24 -23 -24 -29 0 -6 -10 -27 -22 -47 -13 -20 -23 -40
-23 -46 0 -5 -10 -10 -23 -9 -18 0 -22 -5 -24 -35 -3 -65 -4 -76 -13 -96 -13
-31 -26 -35 -64 -19 -81 35 -264 24 -367 -22 -21 -9 -43 -16 -48 -15 -13 3
-46 -30 -40 -40 3 -5 -3 -6 -12 -2 -11 4 -15 3 -11 -4 4 -6 3 -13 -2 -15 -14
-5 -61 -79 -61 -97 0 -10 7 -6 19 12 18 28 61 64 61 52 0 -4 -5 -16 -11 -27
-6 -11 -15 -34 -20 -50 -7 -27 -6 -28 8 -16 15 12 15 3 9 -103 -7 -118 -1
-193 15 -183 5 3 9 15 10 27 0 12 6 40 14 62 l13 40 -5 -61 c-4 -48 -1 -70 15
-107 12 -26 26 -47 31 -47 6 0 11 -5 11 -11 0 -15 83 -105 183 -197 18 -16 18
-16 8 11 -6 16 -10 49 -10 75 l2 47 7 -55 c12 -94 50 -145 116 -155 73 -11
208 -46 222 -57 40 -32 54 -52 58 -82 2 -17 6 -48 9 -68 3 -24 1 -38 -6 -38
-5 0 15 -25 46 -55 79 -78 85 -97 85 -271 0 -128 -2 -151 -20 -178 -26 -43
-103 -98 -127 -90 -12 4 -8 -4 13 -23 30 -29 30 -30 10 -39 -13 -5 -20 -17
-19 -29 1 -11 5 -55 8 -97 5 -63 12 -85 38 -124 31 -46 31 -49 31 -176 1 -105
-2 -128 -14 -128 -11 0 -11 -3 -2 -12 7 -7 12 -42 12 -85 0 -69 1 -73 25 -78
60 -12 71 -15 84 -24 20 -13 6 -28 -57 -60 -67 -34 -162 -103 -213 -153 -66
-67 -117 -196 -122 -305 0 -16 -3 -16 -28 -3 -23 13 -23 11 -4 -26 22 -42 19
-91 -5 -106 -11 -7 -20 -20 -20 -29 0 -21 47 -68 80 -81 87 -33 314 -65 336
-47 11 9 15 8 20 -4 4 -12 28 -15 117 -16 105 -1 358 22 378 35 5 3 45 6 89 6
65 0 80 2 80 15 0 11 7 14 26 10 18 -3 33 2 45 14 11 11 16 19 12 19 -3 0 4
11 17 25 25 27 27 39 19 163 -2 34 -7 62 -11 62 -4 0 -23 -9 -42 -21 -20 -12
-36 -19 -36 -17 -2 17 -7 182 -9 256 l-1 92 -62 1 -63 2 65 7 c36 3 74 12 85
19 14 9 15 11 3 7 -27 -8 -31 8 -29 120 2 80 -1 104 -11 105 -7 0 6 9 30 19
45 21 59 36 17 20 -14 -5 -25 -6 -26 -2 -2 13 2 97 7 162 5 63 7 67 54 112 48
45 63 71 38 66 -16 -4 -26 67 -16 107 4 16 5 38 2 49 -4 12 -2 16 5 12 6 -4
11 -3 11 3 0 6 11 13 25 17 27 7 34 24 10 24 -8 0 -15 5 -15 10 0 6 5 10 10
10 6 0 10 8 10 18 0 19 59 191 72 207 49 63 59 69 113 69 61 0 74 -8 101 -64
10 -22 22 -40 27 -40 4 0 7 -7 7 -15 0 -8 4 -15 9 -15 9 0 68 -169 63 -184 -2
-4 5 -14 14 -21 10 -7 18 -23 19 -36 8 -95 18 -176 23 -186 4 -6 23 -22 42
-35 26 -18 38 -36 51 -78 19 -62 29 -200 16 -200 -5 0 -3 -7 4 -16 16 -19 17
-27 25 -129 3 -44 7 -86 9 -92 3 -7 -3 -13 -13 -13 -13 -1 -11 -4 8 -15 14 -8
19 -14 13 -15 -10 0 -12 -22 -7 -93 3 -50 2 -127 -1 -170 -8 -83 -17 -93 -61
-63 -19 13 -20 12 -22 -29 -1 -23 -6 -54 -12 -69 -13 -34 -13 -89 -1 -101 6
-6 12 -21 14 -35 2 -14 9 -38 15 -53 7 -16 12 -36 12 -46 0 -21 37 -72 50 -68
4 1 9 -2 10 -8 5 -23 63 -85 80 -85 26 0 73 -49 67 -69 -3 -11 3 -17 17 -17
12 0 139 -1 284 -2 167 -1 262 -6 262 -12 0 -5 -20 -10 -45 -10 -25 0 -45 -1
-45 -3 0 -1 9 -27 20 -57 19 -53 19 -54 20 -20 0 25 3 31 9 21 12 -19 23 -21
171 -26 111 -5 126 -7 134 -24 6 -15 11 -17 21 -8 9 9 8 24 -6 72 -11 33 -19
61 -19 63 0 1 7 2 15 2 8 0 30 -30 49 -68 19 -37 35 -59 36 -49 0 9 3 17 8 18
4 1 24 2 44 3 20 2 48 10 62 19 14 10 45 17 71 17 26 0 44 4 41 9 -3 5 22 12
57 17 61 8 59 8 -60 14 -68 4 -126 10 -130 13 -3 4 47 8 113 8 220 2 277 7
286 24 12 20 28 19 29 -2 0 -14 2 -13 9 5 6 13 18 22 31 22 12 0 23 8 26 20 4
13 14 20 32 20 14 1 40 7 56 15 27 12 16 13 -117 14 -92 1 -148 5 -148 11 0 6
60 10 160 10 l160 0 -3 23 c-3 23 -76 66 -121 71 -11 1 -34 8 -49 14 -16 7
-37 12 -47 12 -11 0 -29 4 -42 9 -38 15 -152 50 -173 54 -11 1 -26 6 -32 10
-32 20 -40 16 427 200 146 58 320 126 387 153 161 63 164 65 172 147 5 44 3
68 -3 71 -7 3 -6 5 2 5 13 1 15 56 2 106 -11 41 -13 26 -16 -90 -2 -55 -5
-113 -7 -129 -4 -28 -29 -52 -46 -42 -5 3 -14 -1 -21 -9 -10 -12 -75 -39 -90
-38 -3 1 -22 -8 -42 -18 -43 -22 -48 -23 -48 -8 0 5 4 8 9 4 5 -3 17 2 26 11
8 9 41 23 73 31 32 8 67 25 79 38 12 13 28 25 35 27 10 4 14 81 18 364 3 201
7 300 9 224 4 -132 5 -154 11 -175 1 -5 1 -14 0 -20 -1 -5 -3 -29 -4 -51 -2
-32 0 -39 10 -30 14 13 16 126 2 143 -6 8 -6 19 1 32 14 25 14 34 1 26 -5 -3
-10 3 -10 14 0 12 5 21 10 21 6 0 10 7 10 15 0 8 -4 15 -10 15 -14 0 -12 27 3
34 10 5 10 7 0 12 -7 3 -13 16 -13 29 0 13 6 26 13 28 10 4 10 6 0 6 -7 1 -13
12 -13 26 0 14 -4 25 -10 25 -6 0 -8 32 -4 88 7 101 14 120 14 39 0 -32 5 -57
10 -57 6 0 9 32 9 79 -2 84 3 103 26 94 8 -3 15 0 15 6 0 12 -10 14 -50 12
-20 -2 -22 0 -10 8 15 10 25 111 11 111 -4 0 -5 17 -2 38 l5 37 7 -30 c5 -23
7 -15 7 30 1 45 -1 54 -8 38 -8 -20 -16 -23 -57 -21 l-48 1 41 4 c38 4 41 6
41 36 0 40 -13 49 -48 32 -14 -8 -29 -12 -32 -8 -4 3 -17 -1 -29 -9 -13 -8
-42 -15 -65 -16 -23 0 -61 -7 -85 -14 -39 -11 -41 -12 -15 -16 24 -3 27 -7 27
-42 0 -21 5 -42 11 -45 6 -4 8 -14 4 -24 -5 -13 -4 -13 6 -4 10 10 10 18 0 39
-14 32 -15 31 29 36 30 3 35 0 38 -20 3 -23 14 -31 46 -36 24 -3 29 -12 33
-63 5 -72 -3 -96 -32 -91 -13 3 -22 2 -20 -2 3 -4 -32 -18 -77 -30 -44 -12
-88 -24 -97 -27 -11 -4 -9 0 4 10 11 9 30 17 43 17 13 0 21 4 18 9 -3 5 1 14
9 21 12 10 15 10 15 0 0 -8 2 -11 5 -8 3 3 1 16 -4 29 -7 17 -10 19 -10 7 -1
-12 -9 -18 -26 -18 -24 0 -25 3 -25 55 0 36 -4 55 -12 55 -9 0 -9 3 0 12 19
19 14 33 -12 36 -27 2 -46 -31 -46 -83 0 -35 -14 -53 -26 -34 -11 18 -33 -30
-34 -71 0 -46 -12 -63 -47 -68 -35 -4 -41 -10 -49 -49 -6 -32 -6 -32 20 -20
14 7 26 16 26 20 0 5 5 5 10 2 6 -3 10 -1 10 6 0 9 3 10 11 2 6 -6 9 -27 7
-48 l-3 -38 -100 -28 c-121 -34 -142 -35 -166 -7 -33 38 -24 54 37 68 24 6 37
4 45 -6 10 -12 34 -13 67 -5 2 1 -4 8 -12 17 -9 8 -16 23 -16 32 0 9 -3 34 -6
54 -6 35 -3 41 34 77 46 42 45 53 -2 44 -61 -12 -65 -17 -68 -100 l-3 -78 -60
-13 c-44 -10 -67 -11 -87 -3 l-28 11 0 127 c0 73 -5 134 -11 143 -7 11 -9 -33
-5 -148 3 -89 4 -162 3 -162 -16 0 -498 -131 -593 -160 -17 -6 -41 -10 -55
-10 l-24 0 3 147 c4 184 0 208 -36 221 -29 11 -64 23 -72 24 -3 1 -43 12 -90
25 -47 13 -112 30 -145 39 -33 8 -76 21 -95 29 -19 7 -75 23 -125 34 -164 38
-212 42 -226 19 -5 -7 -9 -84 -9 -170 0 -99 -4 -158 -10 -158 -6 0 -10 66 -10
179 0 197 1 200 62 220 27 8 187 43 308 66 l25 5 -25 -13 c-14 -8 -53 -20 -87
-27 -35 -7 -63 -17 -63 -22 0 -5 10 -6 23 -2 22 8 91 14 161 14 21 -1 44 5 52
11 11 9 14 6 14 -17 0 -58 9 -71 42 -66 24 4 29 2 23 -8 -6 -10 -4 -12 8 -7 9
3 53 -1 96 -10 74 -14 81 -14 96 1 18 18 30 21 20 6 -9 -15 6 -12 94 16 70 23
81 29 81 49 0 13 -7 26 -16 29 -13 5 -14 4 -6 -7 9 -10 8 -14 -3 -14 -8 0 -15
5 -15 10 0 5 -8 0 -17 -11 -18 -20 -108 -48 -97 -30 4 5 -6 8 -22 6 -21 -2
-28 -8 -26 -20 1 -9 -2 -19 -8 -23 -6 -3 -10 4 -10 17 0 35 -10 42 -70 57 -76
18 -120 34 -120 43 0 11 32 24 65 26 17 1 50 9 75 16 34 11 39 15 20 16 -18 1
-12 5 24 16 49 16 58 14 62 -11 2 -15 -33 -29 -106 -41 -25 -4 -37 -9 -27 -12
9 -2 17 -7 17 -12 0 -4 19 1 41 12 34 16 47 18 66 9 13 -6 21 -16 18 -21 -11
-17 11 -11 29 9 9 10 21 46 27 80 19 119 61 181 123 181 38 0 34 -40 -8 -85
-23 -24 -37 -50 -41 -78 -3 -23 -9 -56 -11 -73 -6 -30 -5 -30 43 -33 47 -2
168 20 326 58 75 18 122 44 111 62 -3 5 2 10 10 10 9 1 22 2 29 2 6 1 32 -11
57 -25 57 -34 252 -68 281 -49 10 6 31 11 47 11 38 0 132 28 132 40 0 16 -18
20 -23 6 -3 -8 -23 -16 -44 -19 -21 -3 -49 -7 -63 -10 -14 -2 -17 -2 -7 0 20
5 23 19 5 26 -7 3 -4 6 6 6 11 1 17 4 14 7 -3 3 -24 0 -46 -7 -34 -10 -47 -9
-79 4 -21 9 -32 16 -25 16 6 1 12 6 12 12 0 9 -16 7 -56 -8 -22 -8 -23 27 -1
48 l22 22 -22 -6 c-15 -3 -23 0 -26 12 -3 9 -5 -5 -6 -31 -2 -74 -25 -63 -46
21 -9 38 -23 78 -30 87 -11 16 -15 16 -30 4 -16 -14 -16 -26 0 -93 6 -24 6
-24 -35 -17 -22 4 -43 10 -46 12 -3 3 6 18 19 34 31 38 41 74 20 74 -14 0 -13
3 3 21 19 22 19 22 -9 17 l-27 -5 6 66 c3 36 10 94 13 129 4 35 4 65 0 67 -10
7 -19 -21 -19 -56 0 -18 -5 -29 -14 -29 -16 0 -50 -32 -94 -88 -22 -27 -52
-50 -85 -64 -57 -25 -73 -25 -100 0 -18 16 -20 15 -33 -3 -18 -25 -18 -41 0
-26 13 11 13 7 5 -23 -5 -19 -9 -38 -8 -43 4 -22 -2 -53 -10 -53 -11 0 -24
149 -13 163 4 7 5 53 1 102 -10 116 -10 114 -27 108 -30 -12 8 35 76 95 37 33
81 72 97 87 17 14 -7 1 -52 -29 -45 -31 -85 -56 -88 -56 -4 0 -3 9 0 20 3 11
2 20 -3 20 -5 0 -9 6 -9 13 -1 14 -19 65 -41 116 -19 45 -21 64 -8 74 6 5 1 5
-11 2 -42 -12 -23 10 52 59 111 72 221 123 315 145 99 24 116 36 40 28 -52 -5
-79 -15 -282 -109 -47 -22 -91 -37 -97 -34 -6 4 -11 18 -11 32 0 14 -7 32 -16
41 -8 9 -12 19 -7 24 10 9 235 91 316 114 53 15 124 61 113 72 -3 3 -48 -13
-101 -36 -102 -44 -291 -104 -363 -116 -55 -9 -79 10 -88 73 -4 27 -16 55 -30
69 l-23 23 34 14 34 15 -30 88 c-50 145 -50 145 -37 160 9 12 6 14 -18 11 -27
-3 -30 0 -50 60 -12 34 -24 65 -27 69 -4 3 -7 13 -7 20 0 8 -9 32 -20 55 -19
40 -19 41 0 68 18 25 18 29 4 41 -22 18 -44 75 -53 139 -7 43 -9 23 -10 -98
-1 -129 3 -170 24 -270 39 -180 53 -250 65 -337 6 -44 17 -125 25 -180 24
-171 28 -216 30 -365 3 -168 -13 -161 -22 10 -6 113 -22 182 -21 95 1 -75 -2
-83 -16 -50 -12 28 -12 26 -8 -31 3 -43 0 -64 -8 -69 -10 -6 -12 2 -7 33 3 23
1 42 -4 42 -5 0 -9 -10 -9 -23 0 -37 -28 -69 -58 -65 -22 2 -28 9 -30 35 -4
41 13 73 39 73 11 0 18 4 15 9 -3 5 -15 7 -26 4 -23 -6 -54 -58 -45 -73 3 -6
1 -10 -4 -10 -6 0 -11 8 -11 17 0 9 -3 13 -7 10 -3 -4 2 -23 13 -42 15 -29 17
-39 6 -55 -14 -23 -16 -33 -3 -26 4 3 17 -1 27 -10 18 -14 18 -15 -4 -9 -12 4
-22 3 -20 -2 5 -19 -14 -72 -28 -77 -10 -4 -14 -22 -14 -58 0 -38 -3 -49 -10
-38 -8 12 -10 11 -10 -5 0 -13 -27 -45 -70 -84 -38 -34 -70 -71 -70 -81 0 -27
-85 -33 -108 -7 -24 27 -94 56 -149 63 -27 3 -57 9 -68 14 -23 10 -104 21
-157 21 -20 0 -62 8 -94 19 -32 11 -62 16 -68 12 -6 -5 -21 -9 -32 -10 -16 0
-24 8 -33 37 -6 21 -11 50 -11 65 l0 26 128 0 c171 0 347 17 389 37 44 21 63
67 63 154 0 94 -17 87 -21 -9 -5 -93 -21 -115 -88 -120 -24 -1 -53 -8 -65 -14
-17 -9 -135 -18 -276 -20 -117 -2 -223 9 -214 23 4 8 -39 4 -73 -6 -6 -2 -14
-1 -18 3 -3 4 -37 7 -73 8 -37 1 -101 5 -142 8 -41 3 -111 9 -155 11 -111 8
-149 19 -163 50 -12 25 -17 154 -7 143 3 -3 6 -31 6 -63 1 -79 23 -101 110
-109 105 -10 358 -12 352 -3 -3 5 3 5 13 0 11 -5 66 -10 124 -11 64 0 95 2 80
7 -22 7 -19 9 23 16 26 4 47 12 47 17 0 6 -9 8 -20 5 -11 -3 -22 -2 -25 3 -2
4 -53 8 -112 8 -187 2 -456 22 -496 37 -20 8 -37 50 -36 88 1 28 2 27 10 -12
5 -25 14 -50 21 -57 13 -12 184 -34 228 -29 14 1 50 3 80 4 35 1 50 4 42 10
-8 5 -34 6 -58 3 -27 -3 -44 -1 -44 6 0 6 6 12 13 15 7 3 0 9 -15 16 -16 6
-28 17 -28 26 0 8 -4 15 -8 15 -5 0 -17 18 -27 40 -10 22 -24 40 -32 40 -9 0
-13 14 -13 45 0 34 -3 43 -14 39 -8 -3 -17 -1 -21 5 -4 8 44 11 157 12 90 0
292 2 450 2 176 1 291 6 297 12 7 7 -51 9 -172 7 -100 -1 -315 1 -477 5 l-295
8 -9 26 c-5 14 -6 46 -2 71 7 44 8 46 49 54 23 4 229 8 457 8 404 0 417 -1
482 -23 43 -14 72 -31 82 -46 12 -18 24 -24 46 -22 30 2 43 17 16 17 -8 0 -22
7 -30 15 -8 9 -41 28 -73 42 -56 26 -66 27 -333 36 -343 11 -713 4 -755 -14
-17 -7 -48 -24 -69 -37 l-39 -24 6 139 c5 130 22 223 39 223 5 0 8 -4 8 -10 0
-5 14 -10 30 -10 17 0 30 5 30 10 0 6 8 10 18 11 14 0 14 2 -3 8 -22 9 -84 3
-100 -10 -6 -4 -21 1 -34 11 -24 18 -23 18 110 25 74 4 226 10 339 14 l205 8
-263 1 c-159 1 -261 6 -257 11 3 5 -3 12 -14 16 -22 7 -59 105 -63 168 -1 21
-5 40 -9 43 -4 2 -5 12 -2 22 2 10 -5 26 -18 37 -12 11 -19 14 -15 8 5 -9 2
-11 -8 -7 -37 14 -2 33 59 34 17 0 36 4 44 9 9 6 -14 9 -64 8 l-78 -1 7 -103
c6 -91 4 -109 -13 -149 -11 -24 -26 -51 -34 -58 -33 -33 -93 -52 -153 -48 -31
3 -61 33 -84 85 -18 41 -20 66 -20 224 1 98 1 207 0 243 0 36 4 103 11 150 6
47 10 95 8 107 -4 21 -6 20 -46 -15z m-3 -538 c0 -8 -5 -12 -10 -9 -6 4 -8 11
-5 16 9 14 15 11 15 -7z m-17 -171 c-3 -27 -10 -52 -15 -58 -10 -10 -2 81 9
98 9 15 10 6 6 -40z m-67 -70 c-8 -43 -25 -123 -36 -178 -12 -55 -22 -108 -23
-118 -1 -15 -8 -17 -57 -11 -52 5 -58 3 -115 -33 -92 -60 -179 -172 -221 -285
-12 -35 -23 -58 -23 -51 -1 6 10 44 25 83 14 38 22 75 18 82 -4 7 -3 8 4 4 18
-11 14 -2 -9 25 -11 13 -28 34 -39 45 -10 12 -21 31 -24 42 -4 11 -13 26 -21
32 -8 7 -15 23 -15 36 0 12 -5 26 -11 30 -6 3 -9 14 -6 24 8 30 -23 33 -53 5
-14 -14 -30 -25 -34 -25 -9 0 40 68 64 88 11 10 11 11 1 6 -8 -4 1 12 20 37
40 52 49 59 64 53 5 -3 1 2 -9 10 -19 15 -15 16 57 15 42 -1 77 -5 77 -9 0 -5
24 -11 53 -15 78 -11 92 -24 25 -25 -31 0 -60 -4 -63 -10 -3 -6 5 -10 19 -10
13 0 31 -6 38 -14 39 -41 62 -73 64 -91 1 -11 3 -23 3 -26 1 -7 131 -12 131
-5 0 3 -14 35 -32 71 l-32 65 23 17 c13 10 31 27 40 37 9 11 30 36 48 56 17
20 37 57 44 83 18 75 22 47 5 -40z m51 -35 c-3 -8 -6 -5 -6 6 -1 11 2 17 5 13
3 -3 4 -12 1 -19z m498 -28 c-3 -5 -12 -10 -18 -10 -7 0 -6 4 3 10 19 12 23
12 15 0z m-997 -7 c-10 -2 -28 -2 -40 0 -13 2 -5 4 17 4 22 1 32 -1 23 -4z
m502 3 c0 -3 -4 -8 -10 -11 -5 -3 -10 -1 -10 4 0 6 5 11 10 11 6 0 10 -2 10
-4z m-13 -48 c-3 -8 -6 -5 -6 6 -1 11 2 17 5 13 3 -3 4 -12 1 -19z m-697 -27
c0 -24 -43 -58 -49 -40 -2 7 4 18 13 24 9 7 16 17 16 24 0 6 5 11 10 11 6 0
10 -9 10 -19z m687 -13 c-3 -8 -6 -5 -6 6 -1 11 2 17 5 13 3 -3 4 -12 1 -19z
m137 -14 c17 -16 21 -51 8 -71 -4 -6 -25 -13 -47 -15 l-40 -3 0 40 c0 29 4 40
15 40 11 0 14 -9 13 -32 -1 -18 2 -33 8 -33 5 0 9 17 9 38 0 27 3 33 10 22 6
-9 10 -10 10 -3 0 7 -8 17 -17 22 -16 9 -16 10 -1 11 9 0 24 -7 32 -16z m-394
-219 c9 5 11 4 6 -3 -5 -8 1 -12 16 -13 19 -1 20 -2 4 -6 -15 -4 -16 -7 -6
-13 11 -7 11 -14 2 -34 -13 -29 -49 -35 -58 -11 -5 13 -8 12 -21 -1 -12 -12
-18 -12 -23 -3 -4 6 -13 8 -20 4 -7 -4 -6 4 4 23 19 37 68 75 77 60 4 -6 12
-7 19 -3z m693 -204 c-7 -11 -11 8 -13 49 -3 71 3 81 9 15 3 -33 5 -62 4 -64z
m-404 87 c20 -21 20 -60 0 -82 -11 -12 -59 43 -59 69 0 41 28 47 59 13z m458
-100 c-3 -8 -6 -5 -6 6 -1 11 2 17 5 13 3 -3 4 -12 1 -19z m-47 -64 c0 -27 -4
-43 -10 -39 -5 3 -10 24 -10 46 0 21 5 39 10 39 6 0 10 -21 10 -46z m62 6 c3
-16 1 -30 -4 -30 -4 0 -8 14 -8 30 0 17 2 30 4 30 2 0 6 -13 8 -30z m-522 -74
c0 -2 -8 -10 -17 -17 -16 -13 -17 -12 -4 4 13 16 21 21 21 13z m60 -11 c16
-19 1 -19 -24 0 -16 12 -17 15 -4 15 8 0 21 -7 28 -15z m-27 -22 c-7 -2 -19
-2 -25 0 -7 3 -2 5 12 5 14 0 19 -2 13 -5z m-42 -94 c8 -5 9 -9 4 -9 -22 0
-35 25 -34 65 l2 40 7 -43 c3 -24 13 -48 21 -53z m73 45 c5 -17 3 -22 -11 -20
-10 0 -17 -5 -15 -12 1 -8 -1 -11 -6 -8 -5 3 -4 21 2 40 11 37 19 36 30 0z
m2206 -71 c0 -110 19 -216 41 -232 11 -8 19 -25 19 -41 0 -15 13 -54 30 -86
16 -32 30 -62 30 -66 0 -4 -18 -12 -40 -18 -21 -6 -52 -21 -67 -34 -27 -22
-29 -22 -46 -6 -20 19 -60 31 -75 21 -5 -3 -12 -26 -15 -50 -5 -40 -21 -71
-31 -60 -2 2 0 41 5 87 14 128 39 165 151 221 18 9 25 18 19 25 -8 9 -41 242
-41 284 0 7 -4 10 -10 7 -14 -9 -12 3 3 19 19 21 27 0 27 -71z m-2273 55 c-3
-8 -6 -5 -6 6 -1 11 2 17 5 13 3 -3 4 -12 1 -19z m2143 -18 c12 -8 11 -10 -7
-10 -13 0 -23 5 -23 10 0 13 11 13 30 0z m17 -26 c-3 -3 -12 -4 -19 -1 -8 3
-5 6 6 6 11 1 17 -2 13 -5z m201 -142 c2 -11 -5 -36 -15 -54 l-18 -33 -5 45
c-3 25 -1 47 3 48 4 2 3 10 -4 18 -10 12 -8 13 12 6 13 -5 25 -19 27 -30z
m-1393 8 c28 -4 41 -8 30 -10 -17 -2 -16 -3 5 -9 22 -6 19 -8 -22 -15 -32 -5
-48 -12 -48 -22 0 -19 -16 -18 -32 4 -7 10 -29 23 -48 29 l-35 11 50 2 c48 3
49 3 15 10 l-35 7 35 1 c19 0 58 -3 85 -8z m83 -68 c-2 -81 -18 -73 -18 10 0
51 3 69 10 58 5 -8 9 -39 8 -68z m108 44 c6 -35 -2 -176 -11 -185 -3 -2 -5 13
-6 35 -1 63 -7 98 -19 102 -5 2 -8 7 -5 12 3 5 -4 11 -15 15 -12 4 -20 15 -20
29 0 18 6 22 34 24 33 2 35 0 42 -32z m574 -196 c0 -5 -4 -10 -10 -10 -5 0
-10 5 -10 10 0 6 5 10 10 10 6 0 10 -4 10 -10z m137 -366 c-3 -3 -12 -4 -19
-1 -8 3 -5 6 6 6 11 1 17 -2 13 -5z m1796 -21 c-7 -2 -21 -2 -30 0 -10 3 -4 5
12 5 17 0 24 -2 18 -5z m-1258 -33 c-27 -12 -43 -12 -25 0 8 5 22 9 30 9 10 0
8 -3 -5 -9z m-125 -10 c0 -5 -2 -10 -4 -10 -3 0 -8 5 -11 10 -3 6 -1 10 4 10
6 0 11 -4 11 -10z m1137 -232 c-3 -7 -5 -2 -5 12 0 14 2 19 5 13 2 -7 2 -19 0
-25z m-2950 -42 c119 -11 124 -13 77 -20 -56 -8 -187 6 -255 29 l-44 14 47 -6
c26 -3 105 -11 175 -17z m2940 -181 c9 -24 -1 -27 -15 -5 -8 13 -8 20 -2 20 6
0 13 -7 17 -15z m-32 -25 c3 -5 1 -10 -4 -10 -6 0 -11 5 -11 10 0 6 2 10 4 10
3 0 8 -4 11 -10z m5 -30 c0 -5 -7 -10 -16 -10 -8 0 -12 5 -9 10 3 6 10 10 16
10 5 0 9 -4 9 -10z m-292 -26 c32 -16 45 -31 17 -20 -8 3 -15 1 -15 -5 0 -5
-8 -9 -17 -7 -30 5 -28 -30 2 -38 14 -3 29 -4 32 0 4 3 -3 6 -15 6 -12 0 -22
5 -22 10 0 6 2 10 4 10 2 0 12 3 21 6 9 4 15 3 14 -2 -4 -23 4 -23 39 -1 20
13 53 26 72 30 19 3 29 3 23 0 -24 -9 -13 -23 12 -17 14 3 25 2 25 -2 -1 -12
-26 -44 -32 -41 -2 1 9 -10 25 -25 17 -15 26 -31 22 -38 -4 -6 0 -19 9 -29 9
-10 26 -45 37 -77 43 -121 5 -292 -87 -394 -125 -138 -293 -86 -324 101 -4 30
-11 62 -15 72 -5 10 -3 17 5 17 15 0 5 117 -11 136 -6 8 -6 21 2 38 14 29 27
33 35 11 4 -8 11 -15 16 -15 7 0 6 5 -1 14 -6 7 -9 21 -5 30 3 9 1 16 -6 16
-6 0 -8 -6 -4 -12 4 -7 3 -10 -1 -5 -11 9 -13 57 -3 63 5 3 11 -1 14 -9 7 -20
41 -10 47 15 4 13 -1 22 -16 28 -17 7 -18 9 -4 9 9 1 17 6 17 11 0 6 -14 3
-31 -6 -19 -9 -34 -12 -38 -6 -3 5 -31 12 -60 15 -44 5 -59 3 -74 -10 -16 -15
-19 -15 -27 -3 -7 11 -12 12 -21 3 -19 -19 -2 -34 26 -23 20 7 25 6 25 -5 0
-18 17 -20 23 -2 2 6 8 8 13 4 15 -14 -18 -25 -62 -21 -24 3 -45 1 -49 -5 -4
-7 5 -11 22 -11 l27 0 -22 -16 c-12 -8 -22 -21 -22 -27 0 -7 6 -5 14 5 20 27
61 39 95 27 25 -9 31 -17 36 -52 4 -23 2 -55 -4 -70 -14 -35 -14 -40 -1 -32 6
3 10 1 10 -5 0 -7 -6 -10 -14 -7 -29 12 -54 -48 -35 -85 5 -9 5 -26 0 -40 -7
-15 -10 -17 -10 -7 -1 14 -31 50 -31 36 0 -2 7 -24 15 -47 34 -95 11 -207 -57
-285 -55 -62 -86 -77 -158 -73 -32 1 -57 6 -54 9 2 4 -8 15 -21 25 -14 10 -25
25 -25 32 0 8 -6 12 -13 9 -10 -4 -12 7 -11 42 1 25 -2 60 -7 77 -5 17 -12 42
-15 55 -3 13 -8 34 -11 47 -3 12 -1 22 5 22 11 0 52 82 52 105 0 8 -9 15 -20
15 -13 0 -20 -7 -20 -20 0 -15 -7 -20 -25 -20 -22 0 -25 -4 -25 -40 0 -22 4
-40 9 -40 16 0 20 -64 4 -77 -12 -9 -15 -60 -19 -289 -4 -260 -3 -279 13 -286
12 -4 7 -7 -17 -7 l-35 -1 0 172 c-1 95 -2 331 -4 524 -2 193 0 357 4 364 4 6
17 9 30 6 12 -3 48 1 80 9 47 13 60 13 67 3 6 -10 8 -8 8 5 0 10 8 17 21 17
11 0 43 7 71 16 40 14 52 14 58 4 10 -16 33 -3 26 15 -4 12 4 16 57 30 4 2 23
3 43 4 19 0 33 5 30 10 -4 5 3 7 15 4 12 -3 24 -1 28 4 23 35 143 45 199 17z
m568 -16 c61 -55 57 -240 -6 -308 -25 -27 -27 -34 -9 -32 3 1 6 -6 6 -14 0
-10 -4 -11 -11 -4 -22 22 -26 7 -26 -90 0 -88 -2 -100 -19 -110 -29 -15 -58
-12 -65 6 -3 9 -6 53 -6 98 0 80 -1 83 -30 104 -40 30 -58 78 -60 159 -2 90
-1 95 9 89 10 -6 22 30 13 39 -3 3 -14 -7 -24 -22 -10 -16 -18 -23 -18 -18 0
6 9 21 20 35 11 14 20 30 20 36 0 6 7 18 17 25 15 13 15 11 -1 -18 -21 -41 -7
-43 16 -3 29 51 38 37 38 -59 0 -67 4 -93 15 -105 9 -8 15 -19 15 -23 -3 -15
20 -14 26 1 3 9 10 14 14 11 12 -7 21 23 27 89 3 38 2 56 -5 52 -5 -3 -12 7
-14 24 -3 16 0 32 6 35 7 3 7 7 -1 11 -7 3 -13 10 -13 16 0 14 41 -1 66 -24z
m-3351 -52 c0 -58 3 -68 29 -95 23 -24 38 -31 65 -30 20 1 27 3 16 6 -11 2
-30 6 -42 8 -15 4 -26 17 -34 43 -15 53 -8 92 21 113 22 16 31 17 70 7 62 -15
73 -28 74 -87 1 -42 3 -48 13 -35 7 9 15 36 19 61 5 35 9 41 20 32 33 -27 3
-118 -51 -153 -70 -46 -176 -24 -213 44 -22 40 -36 110 -21 110 5 0 9 6 9 14
0 8 6 17 13 19 6 3 12 6 12 6 0 1 0 -28 0 -63z m2992 58 c-3 -3 -12 -4 -19 -1
-8 3 -5 6 6 6 11 1 17 -2 13 -5z m-1720 -76 c-3 -8 -6 -5 -6 6 -1 11 2 17 5
13 3 -3 4 -12 1 -19z m-957 -29 c0 -11 6 -22 14 -25 14 -5 13 -56 -1 -94 -4
-8 -5 -18 -5 -22 3 -13 -152 -9 -210 4 l-53 13 40 2 c73 5 100 13 125 36 35
30 70 81 70 102 0 9 5 13 10 10 6 -3 10 -15 10 -26z m2695 20 c11 -17 -1 -21
-15 -4 -8 9 -8 15 -2 15 6 0 14 -5 17 -11z m275 -9 c0 -5 -2 -10 -4 -10 -3 0
-8 5 -11 10 -3 6 -1 10 4 10 6 0 11 -4 11 -10z m-2013 -362 c-1 -68 -3 -15 -3
117 0 132 2 187 3 123 2 -64 2 -172 0 -240z m1273 297 c-7 -8 -16 -15 -21 -15
-5 0 -1 8 9 18 20 22 31 19 12 -3z m140 16 c0 -12 -20 -25 -27 -18 -7 7 6 27
18 27 5 0 9 -4 9 -9z m613 -28 c-3 -7 -9 -10 -14 -7 -14 8 -11 21 5 21 8 0 12
-6 9 -14z m-3324 -7 c9 -8 30 -22 46 -31 l30 -16 -35 6 c-19 4 -45 18 -58 31
-24 26 -9 34 17 10z m2618 8 c-3 -3 -12 -4 -19 -1 -8 3 -5 6 6 6 11 1 17 -2
13 -5z m0 -76 c-3 -8 -6 -5 -6 6 -1 11 2 17 5 13 3 -3 4 -12 1 -19z m-2399
-15 c152 -5 162 -7 147 -23 -11 -12 -15 -39 -15 -103 0 -75 -2 -86 -19 -92
-21 -6 -81 15 -151 54 -25 14 -63 35 -84 46 -26 13 -41 28 -43 43 -4 29 -23
48 -71 73 l-37 20 55 -6 c30 -3 128 -8 218 -12z m2362 -107 c0 -3 -4 -8 -10
-11 -5 -3 -10 -1 -10 4 0 6 5 11 10 11 6 0 10 -2 10 -4z m-2500 -66 c8 -5 19
-8 23 -8 13 0 71 -25 83 -37 6 -5 20 -16 30 -23 11 -7 24 -16 29 -20 30 -20
85 -112 85 -141 0 -17 -4 -31 -9 -31 -5 0 -14 -13 -21 -30 -7 -16 -21 -39 -31
-51 -10 -12 -19 -29 -19 -38 0 -19 -73 -101 -89 -101 -6 0 -11 -4 -11 -10 0
-5 -8 -10 -17 -10 -14 0 -15 -2 -5 -9 9 -5 -6 -10 -40 -14 -71 -9 -168 -8
-145 2 16 6 15 9 -10 21 -73 38 -146 104 -158 141 -4 11 -10 19 -15 19 -14 0
-40 79 -40 122 0 128 86 202 270 231 28 4 67 -2 90 -13z m2103 -35 c-3 -9 -8
-14 -10 -11 -3 3 -2 9 2 15 9 16 15 13 8 -4z m1267 -150 c0 -2 -10 -9 -22 -15
-22 -11 -22 -10 -4 4 21 17 26 19 26 11z m-70 -29 c0 -2 -7 -7 -16 -10 -8 -3
-12 -2 -9 4 6 10 25 14 25 6z m-45 -26 c-3 -5 -11 -10 -16 -10 -6 0 -7 5 -4
10 3 6 11 10 16 10 6 0 7 -4 4 -10z m-35 -14 c0 -2 -7 -7 -16 -10 -8 -3 -12
-2 -9 4 6 10 25 14 25 6z m-1993 -128 c-2 -24 -4 -5 -4 42 0 47 2 66 4 43 2
-24 2 -62 0 -85z m1953 102 c0 -5 -2 -10 -4 -10 -3 0 -8 5 -11 10 -3 6 -1 10
4 10 6 0 11 -4 11 -10z m-30 -10 c0 -5 -7 -10 -16 -10 -8 0 -12 5 -9 10 3 6
10 10 16 10 5 0 9 -4 9 -10z m-120 -40 c-8 -6 -22 -10 -30 -10 -8 0 -4 6 10
13 27 15 44 12 20 -3z m115 -10 c-3 -5 -12 -10 -18 -10 -7 0 -6 4 3 10 19 12
23 12 15 0z m-169 -15 c-1 -8 -6 -18 -11 -22 -4 -4 -5 -2 -1 5 5 8 1 12 -11
12 -15 0 -16 2 -3 10 21 14 29 12 26 -5z m70 -25 c-40 -20 -65 -26 -52 -12 8
8 66 30 81 31 6 0 -8 -9 -29 -19z m-165 -5 c-18 -8 -36 -15 -40 -15 -13 1 45
29 59 29 8 0 0 -6 -19 -14z m28 -47 c-177 -68 -179 -68 -172 -52 3 8 8 13 11
10 2 -3 19 2 36 11 17 10 60 25 95 34 35 10 68 22 74 28 5 5 15 7 20 4 6 -3
-23 -19 -64 -35z m-124 7 c-50 -24 -75 -31 -61 -17 10 9 88 41 101 41 6 0 -12
-11 -40 -24z m-125 -45 c-8 -5 -19 -10 -25 -10 -5 0 -3 5 5 10 8 5 20 10 25
10 6 0 3 -5 -5 -10z m-70 -24 c0 -2 -7 -7 -16 -10 -8 -3 -12 -2 -9 4 6 10 25
14 25 6z m114 -14 c-10 -9 -168 -72 -180 -72 -4 0 6 11 21 24 16 14 32 23 36
20 4 -2 18 0 31 5 12 5 26 9 30 10 4 1 20 8 35 16 27 14 45 12 27 -3z m-224
-37 c-14 -8 -29 -14 -35 -14 -5 0 1 6 15 14 14 8 30 14 35 14 6 0 -1 -6 -15
-14z m-2453 -22 c-13 -12 -122 -22 -179 -16 -95 10 -55 23 69 23 64 0 113 -3
110 -7z m2388 -2 c-6 -5 -21 -11 -35 -15 -21 -5 -20 -3 5 9 35 17 42 18 30 6z
m-65 -25 c0 -2 -7 -7 -16 -10 -8 -3 -12 -2 -9 4 6 10 25 14 25 6z m95 -16
c-27 -12 -43 -12 -25 0 8 5 22 9 30 9 10 0 8 -3 -5 -9z m-63 -22 c-14 -7 -26
-8 -32 -2 -5 5 4 10 23 11 30 1 31 1 9 -9z m-162 -12 c0 -2 -7 -7 -16 -10 -8
-3 -12 -2 -9 4 6 10 25 14 25 6z m-93 -468 c-3 -8 -6 -5 -6 6 -1 11 2 17 5 13
3 -3 4 -12 1 -19z"/>
<path d="M3270 3715 c0 -40 50 -125 73 -125 6 0 0 11 -12 24 -15 16 -25 42
-28 70 -4 30 -10 46 -19 46 -8 0 -14 -7 -14 -15z"/>
<path d="M3840 3724 c0 -8 5 -12 10 -9 6 3 10 10 10 16 0 5 -4 9 -10 9 -5 0
-10 -7 -10 -16z"/>
<path d="M6720 1732 c0 -5 7 -9 15 -9 8 0 15 4 15 9 0 4 -7 8 -15 8 -8 0 -15
-4 -15 -8z"/>
<path d="M6618 1723 c7 -3 16 -2 19 1 4 3 -2 6 -13 5 -11 0 -14 -3 -6 -6z"/>
<path d="M6870 1692 c0 -14 -69 -34 -92 -26 -21 6 -21 5 -9 -10 10 -12 22 -15
39 -11 17 4 22 2 16 -6 -5 -9 -2 -10 12 -5 10 5 39 14 64 22 43 13 43 13 10
11 -28 -2 -34 1 -32 16 2 9 0 17 -3 17 -3 0 -5 -4 -5 -8z m-3 -28 c-3 -3 -12
-4 -19 -1 -8 3 -5 6 6 6 11 1 17 -2 13 -5z"/>
<path d="M6722 1635 c-7 -15 -8 -26 -1 -30 5 -4 7 -10 5 -14 -3 -4 2 -8 10 -8
8 0 13 6 10 13 -7 17 20 32 48 28 12 -2 6 1 -11 8 -18 6 -33 15 -33 19 0 18
-17 8 -28 -16z m28 -4 c0 -5 -7 -11 -14 -14 -10 -4 -13 -1 -9 9 6 15 23 19 23
5z"/>
<path d="M6937 1639 c18 -5 35 -14 38 -19 7 -12 25 -13 25 -2 0 11 -51 32 -74
31 -14 -1 -11 -4 11 -10z"/>
<path d="M6335 1610 c-4 -6 3 -10 14 -10 25 0 27 6 6 13 -8 4 -17 2 -20 -3z"/>
<path d="M6410 1590 c-9 -6 -10 -10 -3 -10 6 0 15 5 18 10 8 12 4 12 -15 0z"/>
<path d="M6704 1546 c-10 -8 -16 -17 -13 -20 3 -3 14 3 24 14 21 23 17 26 -11
6z"/>
<path d="M6225 1541 c-16 -15 4 -21 76 -21 66 0 84 -3 95 -17 14 -19 19 -7 6
13 -7 11 -169 34 -177 25z"/>
<path d="M6414 1514 c4 -9 0 -27 -9 -40 -10 -15 -11 -25 -4 -29 7 -5 6 -11 -1
-20 -8 -9 -8 -15 0 -20 5 -3 10 1 10 9 0 9 5 16 11 16 8 0 7 6 -2 17 -11 13
-11 17 -1 20 15 6 16 63 1 63 -6 0 -8 -7 -5 -16z"/>
<path d="M6497 1476 c-8 -20 -2 -49 11 -54 14 -4 35 35 28 54 -7 18 -32 18
-39 0z"/>
<path d="M6625 1459 c-4 -6 -5 -12 -2 -15 2 -3 7 2 10 11 7 17 1 20 -8 4z"/>
<path d="M6199 1401 c-13 -22 -17 -37 -10 -39 6 -2 11 -13 11 -24 0 -16 5 -19
25 -16 13 3 26 0 28 -5 2 -6 13 -1 26 12 18 18 20 25 11 37 -7 7 -10 27 -8 44
4 28 3 29 -29 28 -27 -1 -37 -8 -54 -37z m78 -58 c-9 -9 -19 -14 -23 -11 -10
10 6 28 24 28 15 0 15 -1 -1 -17z"/>
<path d="M6300 1430 c0 -5 5 -10 10 -10 6 0 10 5 10 10 0 6 -4 10 -10 10 -5 0
-10 -4 -10 -10z"/>
<path d="M6355 1430 c4 -6 11 -8 16 -5 14 9 11 15 -7 15 -8 0 -12 -5 -9 -10z"/>
<path d="M6344 1385 c-4 -8 -12 -15 -19 -15 -7 0 -12 -8 -10 -17 2 -10 4 -21
4 -24 1 -3 13 -4 29 -1 l27 6 -30 6 -30 7 28 13 c15 7 27 19 27 27 0 18 -19
17 -26 -2z"/>
<path d="M6413 1378 c-11 -18 -13 -38 -3 -38 4 0 10 11 12 25 6 28 3 31 -9 13z"/>
<path d="M6506 1323 c-4 -10 1 -24 15 -37 21 -21 22 -21 14 -1 -4 11 -8 28 -9
38 0 22 -12 22 -20 0z"/>
<path d="M6285 1310 c-3 -6 1 -7 9 -4 18 7 21 14 7 14 -6 0 -13 -4 -16 -10z"/>
<path d="M6230 1259 c-16 -30 -8 -31 13 -3 10 13 13 24 8 24 -6 0 -15 -9 -21
-21z"/>
<path d="M6183 1228 c-21 -27 -22 -36 -8 -48 13 -11 14 -10 9 4 -3 9 -1 23 6
31 7 9 11 18 8 20 -3 3 -10 0 -15 -7z"/>
<path d="M6333 1190 c-41 -33 -56 -106 -28 -130 9 -8 15 -8 15 -2 0 6 -6 13
-12 15 -10 4 -10 8 -2 14 6 4 10 22 9 40 -1 18 1 30 4 28 12 -7 50 30 43 42
-5 8 -13 6 -29 -7z"/>
<path d="M6392 1190 c7 -10 14 -18 15 -16 6 6 -9 36 -18 36 -5 0 -4 -9 3 -20z"/>
<path d="M6171 1144 c0 -11 3 -14 6 -6 3 7 2 16 -1 19 -3 4 -6 -2 -5 -13z"/>
<path d="M6334 1028 c9 -5 23 -5 32 0 12 6 7 9 -16 9 -23 0 -28 -3 -16 -9z"/>
<path d="M5886 4718 c-3 -13 -5 -34 -5 -48 1 -15 5 -7 10 19 9 47 6 68 -5 29z"/>
<path d="M8308 4673 c12 -2 32 -2 45 0 12 2 2 4 -23 4 -25 0 -35 -2 -22 -4z"/>
<path d="M613 4600 c0 -25 2 -35 4 -22 2 12 2 32 0 45 -2 12 -4 2 -4 -23z"/>
<path d="M2 4510 c0 -14 2 -19 5 -12 2 6 2 18 0 25 -3 6 -5 1 -5 -13z"/>
<path d="M502 4510 c0 -14 2 -19 5 -12 2 6 2 18 0 25 -3 6 -5 1 -5 -13z"/>
<path d="M8305 4510 c-19 -8 -19 -9 3 -9 12 -1 22 4 22 9 0 6 -1 10 -2 9 -2 0
-12 -4 -23 -9z"/>
<path d="M9448 4483 c7 -3 16 -2 19 1 4 3 -2 6 -13 5 -11 0 -14 -3 -6 -6z"/>
<path d="M9520 4475 c0 -5 5 -17 10 -25 5 -8 10 -10 10 -5 0 6 -5 17 -10 25
-5 8 -10 11 -10 5z"/>
<path d="M512 4440 c0 -19 2 -27 5 -17 2 9 2 25 0 35 -3 9 -5 1 -5 -18z"/>
<path d="M8263 4443 c15 -2 39 -2 55 0 15 2 2 4 -28 4 -30 0 -43 -2 -27 -4z"/>
<path d="M9530 4372 l5 -57 3 49 c2 27 0 52 -5 57 -4 4 -6 -18 -3 -49z"/>
<path d="M508 4360 c2 -22 6 -40 8 -40 2 0 4 18 4 40 0 22 -3 40 -8 40 -4 0
-6 -18 -4 -40z"/>
<path d="M8293 4383 c9 -2 23 -2 30 0 6 3 -1 5 -18 5 -16 0 -22 -2 -12 -5z"/>
<path d="M0 4323 c0 -3 11 -26 25 -49 14 -24 30 -63 35 -86 24 -112 30 -116
26 -16 -3 53 -9 104 -14 114 -9 16 -72 49 -72 37z"/>
<path d="M3142 4154 c-75 -75 -119 -126 -110 -128 7 -2 45 -6 83 -9 39 -2 61
-2 50 0 -16 3 -21 12 -21 45 -2 45 20 77 52 82 11 2 20 8 20 14 1 7 2 17 3 23
0 5 15 15 31 21 25 8 29 14 24 32 -6 18 -5 19 10 7 9 -7 16 -10 16 -5 -1 10
-25 44 -31 43 -2 -1 -60 -57 -127 -125z"/>
<path d="M1740 4175 c-8 -9 -8 -15 -2 -15 12 0 26 19 19 26 -2 2 -10 -2 -17
-11z"/>
<path d="M3898 4125 c-12 -14 -27 -25 -33 -25 -20 0 1 -99 26 -126 28 -30 62
-30 102 -2 18 13 36 23 42 23 5 0 10 24 10 54 -1 46 -5 57 -28 77 -38 33 -90
32 -119 -1z"/>
<path d="M5620 4137 c-33 -17 -52 -55 -46 -95 6 -40 19 -58 59 -78 84 -44 160
82 90 148 -35 32 -71 41 -103 25z m74 -29 c8 -14 6 -21 -9 -32 -45 -34 -88 -9
-58 33 17 25 51 25 67 -1z"/>
<path d="M3856 4127 c3 -10 9 -15 12 -12 3 3 0 11 -7 18 -10 9 -11 8 -5 -6z"/>
<path d="M588 3989 c2 -57 8 -111 13 -119 13 -24 9 150 -5 189 -10 29 -11 19
-8 -70z"/>
<path d="M1732 4060 c0 -19 2 -27 5 -17 2 9 2 25 0 35 -3 9 -5 1 -5 -18z"/>
<path d="M3300 3966 c0 -3 9 -10 20 -16 11 -6 20 -8 20 -6 0 3 -9 10 -20 16
-11 6 -20 8 -20 6z"/>
<path d="M9406 3961 c-11 -4 -15 -10 -9 -14 5 -3 19 0 29 8 20 15 11 18 -20 6z"/>
<path d="M4 3932 c6 -11 96 -16 96 -5 0 4 -23 9 -51 11 -28 1 -48 -1 -45 -6z"/>
<path d="M4314 3902 c-9 -5 -8 -10 1 -19 11 -10 13 -9 12 7 -1 11 -1 20 -2 20
0 0 -5 -4 -11 -8z"/>
<path d="M4378 3893 c7 -3 16 -2 19 1 4 3 -2 6 -13 5 -11 0 -14 -3 -6 -6z"/>
<path d="M9380 3860 c0 -11 2 -20 4 -20 2 0 6 9 9 20 3 11 1 20 -4 20 -5 0 -9
-9 -9 -20z"/>
<path d="M9404 3847 c-3 -13 -1 -39 4 -58 9 -33 9 -32 13 24 4 57 -6 77 -17
34z"/>
<path d="M9647 3771 c-4 -17 -3 -21 5 -13 5 5 8 16 6 23 -3 8 -7 3 -11 -10z"/>
<path d="M9650 3730 c0 -5 5 -10 10 -10 6 0 10 5 10 10 0 6 -4 10 -10 10 -5 0
-10 -4 -10 -10z"/>
<path d="M4342 3538 c6 -18 28 -21 28 -4 0 9 -7 16 -16 16 -9 0 -14 -5 -12
-12z"/>
<path d="M6731 3424 c0 -11 3 -14 6 -6 3 7 2 16 -1 19 -3 4 -6 -2 -5 -13z"/>
<path d="M5945 3400 c3 -5 8 -10 11 -10 2 0 4 5 4 10 0 6 -5 10 -11 10 -5 0
-7 -4 -4 -10z"/>
<path d="M5961 3354 c0 -11 3 -14 6 -6 3 7 2 16 -1 19 -3 4 -6 -2 -5 -13z"/>
<path d="M6664 3287 c-17 -7 -42 -19 -55 -28 -19 -13 -9 -12 43 5 37 12 70 25
74 29 11 11 -27 7 -62 -6z"/>
<path d="M5436 3225 c-3 -9 0 -15 9 -15 8 0 15 7 15 15 0 8 -4 15 -9 15 -5 0
-11 -7 -15 -15z"/>
<path d="M4655 3110 c3 -5 8 -10 11 -10 2 0 4 5 4 10 0 6 -5 10 -11 10 -5 0
-7 -4 -4 -10z"/>
<path d="M5385 3112 c-5 -4 -17 -16 -25 -27 -14 -19 -14 -19 3 -6 15 12 20 12
26 2 6 -10 10 -9 14 4 5 11 3 14 -5 9 -8 -5 -9 -2 -5 9 7 19 6 20 -8 9z"/>
<path d="M4941 3066 c-7 -9 -8 -17 -2 -20 13 -8 42 4 35 15 -3 5 0 9 5 9 6 0
11 -4 11 -8 0 -5 15 -6 33 -3 l32 5 -30 7 c-49 11 -72 10 -84 -5z"/>
<path d="M5148 3053 c7 -3 16 -2 19 1 4 3 -2 6 -13 5 -11 0 -14 -3 -6 -6z"/>
<path d="M5325 3050 c3 -5 10 -10 16 -10 5 0 9 5 9 10 0 6 -7 10 -16 10 -8 0
-12 -4 -9 -10z"/>
<path d="M1520 3039 c-163 -18 -397 -92 -584 -186 -118 -58 -156 -86 -156
-110 0 -30 69 -50 220 -65 136 -12 935 -5 1140 11 130 11 260 29 260 37 0 10
-91 85 -169 138 -218 150 -443 205 -711 175z m100 -26 c-27 -5 -52 -23 -32
-23 7 0 12 -4 12 -10 0 -6 -10 -5 -26 2 -17 8 -28 9 -32 1 -10 -15 -62 -26
-62 -13 0 7 -6 8 -18 1 -11 -6 -32 -7 -47 -2 -25 6 -20 9 46 24 111 25 111 25
149 24 26 0 28 -1 10 -4z m267 -9 c-3 -3 -12 -4 -19 -1 -8 3 -5 6 6 6 11 1 17
-2 13 -5z m108 -33 c71 -28 175 -94 174 -111 0 -10 -2 -11 -6 -2 -2 6 -8 12
-13 12 -4 0 -35 18 -69 41 -34 23 -66 37 -72 33 -7 -4 -9 -3 -6 3 3 5 -18 17
-48 27 -30 9 -55 19 -55 22 0 6 48 -6 95 -25z m-648 -17 c-3 -3 -12 -4 -19 -1
-8 3 -5 6 6 6 11 1 17 -2 13 -5z m864 -111 c13 -17 13 -17 -6 -3 -11 8 -22 16
-24 17 -2 2 0 3 6 3 6 0 17 -8 24 -17z m34 -23 c3 -5 1 -10 -4 -10 -6 0 -11 5
-11 10 0 6 2 10 4 10 3 0 8 -4 11 -10z m59 -46 c15 -14 26 -27 24 -29 -2 -3
-20 9 -39 25 -19 16 -29 29 -24 29 6 0 23 -11 39 -25z"/>
<path d="M5235 3040 c-13 -6 -15 -9 -5 -9 8 0 22 4 30 9 18 12 2 12 -25 0z"/>
<path d="M4890 3030 c8 -5 24 -9 35 -9 l20 0 -20 9 c-11 5 -27 9 -35 9 -13 1
-13 0 0 -9z"/>
<path d="M5178 3023 c7 -3 16 -2 19 1 4 3 -2 6 -13 5 -11 0 -14 -3 -6 -6z"/>
<path d="M805 2946 c-27 -4 -57 -11 -65 -14 -8 -3 -25 -4 -37 -3 -22 2 -160
-32 -198 -49 -11 -5 -36 -12 -55 -15 -60 -11 -231 -77 -237 -91 -3 -8 -18 -14
-35 -14 -16 0 -27 -4 -23 -9 3 -6 -14 -12 -37 -14 -24 -2 49 -4 162 -3 l205 1
200 101 c110 55 211 105 225 111 23 9 22 10 -15 9 -22 0 -62 -5 -90 -10z"/>
<path d="M2433 2769 c-6 -13 -17 -41 -23 -61 -6 -21 -16 -40 -21 -43 -5 -4 -9
-10 -9 -16 0 -19 27 -8 56 22 16 17 44 37 62 46 35 17 40 28 17 37 -8 3 -15 1
-15 -5 0 -6 -5 -7 -12 -3 -8 5 -9 2 -5 -9 3 -10 2 -17 -3 -17 -6 0 -10 17 -11
38 0 29 -2 32 -8 17 -8 -19 -8 -19 -12 -1 -4 17 -5 17 -16 -5z"/>
<path d="M9491 2695 c-19 -19 -39 -35 -46 -35 -7 0 -15 -9 -18 -20 -3 -13 -11
-18 -20 -14 -8 3 -17 -2 -21 -11 -3 -9 -10 -13 -16 -10 -5 3 -10 2 -10 -3 0
-5 -14 -16 -32 -23 -32 -13 -32 -13 -8 -20 16 -5 19 -7 8 -8 -10 -1 -18 -6
-18 -12 0 -6 -6 -9 -14 -6 -7 3 -30 -5 -49 -19 -20 -13 -42 -23 -49 -22 -7 2
-12 -3 -10 -9 1 -7 -6 -13 -15 -13 -9 0 -24 -7 -34 -16 -16 -14 -18 -14 -30 7
l-12 23 -9 -23 c-6 -17 -14 -22 -28 -18 -11 3 -20 1 -20 -4 0 -14 -28 -11 -33
4 -2 7 -10 0 -17 -15 -7 -16 -17 -28 -21 -28 -4 0 -10 12 -14 28 l-8 27 -13
-30 c-8 -19 -13 -23 -14 -12 0 19 -8 21 -30 7 -13 -9 -13 -11 0 -20 21 -14 -5
-13 -32 1 -15 8 -19 8 -14 0 13 -20 -3 -11 -30 17 l-26 27 7 -25 c4 -14 10
-31 13 -39 3 -9 1 -12 -6 -7 -7 4 -12 1 -12 -6 -1 -7 -8 -1 -16 15 -13 25 -27
37 -22 19 7 -18 -27 -37 -61 -35 -32 3 -33 2 -11 -6 23 -9 506 -45 781 -58
l116 -6 1 43 c2 56 20 121 39 142 14 15 12 20 -23 50 -20 18 -44 38 -53 45
-25 19 5 16 34 -3 14 -9 25 -13 25 -9 0 3 7 -1 16 -10 9 -9 19 -13 23 -10 8 9
-56 65 -74 65 -24 0 -17 20 8 21 12 1 40 2 62 4 22 1 45 -1 50 -5 21 -15 75
-29 75 -19 0 5 -3 9 -7 10 -27 3 -47 9 -69 24 -21 13 -38 15 -85 10 -63 -7
-60 -10 -71 57 -2 14 -10 11 -37 -17z m69 -175 c0 -5 -2 -10 -4 -10 -3 0 -8 5
-11 10 -3 6 -1 10 4 10 6 0 11 -4 11 -10z m-340 -44 c0 -3 -4 -8 -10 -11 -5
-3 -10 -1 -10 4 0 6 5 11 10 11 6 0 10 -2 10 -4z"/>
<path d="M6780 2695 c0 -5 5 -17 10 -25 5 -8 10 -10 10 -5 0 6 -5 17 -10 25
-5 8 -10 11 -10 5z"/>
<path d="M0 2665 c0 -10 10 -15 33 -14 17 0 26 3 19 6 -6 2 -10 9 -6 14 3 5
-6 9 -20 9 -16 0 -26 -6 -26 -15z"/>
<path d="M125 2670 c-40 -8 -40 -8 8 -5 26 1 50 -2 53 -6 2 -4 -21 -10 -53
-12 -32 -2 100 -4 292 -5 386 -2 440 10 124 27 -212 12 -362 12 -424 1z"/>
<path d="M2942 2584 c-53 -27 -116 -122 -137 -207 -4 -15 -12 -30 -18 -34 -23
-14 -105 -20 -134 -9 -18 6 -23 4 -23 -9 0 -14 -6 -16 -27 -10 -16 4 -34 8
-40 8 -7 0 -13 4 -13 9 0 4 -16 8 -35 8 -19 0 -35 -5 -35 -11 0 -8 -11 -9 -31
-5 -18 3 -37 2 -43 -3 -18 -14 -86 -23 -86 -11 0 6 -25 10 -62 9 -47 -1 -57
-3 -38 -9 21 -7 22 -8 5 -9 -11 -1 -31 -4 -45 -6 -17 -4 -19 -3 -8 2 11 5 -9
9 -49 9 -40 1 -60 -2 -52 -7 8 -5 -15 -6 -55 -3 -64 5 -68 4 -56 -11 11 -13 5
-12 -24 5 -48 26 -60 18 -21 -16 49 -42 40 -42 455 -9 300 24 362 31 371 46 6
10 9 10 9 2 0 -7 7 -10 15 -7 11 5 15 -1 15 -20 0 -20 -5 -26 -22 -26 -19 0
-20 2 -8 10 12 8 11 10 -7 10 -17 0 -21 -4 -17 -17 5 -14 4 -15 -4 -4 -10 14
-51 7 -63 -10 -5 -9 -27 -11 -259 -24 -178 -10 -388 -34 -423 -49 -18 -7 -47
-27 -66 -45 -39 -36 -50 -35 -26 3 18 27 9 36 -13 14 -9 -9 -12 -8 -12 4 0 18
-27 32 -35 18 -4 -6 -1 -10 4 -10 6 0 11 -4 11 -10 0 -19 -21 -10 -32 15 -13
29 -26 32 -42 10 -9 -13 -11 -11 -12 9 -4 62 -46 168 -87 218 -36 44 -50 54
-97 66 -42 10 -64 11 -92 3 -55 -17 -134 -84 -167 -144 -16 -28 -34 -57 -39
-62 -5 -6 -19 -42 -32 -79 -33 -99 -41 -112 -70 -108 -14 2 -29 10 -33 18 -4
8 -14 14 -22 14 -7 0 -26 7 -42 14 -54 28 -213 57 -213 39 0 -5 -15 -8 -34 -8
-19 0 -32 3 -30 6 6 10 -147 38 -271 49 -227 19 -388 30 -456 30 l-69 0 0 -74
0 -74 138 -7 c75 -4 169 -11 207 -16 61 -7 57 -7 -35 -4 -58 3 -151 8 -207 11
l-103 7 0 -196 0 -197 83 -2 c45 -1 111 -3 147 -3 123 -3 565 -16 665 -21 55
-2 161 -11 235 -20 92 -11 174 -15 258 -11 112 5 129 9 195 40 40 18 98 44
129 58 32 13 60 31 63 40 5 16 17 19 275 75 63 14 156 34 205 46 148 34 238
42 490 42 253 1 268 4 307 50 68 81 101 194 102 356 0 89 -3 113 -23 157 -12
28 -33 61 -46 73 -31 30 -99 36 -143 14z m130 -62 c47 -47 73 -183 58 -309
-19 -168 -96 -258 -183 -211 -12 6 -27 18 -34 27 -18 24 -43 101 -32 101 5 0
9 -8 9 -18 0 -10 7 -27 15 -38 13 -17 14 -17 15 -1 0 24 25 21 27 -4 2 -25 21
-49 39 -49 24 0 47 46 35 69 -15 28 -14 31 13 31 20 0 25 8 35 48 7 26 19 69
28 95 8 26 14 50 11 52 -2 2 -35 -5 -73 -15 -85 -23 -85 -23 -85 -6 0 7 20 21
45 30 51 20 90 66 80 95 -4 12 -12 18 -21 14 -22 -8 -17 11 11 37 l25 23 -26
24 c-56 52 -137 12 -177 -88 -12 -30 -15 -35 -12 -14 16 84 84 152 140 140 17
-3 42 -18 57 -33z m-88 -18 c21 -8 20 -21 -4 -51 l-20 -26 0 26 c0 14 -3 32
-6 41 -6 17 4 20 30 10z m-1391 -174 l52 -50 -69 -67 -68 -68 46 64 c52 71 54
94 14 124 -36 27 -75 16 -93 -26 -7 -18 -17 -30 -22 -28 -4 2 -20 -20 -36 -50
-25 -49 -27 -51 -21 -19 10 57 57 144 84 157 41 21 58 15 113 -37z m1274 3
c-3 -10 -5 -2 -5 17 0 19 2 27 5 18 2 -10 2 -26 0 -35z m43 -43 c0 -5 -4 -10
-10 -10 -5 0 -10 5 -10 10 0 6 5 10 10 10 6 0 10 -4 10 -10z m0 -66 c0 -8 -4
-12 -10 -9 -5 3 -10 10 -10 16 0 5 5 9 10 9 6 0 10 -7 10 -16z m36 -2 c1 -7 0
-8 -3 -2 -2 5 -9 8 -14 4 -5 -3 -9 0 -9 6 0 15 23 7 26 -8z m-1237 -81 c15
-92 14 -155 -3 -216 -45 -161 -145 -253 -235 -215 -39 16 -73 94 -79 180 -4
57 -2 63 11 50 8 -8 22 -45 31 -81 28 -118 31 -122 73 -116 54 9 59 20 29 63
-36 54 -34 69 7 44 42 -26 57 -25 57 3 0 15 9 29 25 37 30 16 31 27 6 59 -18
24 -18 24 20 61 70 66 47 92 -59 66 -87 -21 -104 -21 -100 1 2 12 26 26 68 41
67 24 116 63 107 87 -3 7 -3 16 0 19 14 14 31 -19 42 -83z m1221 -2 c0 -11 -4
-17 -10 -14 -5 3 -10 15 -10 26 0 11 5 17 10 14 6 -3 10 -15 10 -26z m-1575
-49 c-4 -17 -9 -29 -12 -26 -3 2 -2 19 2 36 4 17 9 29 12 26 3 -2 2 -19 -2
-36z m1304 -42 c5 -13 8 -24 7 -25 -5 -6 -116 22 -116 28 0 4 12 10 28 12 62
9 73 7 81 -15z m-1195 -21 c2 -14 0 -29 -5 -32 -5 -4 -9 11 -9 31 0 42 6 42
14 1z m-105 -56 c-1 -31 1 -63 4 -71 3 -8 8 -31 10 -50 l6 -35 -17 35 c-20 43
-30 196 -12 185 7 -4 11 -29 9 -64z m-1111 52 c-10 -2 -28 -2 -40 0 -13 2 -5
4 17 4 22 1 32 -1 23 -4z m2309 1 c-3 -3 -12 -4 -19 -1 -8 3 -5 6 6 6 11 1 17
-2 13 -5z m-2214 -11 c-7 -2 -21 -2 -30 0 -10 3 -4 5 12 5 17 0 24 -2 18 -5z
m233 -37 c8 -11 14 -25 14 -31 0 -5 -9 3 -19 18 -18 29 -38 25 -20 -3 15 -26
10 -36 -21 -38 -35 -3 -46 14 -36 53 5 21 12 25 37 23 18 -1 37 -11 45 -22z
m1189 -5 c3 -5 1 -12 -5 -16 -5 -3 -10 1 -10 9 0 18 6 21 15 7z m-1275 -81
c19 -5 93 -15 165 -21 71 -5 155 -14 185 -18 l55 -9 -45 -1 c-25 -1 -133 -7
-240 -14 -107 -7 -245 -11 -307 -9 l-111 3 41 45 42 46 90 -6 c50 -3 106 -10
125 -16z"/>
<path d="M3090 2403 c0 -10 5 -25 10 -33 8 -12 10 -9 10 12 0 15 -4 30 -10 33
-5 3 -10 -2 -10 -12z"/>
<path d="M506 1973 c-6 -14 -5 -15 5 -6 7 7 10 15 7 18 -3 3 -9 -2 -12 -12z"/>
<path d="M6928 2523 c7 -3 16 -2 19 1 4 3 -2 6 -13 5 -11 0 -14 -3 -6 -6z"/>
<path d="M8567 2523 c-4 -3 -7 -15 -7 -25 0 -14 -8 -18 -41 -18 -25 0 -38 -4
-34 -10 8 -13 -47 -65 -75 -73 -11 -3 -20 0 -20 6 0 6 -3 7 -6 4 -4 -4 -1 -14
6 -22 10 -12 24 -15 54 -10 30 5 37 3 26 -4 -11 -8 10 -11 77 -11 l93 0 -19
38 c-11 20 -23 58 -26 85 -7 45 -14 55 -28 40z"/>
<path d="M450 2484 c-60 -7 -150 -26 -155 -34 -6 -9 62 -23 74 -16 16 10 239
27 361 28 91 0 113 2 80 8 -54 9 -311 19 -360 14z"/>
<path d="M5948 2433 c7 -3 16 -2 19 1 4 3 -2 6 -13 5 -11 0 -14 -3 -6 -6z"/>
<path d="M490 2408 l-85 -11 75 -25 c61 -19 97 -24 195 -25 104 -1 126 2 169
21 27 12 47 24 45 27 -17 16 -301 25 -399 13z"/>
<path d="M9880 2406 c-25 -6 -60 -19 -77 -29 -29 -16 -33 -16 -33 -2 0 9 -5
13 -10 10 -6 -4 -8 -11 -5 -16 4 -5 -2 -9 -13 -9 -10 0 -27 -10 -38 -21 -10
-12 -30 -26 -44 -32 -21 -9 -8 -12 80 -18 58 -4 146 -7 195 -8 l90 -1 -9 63
c-9 58 -12 63 -32 59 -12 -2 -30 0 -40 5 -12 6 -36 5 -64 -1z"/>
<path d="M10181 2331 c-13 -25 -30 -43 -44 -45 -12 -3 -31 -7 -42 -9 -11 -3
17 -5 63 -6 l82 -1 0 33 -1 32 -20 -28 c-28 -37 -42 -25 -24 20 21 50 11 53
-14 4z"/>
<path d="M5895 2350 c-3 -5 -1 -10 4 -10 6 0 11 5 11 10 0 6 -2 10 -4 10 -3 0
-8 -4 -11 -10z"/>
<path d="M6070 2320 c-9 -6 -10 -10 -3 -10 6 0 15 5 18 10 8 12 4 12 -15 0z"/>
<path d="M6028 2303 c7 -3 16 -2 19 1 4 3 -2 6 -13 5 -11 0 -14 -3 -6 -6z"/>
<path d="M7181 2297 c-8 -10 -7 -14 4 -14 8 0 15 6 15 14 0 7 -2 13 -4 13 -2
0 -9 -6 -15 -13z"/>
<path d="M7340 2222 c0 -5 7 -9 15 -9 8 0 15 4 15 9 0 4 -7 8 -15 8 -8 0 -15
-4 -15 -8z"/>
<path d="M7345 2180 c-3 -5 -1 -10 4 -10 6 0 11 5 11 10 0 6 -2 10 -4 10 -3 0
-8 -4 -11 -10z"/>
<path d="M10132 1978 c-51 -44 -92 -82 -90 -83 2 -1 19 -5 38 -9 30 -6 32 -5
16 7 -17 12 -12 18 54 80 40 37 76 67 81 67 5 0 9 5 9 10 0 19 -15 9 -108 -72z"/>
<path d="M6615 1915 l30 -14 -45 -2 c-33 -1 -37 -3 -16 -6 39 -6 86 6 66 17
-8 4 -26 10 -40 14 -21 5 -20 3 5 -9z"/>
<path d="M6485 1910 c3 -5 8 -10 11 -10 2 0 4 5 4 10 0 6 -5 10 -11 10 -5 0
-7 -4 -4 -10z"/>
<path d="M6688 1893 c7 -3 16 -2 19 1 4 3 -2 6 -13 5 -11 0 -14 -3 -6 -6z"/>
<path d="M10147 1878 c-7 -5 -4 -8 9 -8 12 0 36 -3 53 -6 23 -5 31 -3 31 7 0
15 -72 20 -93 7z"/>
<path d="M6560 1870 c0 -5 4 -10 9 -10 6 0 13 5 16 10 3 6 -1 10 -9 10 -9 0
-16 -4 -16 -10z"/>
<path d="M6248 1833 c12 -2 30 -2 40 0 9 3 -1 5 -23 4 -22 0 -30 -2 -17 -4z"/>
<path d="M6160 1810 c0 -5 7 -10 15 -10 8 0 15 -4 15 -10 0 -5 -7 -10 -15 -10
-8 0 -15 -4 -15 -9 0 -13 32 -23 39 -13 3 5 22 13 41 17 32 7 33 8 12 16 -12
5 -29 6 -37 3 -9 -4 -15 0 -15 10 0 9 -8 16 -20 16 -11 0 -20 -4 -20 -10z"/>
<path d="M6248 1813 c7 -3 16 -2 19 1 4 3 -2 6 -13 5 -11 0 -14 -3 -6 -6z"/>
<path d="M6288 1793 c6 -2 18 -2 25 0 6 3 1 5 -13 5 -14 0 -19 -2 -12 -5z"/>
<path d="M6138 1743 c6 -2 18 -2 25 0 6 3 1 5 -13 5 -14 0 -19 -2 -12 -5z"/>
<path d="M8900 1549 c0 -47 -37 -118 -74 -140 -38 -23 -40 -23 -60 -3 -9 8
-16 11 -16 6 0 -5 8 -16 18 -25 61 -55 485 -141 767 -155 232 -12 306 4 396
85 60 55 72 83 56 132 -13 35 -12 39 2 34 10 -3 7 3 -8 16 -31 28 -71 27 -162
-4 -98 -34 -184 -40 -354 -26 -220 18 -445 62 -547 106 -15 6 -18 2 -18 -26z
m1042 -61 c33 -26 26 -79 -17 -126 -19 -22 -31 -42 -27 -46 4 -4 3 -6 -3 -5
-5 2 -29 -7 -53 -20 -57 -29 -108 -25 -134 10 -38 51 8 118 117 170 66 32 93
35 117 17z"/>
<path d="M302 1508 c-29 -12 -51 -23 -48 -25 4 -5 136 37 136 43 0 9 -38 1
-88 -18z"/>
<path d="M345 1486 c-22 -13 -53 -26 -69 -30 -15 -4 -26 -9 -24 -12 9 -8 152
42 156 55 6 17 -18 12 -63 -13z"/>
<path d="M112 1432 c-64 -26 -112 -51 -112 -59 0 -7 6 -13 13 -13 17 0 194 57
215 69 23 14 2 14 -37 0 -50 -18 -48 -3 3 21 25 11 46 23 46 25 0 8 -10 5
-128 -43z m28 -16 c0 -2 -7 -7 -16 -10 -8 -3 -12 -2 -9 4 6 10 25 14 25 6z"/>
<path d="M10001 1454 c0 -11 3 -14 6 -6 3 7 2 16 -1 19 -3 4 -6 -2 -5 -13z"/>
<path d="M703 1105 c-183 -90 -333 -169 -333 -174 0 -6 -7 -11 -16 -11 -9 0
-57 -20 -106 -45 -50 -25 -96 -45 -102 -45 -7 0 -19 -11 -26 -25 -7 -14 -37
-41 -67 -62 -39 -27 -53 -43 -53 -60 0 -16 4 -22 12 -17 25 16 53 40 88 77 19
20 40 37 47 37 6 0 13 7 16 15 5 13 143 85 162 85 5 0 35 17 69 38 34 22 90
52 126 67 36 16 76 36 90 45 14 9 105 56 203 106 149 75 248 133 227 133 -3 1
-155 -73 -337 -164z"/>
<path d="M10198 1133 c-20 -21 -55 -72 -77 -113 -77 -145 -108 -295 -96 -471
6 -101 6 -107 -14 -112 -28 -7 -148 8 -266 33 -55 12 -134 28 -175 36 -41 7
-124 25 -185 39 -60 14 -141 32 -180 41 -113 24 -184 43 -288 75 -54 17 -100
29 -103 26 -7 -6 52 -114 86 -157 27 -34 51 -53 136 -107 17 -10 16 -12 -11
-12 -54 0 -65 -4 -65 -23 0 -46 81 -78 198 -78 40 0 53 -3 42 -10 -8 -5 -28
-10 -45 -11 -26 -1 -24 -3 15 -12 25 -6 49 -16 53 -24 4 -7 23 -13 41 -13 21
0 36 -6 40 -15 4 -11 13 -14 31 -9 16 4 25 2 25 -6 0 -6 5 -8 10 -5 6 4 24 -1
42 -9 50 -25 48 -23 -30 60 -38 40 -2 28 66 -21 34 -25 62 -42 62 -38 0 5 4 2
9 -5 5 -8 25 -14 46 -14 21 0 84 -15 141 -34 56 -19 110 -34 118 -34 19 0 21
-16 4 -23 -7 -3 17 -6 53 -6 46 -1 70 -6 79 -16 7 -8 19 -15 26 -15 8 0 14 -7
14 -15 0 -11 11 -15 36 -15 33 0 34 1 19 16 -9 9 -14 18 -11 21 7 7 116 -21
116 -29 0 -5 18 -8 40 -8 l40 0 0 526 c0 347 -3 523 -10 519 -13 -8 -13 18 1
32 6 6 9 25 7 42 l-3 32 -37 -38z m-13 -118 c-8 -21 -17 -36 -20 -34 -2 3 3
22 12 42 22 48 29 41 8 -8z"/>
<path d="M7470 1079 c0 -5 5 -7 10 -4 6 3 10 8 10 11 0 2 -4 4 -10 4 -5 0 -10
-5 -10 -11z"/>
<path d="M8710 980 c8 -5 20 -10 25 -10 6 0 3 5 -5 10 -8 5 -19 10 -25 10 -5
0 -3 -5 5 -10z"/>
<path d="M8758 963 c7 -3 16 -2 19 1 4 3 -2 6 -13 5 -11 0 -14 -3 -6 -6z"/>
<path d="M8795 954 c108 -43 640 -155 805 -170 49 -4 -107 33 -175 41 -77 10
-302 56 -462 95 -146 36 -198 46 -168 34z"/>
<path d="M9677 773 c18 -2 50 -2 70 0 21 2 7 4 -32 4 -38 0 -55 -2 -38 -4z"/>
<path d="M8877 689 c7 -7 15 -10 18 -7 3 3 -2 9 -12 12 -14 6 -15 5 -6 -5z"/>
<path d="M9193 613 c9 -2 23 -2 30 0 6 3 -1 5 -18 5 -16 0 -22 -2 -12 -5z"/>
<path d="M9228 593 c7 -3 16 -2 19 1 4 3 -2 6 -13 5 -11 0 -14 -3 -6 -6z"/>
<path d="M9548 523 c7 -3 16 -2 19 1 4 3 -2 6 -13 5 -11 0 -14 -3 -6 -6z"/>
<path d="M5560 280 c8 -5 40 -10 70 -11 46 -1 50 -3 25 -9 -27 -7 -25 -8 20
-11 28 -1 60 -3 73 -3 12 0 22 -6 22 -13 0 -7 4 -13 9 -13 5 0 11 -10 14 -22
12 -44 17 -9 6 41 l-11 51 -121 0 c-83 0 -117 -3 -107 -10z"/>
<path d="M5811 154 c0 -11 3 -14 6 -6 3 7 2 16 -1 19 -3 4 -6 -2 -5 -13z"/>
<path d="M9921 14 c0 -11 3 -14 6 -6 3 7 2 16 -1 19 -3 4 -6 -2 -5 -13z"/>
</g>
</svg>
