<?xml version="1.0" standalone="no"?>
<!DOCTYPE svg PUBLIC "-//W3C//DTD SVG 20010904//EN"
 "http://www.w3.org/TR/2001/REC-SVG-20010904/DTD/svg10.dtd">
<svg version="1.0" xmlns="http://www.w3.org/2000/svg"
 width="1024.000000pt" height="1024.000000pt" viewBox="0 0 1024.000000 1024.000000"
 preserveAspectRatio="xMidYMid meet">

<g transform="translate(0.000000,1024.000000) scale(0.100000,-0.100000)"
fill="#000000" stroke="none">
<path d="M5050 9223 c-397 -37 -839 -225 -1176 -498 -203 -166 -415 -419 -533
-639 -141 -262 -242 -583 -287 -911 -9 -66 -18 -230 -21 -407 l-5 -297 -57
-53 c-32 -29 -73 -65 -92 -79 -19 -15 -30 -30 -26 -35 4 -4 42 -11 85 -14 l77
-5 -1 -140 c-4 -397 -160 -749 -402 -908 -74 -49 -106 -64 -297 -141 -209 -85
-278 -125 -381 -219 -200 -183 -313 -481 -263 -696 36 -159 177 -300 347 -347
l62 -17 0 -46 c0 -240 146 -541 334 -693 118 -95 292 -163 448 -175 73 -6 79
-8 103 -39 54 -71 98 -173 99 -231 1 -49 -2 -58 -27 -76 -20 -16 -46 -22 -96
-25 -75 -4 -125 14 -170 62 -22 23 -51 35 -51 21 0 -3 7 -22 15 -43 33 -77
160 -180 269 -216 112 -38 274 -38 374 0 l43 16 68 -69 c37 -39 89 -83 116
-98 67 -40 166 -65 256 -65 64 0 79 -3 95 -21 28 -31 104 -85 161 -113 l51
-26 6 -167 c9 -214 32 -449 53 -533 44 -180 106 -243 239 -244 62 -1 77 3 119
29 96 60 121 164 136 580 6 159 12 291 13 292 1 1 31 -7 66 -18 103 -33 250
-27 385 16 18 5 28 -6 70 -82 173 -311 203 -355 260 -383 51 -25 98 -25 150
-1 82 38 134 112 175 251 12 41 35 101 51 132 30 60 36 106 18 140 -13 25 -10
28 42 39 76 17 163 66 233 131 l69 62 81 -2 c91 -3 193 19 312 69 72 30 201
62 216 53 4 -3 8 -1 8 3 0 5 23 26 50 46 68 51 136 146 156 216 28 101 27 101
86 101 29 1 72 5 96 9 23 5 45 5 47 0 14 -22 -104 -179 -207 -274 -39 -36 -68
-68 -65 -71 9 -9 81 26 227 111 242 139 382 259 489 419 40 59 63 82 113 112
136 81 211 157 258 259 57 122 76 267 59 443 l-11 112 28 22 c96 73 170 185
205 312 18 68 21 97 16 200 -3 68 -13 150 -22 186 -17 61 -17 65 0 75 62 36
103 76 130 130 26 51 30 69 30 139 0 102 -25 157 -106 237 -48 47 -88 72 -260
157 -155 77 -224 117 -289 169 -176 141 -309 356 -380 613 -26 97 -26 104 10
117 34 13 40 33 11 33 -11 0 -32 10 -47 23 l-26 23 7 430 7 430 47 -24 c51
-26 104 -25 146 2 33 22 34 81 3 121 -34 44 -78 57 -163 49 -54 -5 -79 -3 -90
6 -18 15 -11 30 14 30 31 0 44 24 33 63 -11 40 -8 46 33 67 17 9 39 32 50 52
27 51 12 79 -67 120 l-63 33 75 3 c96 3 117 8 130 31 14 27 4 47 -31 61 -35
15 -71 7 -114 -26 -36 -27 -52 -29 -78 -10 -16 12 -15 15 17 39 131 100 191
222 135 273 -43 39 -197 16 -352 -53 -59 -26 -79 -25 -61 4 12 19 10 18 117
69 114 54 147 109 86 143 -24 13 -28 12 -62 -14 -21 -15 -37 -25 -37 -22 0 2
11 35 25 71 37 99 32 186 -11 186 -20 0 -73 -49 -115 -107 -41 -55 -66 -64
-48 -16 25 66 30 115 14 139 -23 36 -63 31 -133 -16 -33 -22 -62 -40 -66 -40
-3 0 -6 10 -6 23 0 16 14 35 41 57 52 41 69 82 69 163 0 114 -65 155 -128 82
-37 -41 -46 -83 -33 -150 5 -27 8 -52 6 -54 -2 -2 -16 11 -31 29 -25 29 -31
32 -70 26 -41 -5 -44 -4 -75 37 -188 243 -334 367 -563 478 -127 62 -270 99
-379 99 -60 0 -99 6 -152 25 -111 38 -232 55 -379 53 -72 0 -147 -3 -166 -5z
m407 -69 c105 -21 178 -50 219 -86 39 -34 79 -87 71 -94 -2 -3 -29 9 -58 27
-70 41 -127 63 -224 85 -175 41 -535 13 -805 -63 -77 -22 -90 -28 -70 -34 35
-10 60 -9 35 0 -16 7 -9 11 34 20 30 6 56 9 59 6 3 -3 -9 -8 -26 -11 -35 -7
-38 -25 -7 -36 12 -5 1 -6 -24 -4 -30 3 -40 2 -30 -5 7 -5 31 -9 52 -9 26 0
37 -4 37 -15 0 -12 16 -15 80 -15 73 0 80 -2 80 -20 0 -17 -7 -20 -40 -20 -27
0 -40 -4 -40 -14 0 -9 20 -15 61 -20 89 -9 97 -8 101 12 3 13 10 8 27 -20 19
-31 29 -38 55 -38 20 0 35 -7 44 -20 7 -11 21 -20 32 -20 11 0 25 -9 32 -20 7
-11 21 -20 30 -20 11 0 18 -7 18 -18 0 -9 9 -23 20 -30 11 -7 20 -21 20 -32 0
-11 9 -25 20 -32 16 -10 20 -24 20 -70 0 -51 2 -58 20 -58 18 0 20 -7 20 -80
0 -73 2 -80 20 -80 17 0 20 7 20 40 0 32 4 40 18 40 17 0 20 -12 25 -117 4
-66 11 -119 17 -121 17 -6 12 -82 -5 -82 -11 0 -15 -11 -15 -40 0 -33 -3 -40
-20 -40 -17 0 -20 7 -20 40 0 22 -4 40 -10 40 -5 0 -10 -18 -10 -40 0 -22 5
-40 10 -40 19 0 11 -48 -10 -55 -25 -8 -26 -25 -2 -25 12 0 7 -10 -20 -35 -21
-20 -38 -37 -38 -40 0 -3 11 -5 25 -5 29 0 31 -7 8 -32 -20 -22 -33 -23 -33
-3 0 26 -21 16 -31 -14 -8 -22 -18 -31 -45 -35 -19 -4 -34 -12 -34 -18 0 -5 6
-8 13 -5 9 3 13 -6 13 -32 1 -20 -1 -28 -3 -19 -4 18 -40 34 -50 24 -4 -3 1
-6 9 -6 21 0 30 -38 16 -64 l-11 -21 23 20 c21 18 23 18 17 2 -4 -10 -7 -22
-7 -27 0 -4 -15 -6 -32 -4 -18 1 -27 0 -20 -3 14 -6 17 -83 2 -83 -5 0 -10 16
-10 35 0 35 -28 63 -50 50 -6 -4 -8 7 -5 27 4 29 4 30 -4 8 l-9 -25 -1 24 c-1
24 -1 24 -16 5 -12 -17 -12 -20 1 -31 15 -11 14 -14 0 -35 -11 -15 -14 -33
-10 -54 5 -25 1 -37 -21 -58 -14 -14 -32 -26 -40 -26 -8 0 -15 -9 -15 -20 0
-17 -7 -20 -42 -21 -24 -1 -53 0 -65 1 -13 1 -23 -1 -23 -5 0 -10 28 -35 39
-35 6 0 11 -9 11 -20 0 -18 -7 -20 -80 -20 -50 0 -80 -4 -80 -11 0 -5 -5 -7
-10 -4 -6 4 -18 4 -28 0 -13 -5 -14 -8 -3 -14 10 -7 9 -15 -5 -42 -10 -19 -17
-37 -16 -41 1 -3 -5 -9 -13 -12 -9 -3 -12 0 -8 10 4 11 -4 14 -34 14 -32 0
-46 -7 -73 -35 -19 -19 -40 -35 -48 -35 -9 0 -12 -6 -8 -16 5 -12 1 -14 -15
-9 -14 5 -19 3 -15 -3 3 -6 -1 -18 -10 -26 -18 -18 -34 -21 -34 -5 0 5 -15 -1
-32 -14 -18 -13 -62 -41 -98 -62 -36 -22 -75 -48 -87 -59 -13 -11 -23 -16 -23
-12 0 4 -15 -2 -34 -13 -18 -12 -41 -21 -50 -21 -9 0 -19 -7 -22 -14 -3 -8
-36 -30 -72 -48 -37 -18 -69 -35 -72 -38 -8 -9 -103 -57 -130 -65 -22 -7 -23
-6 -11 9 8 9 10 20 6 24 -4 4 -10 1 -12 -5 -3 -8 -22 -13 -44 -13 -32 0 -39 3
-39 20 0 16 7 20 36 20 19 0 44 -5 56 -11 11 -6 22 -8 26 -5 10 11 -6 17 -62
23 -39 4 -56 10 -56 20 0 11 -18 14 -90 12 -73 -1 -95 2 -117 17 l-28 19 78 3
c47 2 77 7 77 14 0 7 -20 9 -61 4 -34 -3 -73 -6 -85 -6 -14 0 -24 -6 -24 -14
0 -8 -5 -18 -11 -22 -8 -4 -9 0 -4 15 3 11 2 21 -3 21 -5 0 -13 -10 -17 -22
-3 -13 -9 -18 -11 -11 -3 6 21 53 52 104 32 51 59 88 61 82 3 -7 0 -21 -6 -32
-6 -11 -11 -23 -11 -28 1 -4 8 5 16 20 8 15 13 36 9 45 -3 10 3 27 12 38 10
10 31 39 47 64 36 56 156 216 188 250 13 14 38 46 57 70 42 56 -165 -151 -239
-240 -102 -120 -113 -130 -127 -118 -7 6 -13 19 -13 28 0 10 -6 20 -12 23 -10
3 -10 9 0 27 10 16 10 20 1 14 -9 -5 -10 -2 -5 12 5 10 13 35 18 54 5 19 14
39 19 44 5 6 9 19 9 30 0 12 14 50 30 84 17 35 30 70 30 77 0 7 4 15 8 17 4 2
17 22 29 46 14 29 16 39 6 30 -32 -26 -132 -203 -182 -321 l-20 -48 -31 16
c-17 9 -36 24 -43 35 -6 11 -17 20 -23 20 -6 0 -18 10 -26 22 -18 27 -42 15
-35 -18 2 -13 0 -25 -4 -26 -19 -6 -62 -338 -75 -568 -7 -126 -16 -166 -36
-154 -15 10 -4 419 16 586 45 367 164 730 334 1013 152 253 438 536 707 698
244 148 498 247 745 291 120 21 135 23 323 24 119 2 190 -3 244 -14z m363 -59
c116 -18 337 -107 410 -165 l25 -20 -48 20 c-92 38 -169 53 -273 52 l-100 0
-19 35 c-11 19 -32 45 -47 58 -32 27 -36 39 -10 31 9 -2 37 -8 62 -11z m-767
-22 c-7 -2 -19 -2 -25 0 -7 3 -2 5 12 5 14 0 19 -2 13 -5z m-299 -103 c7 -7 2
-10 -12 -10 -12 0 -22 4 -22 9 0 5 -8 12 -17 14 -10 2 -5 3 12 0 16 -2 34 -8
39 -13z m126 -3 c0 -9 -12 -11 -40 -9 -22 2 -40 8 -40 13 0 5 18 9 40 9 26 0
40 -5 40 -13z m1348 -240 c51 -54 92 -194 92 -314 0 -145 -38 -194 -128 -162
-26 9 -34 20 -47 62 -37 126 -2 437 49 437 7 0 22 -10 34 -23z m231 -59 c7
-12 16 -50 19 -85 5 -61 3 -66 -32 -117 -20 -29 -36 -58 -36 -65 0 -7 -4 -9
-10 -6 -6 3 -7 -1 -4 -9 4 -11 0 -16 -12 -16 -18 0 -19 8 -13 117 4 95 10 126
27 161 25 47 41 52 61 20z m529 -32 c3 -20 0 -27 -10 -24 -7 3 -14 17 -16 32
-3 20 0 27 10 24 7 -3 14 -17 16 -32z m-65 -6 c6 -24 -19 -48 -34 -33 -8 8 -7
17 0 32 15 26 27 27 34 1z m62 -59 c8 -26 -9 -66 -37 -85 -21 -15 -24 -15 -35
1 -18 24 -16 63 4 85 21 24 60 23 68 -1z m-1004 -43 c7 -18 14 -50 14 -70 0
-31 -7 -43 -35 -67 l-35 -30 -18 21 c-28 33 -30 60 -7 121 18 47 26 57 45 57
16 0 26 -9 36 -32z m-318 -49 c24 -14 44 -36 88 -96 51 -72 -14 -47 -96 37
-41 42 -47 52 -35 60 19 12 17 12 43 -1z m1173 -39 c47 -91 51 -174 17 -283
-12 -37 -25 -54 -57 -75 -57 -39 -90 -52 -115 -45 -13 3 -21 1 -21 -6 0 -7 -4
-9 -10 -6 -14 9 -12 -8 3 -25 10 -12 9 -12 -4 -2 -9 7 -24 45 -34 85 -33 135
-6 267 71 351 25 26 32 27 82 9 6 -3 12 2 12 11 0 10 -9 16 -22 16 -19 0 -20
2 -8 10 32 21 63 7 86 -40z m-1389 -22 c-2 -13 -4 -3 -4 22 0 25 2 35 4 23 2
-13 2 -33 0 -45z m1065 25 c35 -31 13 -78 -34 -71 -29 4 -36 42 -12 69 21 23
23 23 46 2z m562 -39 c20 -8 21 -48 1 -64 -8 -7 -15 -23 -15 -36 0 -13 -5 -24
-11 -24 -7 0 -9 10 -5 25 10 38 -28 33 -70 -9 -37 -37 -38 -37 -24 14 7 25 24
44 58 67 56 38 47 34 66 27z m-1574 -44 c0 -22 -4 -40 -10 -40 -5 0 -10 18
-10 40 0 22 5 40 10 40 6 0 10 -18 10 -40z m-43 -22 c-3 -7 -5 -2 -5 12 0 14
2 19 5 13 2 -7 2 -19 0 -25z m1117 7 c8 -32 -3 -75 -19 -75 -14 0 -45 42 -45
61 0 14 30 38 46 39 7 0 15 -11 18 -25z m-676 -7 c28 -28 2 -88 -33 -74 -22 8
-29 34 -17 62 13 26 31 31 50 12z m114 -5 c22 -20 24 -66 2 -87 -8 -9 -18 -16
-21 -16 -4 0 -3 3 0 7 11 11 -14 33 -37 32 -21 0 -21 0 -1 -10 12 -6 26 -18
32 -28 10 -15 8 -23 -11 -40 l-23 -21 -29 25 c-24 21 -27 28 -18 43 6 10 15
32 19 50 12 58 51 78 87 45z m1248 -20 c0 -47 -35 -124 -90 -197 -22 -31 -42
-56 -43 -56 -2 0 -4 12 -5 26 -6 75 82 264 124 264 10 0 14 -11 14 -37z m-779
-2 c32 -33 36 -52 14 -71 -8 -7 -15 -17 -15 -23 0 -7 4 -7 12 1 19 19 66 15
73 -7 7 -23 9 -110 3 -117 -9 -8 -38 8 -38 22 0 8 6 11 15 8 8 -4 15 -1 15 6
0 8 -8 10 -22 7 -13 -4 -31 1 -46 14 -14 10 -30 19 -36 19 -6 0 4 -10 22 -22
37 -26 38 -49 8 -121 l-17 -38 -34 27 c-19 14 -35 23 -35 19 0 -4 -7 -2 -15 5
-10 8 -15 9 -15 2 0 -6 -7 -9 -16 -5 -11 4 -13 13 -8 37 8 39 8 40 32 27 13
-7 22 -7 30 1 18 18 14 28 -11 28 -24 0 -67 33 -67 51 0 6 9 24 21 40 11 16
18 37 15 46 -6 20 9 44 39 61 31 18 44 14 76 -17z m-696 -36 c42 -17 104 -84
116 -126 10 -30 8 -44 -10 -84 l-21 -48 -56 6 c-116 12 -202 84 -189 157 10
51 32 88 63 104 27 15 42 14 97 -9z m1248 -11 c9 -10 -4 -34 -19 -34 -8 0 -14
6 -14 13 0 22 19 35 33 21z m-747 -74 c25 -54 25 -78 2 -100 -28 -26 -81 -24
-86 3 -2 11 3 17 15 18 11 0 13 3 5 6 -7 3 -19 0 -27 -7 -11 -9 -11 -17 -3
-36 14 -31 -6 -84 -24 -66 -17 17 -25 15 -31 -7 -5 -20 -58 -38 -77 -26 -20
12 -10 43 18 53 l27 10 -26 1 c-21 1 -30 9 -42 38 -18 46 -13 66 25 98 36 30
49 31 73 5 21 -23 45 -26 45 -6 0 20 41 46 70 43 16 -1 29 -11 36 -27z m689 1
c9 -15 -37 -43 -50 -30 -7 7 -4 15 9 25 23 16 33 18 41 5z m116 -28 c-16 -31
-38 -45 -61 -38 -27 8 -26 23 3 34 13 5 29 16 36 25 19 22 37 5 22 -21z
m-1621 -13 c-19 -13 -30 -13 -30 0 0 6 10 10 23 10 18 0 19 -2 7 -10z m1870
-15 c0 -14 -83 -75 -102 -75 -22 0 -3 32 35 59 47 34 67 38 67 16z m-330 -79
c0 -53 -29 -122 -70 -169 -42 -47 -101 -77 -190 -97 l-55 -12 -38 35 c-41 39
-44 54 -23 96 23 44 80 88 179 138 142 72 197 74 197 9z m-1540 34 c12 -8 11
-10 -7 -10 -13 0 -23 5 -23 10 0 13 11 13 30 0z m544 -6 c9 -24 7 -63 -4 -85
-8 -15 -7 -23 5 -35 24 -25 18 -42 -24 -63 -21 -11 -53 -32 -71 -47 -40 -34
-50 -23 -50 59 0 54 27 131 62 175 15 18 75 15 82 -4z m555 -28 c16 -19 25
-136 13 -168 -9 -20 -16 -25 -32 -21 -30 8 -42 47 -34 112 10 83 27 108 53 77z
m-203 -55 c51 -37 70 -59 88 -102 12 -29 12 -40 2 -60 -7 -13 -20 -23 -29 -23
-9 1 -14 -2 -11 -7 12 -20 -40 2 -114 48 -59 37 -92 83 -92 129 0 41 5 44 65
44 41 0 60 -6 91 -29z m-535 -11 c15 -8 19 -21 19 -60 0 -66 -13 -96 -52 -120
-32 -20 -99 -27 -133 -14 -23 9 -45 58 -45 102 0 41 24 72 70 91 33 13 117 14
141 1z m1699 -5 c11 -13 9 -23 -6 -58 -32 -71 -164 -190 -164 -148 0 5 7 16
15 25 8 8 15 19 15 25 0 6 -7 11 -15 11 -8 0 -15 6 -15 14 0 20 -42 45 -100
58 -28 6 -47 15 -43 18 5 4 49 19 98 35 50 15 95 29 100 30 32 10 104 3 115
-10z m-445 -15 c10 -31 -3 -57 -31 -63 -33 -6 -38 6 -18 48 18 39 39 45 49 15z
m-1514 -27 c-12 -20 -14 -14 -5 12 4 9 9 14 11 11 3 -2 0 -13 -6 -23z m591
-11 c14 -9 52 -37 85 -63 32 -25 79 -58 105 -75 36 -21 48 -35 48 -53 0 -23
-1 -23 -82 -19 -135 7 -234 71 -245 158 -5 35 -2 46 12 57 25 17 45 16 77 -5z
m-629 -22 c-3 -12 -8 -19 -11 -16 -5 6 5 36 12 36 2 0 2 -9 -1 -20z m-49 -30
c-2 -33 1 -40 16 -40 17 0 36 -28 25 -38 -3 -3 -5 -1 -5 4 0 5 -16 9 -35 10
-45 1 -54 11 -27 30 17 12 20 19 13 33 -7 12 -6 22 1 29 7 7 12 12 13 12 1 0
0 -18 -1 -40z m53 -32 c-3 -7 -5 -2 -5 12 0 14 2 19 5 13 2 -7 2 -19 0 -25z
m1501 15 c6 -10 16 -14 26 -10 32 12 18 -37 -16 -56 -31 -18 -31 -18 -59 9
-26 25 -27 28 -12 50 18 28 48 31 61 7z m234 6 c27 -7 40 -17 44 -33 13 -55
-61 -128 -126 -123 -27 2 -35 8 -48 37 -8 19 -22 50 -31 68 -15 32 -15 34 3
48 23 16 105 18 158 3z m-1257 -9 c-3 -5 -11 -10 -16 -10 -6 0 -7 5 -4 10 3 6
11 10 16 10 6 0 7 -4 4 -10z m616 -47 c38 -43 46 -100 21 -150 -50 -97 -191
-80 -223 27 -15 49 -6 81 33 126 31 35 34 36 87 32 45 -4 59 -10 82 -35z m355
-35 c27 -28 38 -64 24 -73 -5 -3 -10 -15 -10 -25 0 -21 -62 -56 -79 -45 -15 9
-14 42 2 48 15 5 9 12 -19 21 -20 6 -21 4 -13 -36 8 -46 -5 -68 -42 -68 -34 0
-150 42 -156 56 -9 23 2 26 47 14 59 -16 62 -4 4 13 -40 11 -50 19 -52 39 -3
24 0 25 82 37 47 7 93 19 103 27 10 7 26 14 36 14 9 0 17 5 17 10 0 15 29 -2
56 -32z m-958 6 c27 -18 52 -71 52 -110 0 -15 -13 -49 -30 -76 -16 -26 -30
-53 -30 -58 0 -6 -4 -10 -10 -10 -5 0 -10 4 -10 9 0 5 -7 12 -16 15 -14 6 -15
4 -4 -10 12 -13 11 -17 -1 -25 -27 -18 -54 -6 -54 24 -1 18 -12 39 -33 58 -28
26 -32 37 -32 79 0 64 6 76 49 106 39 27 75 27 119 -2z m1072 -19 c15 -18 5
-32 -25 -37 -11 -2 -20 2 -19 10 3 37 5 42 18 42 7 0 19 -7 26 -15z m-1790
-14 c0 -5 -7 -14 -15 -21 -13 -10 -15 -9 -15 9 0 12 6 21 15 21 8 0 15 -4 15
-9z m203 2 c-7 -2 -13 -12 -13 -20 0 -9 -3 -14 -6 -10 -10 10 4 37 18 36 10 0
10 -2 1 -6z m646 -32 c11 -7 9 -11 -9 -21 -25 -14 -33 -9 -24 14 7 18 13 19
33 7z m1429 -18 c-3 -19 -39 -29 -65 -19 -14 6 -14 8 3 21 28 21 66 19 62 -2z
m-466 -11 c21 -21 0 -60 -39 -73 -21 -6 -41 -17 -45 -23 -4 -6 -11 1 -17 17
-13 35 -14 57 -2 57 5 0 12 8 16 19 4 14 14 18 41 16 19 -1 40 -7 46 -13z
m-732 -18 c0 -8 5 -12 10 -9 6 3 13 0 16 -9 6 -15 -114 -137 -160 -163 -43
-25 -181 -9 -193 23 -17 44 50 122 131 153 66 26 196 29 196 5z m938 -13 c52
-27 96 -78 117 -134 17 -46 17 -48 -1 -62 -19 -14 -38 -19 -126 -30 -26 -3
-50 -10 -53 -16 -19 -29 -131 9 -185 64 -33 32 -40 46 -38 71 3 28 7 31 40 34
33 3 41 9 64 48 l26 44 59 0 c39 0 73 -7 97 -19z m-578 -71 c63 -32 124 -80
141 -112 27 -51 -32 -79 -83 -38 -26 20 -138 161 -138 173 0 13 21 7 80 -23z
m-873 -14 c34 -40 29 -68 -17 -110 -49 -44 -89 -48 -125 -11 -23 22 -31 54
-25 95 1 8 11 26 23 38 31 34 110 27 144 -12z m593 0 c0 -16 -59 -125 -88
-164 -50 -65 -108 -51 -99 26 5 50 21 69 101 129 46 34 62 41 72 32 8 -6 14
-17 14 -23z m522 10 c16 -37 4 -56 -37 -56 -41 0 -53 19 -37 56 8 16 20 24 37
24 17 0 29 -8 37 -24z m-305 -43 c57 -68 122 -178 135 -230 21 -87 -13 -248
-59 -271 -50 -25 -137 49 -186 158 -31 68 -48 192 -41 288 9 115 25 112 98
-15 31 -54 56 -94 56 -90 0 4 -16 49 -35 98 -19 50 -35 95 -35 100 0 22 30 5
67 -38z m831 -10 c4 -39 -3 -41 -29 -10 -25 30 -24 49 4 45 17 -2 23 -11 25
-35z m-1018 -5 c-5 -18 -11 -74 -14 -125 -4 -72 -11 -103 -30 -142 -52 -101
-127 -161 -204 -161 -64 0 -77 17 -76 102 0 74 35 206 42 162 3 -21 39 -44 68
-44 26 0 91 38 115 68 13 15 39 61 58 100 37 76 55 94 41 40z m-860 7 c6 -8
14 -32 17 -53 5 -36 3 -40 -24 -49 -42 -15 -63 0 -63 44 0 57 42 92 70 58z
m-520 -5 c0 -5 -5 -10 -11 -10 -5 0 -7 5 -4 10 3 6 8 10 11 10 2 0 4 -4 4 -10z
m118 -21 c-10 -5 -22 -17 -27 -27 -9 -14 -10 -13 -11 11 0 23 4 27 28 27 23
-1 24 -2 10 -11z m72 7 c0 -2 -7 -9 -15 -16 -12 -10 -15 -10 -15 4 0 9 7 16
15 16 8 0 15 -2 15 -4z m815 -72 c28 -4 53 -7 58 -6 10 3 8 -6 -16 -72 -12
-33 -30 -64 -39 -70 -22 -13 -68 7 -75 34 -7 27 -20 25 -27 -5 -11 -44 -83
-68 -129 -44 -64 35 -75 103 -26 165 17 22 33 41 35 43 9 9 79 7 86 -3 4 -6
10 -3 14 7 6 16 10 15 38 -12 22 -20 46 -32 81 -37z m935 12 l34 -36 -22 -22
c-21 -22 -22 -22 -37 -3 -12 17 -14 18 -15 3 0 -9 5 -20 10 -23 15 -9 12 -61
-3 -74 -8 -6 -40 -12 -72 -13 l-58 -3 -12 35 c-11 32 -10 38 11 63 13 16 24
39 24 52 0 38 11 55 35 55 13 0 27 5 30 10 8 14 32 0 75 -44z m-1514 -120 c15
-76 16 -95 5 -135 -24 -83 -24 -88 -1 -111 16 -16 30 -21 49 -17 33 7 46 -1
56 -33 4 -14 27 -71 52 -128 l43 -103 -38 -37 c-22 -20 -43 -45 -49 -56 -7
-13 -31 -22 -90 -31 -183 -29 -327 -152 -378 -322 -21 -69 -18 -74 11 -23 32
57 61 88 99 107 l30 16 -24 -27 -25 -26 32 6 c67 14 122 -24 122 -83 0 -75
-103 -112 -162 -58 -32 30 -35 24 -44 -84 -13 -157 45 -302 157 -391 59 -46
127 -64 220 -58 138 10 260 101 330 246 30 60 33 78 37 177 3 92 1 118 -16
162 l-20 53 28 -20 c15 -11 42 -36 60 -57 l33 -37 -5 -93 -5 -94 36 33 c20 18
55 50 77 71 27 25 44 35 49 28 3 -7 3 -142 -1 -302 l-7 -291 -45 -60 c-139
-185 -444 -301 -942 -359 -194 -22 -671 -11 -746 18 -11 4 -13 16 -8 53 14
105 -35 118 -126 35 -34 -31 -64 -53 -69 -51 -4 3 -11 29 -14 57 -4 28 -12 57
-18 65 -15 19 -55 18 -63 -1 -11 -28 -25 -15 -40 39 -30 101 -59 105 -116 16
-18 -27 -38 -50 -45 -50 -8 0 -27 16 -43 36 -26 31 -33 35 -63 29 -31 -5 -38
-2 -76 37 -69 71 -84 118 -94 297 -8 132 -27 251 -56 346 -5 19 -4 19 19 -2
13 -13 28 -23 32 -23 5 0 5 33 1 74 -9 95 10 140 89 215 59 54 85 63 47 15
-11 -15 -21 -34 -21 -42 0 -13 3 -13 18 1 24 22 84 22 111 0 11 -10 24 -32 27
-50 15 -76 -98 -115 -155 -54 l-28 30 -11 -47 c-29 -126 26 -315 121 -419 59
-64 124 -93 212 -93 123 0 215 64 273 189 23 48 27 72 30 177 5 139 -9 207
-62 321 -44 92 -130 181 -209 213 -32 13 -57 27 -57 30 0 15 151 40 237 40
270 0 605 122 827 301 86 70 255 259 318 355 29 45 56 79 60 75 4 -3 15 -46
24 -95z m238 48 c10 -4 16 -18 16 -36 0 -16 12 -50 27 -75 l26 -45 -24 -20
c-70 -55 -218 -107 -250 -87 -28 17 77 191 144 239 50 34 42 31 61 24z m1369
-6 c42 -20 52 -89 14 -96 -23 -5 -74 16 -80 32 -6 14 21 76 32 76 4 0 19 -6
34 -12z m-2109 -33 c-4 -8 -10 -12 -15 -9 -14 8 -10 24 6 24 9 0 12 -6 9 -15z
m2278 -12 c23 -21 23 -36 -3 -59 -21 -19 -21 -18 -40 5 -30 37 -23 67 15 70 5
1 18 -6 28 -16z m-2487 -82 c-23 -45 -35 -47 -35 -7 0 32 3 36 25 36 25 0 25
-1 10 -29z m86 19 c6 0 7 -4 4 -10 -10 -15 -32 -12 -39 6 -5 12 -2 15 10 10 8
-3 20 -6 25 -6z m63 -5 c-11 -7 -21 -10 -24 -7 -3 4 -9 10 -13 13 -4 3 7 6 24
7 28 1 30 0 13 -13z m2645 -44 c34 -24 41 -60 16 -81 -12 -10 -22 -5 -57 23
-41 33 -80 57 -92 57 -17 0 -2 -18 28 -34 19 -10 45 -29 57 -42 34 -36 1 -31
-52 9 -24 17 -57 39 -73 47 -39 20 -48 45 -13 36 14 -3 36 -2 49 4 35 15 102
5 137 -19z m-245 -20 c42 -44 46 -105 8 -150 l-28 -33 -35 21 c-19 11 -41 21
-50 21 -40 0 -32 94 11 140 35 38 59 38 94 1z m-1265 -68 l23 -47 -38 -34
c-41 -35 -134 -85 -134 -72 0 32 100 200 118 200 4 0 18 -22 31 -47z m1025 6
c38 -30 37 -90 -3 -130 -24 -24 -38 -29 -76 -29 -67 0 -105 22 -105 63 0 46
20 80 60 99 47 24 91 23 124 -3z m-218 -67 c5 -27 3 -38 -10 -47 -14 -11 -15
-14 -1 -25 21 -17 19 -42 -2 -38 -11 2 -18 13 -18 27 0 19 -7 27 -32 33 -18 5
-33 10 -33 12 0 8 40 92 46 99 13 13 43 -25 50 -61z m-965 16 c9 -15 -7 -80
-23 -89 -19 -12 -31 -11 -55 6 -25 18 -38 62 -23 80 20 25 86 26 101 3z m571
-13 c10 -23 8 -29 -16 -53 l-27 -27 -20 24 c-19 23 -25 61 -12 74 3 4 19 7 35
7 21 0 32 -7 40 -25z m-122 -27 c43 -46 48 -73 19 -104 -47 -51 -129 -15 -129
57 0 34 5 42 33 59 17 11 35 20 39 20 4 0 21 -15 38 -32z m214 -61 l-16 -29
-28 27 c-29 27 -29 29 -13 56 l17 29 28 -27 c26 -25 26 -27 12 -56z m-398 19
c8 -8 14 -21 14 -28 0 -7 11 -33 25 -57 15 -25 25 -59 25 -82 0 -45 19 -52 36
-14 9 18 9 25 0 29 -6 2 14 5 44 5 30 1 66 4 80 7 19 4 17 1 -8 -10 -18 -8
-38 -14 -45 -12 -6 1 -9 1 -4 -1 4 -3 7 -11 7 -19 0 -8 5 -14 10 -14 6 0 10 7
10 15 0 16 40 20 73 6 17 -6 17 -8 3 -20 -29 -24 -19 -41 23 -41 22 0 42 -6
45 -12 3 -7 3 -3 0 10 -8 32 0 27 30 -19 16 -23 25 -48 21 -58 -3 -9 2 -26 11
-37 15 -18 15 -18 9 9 -3 15 -4 27 -2 27 2 0 19 -24 36 -52 27 -42 31 -56 22
-70 -6 -10 -11 -34 -11 -53 0 -28 -4 -35 -20 -35 -17 0 -20 7 -20 40 l0 40
-72 1 c-40 0 -96 4 -125 8 l-52 7 6 -27 c5 -26 3 -27 -41 -31 -39 -3 -51 1
-68 19 -25 26 -59 33 -38 8 19 -23 -4 -18 -26 6 -15 17 -16 22 -4 29 12 7 12
11 0 25 -14 17 -50 39 -50 31 0 -3 10 -14 22 -26 12 -11 18 -23 14 -27 -7 -7
-66 55 -66 69 0 4 5 10 10 13 12 8 13 25 0 45 -7 12 -12 11 -31 -5 -21 -19
-22 -19 -16 -1 6 14 3 17 -8 12 -12 -4 -15 4 -15 39 0 25 -5 45 -11 45 -6 0
-8 -9 -3 -22 7 -23 7 -23 -15 -4 -16 15 -18 21 -9 28 7 4 8 8 2 8 -15 0 -56
89 -49 110 3 11 20 21 43 25 20 4 39 10 42 14 11 15 63 43 88 47 15 3 29 7 31
10 7 7 12 5 27 -10z m643 -40 c30 -31 33 -39 28 -72 -13 -81 -83 -144 -161
-144 -54 0 -76 27 -76 96 0 80 30 130 84 143 73 16 90 13 125 -23z m-293 -1
c13 -20 14 -28 4 -40 -17 -21 -37 -19 -50 5 -13 25 -4 60 15 60 8 0 22 -11 31
-25z m-775 -77 c9 -26 14 -46 9 -43 -5 3 -14 22 -20 43 -7 20 -16 41 -21 47
-5 5 -9 16 -9 25 1 21 18 -10 41 -72z m1244 63 c65 -30 80 -53 80 -126 0 -57
-3 -67 -29 -94 -19 -20 -36 -29 -50 -26 -12 2 -26 4 -32 4 -37 3 -93 99 -94
161 0 47 33 100 62 100 13 0 41 -9 63 -19z m-519 -108 c17 -23 17 -30 0 -36
-10 -4 -13 -1 -9 9 3 8 0 21 -7 29 -7 8 -9 15 -5 15 4 0 14 -8 21 -17z m-2926
-70 c0 -25 0 -26 -20 -8 -11 10 -20 22 -20 27 0 4 9 8 20 8 15 0 20 -7 20 -27z
m2204 -102 c-16 -17 -83 -6 -91 15 -3 8 7 33 22 55 l28 40 27 -48 c22 -39 24
-51 14 -62z m-2490 63 c3 -8 2 -12 -4 -9 -6 3 -10 10 -10 16 0 14 7 11 14 -7z
m348 -21 c-6 -3 -11 -8 -9 -11 2 -4 -4 -15 -15 -24 -17 -17 -18 -17 -18 0 0
15 -2 15 -11 2 -9 -13 -10 -13 -6 0 2 8 9 16 15 16 25 3 27 5 13 13 -9 6 -4 8
15 8 16 0 23 -2 16 -4z m3098 -198 c13 -14 18 -25 12 -25 -7 0 -12 4 -12 9 0
5 -9 11 -20 14 -11 3 -20 10 -20 16 0 18 15 13 40 -14z m-15 -25 c3 -5 -1 -10
-9 -10 -9 0 -16 5 -16 10 0 6 4 10 9 10 6 0 13 -4 16 -10z m-334 -20 c24 -14
24 -27 -1 -40 -16 -9 -18 -8 -14 5 4 8 1 22 -6 30 -15 18 -7 19 21 5z m149
-10 c0 -17 7 -20 39 -20 35 0 39 -3 45 -32 5 -25 9 -30 16 -18 15 24 21 6 7
-23 -10 -22 -18 -27 -47 -26 -35 1 -35 1 -6 8 35 7 40 25 9 29 -13 2 -23 8
-23 13 0 5 -10 9 -22 8 -22 0 -22 -1 -3 -9 14 -6 16 -9 5 -11 -8 -1 3 -5 25
-10 37 -7 35 -7 -15 -5 -30 2 -56 9 -58 15 -5 15 -39 14 -45 -1 -4 -10 -6 -10
-6 0 -1 8 8 16 19 19 16 4 20 14 20 44 0 32 3 39 20 39 13 0 20 -7 20 -20z
m171 -63 c-10 -5 -28 -25 -39 -45 -25 -42 -30 -26 -7 18 9 17 22 30 30 30 9 0
12 6 8 17 -6 15 -5 16 9 3 15 -14 15 -16 -1 -23z m148 -44 c31 -38 36 -70 18
-109 l-16 -34 44 7 c41 5 47 3 76 -28 27 -29 30 -38 26 -74 -8 -55 -53 -95
-107 -95 -39 0 -40 -1 -40 -33 0 -86 -136 -127 -180 -55 -20 33 -16 61 12 97
27 36 22 47 -8 17 -23 -22 -35 -26 -86 -26 -49 0 -63 4 -83 25 -28 27 -33 81
-14 150 16 60 44 85 95 85 36 0 49 -6 78 -35 l35 -35 -6 50 c-5 47 -4 51 30
85 45 45 95 49 126 8z m-319 -3 c0 -13 -11 -13 -30 0 -12 8 -11 10 8 10 12 0
22 -4 22 -10z m-3441 -163 c-1 -12 -1 -33 0 -47 l3 -25 8 25 c6 18 8 5 9 -45
1 -88 -50 -358 -89 -466 -16 -44 -48 -114 -71 -155 -45 -78 -65 -95 -29 -24
12 23 20 46 18 52 -2 5 -10 -3 -18 -19 -35 -68 -106 -171 -156 -223 -30 -31
-51 -59 -48 -62 7 -8 -167 -160 -204 -179 -15 -8 -29 -17 -32 -20 -3 -3 -36
-18 -75 -34 -38 -15 -90 -38 -115 -50 -25 -13 -73 -32 -106 -43 -34 -11 -80
-32 -102 -46 -48 -30 -53 -31 -46 -11 4 8 14 15 24 15 11 0 21 3 24 8 7 12
-22 45 -33 37 -6 -3 -9 0 -5 8 3 9 13 13 25 10 10 -3 16 -9 13 -14 -3 -5 8 -8
25 -7 36 3 33 8 -16 24 -32 11 -41 11 -67 -4 -17 -9 -33 -19 -36 -22 -3 -3
-21 -17 -40 -30 -54 -37 -17 4 50 55 61 47 161 100 276 146 127 50 277 124
340 166 66 45 164 144 211 213 90 133 153 309 191 534 18 106 29 151 33 135
l7 -24 1 23 c1 14 5 21 12 16 8 -5 9 11 4 56 -5 46 -4 61 4 56 6 -4 11 -17 10
-29z m-32 -39 c-3 -7 -5 -2 -5 12 0 14 2 19 5 13 2 -7 2 -19 0 -25z m2563 -3
c14 -17 5 -51 -15 -59 -24 -9 -59 27 -51 52 8 26 47 30 66 7z m1464 -52 c7 23
13 27 47 27 21 0 39 5 39 10 0 6 19 9 43 9 23 -1 33 -3 22 -6 -11 -2 -30 -6
-42 -9 -13 -2 -23 -12 -23 -20 0 -12 6 -15 20 -10 11 3 29 9 40 12 14 5 20 2
20 -10 0 -12 -10 -16 -40 -16 -29 0 -40 -4 -40 -15 0 -23 80 -21 81 3 1 9 5 4
9 -13 l8 -30 2 30 c3 25 4 23 10 -15 l7 -45 3 45 c3 43 3 42 10 -20 27 -232
53 -360 103 -500 23 -65 64 -150 76 -160 4 -3 21 -27 40 -55 18 -27 31 -45 29
-40 -9 29 -61 162 -69 177 -11 22 -11 28 1 28 5 0 28 -28 51 -62 71 -105 170
-195 329 -295 148 -93 265 -195 304 -264 18 -33 17 -33 -30 12 -52 48 -142
106 -159 100 -5 -1 -7 1 -3 5 13 12 -30 36 -52 29 -16 -5 -19 -3 -13 11 4 11
2 15 -4 11 -5 -4 -19 0 -29 8 -10 8 -29 15 -41 15 -19 0 -23 -5 -23 -29 0 -16
6 -31 13 -34 6 -2 10 -7 7 -10 -19 -21 -161 65 -245 148 -28 28 -47 46 -43 40
5 -5 8 -13 8 -17 0 -18 -30 9 -74 67 -61 80 -111 139 -166 193 -25 25 -37 43
-28 39 31 -11 29 11 -6 47 -37 40 -52 47 -36 17 22 -41 8 -32 -35 24 -35 44
-43 61 -33 67 9 6 8 8 -5 6 -14 -2 -25 14 -48 72 -17 41 -32 80 -33 85 -2 6
-6 19 -10 30 -21 55 -27 75 -41 138 -13 58 -14 71 -2 95 8 15 18 50 23 77 l8
50 6 -40 c6 -39 7 -39 14 -12z m-2956 10 c-3 -32 -44 -46 -54 -19 -10 26 4 46
31 46 23 0 26 -4 23 -27z m2222 10 c0 -16 2 -16 10 -3 9 13 12 12 25 -4 15
-19 15 -19 16 5 2 23 2 23 6 2 2 -13 9 -23 14 -23 5 0 9 -10 9 -22 1 -42 35
-92 85 -128 27 -19 77 -62 110 -96 56 -55 66 -71 110 -185 122 -312 195 -457
300 -597 79 -105 139 -166 319 -320 288 -249 403 -372 500 -539 42 -72 109
-224 101 -231 -11 -12 -106 -14 -119 -3 -8 7 -26 43 -41 79 -14 37 -45 92 -68
124 -76 102 -181 228 -189 228 -5 0 -20 12 -33 28 -36 40 -30 14 10 -48 51
-81 43 -89 -21 -21 -43 46 -59 57 -69 48 -18 -17 -3 -60 26 -74 24 -12 24 -13
2 -13 -13 0 -27 9 -34 21 -10 20 -16 21 -87 14 -43 -4 -83 -12 -89 -17 -10 -8
-13 -6 -13 5 0 8 -15 24 -32 36 -25 15 -28 21 -14 21 15 0 16 3 6 15 -7 8 -18
15 -24 15 -6 0 -27 16 -46 36 -19 20 -52 54 -72 75 -21 21 -38 41 -38 44 0 4
-24 31 -52 60 -64 64 -148 156 -148 161 0 3 -22 26 -49 53 -28 27 -60 65 -73
84 -26 38 -112 156 -127 174 -6 6 -19 36 -29 67 -20 59 -46 96 -69 96 -9 0
-13 14 -14 43 0 32 -2 37 -9 22 -5 -11 -9 -14 -9 -6 -1 8 -14 27 -31 43 -16
15 -30 35 -30 43 0 8 -4 15 -8 15 -12 0 -39 123 -58 260 -12 87 -14 150 -9
259 4 79 9 150 12 158 8 20 43 16 43 -4z m936 -3 c21 0 17 -17 -6 -23 -16 -4
-20 0 -19 21 0 15 3 21 6 15 2 -7 11 -13 19 -13z m-3830 -94 c-6 -59 -36 -179
-55 -221 -5 -11 -16 -36 -24 -55 -9 -19 -26 -51 -39 -70 -13 -19 -35 -54 -48
-77 -13 -24 -27 -43 -32 -43 -4 0 -8 -4 -8 -9 0 -28 -167 -192 -187 -184 -8 3
-19 0 -24 -8 -8 -12 -11 -12 -20 1 -8 12 -9 9 -5 -11 5 -21 -1 -33 -30 -59
-26 -23 -39 -29 -47 -21 -6 6 -16 11 -21 11 -6 0 -4 -4 3 -9 22 -14 -26 -24
-63 -13 l-29 8 31 35 c45 52 97 131 149 228 25 47 48 90 50 95 3 4 9 2 14 -5
6 -10 9 -6 9 12 0 14 10 34 21 45 12 10 33 44 46 74 14 30 30 61 36 68 6 8 25
46 43 85 18 39 38 78 46 87 7 9 20 30 29 46 11 21 22 29 42 29 15 -1 27 4 28
10 1 5 4 -1 8 -15 4 -14 15 -26 24 -28 13 -3 17 4 18 30 1 31 1 31 9 8 7 -22
8 -22 10 -5 1 11 2 24 1 28 -1 5 4 5 10 1 8 -4 9 -26 5 -68z m2317 7 c18 -17
22 -59 7 -83 -6 -9 -5 -17 3 -22 7 -4 -3 -5 -22 -1 -24 4 -32 3 -27 -5 10 -17
-56 7 -71 26 -7 9 -13 31 -13 49 0 57 75 79 123 36z m-1494 -24 c24 -23 25
-32 10 -62 -16 -30 -28 -37 -66 -37 -54 0 -84 68 -45 102 35 31 66 30 101 -3z
m3170 -119 c56 -160 171 -334 294 -443 121 -108 195 -156 372 -242 119 -57
186 -96 222 -129 124 -112 142 -274 41 -360 -23 -20 -44 -36 -47 -36 -3 0 -27
42 -53 93 -81 158 -189 266 -396 395 -242 151 -362 297 -416 507 -19 75 -55
298 -46 288 4 -4 17 -37 29 -73z m-1901 -54 c42 0 100 2 129 5 43 3 49 6 40
18 -10 11 -9 13 2 10 26 -9 23 -28 -6 -40 -15 -7 -44 -19 -63 -27 -21 -9 -66
-15 -115 -15 -107 -1 -154 23 -215 108 -14 18 -13 19 1 7 14 -10 18 -10 22 3
5 11 19 6 67 -28 60 -41 64 -42 138 -41z m233 57 c13 -16 12 -17 -3 -4 -10 7
-18 15 -18 17 0 8 8 3 21 -13z m-1816 -42 c34 -22 51 -26 120 -26 54 0 90 5
110 16 51 28 75 32 75 15 0 -9 -4 -16 -10 -16 -5 0 -10 -6 -10 -14 0 -23 -102
-56 -171 -56 -88 0 -189 53 -189 99 0 24 15 21 75 -18z m1800 19 c3 -5 2 -10
-4 -10 -5 0 -13 5 -16 10 -3 6 -2 10 4 10 5 0 13 -4 16 -10z m1140 -20 c3 -5
2 -10 -4 -10 -5 0 -13 5 -16 10 -3 6 -2 10 4 10 5 0 13 -4 16 -10z m-59 -56
c-3 -7 0 -15 7 -18 7 -2 1 -5 -13 -5 -14 0 -36 6 -50 15 -25 15 -25 15 10 8
30 -6 33 -5 22 9 -11 13 -10 15 8 10 12 -3 19 -11 16 -19z m141 -46 c-3 -7 -5
-2 -5 12 0 14 2 19 5 13 2 -7 2 -19 0 -25z m-162 -54 c11 0 37 -1 58 -2 36 -2
37 -3 37 -42 0 -39 -1 -40 -35 -40 -31 0 -35 -3 -35 -26 0 -14 -4 -23 -9 -20
-6 4 -5 21 1 42 10 39 4 84 -12 84 -6 0 -10 -12 -10 -27 0 -22 2 -25 10 -13 8
11 9 7 4 -15 -10 -43 -12 -42 -19 9 -4 25 -11 46 -16 46 -5 0 -9 12 -8 28 l1
27 7 -25 c4 -15 15 -25 26 -26z m233 -89 c-3 -3 -9 2 -12 12 -6 14 -5 15 5 6
7 -7 10 -15 7 -18z m-152 -83 c6 -4 14 -14 17 -22 4 -10 6 -8 6 8 1 15 7 22
21 22 17 0 20 -7 20 -39 0 -38 -19 -59 -41 -46 -5 4 -6 -1 -3 -9 3 -9 1 -16
-5 -16 -6 0 -8 -7 -4 -17 4 -10 2 -14 -4 -10 -12 7 -43 96 -43 121 0 17 17 21
36 8z m134 -44 c0 -45 -15 -32 -17 15 -2 30 0 38 7 27 5 -8 10 -27 10 -42z
m57 0 c-3 -8 -6 -5 -6 6 -1 11 2 17 5 13 3 -3 4 -12 1 -19z m-3028 -45 c20
-78 22 -105 16 -145 -6 -33 -9 -38 -17 -25 -5 10 -21 17 -39 17 -18 0 -32 6
-36 17 -11 28 37 173 57 173 5 0 14 -17 19 -37z m3242 -104 c31 -35 81 -98
111 -139 31 -42 98 -116 150 -165 95 -90 134 -119 348 -257 174 -113 231 -179
272 -312 29 -97 22 -226 -17 -314 -30 -66 -92 -132 -124 -132 -11 0 -23 -4
-26 -10 -12 -20 -23 -9 -29 30 -9 55 -100 230 -171 329 -32 45 -102 126 -154
179 -116 118 -282 272 -296 273 -5 0 -4 3 3 6 6 2 10 9 7 13 -3 5 -12 7 -20 3
-8 -3 -15 0 -15 6 0 6 5 11 11 11 8 0 8 5 -1 15 -15 18 0 20 19 3 12 -11 13
-10 7 6 -4 11 -11 53 -17 94 -10 72 -58 214 -87 260 -8 12 -12 22 -9 22 3 0
-10 30 -29 66 -19 36 -34 80 -34 97 l1 32 22 -26 c12 -15 47 -55 78 -90z
m-3448 87 c7 -18 -35 -77 -50 -71 -18 6 -16 -5 3 -26 21 -24 13 -44 -26 -64
-29 -15 -34 -15 -56 0 -13 8 -24 24 -24 34 0 24 37 71 56 71 8 0 14 10 14 25
0 38 70 65 83 31z m-161 -13 c24 -21 23 -46 -3 -69 -21 -19 -21 -18 -40 5 -22
27 -24 52 -7 69 16 16 28 15 50 -5z m203 -59 c0 -25 -3 -29 -25 -26 -40 4 -48
21 -20 42 32 25 45 20 45 -16z m-709 9 c20 -27 17 -57 -11 -87 -41 -45 -95
-25 -95 35 0 37 24 48 61 26 32 -18 45 -8 29 23 -13 25 -2 26 16 3z m994 -41
c0 -47 -5 -63 -22 -82 l-23 -25 -3 62 c-3 66 9 103 33 103 12 0 15 -14 15 -58z
m2780 54 c0 -3 -4 -8 -10 -11 -5 -3 -10 -1 -10 4 0 6 5 11 10 11 6 0 10 -2 10
-4z m36 -50 c0 -43 -3 -53 -15 -51 -17 2 -28 25 -12 25 6 0 11 15 11 33 0 27
6 47 14 47 1 0 1 -24 2 -54z m-3505 24 c10 -6 33 -38 50 -71 33 -66 45 -74 28
-18 -11 36 1 89 20 89 6 0 23 -17 38 -37 15 -21 30 -40 34 -43 3 -3 11 -31 18
-64 12 -52 11 -63 -4 -97 -29 -64 -59 -62 -137 9 -54 49 -85 100 -103 169 -8
32 -15 61 -15 65 0 11 48 10 71 -2z m904 -19 c7 -24 -29 -134 -59 -181 -15
-23 -36 -40 -60 -47 -20 -6 -36 -8 -36 -5 0 39 46 154 80 198 43 57 65 67 75
35z m-1095 -51 c30 -30 27 -54 -7 -45 -42 10 -54 24 -42 46 12 24 24 24 49 -1z
m570 -53 c0 -4 -8 -1 -17 9 -17 17 -18 17 -21 -6 -2 -14 1 -26 7 -28 15 -5 14
-24 -2 -46 -12 -17 -15 -16 -46 9 l-32 28 42 39 c40 37 44 39 56 22 7 -10 13
-22 13 -27z m236 -48 c24 -35 29 -54 32 -113 5 -96 -5 -119 -60 -135 -23 -7
-51 -20 -61 -29 -17 -15 -20 -14 -42 13 -28 35 -65 125 -65 160 0 39 20 121
34 141 12 15 18 16 39 7 22 -10 26 -9 30 8 5 19 7 19 34 5 16 -8 42 -34 59
-57z m3084 67 c0 -3 -4 -8 -10 -11 -5 -3 -10 -1 -10 4 0 6 5 11 10 11 6 0 10
-2 10 -4z m-4315 -22 c24 -9 47 -61 39 -87 -8 -27 -22 -37 -51 -37 -28 0 -43
27 -43 79 0 45 17 59 55 45z m1345 -14 c0 -11 -8 -37 -17 -58 l-17 -37 -4 37
c-3 38 11 78 28 78 6 0 10 -9 10 -20z m-1453 -34 c-3 -20 2 -47 9 -62 17 -33
18 -39 1 -26 -10 8 -13 6 -13 -8 0 -14 4 -16 15 -10 13 7 42 -1 59 -16 2 -1
-27 -35 -65 -76 -38 -40 -89 -94 -112 -120 -24 -26 -48 -45 -54 -41 -6 4 -8 0
-4 -10 4 -11 1 -17 -8 -17 -8 0 -15 -4 -15 -10 0 -5 -5 -10 -11 -10 -5 0 -8 4
-4 9 15 25 -48 0 -73 -29 -17 -19 -34 -30 -41 -26 -6 4 -15 -3 -21 -18 -12
-34 -29 -34 -22 0 4 21 1 25 -14 22 -15 -2 -20 4 -22 30 -2 17 -8 32 -13 32
-6 0 -8 -8 -5 -17 3 -10 1 -25 -5 -33 -9 -12 -10 -11 -5 4 4 11 1 23 -6 27 -8
5 57 77 205 223 120 119 220 216 223 216 3 0 4 -16 1 -34z m4273 3 c0 -6 -4
-7 -10 -4 -5 3 -10 11 -10 16 0 6 5 7 10 4 6 -3 10 -11 10 -16z m-3990 3 c0
-5 -14 -21 -30 -37 -24 -23 -33 -26 -43 -16 -10 10 -6 17 16 37 28 24 57 32
57 16z m344 -19 c27 -28 26 -43 -3 -43 -25 0 -62 45 -48 59 16 16 24 14 51
-16z m1072 2 c23 -36 7 -75 -43 -103 -73 -40 -92 -9 -48 78 30 58 63 68 91 25z
m-1190 -26 c47 -22 86 -59 63 -59 -12 0 -12 -2 0 -9 11 -7 10 -13 -4 -34 -18
-27 -27 -32 -87 -42 -35 -7 -37 -5 -58 35 -12 23 -24 64 -27 91 l-6 50 39 -6
c21 -4 58 -16 80 -26z m2067 -86 l32 -16 -25 -10 c-94 -38 -175 -83 -235 -132
-48 -38 -76 -54 -90 -51 -11 3 -66 8 -122 12 -85 6 -103 10 -103 23 0 26 -39
83 -61 88 -26 7 -24 17 7 33 33 18 84 82 93 118 l7 27 163 7 c90 4 166 9 168
12 3 3 34 -17 70 -45 35 -27 79 -57 96 -66z m-1530 68 c15 -15 16 -22 7 -47
-15 -37 -61 -83 -78 -77 -15 6 -46 62 -38 71 3 3 14 -2 24 -11 16 -14 18 -14
28 8 11 23 10 24 -17 18 -34 -6 -37 5 -12 43 13 20 22 24 42 19 14 -3 34 -14
44 -24z m3337 9 c-10 -6 -11 -10 -2 -10 6 0 12 -9 12 -20 0 -23 -15 -27 -24
-5 -3 8 -17 15 -31 15 -14 0 -25 4 -25 9 0 11 23 18 60 20 20 0 22 -1 10 -9z
m115 -48 c-8 -8 -13 0 -20 33 l-7 30 16 -29 c9 -16 14 -31 11 -34z m-3787 26
c17 -17 15 -43 -3 -58 -13 -11 -20 -11 -40 0 -38 20 -27 70 15 70 9 0 21 -5
28 -12z m1172 -7 c0 -6 -4 -13 -10 -16 -5 -3 -10 1 -10 9 0 9 5 16 10 16 6 0
10 -4 10 -9z m2470 -22 c0 -6 -4 -7 -10 -4 -5 3 -10 11 -10 16 0 6 5 7 10 4 6
-3 10 -11 10 -16z m-4029 -22 c47 -32 90 -96 83 -124 -4 -13 -13 -23 -21 -23
-16 0 -163 128 -163 142 0 9 36 26 56 27 6 1 26 -9 45 -22z m773 17 c21 -8 21
-62 0 -85 -9 -10 -22 -15 -30 -12 -8 3 -14 0 -14 -6 0 -6 -6 -11 -14 -11 -19
0 -33 23 -18 28 7 2 21 23 31 48 21 47 21 47 45 38z m724 -13 c3 -8 -1 -12 -9
-9 -7 2 -15 10 -17 17 -3 8 1 12 9 9 7 -2 15 -10 17 -17z m2602 -12 c0 -4 -9
-9 -20 -12 -11 -3 -20 -1 -20 5 0 5 -4 7 -9 3 -5 -3 -12 -1 -16 5 -4 6 7 9 29
8 20 -2 36 -6 36 -9z m45 0 c11 -17 0 -20 -21 -4 -17 13 -17 14 -2 15 9 0 20
-5 23 -11z m-3564 -15 c10 -12 10 -20 1 -35 -16 -26 -16 -47 0 -31 16 16 60
15 83 -2 16 -12 18 -19 10 -52 -9 -35 -13 -39 -42 -39 -28 0 -30 -2 -17 -16
20 -23 18 -34 -17 -74 l-31 -35 -24 22 c-13 13 -24 31 -24 40 0 23 -18 32 -36
17 -8 -7 -12 -20 -9 -33 6 -20 5 -20 -14 3 -29 33 -32 116 -5 158 12 19 18 21
41 12 26 -10 26 -9 10 9 -21 23 -21 36 -1 56 20 20 58 20 75 0z m555 -1 c29
-39 6 -104 -31 -89 -27 10 -15 106 13 106 3 0 11 -8 18 -17z m-750 -33 c51
-49 22 -129 -53 -145 -46 -9 -69 1 -87 39 -23 49 -20 86 9 117 23 23 31 25 66
19 22 -4 51 -18 65 -30z m1224 25 c0 -15 -49 -45 -75 -45 -23 0 -18 16 13 39
32 24 62 27 62 6z m-1672 -94 c-15 -5 -108 41 -102 51 3 4 10 6 15 2 6 -3 13
4 16 17 6 21 8 20 44 -22 21 -24 33 -46 27 -48z m1256 64 c-4 -8 -8 -15 -10
-15 -2 0 -4 7 -4 15 0 8 4 15 10 15 5 0 7 -7 4 -15z m255 6 c10 -6 12 -19 6
-47 -8 -45 -54 -148 -62 -140 -3 3 -19 -6 -35 -19 -31 -26 -53 -31 -63 -15 -3
6 -19 10 -36 10 -27 0 -29 3 -29 38 0 20 -7 46 -15 56 -8 11 -15 27 -14 35 0
21 48 58 96 76 43 15 131 19 152 6z m2655 -7 c5 -13 9 -14 21 -4 8 7 15 8 15
2 0 -25 -26 -29 -48 -6 -16 17 -18 24 -8 24 7 0 17 -7 20 -16z m-1676 -41 c49
-36 68 -59 96 -113 63 -119 83 -270 51 -378 -16 -53 -55 -102 -80 -102 -8 0
-15 -4 -15 -10 0 -5 -12 -10 -27 -10 l-28 0 30 16 c27 13 85 81 85 100 0 4
-16 -9 -35 -29 -41 -42 -93 -61 -141 -52 l-36 6 26 24 c25 23 51 73 43 82 -3
2 -20 -12 -40 -32 -50 -50 -96 -44 -89 12 4 31 -12 36 -41 13 -51 -40 -83 -16
-73 56 5 40 4 45 -8 35 -8 -7 -18 -25 -21 -41 -14 -62 -83 -40 -109 33 -8 23
-17 49 -20 57 -2 8 -5 2 -6 -15 -4 -49 -3 -69 4 -86 10 -23 -32 -32 -61 -14
-28 19 -37 53 -30 115 16 134 149 278 319 345 82 33 153 29 206 -12z m1798
-18 c-2 -25 1 -48 5 -51 5 -3 9 -11 9 -17 0 -7 -7 -4 -14 6 -7 9 -16 17 -21
17 -4 0 -17 8 -30 19 -17 12 -21 21 -14 28 8 8 7 13 0 17 -21 13 -11 21 29 24
l40 3 -4 -46z m-4040 17 c12 -8 54 -86 54 -100 0 -15 -68 -22 -99 -11 -33 12
-46 45 -32 82 13 33 50 47 77 29z m1463 -21 c17 -16 31 -33 31 -39 0 -13 -107
-38 -143 -34 -16 2 -31 10 -34 18 -8 20 24 64 47 64 10 0 22 5 25 10 11 18 43
10 74 -19z m-2375 -53 c-246 -255 -366 -570 -313 -818 14 -65 4 -160 -17 -160
-8 0 -40 13 -72 29 -60 31 -135 102 -170 161 -74 127 -67 320 17 452 74 117
178 200 347 279 60 27 141 65 179 84 39 19 74 34 80 34 5 1 -18 -27 -51 -61z
m587 35 c63 -29 80 -50 54 -70 -19 -13 -13 -46 13 -75 19 -22 10 -23 -31 -1
-80 41 -148 120 -134 157 9 22 30 20 98 -11z m954 -5 c25 -29 27 -37 21 -98
-5 -72 -20 -120 -35 -120 -13 0 -58 76 -81 138 -16 41 -16 51 -5 80 19 45 62
45 100 0z m3439 7 c3 -8 1 -15 -4 -15 -6 0 -10 7 -10 15 0 8 2 15 4 15 2 0 6
-7 10 -15z m-3174 -24 c25 -47 10 -68 -125 -174 -55 -44 -73 -54 -87 -46 -58
31 22 182 115 218 66 25 84 26 97 2z m108 -14 c4 -30 -17 -37 -38 -12 -10 12
-10 18 0 30 18 22 34 14 38 -18z m-1128 -7 c11 -6 26 -22 33 -37 13 -23 12
-30 -4 -58 -11 -18 -31 -37 -46 -44 -26 -12 -30 -10 -55 20 -61 73 -7 161 72
119z m-366 -42 c-5 -7 2 -9 20 -4 19 5 28 2 32 -9 3 -8 9 -13 14 -10 4 2 18
-8 31 -23 13 -14 17 -21 9 -15 -11 8 -18 7 -30 -5 -13 -14 -12 -15 3 -9 11 4
17 2 17 -7 0 -8 3 -21 6 -30 4 -10 1 -16 -10 -16 -10 0 -13 -5 -9 -17 6 -16 5
-16 -10 -4 -9 7 -17 11 -17 7 0 -4 -12 0 -27 8 -16 7 -56 16 -89 19 -53 5 -64
3 -80 -14 -17 -19 -17 -21 3 -47 11 -15 35 -37 54 -50 75 -50 71 -44 51 -65
-24 -27 -25 -183 -1 -181 9 1 16 -4 16 -11 0 -7 -10 -10 -25 -7 -24 5 -25 4
-20 -49 3 -30 3 -48 1 -41 -3 6 -9 12 -15 12 -6 0 -7 -7 -3 -17 5 -10 9 -43
10 -73 2 -36 0 -48 -6 -35 -4 11 -8 34 -8 50 -2 51 -12 75 -32 75 -15 0 -19
-7 -19 -40 0 -44 25 -58 33 -17 2 12 4 1 4 -25 l1 -48 -44 0 c-32 0 -44 -4
-44 -15 0 -11 11 -15 40 -15 33 0 40 -3 40 -20 0 -18 -7 -20 -79 -20 l-78 0
-14 63 -13 62 -10 -42 c-8 -41 -29 -57 -39 -30 -3 6 -6 2 -6 -10 -1 -25 -36
-50 -46 -33 -4 6 -4 17 -1 25 7 20 -14 31 -26 14 -6 -10 -8 -5 -4 16 3 17 10
57 16 90 22 129 49 206 96 283 26 42 50 79 53 82 4 3 19 23 35 45 16 22 40 51
52 65 13 14 49 53 80 87 31 35 61 60 65 57 5 -3 9 0 9 6 0 6 5 8 10 5 6 -4 7
-11 4 -17z m1830 -23 c8 -21 -38 -68 -62 -63 -9 2 -18 12 -21 23 -2 11 -8 23
-14 27 -8 5 -4 15 12 32 22 23 26 24 51 11 15 -8 30 -21 34 -30z m101 34 c7
-10 -21 -49 -36 -49 -4 0 -3 14 2 30 11 31 23 38 34 19z m-1201 -32 c32 -42
34 -89 4 -117 -12 -11 -30 -20 -39 -20 -10 0 -24 -3 -33 -6 -10 -4 -27 6 -46
24 -25 26 -29 35 -24 64 13 68 32 88 81 88 25 0 38 -8 57 -33z m-159 -41 c0
-57 -1 -61 -33 -79 -29 -17 -39 -18 -71 -8 -42 12 -67 51 -52 79 22 40 83 73
131 69 24 -2 25 -5 25 -61z m456 -6 c41 -69 44 -95 14 -106 -17 -7 -53 22 -86
68 -20 27 -20 28 1 68 11 22 22 40 25 40 2 0 23 -31 46 -70z m479 55 c0 -9 -6
-12 -17 -8 -11 4 -14 3 -9 -6 4 -6 2 -19 -5 -27 -12 -14 -14 -14 -25 1 -20 27
-6 55 27 55 19 0 29 -5 29 -15z m530 -14 c0 -35 42 -57 93 -47 20 4 40 1 50
-7 17 -12 17 -14 0 -47 -28 -57 -29 -137 -3 -199 l23 -52 -44 -45 c-104 -107
-243 -188 -384 -225 -89 -24 -95 -23 -95 2 0 11 5 17 10 14 6 -4 7 -12 3 -18
-5 -9 -3 -9 8 -1 8 5 47 23 86 39 40 15 81 37 90 48 18 20 17 20 -12 13 l-30
-7 35 24 c19 14 37 21 38 16 2 -5 8 -9 13 -9 6 0 7 5 4 10 -4 6 10 27 29 48
20 20 36 30 36 23 0 -20 35 28 54 73 23 54 20 57 -10 11 -14 -22 -22 -31 -19
-20 29 84 45 127 64 163 30 59 27 70 -24 93 -35 15 -64 20 -117 18 -40 -1 -73
2 -75 7 -4 13 55 34 94 34 44 0 63 9 63 31 0 12 -5 16 -15 13 -8 -4 -15 -2
-15 3 0 15 12 23 32 23 13 0 18 -8 18 -29z m115 19 c11 -18 -15 -40 -46 -40
-19 0 -29 5 -29 15 0 27 61 47 75 25z m85 -13 c0 -7 -5 -18 -12 -25 -18 -18
-38 -14 -38 7 0 17 12 25 43 30 4 0 7 -5 7 -12z m-820 -55 l23 -19 -32 -46
c-30 -44 -85 -82 -148 -101 -18 -6 -23 -3 -23 11 0 11 -5 24 -11 30 -7 7 -9
18 -6 26 5 15 152 117 167 117 4 0 18 -8 30 -18z m150 -7 c33 -17 39 -45 19
-89 -9 -18 -24 -28 -59 -36 -85 -20 -103 6 -65 96 12 29 20 35 68 43 4 0 21
-6 37 -14z m106 -23 c-23 -23 -33 -6 -10 19 12 13 20 16 22 9 3 -7 -3 -19 -12
-28z m-811 8 c56 0 159 -89 153 -132 -3 -21 -7 -23 -64 -22 -98 1 -160 58
-148 134 5 29 10 38 17 31 6 -6 25 -11 42 -11z m3145 5 c16 -20 6 -45 -19 -45
-22 0 -46 34 -36 50 9 15 41 12 55 -5z m-2225 -40 c30 -29 32 -56 5 -80 -16
-15 -22 -15 -35 -5 -10 8 -15 9 -15 1 0 -23 -36 -10 -54 20 -18 31 -18 31 10
60 34 35 57 37 89 4z m-1375 -12 l21 -26 -60 -40 c-67 -43 -97 -43 -108 0 -18
75 98 128 147 66z m-415 -19 c32 -13 86 -64 68 -64 -6 0 -39 9 -73 19 -59 19
-100 44 -100 63 0 11 63 0 105 -18z m233 -25 c3 -41 9 -52 48 -87 52 -48 55
-71 12 -96 -17 -11 -47 -34 -67 -52 -30 -29 -42 -34 -84 -34 -67 0 -116 25
-134 68 -26 62 -6 93 68 107 31 6 41 2 71 -24 46 -40 55 -39 29 3 -14 21 -21
50 -21 80 0 64 14 88 48 84 24 -3 27 -7 30 -49z m372 32 c15 -29 12 -62 -7
-83 -23 -25 -60 -23 -74 5 -7 12 -16 25 -21 28 -8 5 69 68 84 69 4 0 12 -9 18
-19z m590 -29 c20 -24 26 -75 14 -107 -8 -20 -56 -45 -88 -45 -14 0 -37 11
-53 24 -48 42 -30 133 31 155 31 12 75 0 96 -27z m850 21 c16 -15 -78 -93
-171 -143 -73 -39 -89 -39 -89 0 0 23 12 44 46 80 39 42 55 51 107 64 55 12
92 12 107 -1z m-1226 -59 l47 -47 -27 -28 c-19 -20 -31 -26 -39 -19 -26 22
-22 -4 8 -46 26 -37 29 -48 21 -72 -9 -24 -14 -27 -58 -27 -41 0 -52 4 -69 27
l-20 27 26 52 c22 45 23 54 11 66 -31 31 -3 113 39 113 7 0 34 -21 61 -46z
m854 17 l21 -29 -23 -21 c-29 -27 -42 -27 -62 4 -15 22 -14 26 3 49 23 33 35
32 61 -3z m-1184 -32 c24 -29 32 -50 26 -74 -2 -5 -2 -19 -2 -31 1 -20 -16
-34 -60 -48 -23 -7 -80 12 -95 32 -7 9 -13 35 -13 58 0 35 5 47 31 68 42 36
81 34 113 -5z m1086 -19 c8 -16 6 -26 -12 -50 -12 -16 -23 -30 -25 -30 -2 0
-11 16 -19 35 -8 19 -20 35 -28 35 -7 0 -19 7 -26 15 -11 13 -5 15 43 15 46 0
58 -4 67 -20z m-112 -36 c35 -35 35 -37 17 -50 -10 -8 -30 -14 -44 -14 -29 1
-127 39 -168 66 -26 16 -26 18 -8 25 11 4 53 8 94 8 71 1 74 0 109 -35z m286
24 c22 -23 26 -47 10 -62 -15 -16 -84 -39 -92 -31 -15 14 37 105 59 105 6 0
16 -6 23 -12z m-1085 -22 c23 -24 24 -50 5 -161 -1 -5 -2 -16 -3 -22 -2 -26
-40 -12 -87 31 l-47 44 17 45 c17 44 37 69 66 80 24 9 25 8 49 -17z m345 8
c30 -12 16 -31 -46 -65 -88 -47 -99 -51 -114 -38 -57 47 79 134 160 103z m996
-19 c0 -23 -38 -88 -73 -123 -62 -65 -145 -103 -262 -122 -71 -12 -105 -5
-105 22 0 10 -13 26 -29 36 l-30 17 67 23 c37 13 108 36 158 52 116 35 232 79
240 91 6 10 34 13 34 4z m-700 -38 c65 -39 80 -64 80 -134 0 -76 -15 -103 -57
-103 -69 0 -146 67 -169 147 -22 77 -3 95 47 47 l28 -27 -11 36 c-12 39 -6 67
14 67 7 0 38 -15 68 -33z m-240 -24 c0 -54 -82 -157 -138 -173 -64 -17 -89 18
-57 80 17 33 59 67 129 104 54 29 66 27 66 -11z m488 -5 c-14 -24 -30 -39 -36
-33 -3 3 39 55 45 55 2 0 -2 -10 -9 -22z m-1977 -110 c-32 -109 -51 -208 -51
-272 0 -21 -18 -86 -40 -145 -40 -107 -60 -200 -60 -279 0 -26 -4 -41 -10 -37
-14 9 -12 -19 2 -33 10 -10 10 -15 -2 -22 -12 -8 -12 -12 -2 -18 7 -5 10 -16
6 -26 -5 -14 -9 -15 -15 -4 -8 11 -10 11 -18 0 -9 -15 -43 94 -43 138 0 14 -3
30 -8 35 -4 6 -10 42 -14 81 -13 138 37 337 122 484 31 54 153 212 159 206 3
-2 -9 -51 -26 -108z m1545 87 c14 -55 -1 -133 -32 -172 -40 -49 -51 -51 -70
-9 l-17 35 46 76 c26 42 47 80 47 85 0 21 20 9 26 -15z m1238 9 c9 -23 5 -25
-37 -13 -51 14 -56 29 -9 29 28 0 42 -5 46 -16z m91 -4 c18 -20 17 -20 -28
-20 -52 0 -54 2 -31 24 21 21 37 20 59 -4z m-2058 -25 c33 -14 35 -17 29 -47
-9 -46 -49 -83 -103 -95 -42 -10 -48 -9 -69 13 -28 27 -30 44 -9 84 28 55 87
72 152 45z m1896 -11 c17 -10 55 -18 83 -19 41 -1 59 -8 85 -29 24 -21 40 -26
60 -22 24 4 33 -1 59 -34 21 -27 40 -40 56 -40 13 0 24 -4 24 -9 0 -5 -36 -63
-80 -129 -188 -281 -445 -450 -736 -483 -150 -17 -314 5 -389 51 -111 69 -152
179 -103 277 34 68 82 91 236 114 269 40 410 104 585 266 44 40 82 73 84 73 2
0 18 -7 36 -16z m266 2 c10 -12 8 -17 -8 -25 -41 -23 -97 -1 -69 27 17 17 63
15 77 -2z m2136 -23 c19 -20 35 -44 35 -53 0 -9 -6 -5 -13 10 -7 14 -23 26
-35 28 -12 2 -22 7 -22 12 0 5 -3 15 -6 24 -10 26 4 19 41 -21z m-4105 -18
c16 -19 6 -59 -21 -86 -18 -18 -23 -19 -42 -6 -12 8 -26 27 -32 42 -8 23 -6
30 14 46 28 23 64 25 81 4z m2050 -20 c29 -15 39 -38 22 -49 -11 -6 -82 41
-82 54 0 15 27 12 60 -5z m-1095 -150 l34 -70 -67 -16 c-122 -29 -159 -53
-219 -140 -33 -47 -49 -59 -83 -59 -36 0 -33 22 6 55 43 37 42 57 -3 28 -32
-20 -32 -19 50 81 64 78 68 104 7 36 -22 -24 -40 -40 -40 -35 0 6 -12 -13 -26
-40 -15 -28 -31 -54 -36 -60 -18 -18 3 37 36 95 17 30 38 68 47 84 13 25 22
30 60 32 38 2 49 8 82 44 34 39 45 72 38 115 -5 29 86 -90 114 -150z m2955
140 c0 -2 -9 -9 -20 -15 -16 -9 -20 -8 -20 5 0 8 9 15 20 15 11 0 20 -2 20 -5z
m-3295 -89 c14 -28 14 -33 -11 -84 -31 -64 -71 -92 -131 -92 -52 0 -74 27 -75
91 -1 67 -6 78 -31 72 -21 -5 -21 -5 -4 13 16 16 19 17 27 4 4 -8 19 -28 32
-43 21 -24 28 -26 50 -18 33 12 78 67 85 104 l6 30 19 -24 c10 -13 25 -37 33
-53z m-1188 58 c-3 -3 -12 -4 -19 -1 -8 3 -5 6 6 6 11 1 17 -2 13 -5z m702
-18 c8 -8 16 -34 18 -58 2 -24 7 -65 12 -91 7 -45 6 -50 -16 -64 -33 -22 -138
-12 -165 15 -21 21 -40 86 -31 109 3 8 16 19 29 24 13 4 24 16 24 26 0 9 10
28 23 41 18 19 29 23 56 18 19 -3 41 -12 50 -20z m99 12 c21 -21 13 -45 -17
-58 -36 -14 -48 -8 -47 22 3 45 36 64 64 36z m3980 -13 c-3 -3 -9 2 -12 12 -6
14 -5 15 5 6 7 -7 10 -15 7 -18z m-4604 -14 c13 -24 13 -31 2 -40 -17 -14 -76
5 -76 25 0 10 40 40 57 44 1 0 9 -13 17 -29z m269 1 c9 -10 20 -34 24 -52 l6
-35 -26 18 c-14 9 -33 17 -41 17 -9 0 -20 9 -26 21 -9 17 -8 23 7 35 24 18 37
17 56 -4z m3986 -31 c18 -15 19 -20 7 -30 -21 -18 -59 23 -39 42 8 9 7 10 32
-12z m-4090 -18 c11 -23 10 -29 -5 -40 -25 -18 -58 -16 -78 5 -15 18 -15 20 1
34 40 35 67 35 82 1z m-249 2 c36 -19 37 -25 4 -48 -29 -22 -73 -19 -88 6 -9
15 -7 22 13 38 28 23 34 23 71 4z m-143 -57 c-2 -13 -4 -3 -4 22 0 25 2 35 4
23 2 -13 2 -33 0 -45z m960 30 c29 -27 30 -71 3 -98 -22 -22 -97 -28 -130 -10
-27 15 -37 86 -14 111 25 28 110 27 141 -3z m-682 -24 c18 -8 36 -22 39 -30 5
-13 -17 -84 -26 -84 -2 0 -18 -4 -36 -9 -27 -8 -36 -7 -53 10 -25 25 -24 53 2
95 24 39 29 40 74 18z m269 -57 c10 -29 25 -60 33 -69 19 -22 9 -54 -20 -62
-34 -9 -115 -7 -121 3 -3 5 9 14 27 21 17 7 41 16 52 20 11 5 27 10 35 12 8 3
10 7 4 11 -6 3 -23 -1 -38 -9 -16 -7 -39 -14 -51 -14 -13 0 -30 -7 -39 -15
-20 -21 -30 -19 -65 11 -34 28 -37 40 -20 77 19 42 42 51 169 64 11 1 22 -16
34 -50z m-579 -7 c3 -5 1 -10 -4 -10 -6 0 -11 5 -11 10 0 6 2 10 4 10 3 0 8
-4 11 -10z m75 0 c-8 -5 -19 -10 -25 -10 -5 0 -3 5 5 10 8 5 20 10 25 10 6 0
3 -5 -5 -10z m2640 -44 c0 -28 -4 -35 -26 -40 -37 -10 -40 -1 -13 39 30 44 39
44 39 1z m-2533 -8 c-3 -8 -6 -5 -6 6 -1 11 2 17 5 13 3 -3 4 -12 1 -19z m766
-17 c10 -10 20 -33 24 -53 4 -30 1 -41 -20 -62 -47 -46 -115 -27 -143 40 -19
46 -18 61 10 89 22 21 27 23 67 13 24 -6 52 -18 62 -27z m-873 -6 c0 -7 -4
-15 -10 -17 -5 -1 -20 -23 -32 -48 -20 -39 -27 -45 -52 -43 -16 1 -34 8 -40
14 -8 9 -8 10 1 5 8 -4 10 5 6 34 l-6 40 54 -3 c49 -2 54 0 57 21 4 23 22 21
22 -3z m702 -30 c-3 -21 -10 -36 -21 -39 -79 -21 -102 -14 -93 30 5 29 31 42
82 43 35 1 36 0 32 -34z m-875 0 c2 -6 -15 -9 -42 -7 -30 3 -45 0 -45 -8 0 -6
-4 -8 -10 -5 -5 3 -10 13 -10 21 0 12 11 14 52 12 28 -2 53 -8 55 -13z m33 5
c0 -5 -4 -10 -10 -10 -5 0 -10 5 -10 10 0 6 5 10 10 10 6 0 10 -4 10 -10z
m468 -21 c31 -18 63 -37 71 -43 8 -6 16 -10 18 -8 1 1 22 2 46 2 l42 0 -42
-24 c-23 -13 -66 -33 -95 -44 -57 -21 -215 -49 -224 -39 -18 18 89 187 119
187 4 0 34 -14 65 -31z m693 -16 c-16 -12 -51 -18 -51 -8 0 3 5 13 11 24 10
14 16 16 34 7 21 -9 21 -12 6 -23z m1588 -7 c-2 -2 -26 -6 -54 -10 -34 -4 -45
-3 -35 4 14 9 99 15 89 6z m-2505 -70 c-18 -38 -44 -49 -44 -18 0 14 2 14 9 3
7 -12 13 -7 27 22 10 20 19 35 21 33 2 -2 -4 -20 -13 -40z m1023 22 c24 -28
53 -99 53 -132 0 -19 -10 -29 -43 -45 -58 -28 -108 -27 -135 2 -22 23 -44 100
-35 123 8 22 89 66 134 73 3 1 15 -9 26 -21z m1672 -52 c71 -66 73 -68 199
-201 84 -89 219 -256 230 -285 3 -8 23 -37 45 -65 136 -176 277 -380 277 -401
0 -8 -7 -31 -17 -52 -18 -40 -20 -47 -22 -63 0 -5 -5 -7 -11 -4 -5 3 -10 1
-10 -6 0 -14 -50 -59 -65 -59 -14 0 -46 55 -37 64 4 4 -1 13 -11 20 -9 7 -48
61 -87 120 -39 58 -73 106 -76 106 -4 0 0 -10 8 -22 38 -60 88 -146 88 -152 0
-3 21 -38 47 -77 l47 -71 -27 -22 c-15 -12 -27 -25 -27 -30 0 -4 12 2 27 13
25 20 27 20 45 4 14 -13 18 -13 13 -2 -3 9 14 34 44 66 55 57 96 127 87 149
-12 30 13 12 29 -22 19 -41 15 -70 -21 -131 -31 -53 -112 -112 -126 -92 -6 10
-7 6 -2 -11 6 -22 5 -23 -10 -11 -14 12 -18 12 -29 -1 -7 -9 -29 -27 -50 -41
-23 -14 -34 -28 -28 -32 6 -3 18 1 27 10 9 8 30 23 46 31 28 14 32 14 46 0 15
-14 13 -19 -18 -52 -90 -93 -173 -125 -341 -130 -103 -3 -107 -2 -113 19 -10
39 -7 44 39 61 53 21 74 43 29 32 -16 -5 -36 -9 -44 -11 -8 -2 -21 -5 -29 -7
-9 -2 -18 13 -27 47 -7 27 -20 66 -28 85 -8 19 -34 81 -57 137 -23 57 -44 101
-46 100 -1 -2 8 -30 21 -63 13 -32 43 -117 66 -189 24 -71 47 -139 51 -150 27
-70 22 -75 -71 -94 -162 -32 -198 -41 -230 -56 -34 -16 -34 -16 -5 -10 42 7
142 24 194 32 35 5 43 3 39 -8 -10 -30 -189 -109 -248 -109 -15 0 -30 -3 -34
-7 -11 -11 -108 -2 -145 13 -18 8 -42 14 -52 14 -20 0 -35 39 -26 65 4 8 2 17
-2 20 -5 2 -12 22 -15 42 -12 67 -50 223 -53 219 -2 -2 9 -72 23 -157 37 -207
37 -199 -11 -217 -57 -21 -191 -21 -232 1 -31 16 -32 20 -31 70 2 52 -20 379
-27 407 -2 8 -1 -77 2 -190 3 -113 7 -207 9 -209 2 -2 -1 -10 -7 -18 -9 -9 -8
-13 0 -13 23 0 10 -47 -21 -77 -65 -62 -112 -78 -223 -78 -110 0 -163 17 -219
70 -26 24 -39 28 -107 31 -59 2 -91 10 -129 29 l-51 26 6 52 c10 86 27 181 35
192 9 12 40 147 39 172 0 23 -66 -205 -79 -276 -14 -82 -19 -84 -131 -79 -109
5 -166 27 -253 95 l-48 37 6 55 c6 58 30 146 45 165 5 6 12 22 16 34 7 23 7
24 -12 5 -10 -10 -24 -36 -30 -58 -27 -87 -28 -92 -31 -122 -3 -21 -26 -15
-69 16 -50 37 -83 81 -89 123 -5 29 8 52 98 188 98 148 194 259 208 243 4 -5
13 -36 20 -70 10 -49 17 -63 30 -63 18 0 172 186 202 243 l15 29 22 -77 c13
-42 36 -136 51 -208 36 -164 48 -209 49 -181 1 17 9 23 41 28 44 7 44 7 40
116 l-1 55 36 11 c31 10 37 9 42 -5 22 -61 54 -122 67 -127 17 -6 96 32 96 47
0 5 -11 36 -25 69 -14 33 -25 64 -25 69 0 13 53 21 67 9 14 -11 33 -2 33 16 0
6 -13 33 -30 59 -16 26 -30 50 -30 52 0 3 43 -29 96 -70 53 -41 102 -75 109
-75 17 0 85 76 85 95 0 19 -23 42 -92 93 -56 41 -138 127 -138 145 0 5 6 4 14
-2 8 -7 56 -13 116 -14 l102 -2 24 30 25 30 40 -44 c21 -24 42 -41 45 -38 14
14 -10 63 -49 100 -102 96 -156 151 -151 156 2 3 41 15 87 28 97 28 202 77
295 139 37 25 70 47 73 50 3 2 23 -30 44 -72 21 -41 40 -73 42 -70 2 2 -7 30
-20 62 -42 103 -42 111 -5 134 33 20 93 26 115 12 6 -4 41 -52 78 -107 37 -55
65 -95 63 -90 -2 6 -24 51 -50 102 -25 50 -43 94 -40 97 3 3 0 6 -7 6 -7 0 -9
5 -6 10 8 13 55 13 55 0 0 -6 16 -26 35 -46 43 -43 44 -36 4 22 -30 44 -30 46
-10 51 12 3 21 9 21 13 0 20 48 -8 109 -64z m-2099 53 c0 -5 4 -8 9 -5 4 3 18
-5 30 -18 17 -18 19 -24 7 -23 -8 1 -16 -2 -18 -8 -5 -14 71 -27 120 -21 24 3
52 2 62 -4 38 -20 31 -40 -32 -100 -35 -32 -60 -61 -57 -65 4 -3 30 10 60 30
30 19 58 34 64 32 18 -6 16 -45 -4 -86 -28 -53 -26 -59 4 -23 14 17 25 35 25
41 0 6 5 11 11 11 16 0 -36 -89 -82 -140 -22 -25 -37 -39 -33 -31 5 9 3 12 -5
7 -6 -4 -10 -13 -9 -19 7 -36 -66 -97 -117 -97 -43 0 -89 35 -120 92 -25 45
-29 64 -30 133 -1 46 -8 104 -19 137 -9 32 -16 76 -14 100 l3 42 55 12 c74 15
90 16 90 3z m562 -34 c-2 -14 -10 -25 -18 -25 -8 0 -4 -10 11 -26 26 -28 41
-62 31 -71 -11 -11 -58 29 -71 60 -13 30 -12 34 13 60 32 34 41 34 34 2z
m-1707 -120 c52 -237 171 -430 424 -687 l96 -98 -34 0 c-170 0 -409 164 -494
340 -20 41 -44 104 -53 140 -23 88 -22 244 0 345 22 97 28 108 37 70 3 -17 14
-66 24 -110z m5330 103 c7 -22 22 -40 49 -54 l39 -22 -46 -20 c-25 -11 -52
-30 -59 -41 -16 -26 -36 -27 -45 -3 -10 28 -35 52 -55 52 -10 0 -18 2 -18 4 0
9 106 115 115 116 6 0 15 -15 20 -32z m293 -28 c12 0 22 -4 22 -10 0 -9 -91
-72 -97 -67 -1 2 -6 22 -12 46 l-9 43 36 -6 c20 -3 47 -6 60 -6z m-5108 -20
c0 -13 -7 -20 -18 -20 -24 0 -32 8 -25 26 8 22 43 17 43 -6z m3035 -162 c66
-52 186 -153 266 -224 80 -71 184 -161 232 -201 l86 -72 -10 -36 c-17 -62 -45
-119 -74 -149 l-28 -30 -31 38 c-17 21 -69 94 -116 162 -110 161 -315 436
-404 544 -39 47 -64 80 -56 74 8 -6 69 -53 135 -106z m2153 -27 c4 -144 -19
-258 -76 -365 -37 -70 -144 -197 -157 -185 -3 4 7 45 23 90 42 118 62 250 62
401 0 97 3 128 13 128 7 0 35 15 62 34 32 22 54 31 60 25 6 -6 11 -63 13 -128z
m-5078 89 c0 -13 -28 -25 -38 -16 -3 4 0 11 8 16 20 13 30 12 30 0z m1149 -90
c36 -38 83 -76 104 -85 49 -20 142 -31 133 -16 -4 6 -22 11 -39 12 -32 0 -32
0 -7 11 18 7 21 12 10 15 -28 9 -82 35 -78 38 2 2 35 -3 73 -11 39 -7 91 -13
117 -14 26 0 50 -5 54 -11 5 -9 -4 -10 -31 -5 -24 5 -35 4 -31 -3 4 -5 -6 -12
-21 -14 -16 -3 7 -3 50 0 72 5 78 4 75 -13 -2 -13 6 -20 35 -27 32 -8 40 -6
52 9 7 11 11 21 8 24 -3 3 -8 -1 -10 -8 -3 -6 -9 -10 -14 -6 -11 6 14 34 31
34 19 0 100 -71 115 -100 20 -38 3 -50 -65 -50 -37 0 -78 9 -118 25 -77 31
-87 31 -115 -1 -33 -39 -56 -47 -121 -45 -77 3 -115 19 -168 73 -64 64 -149
238 -117 238 6 0 41 -31 78 -70z m-212 44 c-8 -8 13 -64 24 -64 15 0 48 -76
65 -147 31 -131 11 -209 -77 -311 -20 -23 -45 -59 -55 -80 l-18 -37 -8 55 c-8
54 -26 110 -35 110 -2 0 -18 -13 -35 -30 -40 -41 -84 -40 -117 2 -23 28 -24
34 -13 74 7 25 24 63 39 87 14 23 54 98 88 165 72 143 75 142 85 -23 5 -97 6
-99 20 -70 11 22 15 64 15 153 0 99 3 122 14 122 8 0 12 -3 8 -6z m3767 -102
c6 -21 17 -34 32 -38 13 -3 28 -12 35 -20 9 -11 4 -17 -25 -31 -20 -9 -45 -32
-56 -51 -21 -34 -40 -35 -40 -2 0 10 -19 34 -42 53 l-42 35 36 15 c22 9 43 28
53 47 19 38 36 35 49 -8z m-3574 -128 c0 -8 4 -14 10 -14 17 0 180 -350 180
-387 0 -15 -42 -24 -56 -12 -7 6 -32 68 -55 137 -23 70 -54 161 -70 202 -30
78 -36 105 -19 95 6 -3 10 -13 10 -21z m343 -100 c4 -1 16 -2 27 -3 11 0 55
-33 97 -72 43 -39 95 -83 116 -97 42 -28 45 -40 18 -73 l-20 -24 -33 31 c-18
16 -54 47 -79 67 -26 20 -72 61 -103 92 -31 30 -61 55 -66 55 -6 0 -10 5 -10
11 0 8 4 9 13 0 19 -15 30 -1 14 17 -10 13 -9 14 3 7 8 -6 18 -10 23 -11z
m-827 -36 c-7 -18 -19 -45 -26 -60 -7 -14 -10 -37 -6 -50 6 -24 77 -103 98
-110 9 -3 5 -14 -10 -34 -13 -16 -39 -54 -59 -84 -20 -30 -57 -83 -82 -117
-25 -34 -51 -69 -57 -79 -9 -15 -14 -13 -48 21 -21 21 -34 29 -28 19 6 -10 22
-30 36 -43 20 -19 23 -28 15 -42 -13 -25 -22 -24 -59 8 -44 37 -77 92 -96 162
l-17 60 39 50 c51 64 297 329 307 330 4 1 1 -14 -7 -31z m762 -48 c42 -46 80
-106 72 -114 -3 -2 -16 -7 -30 -11 -26 -6 -42 13 -132 160 -4 7 3 11 21 10 20
0 40 -13 69 -45z m-225 -120 c62 -216 72 -284 40 -278 -19 3 -19 5 -58 212
-15 76 -29 146 -32 155 -4 9 3 5 14 -9 11 -14 27 -50 36 -80z m3251 -29 c-8
-29 -22 -55 -30 -58 -7 -3 -14 -12 -14 -21 0 -8 -3 -13 -6 -9 -9 9 6 48 17 42
5 -4 9 2 9 11 0 18 32 96 37 91 2 -2 -4 -27 -13 -56z m-874 -35 c0 -45 -40
-125 -84 -165 l-26 -24 -19 22 c-19 22 -19 22 5 48 31 33 84 143 84 173 0 22
1 23 20 5 14 -13 20 -31 20 -59z m-2122 -58 c38 -70 41 -78 26 -93 -24 -23
-34 -16 -53 40 -10 28 -28 67 -40 88 -21 37 -27 68 -15 80 9 9 33 -25 82 -115z
m2199 18 c32 -62 -4 -179 -72 -230 -20 -16 -37 -26 -38 -25 -1 2 -13 25 -26
51 l-24 48 25 25 26 25 16 -25 c9 -14 14 -31 10 -38 -4 -7 1 -5 11 4 16 16 16
18 -4 38 -25 25 -28 46 -5 37 8 -3 12 -2 9 4 -10 16 5 50 21 50 11 0 12 5 5
18 -5 9 -7 30 -4 45 4 23 8 25 20 15 8 -6 21 -25 30 -42z m-3335 -154 c7 -41
68 -169 68 -143 0 8 16 -3 35 -23 19 -21 35 -41 35 -45 0 -4 -11 -18 -24 -30
-22 -21 -28 -22 -58 -12 -40 13 -92 64 -107 104 -16 42 -13 124 5 163 21 44
37 39 46 -14z m3173 -146 c-1 -98 -35 -167 -129 -262 -77 -76 -146 -116 -242
-139 -110 -26 -295 -11 -302 25 -2 13 13 15 90 15 51 0 99 4 106 9 6 5 25 6
41 3 16 -4 31 -3 33 1 2 4 20 16 41 26 29 15 40 17 49 8 18 -18 32 -14 17 4
-11 14 -10 18 5 30 11 7 22 11 27 9 4 -3 10 3 14 14 3 10 14 21 24 24 9 2 25
20 34 40 14 29 22 35 44 34 15 -1 28 4 31 12 3 10 0 12 -12 8 -30 -12 -30 22
-1 49 20 19 30 22 40 14 8 -7 15 -7 19 -1 3 5 1 11 -6 13 -9 3 -7 14 6 41 9
21 21 35 25 32 5 -2 8 1 8 8 0 6 3 27 8 45 13 55 30 20 30 -62z m-2962 -106
c10 -21 34 -52 53 -67 96 -78 99 -81 87 -93 -18 -19 -86 -2 -126 31 -38 31
-65 95 -59 142 5 38 24 33 45 -13z m-358 -17 c-8 -48 -26 -75 -70 -109 -37
-28 -104 -41 -150 -30 -38 10 -22 23 35 28 66 7 127 48 155 106 25 52 39 54
30 5z m288 -41 c14 -68 103 -141 175 -142 43 0 73 -16 66 -35 -7 -16 12 -45
28 -45 5 0 6 9 3 20 -10 31 7 24 69 -30 62 -55 68 -58 59 -34 -5 13 -1 15 23
10 75 -15 152 -23 180 -19 35 5 52 -10 34 -32 -18 -22 -99 -45 -180 -51 -87
-7 -176 12 -255 54 -71 39 -167 136 -197 202 -27 59 -41 114 -31 124 13 12 21
5 26 -22z m2302 -221 c3 -5 1 -12 -5 -16 -5 -3 -10 1 -10 9 0 18 6 21 15 7z
m86 -37 c27 -9 49 -20 49 -24 0 -21 -112 -103 -180 -133 -74 -31 -78 -32 -225
-32 -147 0 -151 1 -209 30 -59 30 -87 57 -73 71 4 4 40 -3 81 -16 41 -12 81
-20 90 -17 8 3 28 0 42 -8 32 -16 50 -10 33 11 -16 20 19 19 45 -1 11 -8 25
-15 30 -15 6 0 3 5 -6 11 -28 16 -21 27 20 35 20 4 56 15 80 26 24 10 51 18
60 18 10 0 23 9 30 20 7 11 21 20 32 20 11 0 20 5 20 10 0 14 24 12 81 -6z
m-1622 -137 c17 -4 28 -1 37 11 12 16 14 16 31 -3 11 -11 20 -24 20 -30 2 -16
23 -18 23 -1 0 27 20 28 52 1 38 -32 101 -65 125 -65 10 0 24 -4 32 -9 11 -7
5 -13 -25 -26 -28 -13 -67 -18 -134 -18 -148 0 -258 35 -340 110 -51 45 -51
57 0 49 28 -4 40 -3 40 6 0 6 7 20 17 30 15 17 18 17 57 -15 23 -19 52 -36 65
-40z m706 3 c19 -7 25 -15 20 -29 -3 -11 1 -24 12 -32 11 -9 14 -10 9 -1 -4 7
-4 21 -1 32 9 30 77 28 90 -2 6 -12 17 -24 25 -26 12 -4 11 0 -3 21 l-17 26
38 10 c54 16 58 15 119 -29 31 -22 62 -40 70 -40 24 0 14 -16 -29 -46 -154
-107 -372 -114 -563 -16 l-50 25 72 18 c90 22 115 35 161 81 21 21 16 20 47 8z
m869 -84 c22 -3 34 -16 55 -61 27 -58 27 -95 -3 -153 -13 -26 -38 -91 -55
-144 -47 -140 -108 -208 -189 -208 -65 0 -115 47 -175 165 l-25 51 41 27 c89
57 161 138 222 250 38 69 64 90 99 80 10 -3 24 -6 30 -7z m-224 -38 c0 -4 -33
-41 -74 -82 -72 -73 -129 -116 -153 -116 -7 0 -28 30 -46 67 l-34 67 49 37 50
37 104 -2 c57 0 104 -4 104 -8z m70 7 c0 -26 -64 -126 -109 -171 -81 -81 -138
-119 -156 -104 -8 7 -15 16 -15 19 0 4 35 35 78 69 75 59 124 107 167 165 18
24 35 35 35 22z m-1000 -55 c23 -12 40 -28 40 -38 4 -108 -3 -299 -10 -313
-12 -22 -89 -48 -165 -56 -64 -6 -217 18 -241 37 -16 14 -22 62 -27 220 l-4
125 116 1 c92 1 126 5 166 21 65 27 78 27 125 3z m-295 -431 c61 -12 192 -10
263 5 56 11 63 11 60 -3 -6 -28 -105 -60 -185 -61 -120 0 -233 32 -233 66 0
13 6 15 28 9 15 -4 45 -11 67 -16z m25 -89 c70 -13 208 -7 261 12 16 6 32 8
34 6 7 -7 -7 -48 -15 -43 -4 3 -10 -9 -14 -26 -3 -17 -23 -49 -45 -70 -37 -38
-41 -39 -107 -39 -53 0 -78 6 -109 23 -40 23 -86 80 -104 131 -10 26 -9 28 12
23 12 -3 51 -11 87 -17z m22 -185 c91 -27 172 -15 229 33 l32 26 -7 -54 c-8
-59 -37 -133 -63 -162 -8 -9 -40 -22 -70 -28 -47 -10 -62 -9 -99 5 -24 9 -52
29 -62 43 -25 35 -58 125 -67 182 l-7 45 32 -37 c22 -27 46 -42 82 -53z"/>
<path d="M4578 8973 c7 -3 16 -2 19 1 4 3 -2 6 -13 5 -11 0 -14 -3 -6 -6z"/>
<path d="M4440 8940 c-13 -8 -12 -10 3 -10 9 0 17 5 17 10 0 12 -1 12 -20 0z"/>
<path d="M5180 8600 c0 -22 5 -40 10 -40 6 0 10 18 10 40 0 22 -4 40 -10 40
-5 0 -10 -18 -10 -40z"/>
<path d="M3372 7340 c0 -14 2 -19 5 -12 2 6 2 18 0 25 -3 6 -5 1 -5 -13z"/>
<path d="M3445 7131 c-3 -5 -1 -12 5 -16 5 -3 10 1 10 9 0 18 -6 21 -15 7z"/>
<path d="M6665 8071 c-3 -5 4 -13 16 -16 28 -9 36 1 10 14 -12 7 -22 7 -26 2z"/>
<path d="M6400 8224 c0 -8 5 -12 10 -9 6 4 8 11 5 16 -9 14 -15 11 -15 -7z"/>
<path d="M7193 7454 c27 -14 51 -23 53 -21 6 6 -73 47 -89 47 -7 -1 10 -12 36
-26z"/>
<path d="M5590 7470 c0 -5 7 -10 15 -10 8 0 15 5 15 10 0 6 -7 10 -15 10 -8 0
-15 -4 -15 -10z"/>
<path d="M6010 7476 c0 -2 8 -10 18 -17 15 -13 16 -12 3 4 -13 16 -21 21 -21
13z"/>
<path d="M6940 7382 c0 -12 19 -26 26 -19 2 2 -2 10 -11 17 -9 8 -15 8 -15 2z"/>
<path d="M5380 6754 c-32 -13 -67 -50 -57 -60 2 -2 21 3 42 12 25 10 59 14 96
12 68 -4 79 10 29 34 -42 21 -63 22 -110 2z"/>
<path d="M4827 5654 c-36 -31 -94 -32 -131 -3 -30 24 -51 18 -36 -12 29 -53
137 -64 186 -18 44 41 26 72 -19 33z"/>
<path d="M7360 7086 c0 -8 5 -18 10 -21 6 -3 10 3 10 14 0 12 -4 21 -10 21 -5
0 -10 -6 -10 -14z"/>
<path d="M6396 7013 c-11 -11 -7 -20 9 -20 8 0 15 4 15 8 0 11 -16 20 -24 12z"/>
<path d="M6130 6976 c0 -2 7 -9 15 -16 13 -11 14 -10 9 4 -5 14 -24 23 -24 12z"/>
<path d="M6168 6883 c6 -2 18 -2 25 0 6 3 1 5 -13 5 -14 0 -19 -2 -12 -5z"/>
<path d="M6218 6883 c7 -3 16 -2 19 1 4 3 -2 6 -13 5 -11 0 -14 -3 -6 -6z"/>
<path d="M6565 6719 c-4 -6 -4 -13 -1 -16 3 -4 6 -1 6 5 0 7 5 12 10 12 6 0
10 -7 10 -15 0 -8 5 -15 10 -15 7 0 7 6 0 20 -12 22 -25 26 -35 9z"/>
<path d="M6570 6670 c0 -5 5 -10 10 -10 6 0 10 5 10 10 0 6 -4 10 -10 10 -5 0
-10 -4 -10 -10z"/>
<path d="M6647 6623 c-10 -10 -8 -51 2 -57 13 -9 42 5 38 17 -5 16 -25 20 -30
5 -2 -7 -3 -1 -1 15 4 28 2 32 -9 20z"/>
<path d="M6781 6166 c-13 -15 -7 -36 9 -36 12 0 22 32 12 42 -5 5 -14 2 -21
-6z"/>
<path d="M2118 4913 c7 -3 16 -2 19 1 4 3 -2 6 -13 5 -11 0 -14 -3 -6 -6z"/>
<path d="M7088 6030 c-17 -30 -12 -40 9 -19 8 8 13 5 18 -10 5 -17 15 -21 46
-21 21 0 39 5 39 10 0 6 -18 10 -40 10 -35 0 -40 3 -47 30 l-8 30 -17 -30z"/>
<path d="M7282 5980 c0 -14 2 -19 5 -12 2 6 2 18 0 25 -3 6 -5 1 -5 -13z"/>
<path d="M7341 5431 c-11 -7 -8 -12 13 -26 14 -10 39 -36 56 -58 16 -23 30
-34 30 -25 0 23 -58 98 -76 98 -8 0 -12 5 -9 10 8 12 4 12 -14 1z"/>
<path d="M7485 5270 c-3 -6 1 -7 9 -4 18 7 21 14 7 14 -6 0 -13 -4 -16 -10z"/>
<path d="M7750 5083 c0 -10 4 -14 8 -8 4 6 11 13 16 18 5 4 2 7 -7 7 -10 0
-17 -8 -17 -17z"/>
<path d="M7780 5070 c0 -5 7 -7 15 -4 8 4 15 8 15 10 0 2 -7 4 -15 4 -8 0 -15
-4 -15 -10z"/>
<path d="M7837 5059 c7 -7 15 -10 18 -7 3 3 -2 9 -12 12 -14 6 -15 5 -6 -5z"/>
<path d="M7800 5050 c-9 -6 -10 -10 -3 -10 6 0 15 5 18 10 8 12 4 12 -15 0z"/>
<path d="M7780 5017 c21 -28 50 -41 50 -22 0 8 -8 15 -18 15 -10 0 -24 6 -32
13 -12 10 -12 9 0 -6z"/>
<path d="M6840 5315 c0 -15 18 -40 24 -34 3 3 -1 14 -9 25 -8 10 -14 15 -15 9z"/>
<path d="M6695 5259 c-4 -6 -5 -12 -2 -15 2 -3 7 2 10 11 7 17 1 20 -8 4z"/>
<path d="M6883 5223 c17 -87 109 -238 228 -373 74 -85 251 -260 277 -274 23
-13 -2 19 -130 163 -107 119 -162 192 -306 406 -57 84 -73 103 -69 78z"/>
<path d="M6676 5213 c-6 -14 -5 -15 5 -6 7 7 10 15 7 18 -3 3 -9 -2 -12 -12z"/>
<path d="M6705 5219 c-4 -6 -5 -12 -2 -15 2 -3 7 2 10 11 7 17 1 20 -8 4z"/>
<path d="M3350 5982 c0 -14 7 -17 45 -14 30 3 45 9 45 18 0 10 -13 14 -45 14
-36 0 -45 -3 -45 -18z"/>
<path d="M3031 5464 c0 -11 3 -14 6 -6 3 7 2 16 -1 19 -3 4 -6 -2 -5 -13z"/>
<path d="M3142 5426 c7 -8 15 -12 17 -11 5 6 -10 25 -20 25 -5 0 -4 -6 3 -14z"/>
<path d="M6916 5490 c7 -28 12 -35 18 -29 2 2 -2 15 -10 29 l-15 25 7 -25z"/>
<path d="M2420 4730 c0 -5 5 -10 10 -10 6 0 10 5 10 10 0 6 -4 10 -10 10 -5 0
-10 -4 -10 -10z"/>
<path d="M3295 5060 c3 -5 8 -10 11 -10 2 0 4 5 4 10 0 6 -5 10 -11 10 -5 0
-7 -4 -4 -10z"/>
<path d="M7318 4938 c9 -9 15 -9 24 0 9 9 7 12 -12 12 -19 0 -21 -3 -12 -12z"/>
<path d="M7310 4910 c0 -5 5 -10 10 -10 6 0 10 5 10 10 0 6 -4 10 -10 10 -5 0
-10 -4 -10 -10z"/>
<path d="M2760 4551 c0 -6 4 -13 10 -16 6 -3 7 1 4 9 -7 18 -14 21 -14 7z"/>
<path d="M2751 4404 c0 -11 3 -14 6 -6 3 7 2 16 -1 19 -3 4 -6 -2 -5 -13z"/>
<path d="M2625 4250 c-3 -5 -1 -10 4 -10 6 0 11 5 11 10 0 6 -2 10 -4 10 -3 0
-8 -4 -11 -10z"/>
<path d="M2442 4135 c0 -16 2 -22 5 -12 2 9 2 23 0 30 -3 6 -5 -1 -5 -18z"/>
<path d="M2472 4130 c0 -14 2 -19 5 -12 2 6 2 18 0 25 -3 6 -5 1 -5 -13z"/>
<path d="M3420 4446 c0 -2 7 -9 15 -16 13 -11 14 -10 9 4 -5 14 -24 23 -24 12z"/>
<path d="M2191 3554 c0 -11 3 -14 6 -6 3 7 2 16 -1 19 -3 4 -6 -2 -5 -13z"/>
<path d="M3870 3785 c-7 -9 -11 -18 -8 -20 9 -10 38 7 38 21 0 18 -14 18 -30
-1z"/>
<path d="M3771 2832 c-7 -13 -11 -26 -8 -28 8 -8 29 25 25 38 -3 8 -9 4 -17
-10z"/>
<path d="M4181 2704 c0 -11 3 -14 6 -6 3 7 2 16 -1 19 -3 4 -6 -2 -5 -13z"/>
<path d="M6114 2526 c-5 -14 -9 -14 -22 -4 -13 11 -14 10 -10 -2 5 -17 45 -22
54 -8 4 5 1 15 -5 21 -7 7 -12 6 -17 -7z"/>
<path d="M6036 2494 c-8 -21 -8 -39 1 -30 8 7 15 46 9 46 -2 0 -7 -7 -10 -16z"/>
<path d="M5975 2479 c-4 -6 -5 -12 -2 -15 7 -7 37 7 37 17 0 13 -27 11 -35 -2z"/>
<path d="M5880 2452 c0 -10 36 -9 46 1 4 4 -5 7 -19 7 -15 0 -27 -4 -27 -8z"/>
<path d="M4330 2385 c0 -32 3 -55 7 -52 7 8 5 98 -2 105 -3 3 -5 -21 -5 -53z"/>
<path d="M4334 2296 c-6 -6 -9 -16 -7 -22 2 -6 -6 -15 -19 -19 -22 -6 -21 -7
10 -16 17 -5 32 -15 32 -22 0 -7 5 -5 10 4 13 23 -10 92 -26 75z"/>
<path d="M4120 2285 c0 -8 38 -21 80 -29 29 -5 27 -3 -15 14 -52 21 -65 24
-65 15z"/>
<path d="M5333 2269 c-18 -5 -33 -12 -33 -14 0 -7 64 7 75 16 11 11 1 10 -42
-2z"/>
<path d="M4399 2221 c26 -23 181 -58 181 -41 0 3 -36 14 -80 24 -44 10 -83 23
-86 27 -3 5 -12 9 -21 9 -12 0 -11 -4 6 -19z"/>
<path d="M4776 2228 c-11 -6 -29 -12 -40 -13 -12 -1 -27 -3 -33 -4 -7 0 -13
-9 -13 -18 0 -15 2 -15 9 -4 5 8 17 15 28 16 35 4 73 17 73 26 0 11 -1 11 -24
-3z"/>
<path d="M4638 2193 c7 -3 16 -2 19 1 4 3 -2 6 -13 5 -11 0 -14 -3 -6 -6z"/>
<path d="M3716 3553 c-6 -14 -5 -15 5 -6 7 7 10 15 7 18 -3 3 -9 -2 -12 -12z"/>
<path d="M4408 3543 c6 -2 18 -2 25 0 6 3 1 5 -13 5 -14 0 -19 -2 -12 -5z"/>
<path d="M4671 3504 c0 -11 3 -14 6 -6 3 7 2 16 -1 19 -3 4 -6 -2 -5 -13z"/>
<path d="M4650 3469 c0 -10 63 -38 72 -33 17 11 -16 41 -43 40 -16 -1 -29 -4
-29 -7z"/>
<path d="M3280 2770 c0 -5 6 -10 14 -10 8 0 17 -7 20 -16 4 -9 9 -14 12 -11 8
8 -19 47 -33 47 -7 0 -13 -4 -13 -10z"/>
<path d="M3325 2660 c3 -5 8 -10 11 -10 2 0 4 5 4 10 0 6 -5 10 -11 10 -5 0
-7 -4 -4 -10z"/>
<path d="M5811 2266 c-8 -9 -11 -19 -7 -23 9 -9 29 13 24 27 -2 8 -8 7 -17 -4z"/>
<path d="M5750 2261 c0 -5 5 -13 10 -16 6 -3 10 -2 10 4 0 5 -4 13 -10 16 -5
3 -10 2 -10 -4z"/>
<path d="M5650 2211 c0 -5 5 -13 10 -16 6 -3 10 -2 10 4 0 5 -4 13 -10 16 -5
3 -10 2 -10 -4z"/>
<path d="M5540 2186 c0 -2 8 -10 18 -17 15 -13 16 -12 3 4 -13 16 -21 21 -21
13z"/>
<path d="M4370 2096 c0 -2 7 -7 16 -10 8 -3 12 -2 9 4 -6 10 -25 14 -25 6z"/>
<path d="M5115 2140 c-3 -5 -3 -20 1 -34 8 -35 31 -23 26 14 -4 30 -16 38 -27
20z"/>
<path d="M4852 2108 c5 -15 28 -18 29 -3 0 6 -7 12 -17 13 -10 3 -15 -1 -12
-10z"/>
<path d="M5170 2106 c0 -23 16 -27 17 -5 1 10 -2 19 -8 19 -5 0 -9 -6 -9 -14z"/>
<path d="M5010 2086 c0 -9 5 -16 10 -16 6 0 10 4 10 9 0 6 -4 13 -10 16 -5 3
-10 -1 -10 -9z"/>
<path d="M8035 9174 c-128 -27 -186 -57 -274 -139 -52 -49 -79 -85 -110 -148
-60 -118 -74 -199 -68 -382 8 -236 55 -410 177 -651 88 -175 162 -282 279
-406 150 -159 195 -170 391 -98 308 114 607 295 791 479 151 152 226 295 236
452 9 121 -18 207 -98 315 -135 183 -411 233 -642 118 -27 -13 -52 -24 -56
-24 -4 0 -15 27 -25 61 -58 211 -221 373 -415 415 -63 13 -143 16 -186 8z
m212 -72 c159 -50 290 -197 337 -379 9 -34 16 -77 16 -97 0 -35 20 -50 35 -26
12 20 132 79 203 100 59 18 91 22 162 18 77 -4 98 -9 163 -41 88 -43 156 -112
202 -203 28 -55 30 -66 30 -169 -1 -91 -5 -120 -23 -167 -68 -171 -259 -362
-515 -517 -182 -110 -422 -219 -553 -251 -70 -18 -97 -6 -193 89 -182 179
-315 397 -401 659 -58 177 -74 274 -74 432 1 113 5 148 26 217 52 174 160 290
313 339 61 19 203 17 272 -4z"/>
<path d="M2434 8711 c-16 -10 -47 -38 -67 -61 -33 -39 -38 -42 -54 -29 -78 65
-205 45 -239 -37 -33 -78 14 -173 123 -253 65 -48 142 -91 192 -106 20 -6 33
3 86 57 108 111 165 216 165 305 0 41 -32 106 -62 127 -31 22 -106 20 -144 -3z
m125 -53 c63 -67 16 -206 -111 -330 l-48 -47 -45 19 c-96 41 -189 112 -224
170 -28 47 -27 85 5 117 22 22 32 25 71 20 28 -3 61 -16 88 -36 24 -17 50 -31
58 -31 8 0 22 18 32 40 40 89 128 128 174 78z"/>
<path d="M1369 8007 c-132 -37 -263 -165 -353 -344 -85 -170 -100 -338 -40
-463 17 -36 47 -81 67 -101 l35 -36 -52 -16 c-81 -26 -138 -68 -184 -136 -105
-157 -51 -287 137 -331 53 -12 256 -9 339 6 32 6 32 6 32 -35 0 -32 6 -48 26
-68 23 -23 31 -25 87 -21 110 9 249 82 379 198 44 39 64 50 90 50 18 0 60 14
93 30 68 34 114 45 150 36 20 -5 25 -12 25 -40 0 -56 -63 -112 -85 -76 -3 6
-15 10 -26 10 -32 0 -20 -42 16 -59 26 -13 33 -12 65 5 46 25 85 99 75 144
-16 73 -109 86 -210 31 -95 -52 -118 -48 -41 7 202 145 367 431 369 637 1 81
-21 121 -80 147 -84 37 -215 7 -348 -81 -38 -25 -73 -47 -76 -49 -3 -1 -9 41
-13 95 -21 307 -136 462 -350 470 -46 1 -101 -3 -127 -10z m232 -64 c91 -41
147 -122 174 -249 17 -79 19 -270 5 -419 -5 -55 -13 -142 -16 -193 -6 -73 -11
-95 -23 -99 -51 -18 -121 -54 -148 -77 -17 -14 -35 -26 -40 -26 -4 0 -14 -9
-21 -20 -7 -11 -17 -20 -22 -20 -6 0 -45 27 -87 60 -42 33 -119 84 -172 113
-115 62 -192 134 -229 214 -23 50 -26 71 -26 153 0 85 4 105 37 188 102 259
277 410 463 398 33 -2 80 -12 105 -23z m688 -422 c17 -17 21 -34 21 -82 0
-165 -106 -378 -261 -524 l-74 -69 -10 36 c-14 52 -79 108 -123 108 -19 0 -20
6 -16 78 9 181 15 268 20 287 3 11 37 43 77 71 108 77 113 79 140 53 22 -21
22 -21 1 -15 -19 6 -18 2 9 -28 27 -30 33 -33 40 -19 6 9 5 18 0 22 -6 3 -13
16 -17 29 -4 12 -14 22 -22 22 -13 0 -14 2 -1 14 19 20 70 32 139 35 46 2 61
-2 77 -18z m-1044 -550 c65 -30 159 -96 204 -145 20 -21 22 -28 11 -41 -11
-13 -15 -13 -22 -3 -7 9 -8 6 -5 -10 4 -16 -6 -34 -36 -68 -35 -38 -52 -48
-102 -59 -240 -56 -445 -4 -445 112 0 188 206 300 395 214z m639 -57 c54 -55
22 -143 -82 -227 -118 -95 -243 -167 -290 -167 -36 0 -72 52 -72 104 0 70 141
230 252 285 82 41 153 43 192 5z m-454 -384 c11 -20 10 -22 -5 -17 -9 4 -19 7
-21 7 -2 0 -4 19 -3 43 1 36 2 38 8 16 5 -14 14 -36 21 -49z"/>
<path d="M2153 7475 c0 -22 2 -30 4 -17 2 12 2 30 0 40 -3 9 -5 -1 -4 -23z"/>
<path d="M2132 7415 c0 -16 2 -22 5 -12 2 9 2 23 0 30 -3 6 -5 -1 -5 -18z"/>
<path d="M2008 7008 c-19 -17 -48 -59 -48 -73 0 -12 39 36 40 49 0 5 8 15 18
22 9 7 14 14 11 14 -3 0 -12 -6 -21 -12z"/>
<path d="M1740 6841 c0 -21 13 -41 26 -41 17 0 18 22 2 38 -14 14 -28 16 -28
3z"/>
<path d="M1810 6805 c-10 -11 -10 -19 -2 -27 15 -15 44 -2 40 19 -4 23 -22 27
-38 8z"/>
<path d="M8797 6806 c-76 -28 -135 -91 -208 -220 l-33 -60 -20 30 c-11 16 -52
60 -90 98 -125 124 -273 171 -345 111 -50 -42 -66 -102 -66 -240 1 -175 42
-307 151 -490 30 -50 54 -99 54 -108 0 -38 -38 -13 -97 63 -89 113 -158 144
-229 101 -44 -27 -68 -83 -60 -139 7 -55 30 -92 56 -92 29 0 33 17 11 49 -30
42 -28 105 4 136 44 45 96 27 170 -60 27 -31 45 -58 42 -61 -3 -3 -22 -1 -42
6 -26 9 -40 9 -47 2 -19 -19 10 -40 70 -52 31 -6 69 -13 83 -16 19 -4 39 -23
67 -67 59 -90 105 -139 185 -201 146 -111 280 -154 327 -104 11 12 20 27 20
34 0 23 16 23 92 -1 272 -86 458 -31 458 136 0 32 -8 69 -20 95 -35 72 -141
161 -213 179 -28 7 -37 25 -13 25 26 0 105 81 132 137 79 161 13 451 -137 605
-92 94 -215 137 -302 104z m163 -69 c104 -46 209 -197 244 -350 18 -77 21
-193 6 -202 -5 -3 -10 -16 -10 -28 0 -28 -33 -83 -73 -120 -49 -45 -104 -73
-227 -112 -63 -20 -141 -46 -172 -57 l-58 -20 -81 76 c-45 43 -104 88 -130
102 -27 13 -49 30 -49 36 0 23 113 296 171 411 68 137 104 192 155 237 73 63
127 70 224 27z m-723 -8 c86 -32 229 -152 263 -221 17 -34 17 -33 -91 -295
-61 -147 -64 -153 -95 -159 -18 -3 -35 -12 -38 -20 -10 -25 -22 -15 -63 54
-75 126 -120 263 -130 398 -15 206 36 288 154 243z m201 -745 c96 -48 265
-252 279 -337 7 -43 -19 -95 -51 -103 -14 -3 -38 2 -57 12 -31 16 -32 18 -14
26 17 7 17 8 -4 4 -30 -6 -52 5 -121 62 -126 104 -180 178 -187 260 -5 52 -3
62 16 81 28 28 75 27 139 -5z m637 -98 c125 -33 208 -111 219 -206 4 -39 -28
-103 -61 -121 -77 -41 -387 18 -442 85 -7 8 -14 27 -16 42 -1 15 -9 32 -16 38
-8 6 -26 29 -41 51 -20 28 -24 41 -15 46 14 8 182 65 212 72 39 9 111 7 160
-7z m-325 -332 c0 -3 -7 -12 -15 -20 -16 -17 -18 -14 -9 10 6 15 24 23 24 10z"/>
<path d="M8293 6300 c0 -25 2 -35 4 -22 2 12 2 32 0 45 -2 12 -4 2 -4 -23z"/>
<path d="M8221 6303 c0 -10 4 -27 9 -38 7 -16 9 -13 9 18 1 20 -3 37 -9 37 -5
0 -10 -8 -9 -17z"/>
<path d="M8344 6243 c3 -6 2 -14 -4 -18 -5 -3 -10 -18 -9 -33 l0 -27 11 25 11
25 8 -25 c7 -20 8 -19 4 10 -3 19 -10 39 -17 45 -8 7 -9 6 -4 -2z"/>
<path d="M8410 5889 c-7 -11 -9 -23 -6 -26 8 -9 36 17 36 33 0 21 -18 17 -30
-7z"/>
<path d="M8335 5881 c-9 -16 3 -31 26 -31 14 0 19 6 17 17 -4 20 -33 29 -43
14z"/>
<path d="M1868 6096 c-70 -26 -126 -78 -143 -133 -8 -28 -20 -29 -52 -3 -35
27 -99 43 -142 35 -117 -22 -190 -115 -191 -241 0 -150 134 -288 349 -361 93
-31 229 -43 268 -22 63 34 182 250 209 379 24 117 4 210 -63 286 -56 62 -159
89 -235 60z m158 -55 c141 -86 133 -311 -18 -537 -69 -104 -78 -108 -175 -94
-284 43 -481 216 -442 390 14 62 46 107 95 130 75 37 139 19 209 -57 48 -52
45 -53 64 36 6 29 21 67 33 83 44 63 169 89 234 49z"/>
<path d="M1075 4358 c-11 -6 -30 -20 -42 -30 -17 -16 -25 -18 -41 -9 -12 6
-44 11 -72 11 -46 0 -56 -4 -86 -34 -86 -86 -11 -206 186 -301 85 -40 110 -43
134 -16 32 35 76 180 76 249 0 68 -10 97 -44 124 -24 20 -81 23 -111 6z m95
-57 c32 -60 -19 -272 -67 -279 -43 -6 -200 90 -233 142 -27 45 -26 91 2 110
31 22 58 20 110 -8 l46 -24 31 39 c26 32 38 39 66 39 24 0 38 -6 45 -19z"/>
<path d="M8981 4236 c-13 -7 -30 -24 -37 -37 -16 -29 -18 -129 -3 -184 19 -72
61 -154 81 -161 25 -7 133 43 214 101 113 81 141 170 73 234 -26 24 -105 29
-141 10 -16 -9 -24 -7 -41 9 -43 41 -103 52 -146 28z m97 -54 c9 -9 24 -28 32
-40 l15 -24 50 26 c59 29 101 26 117 -10 25 -54 -38 -122 -171 -189 l-75 -38
-18 23 c-23 29 -58 142 -58 189 0 50 23 81 61 81 16 0 37 -8 47 -18z"/>
<path d="M1537 3588 c-32 -25 -49 -86 -42 -151 7 -54 6 -59 -10 -53 -65 24
-115 8 -115 -39 0 -34 27 -45 109 -45 60 0 72 -3 81 -20 14 -26 4 -43 -20 -35
-24 8 -56 -9 -70 -35 -17 -32 4 -57 66 -77 59 -18 68 -28 79 -85 9 -45 -5 -54
-40 -26 -16 12 -47 23 -75 26 -41 4 -51 1 -79 -24 -32 -29 -55 -93 -45 -125 3
-12 -4 -18 -27 -23 -54 -11 -56 -9 -64 52 -10 91 -22 125 -65 188 -41 61 -102
114 -130 114 -9 0 -42 20 -74 44 -101 79 -222 109 -262 65 -30 -33 -25 -139 9
-206 33 -64 104 -134 174 -170 29 -16 53 -31 53 -34 0 -4 -32 -11 -71 -17
-106 -16 -131 -49 -89 -117 20 -33 72 -74 123 -96 27 -12 27 -12 8 -33 -37
-40 -61 -107 -61 -177 l0 -66 -57 -7 c-119 -14 -188 -74 -199 -173 -5 -35 -2
-58 10 -81 17 -34 67 -76 104 -87 26 -8 28 -18 5 -36 -25 -22 -63 -110 -63
-150 0 -42 34 -98 70 -116 55 -28 165 -7 192 36 12 19 13 18 35 -19 15 -25 36
-43 58 -51 19 -7 35 -17 35 -22 0 -10 -63 -72 -135 -134 -36 -31 -37 -34 -23
-55 24 -37 81 -50 188 -45 105 5 190 31 275 84 l49 32 36 -19 c19 -10 60 -25
91 -35 32 -9 66 -27 78 -41 21 -24 91 -151 91 -165 0 -13 -60 0 -76 16 -9 9
-14 25 -11 35 3 11 1 20 -5 20 -6 0 -8 7 -4 15 3 8 1 15 -4 15 -5 0 -7 7 -4
15 4 9 0 15 -7 16 -39 2 -57 11 -91 48 -26 29 -45 41 -65 41 -42 0 -89 -34
-104 -74 -11 -29 -18 -36 -40 -36 -36 0 -52 -22 -53 -75 -1 -37 4 -49 34 -80
31 -33 39 -36 79 -33 37 3 48 -1 72 -24 47 -48 112 -32 139 32 11 26 17 30 34
24 12 -4 149 -10 306 -11 242 -3 295 -1 354 13 58 14 98 16 248 10 165 -6 183
-5 224 13 38 17 44 24 44 50 0 20 -8 36 -27 50 -28 23 -29 23 5 41 13 6 32 31
43 55 16 35 25 44 53 49 71 14 110 104 67 157 -13 17 -17 33 -13 65 6 57 -28
94 -86 94 -31 0 -42 6 -61 31 -21 29 -27 31 -65 26 -32 -5 -49 -1 -71 13 -47
31 -133 23 -157 -14 -11 -16 -15 -6 -21 59 l-6 61 65 12 c78 15 131 40 185 89
51 46 69 81 69 133 0 52 -13 76 -52 96 -41 21 -106 11 -178 -27 -39 -21 -56
-26 -59 -17 -2 7 -21 30 -43 50 -38 37 -38 38 -23 67 37 72 1 176 -69 199 -43
14 -108 2 -138 -25 -16 -14 -18 -13 -24 13 -25 103 -76 140 -176 129 -70 -8
-73 -1 -23 69 62 87 69 166 18 206 -34 26 -65 25 -116 -4 -23 -14 -60 -28 -82
-32 -53 -9 -93 -29 -132 -67 l-33 -31 0 45 c0 67 26 109 90 144 47 27 55 35
55 60 0 23 -4 30 -20 30 -13 0 -19 -6 -17 -17 4 -23 -16 -32 -34 -17 -12 10
-20 7 -47 -19 -18 -18 -36 -32 -40 -32 -4 0 -7 19 -7 43 0 49 33 93 78 103
108 23 152 51 152 95 0 52 -54 62 -144 29 -63 -24 -104 -54 -116 -84 -7 -20
-8 -20 -15 6 -5 20 -2 34 13 53 26 33 46 116 37 155 -8 38 -51 90 -74 90 -9 0
-25 -6 -34 -12z m59 -63 c7 -19 14 -46 14 -60 0 -33 -26 -95 -40 -95 -16 0
-40 63 -40 104 0 43 19 86 37 86 8 0 21 -16 29 -35z m-138 -171 c30 -21 28
-34 -7 -34 -33 0 -46 13 -37 35 7 19 16 19 44 -1z m379 -1 c6 -18 -38 -53 -69
-53 -24 0 -28 4 -28 29 0 16 6 32 13 35 21 9 80 2 84 -11z m-137 -42 c0 -16
-38 -51 -55 -51 -12 0 -3 25 17 47 26 28 38 29 38 4z m-773 -27 c61 -29 129
-101 144 -153 5 -20 9 -75 7 -124 l-3 -87 -90 58 c-99 64 -166 131 -190 188
-16 38 -21 135 -7 148 12 13 83 -3 139 -30z m651 -96 c3 -14 -3 -18 -25 -18
-35 0 -58 14 -48 29 11 19 69 9 73 -11z m-367 -133 c38 -77 48 -155 25 -190
-9 -14 -21 -25 -26 -25 -6 0 -28 16 -50 36 l-40 36 0 98 c0 61 -6 113 -15 140
-8 23 -15 45 -15 48 0 21 96 -94 121 -143z m789 -35 c22 -22 26 -70 9 -102
-10 -18 -12 -17 -31 22 -12 23 -32 49 -45 58 -24 15 -24 16 -7 29 25 19 51 16
74 -7z m-456 -14 c24 -10 40 -28 60 -67 44 -89 33 -132 -36 -141 -14 -2 -33
-10 -43 -18 -14 -12 -22 -8 -63 33 -45 45 -47 50 -46 102 0 90 49 124 128 91z
m337 -38 c47 -16 68 -45 69 -94 0 -52 -26 -87 -92 -120 -82 -42 -96 -45 -112
-28 -8 8 -13 20 -11 27 3 7 -10 19 -27 27 -52 25 -56 42 -22 96 41 66 77 90
155 103 3 1 21 -4 40 -11z m-785 -114 c21 -10 47 -31 57 -46 18 -23 18 -30 7
-57 -12 -30 -14 -31 -82 -31 -38 0 -84 6 -103 14 -46 20 -125 94 -118 112 14
37 170 42 239 8z m344 -67 l55 -33 1 -73 2 -73 -34 -14 c-121 -51 -241 -9
-260 90 -8 45 1 69 37 106 27 26 37 30 87 30 47 0 67 -6 112 -33z m245 -32
c32 -32 35 -41 35 -91 0 -71 -28 -104 -89 -104 -53 0 -90 32 -100 85 -11 58 4
102 42 125 46 28 72 25 112 -15z m259 -14 c20 -32 -36 -61 -117 -61 -61 0 -55
10 28 44 66 28 81 30 89 17z m192 -35 c31 -36 40 -115 19 -160 -10 -20 -21
-39 -26 -42 -4 -2 -19 17 -33 44 -27 54 -74 98 -112 108 -23 6 -23 7 -8 36 19
36 47 49 99 43 27 -2 47 -12 61 -29z m-971 -83 c32 -58 56 -154 49 -197 -8
-46 -47 -156 -55 -156 -8 0 -33 74 -44 128 -4 18 -9 32 -11 29 -2 -2 2 -34 10
-70 11 -53 11 -70 1 -83 -10 -14 -14 -14 -20 -4 -7 11 -10 9 -15 -5 -6 -17
-12 -13 -52 28 -26 26 -56 66 -67 90 -28 58 -29 153 -1 208 35 67 52 79 119
79 l59 0 27 -47z m794 13 c52 -26 92 -60 110 -93 12 -23 11 -93 -1 -93 -5 0
-8 -9 -8 -20 0 -26 -35 -57 -71 -62 -41 -6 -89 13 -142 57 -72 60 -109 117
-105 162 3 35 6 39 38 44 19 4 31 7 25 9 -17 4 38 18 74 19 18 1 54 -10 80
-23z m426 -37 c15 -15 20 -33 20 -70 0 -43 -4 -54 -28 -75 -23 -19 -39 -24
-87 -24 -55 0 -60 2 -89 37 -34 41 -33 62 3 101 25 28 51 43 91 53 38 9 65 2
90 -22z m-842 -49 c5 -4 1 -24 -7 -45 -24 -58 -19 -65 11 -15 l27 45 7 -35 c9
-44 0 -127 -18 -162 -16 -33 -61 -58 -103 -58 -112 0 -184 136 -115 219 44 52
163 83 198 51z m129 -32 c8 -7 25 -30 38 -51 28 -48 35 -43 15 13 -8 24 -14
44 -12 46 1 2 29 -31 61 -73 53 -70 57 -79 51 -112 -13 -67 -32 -100 -70 -118
-34 -16 -37 -16 -70 1 -52 28 -70 75 -69 182 0 110 16 143 56 112z m507 -69
c19 -26 21 -35 12 -55 -20 -44 -58 -43 -87 2 -10 15 -10 25 1 52 18 41 44 42
74 1z m-881 -101 l32 -57 -48 -22 c-26 -13 -57 -32 -69 -43 l-23 -19 0 24 c0
18 71 182 76 175 0 0 15 -27 32 -58z m1112 34 c41 -20 66 -81 56 -137 -8 -41
-65 -94 -104 -97 -52 -3 -67 3 -133 47 -97 65 -103 97 -34 163 43 41 46 42
112 42 45 0 80 -6 103 -18z m-1449 -59 c28 -26 60 -60 71 -76 l20 -28 -23 -25
c-16 -17 -34 -24 -63 -26 l-41 -1 40 -4 c22 -3 44 -10 48 -16 6 -9 10 -9 14 1
2 6 9 10 14 7 5 -4 -3 -28 -16 -56 -14 -27 -36 -89 -49 -138 -29 -108 -39
-127 -76 -146 -55 -28 -131 -9 -146 37 -29 89 51 202 167 238 l54 17 -76 -5
c-89 -5 -135 7 -179 48 -25 24 -30 36 -30 76 0 87 65 143 168 144 49 0 56 -3
103 -47z m1137 25 c5 -7 13 -34 17 -60 7 -45 6 -48 -16 -48 -12 0 -38 -6 -57
-12 -34 -13 -35 -12 -68 26 -19 22 -34 44 -34 50 0 6 28 20 63 32 78 26 82 27
95 12z m633 2 c23 -13 26 -68 5 -109 -32 -62 -128 -123 -213 -137 -50 -8 -59
3 -39 50 8 19 18 56 22 81 4 27 15 55 28 67 50 48 150 73 197 48z m-821 -80
c4 0 11 -8 14 -17 6 -14 3 -14 -16 3 -32 26 -38 36 -38 59 0 15 5 12 16 -12 9
-18 20 -33 24 -33z m-305 -23 c28 -60 30 -72 13 -61 -7 4 -8 3 -4 -4 4 -7 2
-20 -3 -29 -8 -15 -10 -15 -11 -3 0 16 -32 62 -61 88 -16 14 -15 17 10 38 14
13 27 24 28 24 1 0 14 -24 28 -53z m258 13 c-3 -12 -8 -19 -11 -16 -5 6 5 36
12 36 2 0 2 -9 -1 -20z m-705 -48 c4 -27 -22 -72 -42 -72 -7 0 -21 9 -30 19
-15 16 -16 23 -5 43 16 30 29 39 54 36 12 -2 21 -12 23 -26z m335 -1 c57 -35
75 -97 45 -157 -33 -68 -132 -94 -210 -55 -53 27 -160 154 -134 159 9 2 23 -1
31 -8 10 -8 15 -8 21 1 4 7 -3 19 -17 30 l-24 18 35 14 c19 8 42 17 50 21 33
13 169 -2 203 -23z m447 -58 c-13 -26 -29 -64 -36 -83 -12 -35 -13 -35 -63
-32 -47 4 -54 1 -84 -30 -19 -18 -38 -41 -44 -52 -12 -22 -58 -13 -49 10 3 8
-1 14 -11 14 -13 0 -13 2 -2 16 12 15 11 16 -11 9 -20 -6 -23 -5 -12 6 6 7 12
20 12 28 0 11 -4 10 -15 -5 -22 -30 -18 -10 12 51 22 44 29 52 35 38 5 -14 7
-12 7 10 1 27 12 32 69 30 6 -1 12 3 12 7 0 4 8 10 18 14 9 3 28 10 42 16 13
6 21 8 17 4 -4 -4 2 -14 13 -21 21 -15 58 -9 73 11 5 6 5 0 2 -14 -7 -24 -6
-24 11 -8 14 14 16 21 6 30 -7 7 -12 17 -12 22 0 6 7 3 16 -6 16 -15 15 -20
-6 -65z m252 25 c48 -27 68 -63 75 -132 4 -42 0 -60 -24 -106 -35 -68 -55 -71
-65 -10 -5 30 -16 53 -33 68 -46 39 -93 26 -139 -40 l-16 -23 -25 30 c-17 21
-24 43 -25 73 0 53 18 89 65 131 31 27 43 31 91 31 40 0 68 -7 96 -22z m-1121
-109 c-13 -38 -6 -53 8 -17 10 26 60 68 80 68 17 0 58 -61 76 -115 14 -41 16
-57 6 -90 -22 -81 -83 -145 -137 -145 -86 0 -124 166 -67 292 17 38 30 55 36
49 6 -6 5 -21 -2 -42z m1372 26 c-6 -18 -34 -16 -41 3 -2 7 6 12 22 12 19 0
24 -4 19 -15z m-105 -26 c-18 -24 -24 -27 -26 -14 -6 26 6 45 28 45 20 0 20 0
-2 -31z m93 -41 c27 -50 -14 -206 -62 -236 -37 -24 -46 1 -22 65 6 16 5 16
-10 4 -9 -7 -17 -25 -17 -40 0 -25 -16 -51 -31 -51 -14 0 -31 62 -26 94 9 56
55 139 89 164 41 28 64 28 79 0z m-498 -67 c53 -59 56 -79 17 -114 -30 -27
-38 -29 -93 -25 -50 4 -64 9 -84 32 -29 34 -30 84 -2 120 17 22 28 26 74 26
49 0 55 -3 88 -39z m201 0 c19 -36 8 -83 -26 -111 -31 -26 -41 -25 -77 9 -32
30 -32 30 -15 63 25 51 45 68 75 68 21 0 32 -7 43 -29z m-614 -126 c-24 -122
-91 -206 -211 -263 -74 -36 -183 -56 -249 -47 -79 11 -80 17 -14 83 189 190
222 234 239 310 8 37 11 38 37 15 10 -9 18 -12 18 -7 0 5 21 8 47 6 36 -3 59
3 93 21 l45 24 3 -41 c2 -23 -2 -68 -8 -101z m1125 71 c14 -22 15 -28 1 -60
-10 -25 -21 -36 -35 -36 -12 0 -21 -6 -22 -12 0 -9 -2 -9 -5 -2 -6 15 -54 5
-54 -11 0 -8 16 -23 35 -35 48 -30 56 -66 21 -97 -43 -36 -96 -32 -146 13 -42
38 -52 73 -22 75 16 1 16 2 0 6 -43 11 -14 69 69 137 47 39 62 46 99 46 35 0
47 -5 59 -24z m131 -21 c29 -45 -11 -157 -51 -141 -21 8 -19 -2 10 -36 14 -16
25 -33 25 -37 0 -18 -50 -52 -84 -58 -39 -6 -42 -1 -26 42 7 20 6 34 -6 56 -8
17 -13 37 -10 45 7 17 38 18 55 2 11 -11 11 -9 1 11 -24 46 10 141 50 141 11
0 27 -11 36 -25z m-1028 -56 c49 -82 52 -105 15 -136 l-26 -23 -45 66 c-37 56
-43 72 -39 101 6 38 23 63 41 63 6 0 30 -32 54 -71z m296 -9 c62 -55 69 -142
14 -171 -29 -15 -86 0 -109 30 -24 30 -21 88 6 141 20 38 45 38 89 0z m154 14
c26 -18 55 -70 47 -84 -5 -8 -77 -33 -99 -35 -4 0 -16 20 -26 45 -18 44 -18
45 3 68 24 26 44 28 75 6z m692 -4 c19 -19 18 -40 -2 -66 -5 -7 -2 -17 8 -24
25 -22 46 -69 39 -91 -8 -23 -61 -59 -88 -59 -26 0 -78 55 -71 74 3 9 14 16
24 16 9 0 25 9 35 20 17 19 17 19 -14 7 -47 -18 -58 0 -35 60 30 83 63 104
104 63z m-990 -55 c0 -16 -64 -22 -74 -6 -9 14 5 21 41 21 23 0 33 -5 33 -15z
m-260 -70 c26 -33 43 -68 46 -90 3 -23 29 -73 69 -135 66 -99 78 -130 49 -130
-10 0 -14 5 -10 16 3 8 2 12 -4 9 -5 -3 -18 12 -29 34 -12 22 -25 42 -31 46
-5 3 -19 27 -30 53 -28 64 -70 144 -87 163 -8 9 -15 29 -17 43 -2 15 -8 32
-14 38 -17 17 -15 33 2 19 8 -7 33 -36 56 -66z m743 38 c-8 -24 -24 -43 -34
-43 -14 0 -11 48 4 53 25 11 36 7 30 -10z m-66 -142 c-9 -129 -32 -180 -102
-228 -49 -33 -82 -31 -90 7 -11 49 5 131 36 190 l29 55 -36 -40 c-41 -47 -74
-106 -74 -134 0 -11 -4 -22 -9 -25 -5 -3 -12 -22 -15 -41 -4 -19 -13 -35 -20
-35 -11 0 -12 9 -5 39 13 56 39 131 54 155 7 12 18 39 24 61 18 66 46 90 111
96 19 2 44 12 55 22 19 17 20 17 33 -10 11 -20 13 -49 9 -112z m-423 97 c12
-48 6 -71 -33 -109 -40 -41 -85 -51 -109 -27 -30 30 -3 82 66 128 54 36 68 37
76 8z m-349 -25 c10 -16 29 -40 43 -55 l26 -28 -23 0 c-23 0 -111 36 -111 46
0 11 34 64 41 64 4 0 15 -12 24 -27z m859 -36 c42 -56 20 -182 -43 -244 -30
-30 -108 -60 -133 -50 -7 3 -3 6 9 6 13 1 22 4 20 9 -1 4 1 7 4 7 4 0 16 8 28
19 29 26 50 98 57 199 8 97 18 107 58 54z m-388 -133 l-35 -79 0 65 c1 53 14
135 18 108 1 -4 11 -4 24 1 34 13 32 -6 -7 -95z m-39 74 c-3 -8 -6 -5 -6 6 -1
11 2 17 5 13 3 -3 4 -12 1 -19z m620 8 c7 -6 -112 -131 -139 -147 -16 -8 -17
-7 -8 16 6 15 10 50 10 79 0 29 2 55 4 57 6 6 126 2 133 -5z m195 -3 c31 -28
22 -57 -36 -110 -61 -56 -140 -87 -247 -98 l-64 -6 65 62 c89 85 159 136 197
144 18 3 35 11 38 16 9 14 26 11 47 -8z m-858 -96 c18 -108 20 -157 8 -157
-10 0 -37 93 -48 159 -6 35 11 109 22 99 1 -2 10 -47 18 -101z m-429 3 c9 -17
13 -35 9 -41 -4 -7 6 -8 28 -4 37 6 50 0 66 -31 10 -18 7 -28 -12 -56 -13 -19
-28 -48 -33 -63 -13 -40 -35 -52 -67 -37 -21 9 -26 19 -26 47 0 19 -2 35 -5
35 -2 0 -15 -11 -29 -25 -14 -14 -34 -25 -44 -25 -53 0 -104 89 -66 117 27 20
59 16 93 -13 35 -29 45 -10 11 21 -39 35 -19 105 30 105 23 0 33 -7 45 -30z
m1255 -113 c0 -26 -25 -37 -86 -37 -66 0 -94 15 -47 26 15 3 42 10 58 14 46
13 75 11 75 -3z"/>
<path d="M1318 2213 c6 -2 18 -2 25 0 6 3 1 5 -13 5 -14 0 -19 -2 -12 -5z"/>
<path d="M8635 3578 c-49 -43 -51 -148 -4 -224 19 -31 26 -74 12 -74 -5 0 -17
14 -28 30 -24 36 -113 81 -174 88 -35 4 -47 1 -58 -13 -35 -49 3 -99 86 -115
30 -5 55 -10 57 -10 2 0 19 -14 39 -31 31 -28 35 -36 35 -82 l0 -51 -45 47
c-50 53 -60 56 -68 26 -7 -27 -27 -15 -27 17 0 29 -15 31 -30 4 -18 -34 -2
-58 61 -91 68 -36 89 -67 89 -129 0 -47 -8 -50 -41 -14 -33 35 -65 51 -124 59
-28 4 -63 17 -78 27 -15 11 -45 22 -67 25 -32 5 -43 1 -64 -20 -47 -47 -31
-137 39 -223 20 -24 31 -45 25 -49 -5 -3 -36 -3 -68 1 -89 10 -137 -23 -160
-107 -10 -37 -15 -38 -80 -14 -111 40 -204 -59 -168 -178 l14 -46 -34 -36
c-19 -20 -34 -43 -34 -52 0 -8 -3 -13 -7 -11 -95 48 -132 61 -178 62 -67 1
-102 -21 -111 -70 -21 -111 91 -226 249 -256 l67 -13 0 -67 0 -67 -36 24 c-44
30 -87 32 -137 6 -26 -13 -49 -17 -75 -14 -34 5 -42 1 -65 -26 -20 -24 -34
-31 -61 -31 -58 0 -112 -68 -86 -109 5 -10 0 -26 -16 -50 -28 -41 -30 -61 -9
-101 18 -35 52 -60 82 -60 16 0 23 -6 23 -19 0 -10 18 -39 41 -64 l40 -46 -20
-23 c-23 -24 -26 -40 -11 -68 18 -34 65 -41 240 -34 136 6 182 4 252 -10 72
-14 133 -17 374 -14 159 2 297 7 306 12 13 6 20 0 32 -28 26 -61 90 -73 137
-26 25 25 34 28 50 19 30 -15 74 -2 108 33 58 59 49 143 -18 162 -22 6 -36 18
-42 35 -12 33 -67 71 -104 71 -19 0 -42 -13 -71 -40 -24 -22 -55 -46 -69 -52
-17 -8 -30 -26 -39 -57 -8 -25 -15 -40 -15 -33 -1 7 -5 10 -11 7 -5 -3 -10 -1
-10 6 0 8 -4 8 -16 -1 -13 -12 -14 -10 -3 13 7 15 17 27 22 27 6 0 8 3 5 6 -4
3 -1 15 6 27 30 56 49 76 79 82 18 3 57 18 88 32 l57 26 58 -36 c102 -63 164
-80 289 -81 88 -1 117 3 143 17 50 27 44 58 -21 105 -29 22 -68 56 -86 77
l-33 38 33 14 c42 18 69 41 81 72 l9 24 15 -21 c23 -33 67 -52 121 -52 147 0
191 159 77 281 l-25 26 39 11 c20 6 53 27 71 46 29 29 35 45 39 91 5 67 -9
105 -54 145 -35 30 -117 60 -166 60 -27 0 -28 2 -28 53 0 69 -14 115 -50 168
-33 48 -36 59 -18 59 23 0 108 63 128 95 44 71 8 115 -96 115 -35 0 -64 4 -64
10 0 5 17 18 38 29 62 33 135 94 164 138 34 49 62 154 54 196 -11 56 -32 77
-76 77 -54 0 -135 -32 -195 -78 -27 -21 -66 -44 -85 -52 -19 -8 -58 -38 -87
-67 -59 -60 -89 -128 -99 -227 l-7 -66 -37 0 c-37 0 -37 0 -43 49 -12 100 -55
138 -143 128 -32 -3 -54 -13 -75 -33 l-29 -28 0 45 c0 66 9 89 34 89 37 1 111
43 114 66 4 27 -30 56 -70 59 -21 2 -32 8 -30 17 6 25 36 38 92 38 90 0 132
49 75 86 -24 16 -29 16 -67 0 -23 -8 -43 -14 -45 -13 -2 2 2 18 8 36 22 62 -5
160 -48 180 -31 14 -28 15 -58 -11z m61 -45 c7 -10 14 -31 14 -48 0 -33 -30
-125 -41 -125 -13 0 -33 64 -33 109 -1 56 8 81 30 81 9 0 23 -8 30 -17z m-231
-170 c40 -19 45 -40 13 -52 -42 -15 -88 18 -75 53 8 20 18 20 62 -1z m353 -15
c-2 -18 -11 -24 -35 -26 -38 -4 -43 10 -11 32 32 23 50 20 46 -6z m-229 -44
c12 -15 21 -35 21 -46 0 -17 -5 -15 -39 13 -24 18 -37 37 -34 45 8 22 30 17
52 -12z m859 4 c17 -17 15 -99 -4 -144 -32 -77 -97 -136 -239 -220 l-47 -27 4
104 c5 117 20 159 81 217 35 34 135 81 173 82 11 0 25 -5 32 -12z m-723 -118
c0 -14 -61 -38 -70 -28 -11 11 8 37 28 41 31 6 42 2 42 -13z m409 -50 c-8 -30
-14 -96 -14 -146 l0 -92 -35 -31 c-42 -37 -46 -37 -70 -11 -15 16 -17 31 -12
85 8 85 34 142 93 205 26 28 48 49 50 48 1 -2 -4 -28 -12 -58z m-828 -116 c13
-3 24 -7 24 -9 0 -1 -15 -19 -34 -38 -19 -20 -38 -51 -42 -69 l-7 -33 -13 30
c-20 45 -18 112 4 124 9 6 23 8 30 6 8 -3 25 -8 38 -11z m478 -15 c30 -14 56
-65 56 -108 0 -24 -12 -44 -46 -81 -50 -54 -69 -61 -79 -31 -5 16 -12 19 -39
14 -28 -4 -36 -1 -46 17 -25 47 15 156 68 185 33 17 54 18 86 4z m-293 -61
c38 -21 81 -74 93 -113 4 -15 -6 -34 -40 -70 -36 -40 -51 -49 -72 -46 -70 9
-168 84 -178 136 -6 36 15 87 43 104 32 18 112 13 154 -11z m858 -81 c19 -7
36 -17 38 -23 6 -17 -67 -85 -111 -104 -23 -10 -69 -21 -103 -24 -61 -7 -62
-7 -78 23 -30 60 -14 88 71 121 56 22 133 25 183 7z m-351 -67 c18 -11 40 -37
48 -57 14 -33 14 -40 -1 -80 -24 -62 -61 -83 -148 -83 -43 0 -82 6 -103 16
-31 15 -34 20 -34 60 0 30 4 44 13 44 8 0 22 10 33 21 19 22 19 22 -6 14 -64
-19 -61 4 5 50 42 29 59 34 105 35 38 0 65 -6 88 -20z m-323 -25 c40 -20 55
-51 55 -116 0 -41 -5 -54 -26 -74 -40 -37 -106 -35 -145 4 -24 24 -29 38 -29
76 0 57 12 80 53 105 39 24 50 24 92 5z m-287 -52 c39 -15 72 -30 72 -34 0
-11 -104 -10 -132 2 -27 11 -42 34 -32 50 8 13 11 12 92 -18z m-134 -23 c23
-24 27 -34 17 -37 -30 -12 -94 -79 -117 -125 -27 -53 -45 -55 -69 -7 -31 58
-12 169 33 194 42 24 99 13 136 -25z m995 -62 c41 -44 65 -117 58 -179 -8 -63
-35 -114 -90 -168 -36 -34 -49 -42 -67 -36 -22 7 -23 11 -17 89 l5 81 -16 -67
c-10 -37 -21 -68 -27 -70 -5 -2 -19 15 -30 37 -27 55 -27 198 1 270 22 57 49
75 111 75 35 0 47 -6 72 -32z m-830 16 c17 -4 28 -11 24 -17 -4 -6 2 -8 15 -5
21 6 62 -23 62 -43 0 -24 -31 -80 -67 -120 -58 -65 -118 -99 -174 -99 -71 0
-92 22 -97 102 -4 62 -2 67 28 102 37 41 80 68 125 77 45 9 50 10 84 3z m-458
-39 c43 -18 73 -44 88 -72 17 -33 14 -46 -18 -81 -27 -29 -36 -32 -86 -32 -69
0 -93 12 -111 56 -27 64 13 144 72 144 12 0 37 -7 55 -15z m913 -84 c64 -40
84 -117 46 -179 -68 -112 -224 -87 -244 39 -13 87 -16 139 -7 139 5 0 21 -19
36 -42 18 -30 24 -35 20 -18 -19 71 -18 77 12 92 31 16 77 6 137 -31z m-248
-46 c7 -22 13 -68 13 -103 1 -99 -30 -152 -97 -167 -43 -9 -78 14 -103 68 -33
73 -27 99 40 167 47 47 60 56 63 43 3 -10 -2 -30 -9 -45 -7 -16 -9 -28 -4 -28
16 0 41 43 41 71 0 55 39 51 56 -6z m-485 -48 c9 -32 -22 -77 -51 -77 -20 0
-50 35 -50 58 0 7 11 24 24 37 31 30 66 22 77 -18z m-96 -77 c28 -27 35 -42
35 -72 0 -33 -5 -41 -52 -77 -102 -75 -138 -85 -193 -51 -85 52 -95 155 -22
216 29 25 36 26 114 22 78 -4 85 -6 118 -38z m1015 -109 c0 -3 -4 -12 -9 -19
-6 -11 -20 -7 -65 18 -31 18 -56 34 -56 37 0 3 12 27 26 54 l27 49 38 -66 c22
-37 39 -69 39 -73z m-802 73 c23 -3 42 -8 42 -11 0 -11 -31 -61 -45 -73 -17
-14 -60 -15 -118 -4 -27 6 -28 8 -22 42 3 21 16 51 28 69 l22 32 25 -24 c14
-13 44 -27 68 -31z m1217 26 c46 -22 85 -80 85 -125 0 -88 -138 -150 -258
-116 -18 6 -30 6 -27 1 3 -4 17 -11 32 -15 115 -28 218 -168 179 -243 -28 -54
-92 -66 -147 -29 -30 20 -39 37 -74 143 -22 67 -46 129 -54 138 -8 9 -11 19
-8 23 4 3 2 12 -4 20 -13 15 -5 17 19 5 11 -6 30 -2 52 9 l35 18 -35 1 c-48 1
-78 9 -84 25 -2 7 28 47 67 89 l72 76 54 0 c34 0 70 -8 96 -20z m-1838 -11
c68 -29 93 -55 93 -98 0 -20 9 -56 20 -80 11 -23 17 -47 14 -52 -18 -29 -150
11 -210 64 -134 118 -76 234 83 166z m706 -89 c-4 -32 -2 -40 10 -40 8 0 17
-7 21 -15 9 -24 38 -6 30 19 l-6 21 16 -22 c9 -12 44 -31 79 -42 81 -27 110
-48 104 -72 -3 -11 -1 -17 3 -14 12 7 29 -53 29 -102 l0 -43 -42 0 c-35 0 -48
6 -85 43 -39 38 -48 42 -105 47 -62 5 -62 5 -67 40 -4 19 -19 54 -34 77 l-27
41 36 51 c20 28 38 51 40 51 2 0 1 -18 -2 -40z m377 3 c0 -3 -11 -14 -24 -24
-14 -11 -30 -36 -37 -57 l-12 -37 -10 28 c-7 21 -4 35 12 63 12 19 21 42 21
50 0 12 4 12 25 -2 14 -9 25 -19 25 -21z m262 -39 c50 -25 69 -44 44 -44 -8 0
-18 5 -21 10 -9 15 -22 12 -22 -4 0 -21 46 -39 63 -25 32 26 11 -13 -37 -72
-58 -69 -111 -98 -178 -99 -80 0 -141 62 -141 145 0 51 38 85 121 106 73 20
104 16 171 -17z m172 4 c22 -31 20 -55 -5 -68 -26 -14 -69 11 -69 39 0 53 45
70 74 29z m-912 -59 c22 -24 44 -60 54 -94 l18 -55 -28 -29 -28 -29 -45 34
c-78 60 -139 31 -150 -70 -7 -61 -25 -59 -63 7 -24 42 -30 64 -30 112 0 84 7
101 53 135 37 27 48 30 111 29 69 -1 72 -2 108 -40z m-418 -48 c7 -10 -22 -37
-30 -28 -9 8 3 37 15 37 5 0 12 -4 15 -9z m1282 -6 c4 -8 15 -15 25 -15 10 0
19 -6 19 -13 0 -7 7 -22 15 -33 13 -17 14 -16 5 16 -13 45 -13 53 1 44 27 -16
59 -110 59 -171 0 -146 -76 -204 -164 -124 -64 58 -84 159 -45 227 45 81 72
103 85 69z m-1186 -41 c0 -8 -4 -12 -10 -9 -5 3 -10 10 -10 16 0 5 5 9 10 9 6
0 10 -7 10 -16z m-31 -39 c26 -24 48 -58 66 -102 28 -71 27 -101 -5 -143 l-20
-25 0 24 c0 18 -4 22 -17 16 -50 -22 -64 -13 -94 60 -16 39 -29 86 -29 105 0
36 32 100 50 100 5 0 28 -16 49 -35z m570 -51 c27 -34 27 -68 0 -110 -33 -53
-88 -57 -156 -11 -42 28 -42 52 -1 105 31 40 35 42 84 42 45 0 56 -4 73 -26z
m-267 -11 c50 -54 52 -68 13 -102 -20 -17 -40 -31 -44 -31 -5 0 -23 13 -40 29
-35 33 -41 73 -15 109 21 30 55 28 86 -5z m571 -12 c48 -22 63 -23 165 -9 20
3 26 -5 43 -51 26 -75 51 -109 172 -236 68 -71 101 -112 94 -117 -29 -18 -119
-20 -187 -4 -153 34 -279 128 -314 234 -16 47 -37 215 -27 209 4 -2 28 -13 54
-26z m-1041 -48 c19 -16 53 -48 77 -73 39 -41 42 -48 38 -89 -4 -31 -13 -52
-34 -73 -26 -26 -37 -30 -88 -30 -49 -1 -62 3 -77 22 -10 12 -18 27 -18 32 0
13 60 73 80 80 12 5 13 8 2 19 -10 11 -16 11 -33 1 -17 -11 -24 -10 -45 10
-14 13 -32 36 -40 51 -15 29 -10 47 21 69 24 18 83 8 117 -19z m-180 -53 l19
-55 -32 -27 c-18 -15 -35 -25 -39 -23 -14 8 -40 73 -40 97 0 34 28 70 53 66
15 -2 25 -18 39 -58z m1038 -18 c0 -15 -8 -39 -18 -53 -48 -72 -68 -99 -74
-99 -3 0 -18 14 -33 31 -24 29 -25 33 -10 53 8 11 32 49 52 84 l38 62 23 -26
c12 -14 22 -37 22 -52z m59 -14 c-17 -31 -23 -9 -8 28 9 22 13 25 16 12 2 -9
-1 -27 -8 -40z m-1222 13 c17 -20 43 -86 43 -110 0 -9 -9 -12 -30 -9 -24 4
-30 1 -30 -14 0 -10 6 -18 14 -18 20 0 37 -25 30 -44 -3 -9 -24 -21 -45 -26
-55 -15 -93 3 -97 46 -4 42 38 94 71 87 17 -4 15 0 -10 17 -36 24 -42 50 -17
74 21 22 51 20 71 -3z m703 -6 c14 -17 7 -57 -16 -79 -31 -31 -114 -10 -114
30 0 21 60 64 90 64 15 0 33 -7 40 -15z m163 -14 c28 -47 20 -109 -19 -148 -7
-7 -33 -13 -58 -13 -42 0 -45 2 -56 36 -16 47 -6 81 36 121 44 41 74 42 97 4z
m123 -22 c6 -11 -41 -23 -61 -15 -8 3 -12 11 -9 19 5 14 60 12 70 -4z m-806
-43 c0 -8 -5 -18 -11 -22 -7 -4 -9 -24 -5 -55 l7 -49 -40 0 c-32 0 -44 5 -57
25 -18 27 -12 43 35 93 24 25 71 30 71 8z m295 -17 c0 -15 -7 -25 -17 -27 -13
-3 -18 3 -18 21 0 13 3 27 7 31 13 12 28 -1 28 -25z m172 -44 c18 -3 35 -11
38 -16 18 -28 53 -189 41 -189 -2 0 -15 20 -27 45 -19 37 -81 111 -67 80 2 -5
17 -37 33 -70 46 -95 40 -194 -12 -195 -22 0 -98 66 -120 105 -34 61 -49 227
-24 272 l12 23 47 -24 c26 -13 62 -27 79 -31z m596 31 c-3 -6 -23 -36 -43 -66
-21 -30 -52 -84 -69 -119 -39 -76 -121 -201 -132 -201 -4 0 -11 5 -14 10 -8
12 60 131 96 171 13 14 38 54 54 89 41 88 81 141 100 134 8 -3 12 -11 8 -18z
m-257 -22 c25 -15 57 -42 71 -61 23 -30 25 -36 13 -58 -17 -32 -35 -37 -74
-21 -48 20 -76 61 -76 111 0 37 6 55 17 55 3 0 25 -12 49 -26z m339 -63 c-7
-13 -83 -36 -91 -28 -7 7 13 46 39 75 l21 22 19 -30 c10 -16 16 -34 12 -39z
m-853 -53 c3 -48 11 -103 18 -122 11 -35 65 -99 90 -108 8 -3 12 -8 9 -12 -11
-12 -97 25 -131 57 -65 60 -86 185 -43 251 33 50 49 31 57 -66z m364 -16 c-3
-24 -6 -53 -6 -63 0 -11 -4 -19 -8 -19 -8 0 -62 103 -62 118 0 4 19 8 41 8
l41 1 -6 -45z m-481 -9 c3 -27 8 -64 11 -83 l6 -35 -29 25 c-74 65 -132 124
-127 132 3 4 34 8 69 8 l64 0 6 -47z m-247 25 c39 -10 64 -28 150 -111 56 -55
100 -102 98 -105 -8 -7 -145 27 -210 54 -42 17 -78 41 -111 74 l-49 50 24 25
c27 29 34 29 98 13z m806 -18 c16 -33 12 -54 -30 -177 -19 -55 -41 -73 -30
-25 3 15 13 73 22 130 9 56 18 102 20 102 1 0 9 -14 18 -30z m480 -61 c34 -40
33 -57 -9 -106 -26 -30 -35 -51 -35 -77 0 -43 -33 -71 -73 -60 -22 5 -25 10
-21 34 5 22 2 29 -13 34 -21 7 -43 45 -43 75 0 29 35 54 70 49 21 -3 30 0 30
9 0 28 31 73 49 73 11 0 31 -14 45 -31z m104 -91 c16 -16 15 -43 -3 -78 -26
-50 -101 -53 -123 -5 -25 54 84 125 126 83z m-1351 -35 c29 -9 53 -20 53 -25
0 -12 -92 -10 -129 3 -31 11 -37 19 -24 32 11 11 43 8 100 -10z"/>
<path d="M8510 2780 c0 -5 5 -10 11 -10 5 0 7 5 4 10 -3 6 -8 10 -11 10 -2 0
-4 -4 -4 -10z"/>
<path d="M7890 1871 c0 -5 5 -13 10 -16 6 -3 10 -2 10 4 0 5 -4 13 -10 16 -5
3 -10 2 -10 -4z"/>
</g>
</svg>
